<svg width="230" height="172" viewBox="0 0 230 172" fill="none"
    xmlns="http://www.w3.org/2000/svg">
    <path fill-rule="evenodd" clip-rule="evenodd" d="M226.967 166C218.566 111.621 171.633 70 115.002 70C58.3712 70 11.4379 111.621 3.03697 166H0.00195312C8.42973 109.961 56.7073 67 115.002 67C173.297 67 221.574 109.961 230.002 166H226.967Z" fill="white"/>
    <path fill-rule="evenodd" clip-rule="evenodd" d="M87.9796 170.011C113.74 121.39 100.982 59.9714 55.5757 26.1291C10.1697 -7.71311 -52.3336 -2.38891 -91.5662 36.1908L-93.9996 34.3771C-53.7534 -5.51777 10.6283 -11.1129 57.3685 23.7237C104.109 58.5604 117.144 121.856 90.4131 171.825L87.9796 170.011Z" fill="white"/>
</svg>
