<svg width="320" height="172" viewBox="0 0 320 172" fill="none"
    xmlns="http://www.w3.org/2000/svg">
    <path fill-rule="evenodd" clip-rule="evenodd" d="M3.03503 5.82422C11.436 60.203 58.3693 101.824 115 101.824C171.631 101.824 218.564 60.203 226.965 5.82422H230C221.572 61.8632 173.295 104.824 115 104.824C56.7053 104.824 8.4278 61.8632 1.52588e-05 5.82422H3.03503Z" fill="white"/>
    <path fill-rule="evenodd" clip-rule="evenodd" d="M142.022 1.81339C116.262 50.4343 129.02 111.853 174.426 145.695C219.832 179.537 282.336 174.213 321.568 135.633L324.002 137.447C283.755 177.342 219.374 182.937 172.633 148.1C125.893 113.264 112.858 49.9678 139.589 -0.000336654L142.022 1.81339Z" fill="white"/>
</svg>
