<svg width="353" height="353" viewBox="0 0 353 353" fill="none"
    xmlns="http://www.w3.org/2000/svg">
    <path fill-rule="evenodd" clip-rule="evenodd" d="M175.618 9.3548C168.1 12.1417 165.028 13.5829 165.028 14.3233C165.028 15.3249 167.331 14.9931 175.899 12.7586C181.064 11.4119 182.713 11.3369 187.553 12.2282C195.033 13.6067 200.309 15.9577 204.579 19.816C208.908 23.7263 211.084 28.0744 210.406 31.4605C209.988 33.5538 210.364 34.3287 212.601 35.9825C216.188 38.6344 218.14 42.6162 217.808 46.6051C217.568 49.4874 217.082 50.0857 213.566 51.811C208.863 54.1196 208.271 54.2123 208.271 52.6458C208.271 50.7564 205.254 48.5378 202.685 48.5378C199.921 48.5378 199.896 48.4045 201.738 43.5826C203.02 40.2255 203.415 39.8999 206.123 39.9767C212.411 40.1549 210.818 37.6477 203.994 36.624C191.975 34.822 180.452 29.2852 171.72 21.1176C164.845 14.686 162.072 14.2527 157.439 18.8858C154.88 21.4442 154.438 22.4961 154.438 26.019C154.438 29.0531 153.515 32.0156 150.966 37.1624C145.12 48.9658 144.2 58.4024 148.126 66.3149C149.771 69.6304 149.855 70.2808 148.736 71.0415C141.894 75.6976 140.046 77.3823 138.536 80.3431C136.467 84.3973 136.226 91.467 138.066 94.0942C139.219 95.7392 139.125 96.2405 137.118 99.1933C131.104 108.045 130.179 114.072 133.682 121.596C135.274 125.016 136.627 126.597 138.748 127.519C140.489 128.275 141.011 128.79 140.058 128.811C139.186 128.829 137.499 129.82 136.307 131.012C133.668 133.651 133.422 138.264 135.761 141.302C137.089 143.027 137.285 144.369 136.847 148.752C136.384 153.397 135.537 155.318 130.374 163.415C124.741 172.251 123.583 174.735 125.095 174.735C125.459 174.735 128.059 171.36 130.873 167.234C135.784 160.033 137.671 158.299 137.671 160.983C137.671 163.326 141.02 170.055 143.712 173.122L146.398 176.18L144.635 183.06C142.96 189.598 142.96 191.94 144.636 190.12C145.054 189.667 146.251 186.675 147.298 183.47L149.201 177.643L152.687 178.574C155.904 179.433 156.369 179.32 158.665 177.12C160.033 175.808 161.46 174.735 161.834 174.735C162.21 174.735 161.321 175.741 159.859 176.971C158.399 178.2 156.767 180.527 156.234 182.142C155.506 184.348 154.41 185.415 151.83 186.428C145.268 189.006 142.59 200.084 147.313 205.112C148.966 206.872 149.284 207.948 148.881 210.428C147.452 219.232 155.631 227.584 163.698 225.559C167.171 224.688 166.503 222.39 162.778 222.39C154.809 222.39 149.773 215.428 152.853 208.668C153.757 206.685 153.691 206.21 152.412 205.494C150.543 204.448 148.261 200.152 148.261 197.68C148.261 194.233 150.742 190.878 154.364 189.429C157.298 188.255 158.046 187.432 158.831 184.513C160.185 179.488 163.562 177.071 168.329 177.72C171.643 178.171 172.239 177.973 173.535 175.996C175.468 173.045 179.691 170.928 182.325 171.59C183.878 171.979 184.925 171.548 186.322 169.94C189.09 166.757 192.885 166.178 195.98 168.466C197.397 169.514 199.825 170.323 201.552 170.323C204.953 170.323 208.271 173.523 208.271 176.804C208.271 177.84 209.961 180.187 212.162 182.207C217.198 186.832 218.277 191.236 215.345 195.202C213.623 197.532 213.515 198.142 214.499 199.982C216.097 202.967 215.125 203.368 212.658 200.742C210.631 198.584 210.612 198.437 212.066 195.976C214.138 192.467 213.948 190.327 211.281 187.158C208.231 183.534 205.405 183.637 201.094 187.532C198.247 190.104 197.007 190.62 193.679 190.62C188.587 190.62 184.39 188.864 181.891 185.687C180.279 183.637 179.777 183.419 179.109 184.477C178.66 185.186 178.287 186.877 178.279 188.233C178.271 189.695 177.338 191.628 175.989 192.977C174.004 194.962 173.213 195.185 169.811 194.719C167.666 194.425 165.911 194.366 165.911 194.587C165.911 194.809 166.703 196.29 167.672 197.88C170.039 201.761 169.895 204.947 167.21 208.139L164.979 210.79L168.104 213.174C169.823 214.485 171.486 216.598 171.798 217.871C172.111 219.143 172.92 221.039 173.597 222.084C174.771 223.898 174.665 224.012 171.274 224.585C166.138 225.453 158.868 230.643 147.9 241.273C136.686 252.142 128.481 258.063 117.651 263.101C113.373 265.091 107.392 267.888 104.362 269.317C96.0856 273.22 82.9655 283.285 79.7417 288.204C77.3907 291.792 79.0692 291.685 83.5823 287.958C97.4985 276.469 110.734 270.861 127.171 269.49L134.141 268.909L134.13 273.228C134.1 285.664 125.228 302.456 114.345 310.672C111.652 312.705 109.652 314.697 109.9 315.1C110.921 316.75 116.402 313.514 121.818 308.063C131.029 298.794 136.788 285.941 136.788 274.656V268.997L141.421 269.593C151.25 270.86 155.623 272.457 158.274 275.751C161.378 279.605 162.596 279.751 161.33 276.119C160.753 274.463 160.584 270.6 160.905 266.426C161.395 260.076 161.29 259.406 159.662 258.535C155.671 256.398 155.796 249.674 159.852 248.386C161.365 247.906 162.269 248.286 163.653 249.981C164.88 251.483 165.899 251.983 166.793 251.521C167.521 251.145 170.035 250.387 172.378 249.836C174.722 249.285 178.005 247.906 179.676 246.771C182.363 244.945 183.117 244.815 186.21 245.641C188.699 246.305 191.682 246.289 196.561 245.586C200.331 245.043 203.488 244.67 203.575 244.757C203.662 244.845 203.357 246.699 202.897 248.877C202.297 251.72 202.392 254.103 203.236 257.33L204.41 261.825L202.058 260.937C199.623 260.017 196.798 260.568 196.798 261.963C196.798 262.99 203.636 264.098 205.015 263.294C206.275 262.559 205.55 263.47 195.59 275.132C187.309 284.83 183.189 287.708 177.639 287.676C173.904 287.655 167.873 285.217 166.024 282.981C164.747 281.439 162.381 280.984 162.381 282.281C162.381 283.673 165.928 287.581 167.7 288.145C169.396 288.683 169.383 288.804 167.236 292.466C165.075 296.154 164.373 299.191 165.69 299.145C166.054 299.133 167.648 297.21 169.233 294.873L172.114 290.623L177.176 290.661C180.273 290.683 183.312 290.126 185.007 289.224L187.777 287.751L188.707 291.474C190.603 299.075 190.779 303.951 189.383 310.199C188.624 313.597 187.012 320.745 185.803 326.084C183.505 336.23 183.009 341.09 184.357 340.257C186.171 339.136 197.165 296.968 198.173 287.262C198.739 281.821 198.658 281.224 197.484 282.197C196.751 282.805 195.646 285.692 195.025 288.613C194.406 291.534 193.597 294.11 193.229 294.338C192.861 294.566 192.073 292.718 191.477 290.232C190.394 285.718 190.396 285.711 193.1 283.593C194.588 282.429 198.258 278.428 201.254 274.704C204.249 270.981 208.598 266.228 210.917 264.142C219.725 256.224 220.893 243.571 213.538 235.775C212.15 234.304 211.866 233.445 212.546 232.765C213.224 232.086 215.036 232.635 218.888 234.689C221.853 236.269 224.514 237.328 224.801 237.042C225.583 236.26 222.742 233.448 219.296 231.591C216.28 229.967 216.249 229.891 216.782 225.363C217.382 220.262 216.587 214.448 215.291 214.448C214.828 214.448 214.448 216.606 214.448 219.244C214.448 228.638 211.825 231.252 201.747 231.899C194.419 232.37 190.667 231.094 181.134 224.89C177.179 222.315 175.618 220.761 175.618 219.394C175.618 217.392 173.589 213.839 171.449 212.094C170.359 211.205 170.385 210.761 171.636 208.853C173.209 206.451 173.592 202.794 172.598 199.662C172.125 198.171 172.319 197.68 173.384 197.68C175.714 197.68 178.898 195.119 180.063 192.309C180.663 190.859 181.399 189.806 181.696 189.97C187.941 193.421 191.166 194.313 195.385 193.754C197.862 193.427 200.758 193.14 201.823 193.117C203.247 193.086 203.831 192.457 204.029 190.745C204.425 187.329 207.946 187.005 209.188 190.27C210.35 193.326 209.715 195.033 207.416 195.033C205.066 195.033 205.106 195.206 208.643 200.348C210.304 202.763 212.122 206.128 212.683 207.828C213.762 211.098 216.213 212.077 216.213 209.238C216.213 207.778 217.095 208.062 222.998 211.426C232.606 216.901 233.104 214.756 223.632 208.697C219.451 206.023 219.029 205.445 218.696 201.95C218.481 199.699 218.847 197.093 219.584 195.615C222.262 190.248 218.674 180.633 213.034 178.063C211.539 177.382 210.918 176.379 210.918 174.643C210.918 171.051 207.61 167.716 203.417 167.081C197.517 166.189 197.242 165.355 201.264 160.552C204.474 156.717 205.063 156.369 207.053 157.126C212.888 159.344 226.689 156.818 233.523 152.28C242.027 146.634 250.254 132.706 251.225 122.313L251.768 116.49H261.726C281.743 116.49 294.151 119.444 319.024 130.13C324.545 132.502 321.264 129.692 313.059 125.019C299.519 117.31 280.868 112.96 261.35 112.96H251.557L252.418 110.697C253.975 106.6 253.449 100.236 251.293 97.0691L249.307 94.1542L252.616 90.8651C256.881 86.6256 257.204 81.9634 253.535 77.6021C251.128 74.7428 243.573 70.625 240.703 70.6091C238.728 70.5977 238.694 70.7803 241.806 64.8641C244.797 59.1772 245.06 56.6824 243.071 52.8373C240.955 48.7452 236.629 47.3402 228.366 48.0612L221.508 48.6587V45.923C221.508 42.0956 219.56 37.9593 216.322 34.9146C214.209 32.9273 213.566 31.5682 213.566 29.0901C213.566 23.0274 207.251 15.9903 197.979 11.7217C193.817 9.80664 191.3 9.30361 184.885 9.1077C180.516 8.97356 176.346 9.08475 175.618 9.3548ZM149.527 17.1323C148.039 17.78 143.671 20.8714 139.82 24.0008C130.08 31.9159 129.144 32.4101 122.668 33.0702C111.11 34.2484 105.87 37.3221 97.3634 47.9139C95.7529 49.918 94.7557 50.3028 91.1683 50.3028C82.0079 50.3028 67.0099 56.1202 56.103 63.9039C50.0826 68.199 40.541 77.9454 36.2521 84.1793C32.0999 90.2139 27.6407 100.11 25.4697 108.107C23.8741 113.985 23.5414 117.677 23.4841 130.169C23.4197 143.873 23.6279 145.997 25.8845 154.701C29.6069 169.056 35.5735 181.974 41.8348 189.228L44.8221 192.689L49.1692 189.899C54.0318 186.779 66.145 174.696 66.2677 172.844C66.3109 172.185 66.4274 166.087 66.5254 159.292C66.6825 148.467 66.9904 146.142 69.0105 140.525C74.1281 126.299 85.9192 112.457 100.009 104.135C106.383 100.371 109.084 97.1503 104.964 98.2278C101.013 99.2613 89.4933 106.614 84.1348 111.524C68.7554 125.614 60.0028 147.143 62.5629 164.587C63.1163 168.358 63.0271 170.645 62.2514 172.534C61.1456 175.231 47.7625 187.973 46.0373 187.973C45.5175 187.973 43.9369 186.285 42.524 184.222C39.8642 180.339 35.4473 172.037 36.6466 173.174C37.0208 173.53 40.0089 171.29 43.2856 168.199C46.708 164.971 51.7408 161.349 55.1058 159.692C58.7779 157.884 60.6567 156.496 60.1352 155.974C57.7171 153.556 46.1308 160.118 39.5668 167.622L35.4976 172.274L33.6108 167.231C25.3206 145.074 24.4795 122.765 31.1962 103.147C35.0307 91.9471 38.6463 85.9664 46.7733 77.3753C58.9156 64.5393 73.0815 56.4882 87.9807 53.9528C95.5949 52.6573 96.9557 52.6688 106.893 54.1099C112.782 54.9633 120.23 56.5412 123.444 57.6152C128.845 59.4208 129.253 59.7358 128.846 61.7753C128.603 62.9887 128.42 66.3811 128.439 69.3127C128.477 75.0613 130.877 80.3263 134.295 82.1558C137.112 83.6631 137.236 82.372 134.635 78.6187C131.926 74.7101 130.579 66.0148 132.211 62.9667C132.735 61.9862 135.332 60.4745 138.117 59.5276C147.286 56.4115 145.903 54.0561 136.568 56.8889C132.555 58.1067 132.194 58.0662 128.109 55.9473C125.52 54.6041 119.422 52.9176 112.6 51.6583C106.416 50.5164 101.152 49.3779 100.901 49.1273C100.01 48.236 107.871 40.6535 111.488 38.9159C113.511 37.9434 118.145 36.7723 121.786 36.3134C130.507 35.2129 131.566 34.7081 140.047 27.5961C147.317 21.4989 149.307 20.1919 153.776 18.5725C155.111 18.0898 156.203 17.2867 156.203 16.7899C156.203 15.5402 152.778 15.7167 149.527 17.1323ZM160.969 20.0904C159.181 21.2844 157.968 24.562 157.968 28.2015C157.968 30.5586 157.214 32.9484 155.79 35.1C154.592 36.91 152.831 40.6588 151.878 43.4308C148.492 53.2724 148.462 60.5019 151.785 65.9663L153.439 68.6862L161.44 66.1137C165.84 64.6981 171.166 63.5403 173.275 63.5403C177.437 63.5403 180.131 61.5291 180.667 58.0238C180.991 55.8979 182.367 54.7488 184.614 54.7285C186.227 54.7144 191.811 51.7448 194.467 49.4891C195.369 48.7231 197.067 46.2018 198.242 43.8861C200.577 39.2813 200.792 39.6025 194.239 37.9213C187.83 36.2781 181.69 33.1867 175.476 28.475C170.313 24.5594 169.544 24.2205 169.16 25.6872C168.516 28.1503 166.793 27.7179 166.793 25.0933C166.793 20.5731 163.93 18.1136 160.969 20.0904ZM177.896 35.1847C177.559 35.731 178.718 36.7167 180.645 37.5216C182.478 38.2876 184.835 39.7199 185.883 40.7038C188.936 43.5729 189.558 40.8901 186.539 37.8746C183.816 35.1547 178.866 33.6147 177.896 35.1847ZM174.381 44.2691C172.844 46.4639 173.259 47.6553 175.563 47.6553C177.636 47.6553 179.491 45.4085 178.833 43.6955C178.096 41.7743 175.934 42.0523 174.381 44.2691ZM180.913 52.1163C177.489 55.2607 173.488 57.9964 170.985 58.9036C168.679 59.7403 166.793 60.7207 166.793 61.0834C166.793 62.348 171.058 62.799 173.109 61.7515C175.444 60.5592 187.973 48.5096 187.973 47.4567C187.973 46.0227 186.468 47.0164 180.913 52.1163ZM159.892 50.5525C156.735 54.3579 157.137 60.7957 160.65 62.6763C163.18 64.0301 163.407 63.73 161.962 60.9369C160.277 57.6779 160.273 55.8343 161.945 52.6291C162.67 51.2383 163.263 49.948 163.263 49.7609C163.263 48.9349 160.744 49.5271 159.892 50.5525ZM139.45 64.4731C137.758 65.4165 135.674 66.1878 134.817 66.1878C133.96 66.1878 133.258 66.8153 133.258 67.5813C133.258 68.6932 133.839 68.8494 136.126 68.3543C139.269 67.6739 143.848 64.7829 143.848 63.4803C143.848 62.3163 142.959 62.5166 139.45 64.4731ZM138.995 71.9823C134.303 75.2246 133.492 76.2721 134.966 77.1837C135.974 77.8068 145.249 71.707 145.983 69.9384C146.826 67.906 143.473 68.8865 138.995 71.9823ZM194.151 83.5386C191.544 84.9047 185.876 85.0768 183.6 83.859C182.268 83.1459 181.798 83.4689 180.856 85.7413C180.231 87.2504 178.793 89.5864 177.659 90.9331C175.943 92.9734 175.748 93.7721 176.491 95.7268C176.982 97.0171 177.383 99.4739 177.383 101.186C177.383 105.476 187.871 119.46 194.867 124.501C199.369 127.743 200.308 128.078 203.959 127.74C206.749 127.481 209.317 126.438 212.12 124.426C216.491 121.287 217.887 121.304 216.189 124.479C215.237 126.256 215.522 126.77 219.206 129.918C221.443 131.831 223.273 133.823 223.273 134.346C223.273 134.869 222.279 136.602 221.063 138.195L218.853 141.093L223.791 145.78C226.508 148.357 229.07 150.593 229.488 150.746C230.758 151.215 238.376 143.681 241.418 138.948C245.023 133.34 248.481 125.118 249.284 120.248L249.901 116.504L246.957 117.019C242.513 117.797 235.628 120.081 235.628 120.777C235.628 121.115 236.247 122.275 237.002 123.354C239.928 127.531 235.785 125.295 229.192 119.138C225.555 115.74 222.327 112.96 222.021 112.96C221.715 112.96 221.066 114.008 220.579 115.289C219.352 118.516 218.481 117.206 218.256 111.797C218.152 109.282 217.445 105.471 216.687 103.33C215.372 99.6169 215.391 99.3566 217.084 97.7795C218.061 96.8688 218.87 95.4444 218.883 94.614C218.899 93.5479 219.937 94.1975 222.413 96.8203C224.342 98.8641 225.921 101.392 225.921 102.436C225.921 104.044 225.515 104.277 223.273 103.947C221.817 103.734 220.626 103.886 220.626 104.288C220.626 105.678 226.592 105.076 227.147 103.631C227.845 101.81 226.771 99.9558 222.836 96.1928C221.059 94.494 219.061 91.813 218.396 90.2359C217.474 88.0526 216.641 87.3678 214.907 87.3678C213.653 87.3678 212.4 87.9608 212.122 88.6854C211.795 89.5387 210.872 89.8494 209.503 89.5679C208.34 89.3287 206.386 88.9245 205.16 88.6695C203.934 88.4144 201.452 86.8957 199.644 85.2939C196.632 82.6261 196.172 82.4788 194.151 83.5386ZM193.772 88.7542C192.506 90.0206 191.898 91.7803 192.726 91.7803C192.913 91.7803 194.204 91.1873 195.595 90.4618C196.984 89.7373 198.84 89.1416 199.718 89.1381C200.597 89.1354 201.07 88.7357 200.77 88.2503C199.922 86.8789 195.316 87.2107 193.772 88.7542ZM182.374 96.9244C181.571 97.8122 180.913 99.2436 180.913 100.106C180.913 101.47 181.197 101.404 183.105 99.5948C185.265 97.5457 186.034 95.3103 184.58 95.3103C184.17 95.3103 183.177 96.0366 182.374 96.9244ZM197.289 96.1134C196.575 97.2677 197.6 99.5031 199.106 100.081C200.582 100.648 201.645 98.5967 200.891 96.634C200.332 95.1762 198.07 94.8488 197.289 96.1134ZM190.16 100.164C191.238 107.747 193.477 113.23 196.086 114.681C199.352 116.496 200.346 115.087 197.484 112.701C195.869 111.354 194.562 108.714 193.244 104.135C190.897 95.981 189.266 93.8815 190.16 100.164ZM185.743 105.057C185.031 106.208 186.894 108.548 188.522 108.548C189.844 108.548 190.035 107.701 189.203 105.531C188.595 103.948 186.597 103.674 185.743 105.057ZM204.18 112.785C199.293 121.063 199.267 122.668 204.024 122.668C207.73 122.668 209.707 121.352 210.826 118.142C212.468 113.432 211.538 104.921 209.396 105.063C209.02 105.088 206.673 108.563 204.18 112.785ZM205.781 114.826C204.169 117.29 203.059 119.515 203.313 119.77C203.568 120.024 204.748 119.989 205.936 119.69C208.084 119.151 210.036 115.464 210.036 111.946C210.036 109.294 208.894 110.067 205.781 114.826ZM158.164 116.939C153.259 118.426 148.806 121.869 147.4 125.261C146.58 127.241 145.662 127.995 143.962 128.083C141.977 128.186 141.92 128.258 143.563 128.577C146.17 129.084 147.944 131.28 146.73 132.494C146.082 133.142 145.224 133.112 143.884 132.395C142.349 131.573 141.535 131.649 139.818 132.774C136.95 134.654 136.99 138.067 139.904 139.975C141.133 140.781 142.247 141.286 142.378 141.099C142.509 140.912 143.3 139.667 144.136 138.332C145.619 135.962 148.261 134.995 148.261 136.823C148.261 137.328 147.398 139.412 146.343 141.456C144.237 145.536 143.721 152.899 145.421 154.598C146.19 155.367 147.514 155.385 150.652 154.666C156.016 153.439 158.961 154.589 163.588 159.715C166.782 163.255 166.965 163.756 166.452 167.508C166.149 169.713 165.209 172.309 164.362 173.276C162.892 174.955 162.895 175.008 164.439 174.444C165.327 174.118 166.443 173.853 166.918 173.853C167.392 173.853 167.528 173.445 167.22 172.947C166.913 172.45 169.489 169.014 172.945 165.314C176.402 161.613 180.242 156.857 181.479 154.746C182.716 152.635 183.941 150.908 184.201 150.908C184.462 150.908 184.45 152.286 184.177 153.972C183.591 157.587 179.566 163.686 173.86 169.604C171.608 171.941 170.028 173.853 170.349 173.853C170.669 173.853 171.688 173.004 172.613 171.966C174.512 169.834 179.099 167.675 181.728 167.675C182.693 167.675 184.99 166.647 186.831 165.391C189.437 163.612 190.913 163.203 193.489 163.542C195.309 163.782 196.798 163.649 196.798 163.248C196.798 162.846 198.6 159.831 200.803 156.546L204.808 150.574L202.789 148.558L200.77 146.542L195.5 149.202C189.22 152.372 186.559 152.353 186.85 149.143C186.96 147.929 187.086 144.017 187.13 140.449C187.297 127.011 179.503 118.636 164.587 116.224C163.131 115.988 160.241 116.31 158.164 116.939ZM187.153 126.537C186.972 128.814 189.4 134.37 190.938 135.192C192.386 135.967 193.001 135.779 194.312 134.16C195.194 133.071 195.883 131.529 195.843 130.733C195.805 129.938 195.207 130.578 194.518 132.155C192.605 136.528 190.847 135.667 188.475 129.194C187.782 127.304 187.187 126.108 187.153 126.537ZM160.836 132.403C157.797 133.625 158.473 135.023 162.104 135.023C164.234 135.023 166.064 135.688 167.41 136.953C168.88 138.334 169.735 138.612 170.417 137.93C171.772 136.574 169.897 133.388 167.123 132.333C164.493 131.333 163.47 131.345 160.836 132.403ZM160.625 139.865C159.353 141.398 160.036 143.848 161.736 143.848C163.397 143.848 165.028 142.012 165.028 140.141C165.028 138.191 162.164 138.012 160.625 139.865ZM171.567 143.627C168.407 151.582 167.227 153.779 165.306 155.291C162.818 157.248 162.666 158.85 164.968 158.85C166.649 158.85 170.323 154.658 170.323 152.741C170.323 152.134 171.162 151.967 172.507 152.305C174.279 152.75 174.891 152.414 175.749 150.533C176.578 148.714 176.57 147.98 175.712 147.133C174.847 146.281 174.326 146.425 173.234 147.819C172.207 149.129 171.982 149.202 172.359 148.102C173.345 145.229 174.042 140.318 173.465 140.318C173.144 140.318 172.289 141.807 171.567 143.627ZM177.047 141.031C176.706 141.582 177.083 143.034 177.885 144.257C178.785 145.63 179.135 147.309 178.801 148.641C178.503 149.829 178.63 151.029 179.084 151.309C180.106 151.941 180.542 151.23 181.298 147.703C181.766 145.52 181.446 144.422 179.778 142.483C178.392 140.871 177.454 140.373 177.047 141.031ZM215.718 143.935C215.37 144.498 216.965 146.752 219.411 149.153C222.584 152.269 224.136 153.22 225.322 152.772C226.672 152.262 226.081 151.428 221.629 147.555C218.247 144.613 216.108 143.303 215.718 143.935ZM209.7 150.407C208.428 152.074 207.388 153.663 207.388 153.937C207.388 154.213 210.168 154.438 213.566 154.438C216.963 154.438 219.743 154.245 219.743 154.008C219.743 153.41 213.25 147.431 212.568 147.402C212.261 147.388 210.97 148.741 209.7 150.407ZM151.747 160.291C150.306 164.078 152.928 169.44 156.221 169.44C158.422 169.44 162.381 166.046 162.381 164.159C162.381 161.973 157.471 157.968 154.79 157.968C153.269 157.968 152.368 158.655 151.747 160.291ZM153.262 159.439C151.04 161.66 154.219 166.793 157.817 166.793C160.239 166.793 160.315 165.331 157.932 164.575C156.862 164.235 155.922 162.957 155.616 161.427C155.106 158.882 154.408 158.292 153.262 159.439ZM53.4591 161.388C52.6922 162.631 58.972 172.97 60.4944 172.97C62.4235 172.97 62.059 171.36 59.0797 166.717C55.9062 161.771 54.2145 160.168 53.4591 161.388ZM46.7794 166.572C46.7909 167.656 54.789 177.383 55.6697 177.383C57.5521 177.383 55.5171 173.729 50.8795 168.778C48.285 166.01 46.7662 165.192 46.7794 166.572ZM42.0122 170.173C41.4456 171.09 49.1454 182.678 50.3218 182.678C52.2068 182.678 50.2203 177.702 46.1829 172.308C44.0225 169.422 42.8479 168.821 42.0122 170.173ZM119.422 176.788C115.361 178.288 114.903 179.148 118.167 179.148C121.502 179.148 124.709 177.659 123.965 176.456C123.338 175.442 122.999 175.467 119.422 176.788ZM67.2843 178.486C67.9497 180.52 81.1184 185.538 86.1036 185.656C90.3176 185.757 92.7021 185.069 91.6819 184.05C91.4657 183.834 88.6549 183.236 85.4356 182.721C82.2153 182.207 77.4613 180.8 74.8703 179.593C69.7218 177.197 66.7195 176.758 67.2843 178.486ZM120.959 183.578C119.29 185.004 118.19 186.437 118.515 186.762C119.2 187.447 126.198 182.814 126.198 181.675C126.198 180.2 123.959 181.013 120.959 183.578ZM315.557 184.608C315.356 185.245 314.933 187.355 314.618 189.297C314.303 191.238 312.584 195.796 310.799 199.425C306.126 208.922 300.311 214.276 286.899 221.43C277.392 226.502 271.446 231.145 272.767 232.467C273.42 233.118 297.059 219.595 302.118 215.677C310.098 209.495 317.701 195.988 317.701 187.992C317.701 184.6 316.272 182.344 315.557 184.608ZM124.213 190.143C120.532 194.581 121.312 195.854 125.316 191.944C127.257 190.048 128.846 188.18 128.846 187.794C128.846 186.205 126.487 187.402 124.213 190.143ZM71.4833 189.237C71.4833 190.665 77.621 195.9 81.632 197.894C85.1726 199.654 90.1773 200.476 91.6546 199.541C93.1027 198.625 92.3226 198.096 88.2508 197.234C84.1136 196.358 77.7852 193.095 74.7467 190.271C71.9033 187.628 71.4833 187.494 71.4833 189.237ZM51.8829 189.327C50.3024 190.928 59.0232 203.205 64.3774 206.915C66.6083 208.461 68.669 209.185 70.3025 208.998C72.7549 208.718 72.7205 208.66 68.6178 206.249C64.9033 204.065 59.5995 198.475 54.2745 191.127C53.3038 189.788 52.2271 188.978 51.8829 189.327ZM127.249 195.838C123.449 201.639 123.031 203.635 126.221 200.748C128.971 198.26 131.665 193.468 131.291 191.732C131.054 190.634 129.87 191.836 127.249 195.838ZM133.865 194.15C132.281 197.72 129.774 205.963 130.155 206.345C130.938 207.127 135.12 196.587 134.782 194.686C134.526 193.247 134.319 193.126 133.865 194.15ZM138.206 195.546C137.389 197.676 137.568 206.338 138.44 206.877C139.309 207.413 140.294 202.447 140.309 197.46C140.318 194.081 139.17 193.035 138.206 195.546ZM185.105 195.965C184.255 196.471 183.561 197.66 183.561 198.607C183.561 200.607 184.914 200.909 185.62 199.068C185.886 198.375 187.132 197.679 188.39 197.523C189.647 197.367 190.675 196.842 190.675 196.357C190.675 195.119 186.961 194.859 185.105 195.965ZM266.516 197.306C258.584 198.745 247.542 202.097 240.541 205.193C236.001 207.201 235.512 207.665 236.103 209.404C236.468 210.479 236.944 213.888 237.16 216.98C237.848 226.817 232.953 235.694 224.578 239.802C221.919 241.106 219.743 242.539 219.743 242.986C219.743 243.434 221.507 243.601 223.664 243.358C229.466 242.704 234.012 238.684 237.941 230.733C241.078 224.386 241.161 223.968 240.709 216.727C240.312 210.366 240.456 209.177 241.687 208.673C247.92 206.12 259.596 202.628 266.885 201.14C275.863 199.305 297.844 198.544 300.241 199.985C301.163 200.54 301.164 200.406 300.245 199.271C297.511 195.896 279.943 194.872 266.516 197.306ZM74.1308 200.296C74.1308 200.713 75.3336 202.065 76.8038 203.303C79.5564 205.618 84.1833 206.963 87.0594 206.282C88.594 205.919 88.5852 205.855 86.927 205.216C85.9563 204.843 82.6804 203.412 79.6464 202.037C76.6132 200.662 74.1308 199.879 74.1308 200.296ZM67.9533 200.748C67.9533 202.354 71.3421 205.983 74.655 207.924C77.2195 209.427 79.4072 210.049 81.369 209.835L84.2795 209.517L79.8679 207.507C77.4419 206.402 74.2649 204.604 72.8079 203.512C69.2902 200.875 67.9533 200.113 67.9533 200.748ZM188.657 202.267C187.916 204.278 188.934 205.623 191.197 205.623C192.967 205.623 193.336 205.24 193.109 203.637C192.794 201.424 189.357 200.366 188.657 202.267ZM269.333 206.939C257.589 216.821 256.219 243.084 266.208 266.836C268.497 272.28 274.212 281.461 278.357 286.354C280.716 289.139 280.446 289.138 286.998 286.4C288.115 285.933 288.972 286.534 290.302 288.718L292.098 291.667L289.676 292.17C288.344 292.447 275.052 294.429 260.138 296.574L233.02 300.475L226.474 297.106C222.332 294.975 219.028 293.844 217.476 294.026C213.638 294.477 213.948 296.221 217.961 296.759C219.929 297.023 223.454 298.467 225.793 299.968C228.973 302.009 231.073 302.698 234.112 302.698C239.288 302.698 285.53 295.993 289.215 294.709C291.192 294.019 292.489 294.014 293.752 294.691C294.726 295.212 295.747 295.638 296.021 295.638C297.198 295.638 296.357 291.727 294.314 287.695C293.101 285.301 292.108 283.015 292.108 282.617C292.108 282.218 296.973 277.682 302.919 272.537C324.547 253.821 333.499 244.453 329.756 244.453C328.63 244.453 320.252 251.455 289.173 278.368L281.383 285.113L277.778 279.565C268.82 265.779 264.798 253.346 264.117 237.339C263.565 224.34 264.792 218.582 269.717 211.074C273.412 205.438 273.246 203.647 269.333 206.939ZM180.031 206.707C180.031 208.386 192.268 220.195 194.855 221.013C197.231 221.764 199.446 220.272 199.446 217.922C199.446 215.566 197.74 214.912 196.394 216.753C195.037 218.609 195.41 218.829 185.988 210.627C182.637 207.71 180.031 205.994 180.031 206.707ZM174.813 208.127C173.863 209.902 174.475 213.565 175.722 213.565C176.15 213.565 176.501 212.795 176.501 211.852C176.501 210.91 176.898 209.894 177.383 209.594C178.733 208.76 178.433 206.505 176.973 206.505C176.262 206.505 175.29 207.235 174.813 208.127ZM325.536 209.718C324.749 210.62 321.853 215.794 319.099 221.215C313.19 232.85 308.733 238.876 301.585 244.894C294.665 250.72 293.714 251.649 294.187 252.121C294.819 252.753 301.03 249.312 305.125 246.061C307.188 244.423 310.435 241.006 312.342 238.468C316.604 232.796 327.623 211.338 327.243 209.45C327.008 208.276 326.757 208.316 325.536 209.718ZM201.764 214.227C200.555 225.558 200.301 224.606 204.511 224.521C212.326 224.364 214.24 218.445 208.375 212.579C203.562 207.766 202.423 208.051 201.764 214.227ZM181.09 212.859C179.777 214.172 180.8 216.213 182.773 216.213C183.824 216.213 184.443 215.593 184.443 214.542C184.443 212.57 182.403 211.546 181.09 212.859ZM204.749 214.889C204.731 216.345 204.468 218.465 204.164 219.6C203.685 221.388 203.894 221.623 205.72 221.365C208.485 220.974 208.898 217.439 206.529 214.448L204.78 212.242L204.749 214.889ZM278.457 238.281C273.617 243.132 270.11 247.1 270.662 247.1C272.021 247.1 283.224 237.892 285.775 234.679C286.902 233.258 287.697 231.503 287.54 230.778C287.357 229.933 284.102 232.621 278.457 238.281ZM284.984 242.046C282.764 244.098 279.488 246.886 277.703 248.241C274.336 250.798 273.563 252.395 275.694 252.395C278.626 252.395 290.343 241.671 290.343 238.987C290.343 237.583 288.955 238.376 284.984 242.046ZM288.434 247.973C281.837 252.845 280.682 254.162 283.011 254.157C286.272 254.151 295.638 247.158 295.638 244.729C295.638 242.917 294.725 243.329 288.434 247.973ZM221.508 248.74C221.508 249.237 221.943 249.913 222.475 250.241C223.094 250.624 223.228 252.265 222.848 254.802C222.385 257.892 222.512 258.68 223.425 258.377C225.547 257.672 226.446 253.409 225.009 250.862C223.662 248.473 221.508 247.168 221.508 248.74ZM227.022 254.602C226.974 257.757 227.124 260.338 227.353 260.338C227.582 260.338 228.365 259.048 229.092 257.47L230.412 254.602L229.851 258.132C228.741 265.107 227.305 267.052 219.367 272.335L211.801 277.37L211.814 283.636C211.828 290.179 212.659 292.773 214.394 291.7C215.043 291.299 215.354 288.825 215.241 284.955C215.143 281.595 215.222 278.701 215.417 278.524C215.612 278.349 217.478 277.344 219.562 276.293C228.409 271.831 232.981 264.955 232.981 256.115C232.981 252.967 232.718 252.307 231.629 252.725C230.73 253.07 229.998 252.51 229.445 251.055C228.018 247.305 227.113 248.632 227.022 254.602ZM182.185 251.043C180.547 252.282 180.58 252.341 182.943 252.367C184.301 252.383 186.631 253.025 188.119 253.794C190.163 254.851 191.068 254.944 191.825 254.173C192.576 253.408 192.305 252.725 190.743 251.45C188.264 249.425 184.559 249.248 182.185 251.043ZM180.531 258.508C178.791 260.43 179.208 262.985 181.264 262.985C183.106 262.985 185.463 260.378 185.139 258.696C184.734 256.589 182.356 256.491 180.531 258.508ZM191.218 264.75C189.398 268.391 186.66 272.411 185.132 273.685L182.354 276.001L184.449 276.666C187.251 277.555 190.638 273.782 193.21 266.909C196.361 258.488 195.055 257.073 191.218 264.75ZM335.35 261.441C335.349 262.533 335.805 266.696 336.364 270.693C339.333 291.944 327.242 313.27 306.203 323.89C297.07 328.501 289.035 330.438 279.312 330.373C270.059 330.311 265.21 329.266 243.075 322.556C237.466 320.856 231.61 319.479 230.061 319.497C224.842 319.554 208.868 323.379 208.442 324.673C208.111 325.678 209.007 325.81 213.227 325.376C216.083 325.082 219.261 324.593 220.291 324.287C221.819 323.834 222.269 324.191 222.743 326.231C224.276 332.833 228.046 344.175 228.708 344.175C229.806 344.175 229.672 343.242 227.128 333.087C225.85 327.989 225.022 323.6 225.288 323.334C225.553 323.069 227.889 322.835 230.479 322.814C234.118 322.784 237.422 323.697 245.037 326.839C263.923 334.631 275.254 336.511 291.01 334.464C303.18 332.884 317.999 324.841 326.821 315.028C332.547 308.66 338.591 296.149 340.402 286.915C341.613 280.739 341.688 278.382 340.853 272.653C339.773 265.246 337.766 259.455 336.278 259.455C335.768 259.455 335.35 260.348 335.35 261.441ZM170.464 272.022C169.126 273.361 169.148 278.224 170.5 279.576C171.783 280.859 176.184 280.979 176.942 279.753C177.242 279.267 176.719 278.87 175.778 278.87C173.356 278.87 171.794 276.634 172.434 274.082C173.053 271.617 171.986 270.501 170.464 272.022ZM152.486 275.825C150.847 278.523 149.143 287.141 149.143 292.738C149.143 305.787 155.608 313.177 164.847 310.689C169.291 309.492 175.599 303.936 178.305 298.835C180.589 294.53 180.064 292.164 177.608 295.691C174.643 299.949 169.445 305.065 166.441 306.683C160.005 310.149 153.487 305.638 152.162 296.802C151.832 294.602 152.061 289.321 152.671 285.067C153.714 277.788 153.637 273.932 152.486 275.825ZM54.4042 282.191C53.7547 283.242 60.129 292.99 61.466 292.99C63.3307 292.99 62.923 291.882 59.0797 286.515C55.3635 281.325 55.0935 281.076 54.4042 282.191ZM47.2551 284.271C49.111 287.379 56.8735 295.638 57.9369 295.638C60.2429 295.638 59.0744 293.73 53.7221 288.752C48.2144 283.63 45.9234 282.043 47.2551 284.271ZM48.6812 294.332C53.4273 298.925 55.5983 300.183 55.5983 298.337C55.5983 297.406 45.5528 289.451 44.4135 289.478C44.0128 289.488 45.9331 291.672 48.6812 294.332ZM64.4233 290.354C64.4233 290.846 66.7072 292.302 69.4976 293.591C73.6039 295.487 75.751 295.911 80.7495 295.808C85.9121 295.702 87.903 296.123 92.8706 298.37C98.5425 300.936 102.422 301.457 102.457 299.657C102.466 299.197 100.961 298.34 99.1126 297.751C97.2646 297.164 93.7664 295.634 91.3395 294.353C87.4856 292.319 86.2563 292.092 81.632 292.562C77.524 292.98 75.1686 292.693 71.1241 291.28C65.1999 289.211 64.4233 289.105 64.4233 290.354ZM50.7569 300.913C49.9441 302.227 75.6319 320.995 81.0037 323.009C85.9201 324.855 91.7808 325.345 91.7808 323.912C91.7808 323.445 89.8648 322.495 87.5245 321.8C81.3814 319.975 75.1289 316.62 68.4448 311.561C61.8199 306.546 52.3851 300.05 51.7276 300.05C51.4867 300.05 51.0499 300.439 50.7569 300.913ZM80.3083 306.073C80.3083 308.64 92.725 314.17 98.486 314.17C103.097 314.17 102.793 312.642 97.9759 311.609C94.2897 310.819 90.397 309.412 81.4114 305.622C80.8051 305.366 80.3083 305.569 80.3083 306.073ZM215.935 305.917C215.621 306.231 212.775 306.445 209.611 306.391C204.152 306.298 202.204 307.169 205.254 308.34C208.784 309.694 219.743 307.797 219.743 305.832C219.743 305.152 216.631 305.222 215.935 305.917ZM196.387 307.945C195.222 309.829 203.11 313.288 208.573 313.288C210.713 313.288 213.703 313.04 215.22 312.736C220.215 311.737 218.099 310.64 211.139 310.621C206.313 310.608 203.201 310.103 200.569 308.908C198.516 307.977 196.635 307.543 196.387 307.945ZM75.0133 310.602C75.0133 311.956 80.7177 316.13 84.8717 317.816C89.0194 319.5 96.1933 319.996 96.1933 318.6C96.1933 318.124 95.1016 317.493 93.7664 317.197C88.226 315.973 83.1561 314.027 80.1106 311.959C76.7032 309.643 75.0133 309.194 75.0133 310.602ZM199.446 316.209C199.446 318.238 206.635 320.686 210.474 319.965C214.646 319.183 221.91 316.042 221.197 315.329C220.888 315.021 217.886 315.287 214.527 315.92C208.765 317.008 204.512 316.868 200.99 315.475C199.928 315.055 199.446 315.284 199.446 316.209Z" fill="#1C1C1C"/>
    <path fill-rule="evenodd" clip-rule="evenodd" d="M85.6516 165.93C82.5232 166.367 77.162 167.395 73.7379 168.214C67.7739 169.642 67.4342 169.866 65.6753 173.507C63.718 177.557 64.2563 178.605 67.8145 177.675C68.8029 177.416 71.8643 178.236 74.6186 179.496C78.6366 181.336 87.5066 183.517 91.1187 183.553C91.9668 183.562 91.9562 187.227 91.1055 188.502C89.0387 191.598 82.3837 192.393 77.0834 190.179C72.8651 188.417 72.362 188.536 75.0131 190.671C78.4354 193.428 84.92 196.59 88.5436 197.27C90.486 197.634 92.2174 198.613 92.7805 199.665C93.6056 201.206 93.084 202.094 88.8992 206.278L84.0649 211.113L79.4953 210.132C76.9828 209.594 73.279 209.153 71.2669 209.153C66.6655 209.153 62.2177 206.199 57.499 200.009C53.2983 194.5 51.2862 190.578 51.8475 188.997C52.0787 188.348 50.5987 188.92 48.5593 190.27L44.851 192.724L41.8337 189.245L38.8173 185.767L33.7491 191.179C14.2724 211.983 6.21868 246.4 15.9359 267.303C21.2679 278.774 31.9533 290.974 41.8673 296.91C47.4632 300.261 49.3182 300.682 51.0161 298.984C51.8483 298.152 51.1706 296.994 47.9159 293.689C43.0022 288.7 43.5096 288.235 49.1594 292.549C51.3841 294.248 53.5207 295.638 53.9081 295.638C55.8822 295.638 55.0686 293.743 51.0929 289.084C48.6784 286.256 46.9275 283.717 47.2011 283.443C47.4756 283.169 49.8345 285.054 52.4449 287.632C55.2327 290.385 57.6102 292.059 58.2076 291.69C58.9481 291.232 58.851 290.485 57.852 288.937C57.0975 287.769 55.8637 285.857 55.1092 284.689C52.5279 280.692 55.4172 281.419 58.3515 285.505C60.4298 288.399 61.419 289.184 61.9009 288.323C63.2917 285.838 59.9982 275.21 53.8949 262.488C50.4637 255.335 47.6556 248.366 47.6556 247.001C47.6556 245.346 50.3101 240.549 55.6396 232.573C60.03 226.001 63.8027 220.625 64.0233 220.625C65.1432 220.625 63.7621 223.112 56.4806 234.207C52.1122 240.864 48.5381 246.688 48.5381 247.151C48.5381 247.614 51.0709 253.452 54.1675 260.122C60.2436 273.216 61.5417 276.729 63.0217 284.087C63.9668 288.789 64.0498 288.886 68.3943 290.356C77.2299 293.347 76.4966 293.402 78.9181 289.565C80.1395 287.63 82.044 285.175 83.1506 284.11C87.5675 279.854 99.16 271.77 104.361 269.317C107.392 267.888 113.373 265.091 117.651 263.101C128.536 258.036 136.7 252.131 148.358 240.884C153.886 235.551 160.097 230.102 162.158 228.774C164.221 227.447 165.908 226.163 165.909 225.92C165.91 225.678 163.748 225.479 161.106 225.479C156.822 225.479 155.96 225.149 153.155 222.429C149.59 218.974 148.151 214.923 148.885 210.406C149.283 207.947 148.96 206.866 147.3 205.099C145.766 203.465 145.21 201.846 145.194 198.959C145.181 196.572 144.769 195.037 144.141 195.035C141.696 195.029 140.317 196.252 140.308 198.437C140.291 202.579 139.232 207.366 138.44 206.877C138.017 206.616 137.671 204.241 137.671 201.599C137.671 195.08 135.727 195.155 132.794 201.787C129.981 208.147 129.177 207.5 131.501 200.747C132.765 197.072 133.004 195.312 132.331 194.645C131.661 193.984 131.136 194.149 130.538 195.207C129.041 197.859 125.186 202.093 124.267 202.093C123.441 202.093 124.845 199.265 128.252 194.066C129.184 192.644 129.383 191.49 128.846 190.622C128.183 189.548 127.487 189.853 124.913 192.348C122.819 194.378 121.786 194.93 121.786 194.019C121.786 193.271 122.617 191.907 123.633 190.987C126.489 188.403 127.053 186.806 125.744 185.016C124.618 183.475 124.455 183.491 121.864 185.406C118.151 188.152 117.24 186.745 120.8 183.762C124.673 180.517 123.927 178.54 119.004 179.009C114.808 179.41 114.935 177.865 119.174 176.934C121.683 176.383 121.806 176.161 121.293 173.115C120.365 167.597 120.035 167.005 117.565 166.423C113.39 165.441 91.5723 165.103 85.6516 165.93ZM278.871 199.573C267.8 200.325 258.334 202.535 244.773 207.534L240.239 209.206L240.707 216.698C241.16 223.974 241.08 224.38 237.941 230.733C234.202 238.297 229.509 242.611 224.25 243.317C221.405 243.698 220.918 244.057 221.294 245.493C221.882 247.745 225.285 249.936 227.108 249.237C228.114 248.85 228.803 249.367 229.41 250.965C229.991 252.493 230.722 253.073 231.629 252.725C232.718 252.307 232.981 252.967 232.981 256.115C232.981 264.955 228.408 271.831 219.562 276.293C217.478 277.344 215.612 278.349 215.417 278.524C215.222 278.701 215.143 281.595 215.241 284.955C215.339 288.317 215.019 291.314 214.531 291.615C212.7 292.747 214.52 294.439 217.152 294.053C219.017 293.779 221.723 294.662 226.404 297.07L233.02 300.475L260.138 296.574C275.052 294.429 288.344 292.447 289.676 292.17L292.098 291.667L290.302 288.718C288.972 286.534 288.115 285.933 286.998 286.4C280.446 289.138 280.716 289.139 278.357 286.354C267.176 273.154 260.653 256.452 259.756 238.717C258.991 223.643 262.223 212.922 269.333 206.939C273.246 203.647 273.411 205.438 269.716 211.074C264.792 218.582 263.565 224.34 264.117 237.339C264.797 253.346 268.82 265.779 277.778 279.565L281.383 285.113L289.173 278.368C320.811 250.971 328.572 244.536 330.27 244.29C331.333 244.137 332.771 242.995 333.466 241.753C334.597 239.732 334.522 238.849 332.757 233.369C331.671 230 329.377 224.923 327.657 222.086L324.531 216.928L319.822 225.922C311.729 241.378 306.619 246.669 293.891 252.769C286.933 256.103 280.636 257.007 280.636 254.673C280.636 253.661 280.026 253.588 277.464 254.296C273.456 255.402 272.781 254.72 274.654 251.455L276.141 248.865H273.093C271.225 248.865 270.046 248.434 270.046 247.75C270.046 247.136 273.641 243.073 278.034 238.719C282.428 234.367 285.61 230.667 285.105 230.499C284.601 230.331 281.951 231.217 279.217 232.469C273.286 235.185 272.693 235.241 272.693 233.099C272.693 229.975 276.193 227.029 285.947 221.94C291.332 219.132 297.631 215.325 299.947 213.481C303.866 210.361 309.584 203.341 308.786 202.63C305.205 199.444 295.458 198.447 278.871 199.573ZM197.336 252.524C195.973 254.471 196.234 256.378 197.737 255.45C198.186 255.172 198.954 254.196 199.443 253.282C200.745 250.85 198.959 250.208 197.336 252.524ZM230.333 322.566C230.333 322.791 236.423 327.546 243.867 333.133C256.88 342.901 257.569 343.292 261.738 343.273C267.969 343.246 280.144 340.336 286.813 337.281L292.549 334.653L282.801 335.124C274.195 335.541 271.995 335.323 264.012 333.267C259.038 331.985 250.717 329.203 245.519 327.084C236.742 323.504 230.333 321.598 230.333 322.566Z" fill="#3BA3FB"/>
</svg>
