<svg width="557" height="547" viewBox="0 0 557 547" fill="none" xmlns="http://www.w3.org/2000/svg">
<ellipse cx="278.5" cy="273.5" rx="278.5" ry="273.5" fill="white"/>
<path fill-rule="evenodd" clip-rule="evenodd" d="M425.367 92.747C419.617 101.478 418.221 105.5 420.939 105.5C422.534 105.5 435.001 87.712 435.001 85.436C435.001 84.646 434.129 84 433.064 84C431.735 84 429.32 86.744 425.367 92.747ZM444.066 103.195C440.63 105.502 435.947 109.065 433.66 111.111C430.048 114.343 429.739 114.926 431.315 115.548C433.768 116.515 453.001 103.457 453.001 100.824C453.001 98.046 450.908 98.601 444.066 103.195ZM366.99 102.811C349.305 108.667 336.02 124.19 332.844 142.711C328.277 169.344 347.426 194.865 375.194 199.153C392.609 201.842 410.185 194.518 421.065 180.038C427.97 170.848 430.971 161.744 430.989 149.932C431.019 130.612 420.215 113.752 402.375 105.28C395.156 101.852 393.945 101.595 383.58 101.301C374.898 101.054 371.309 101.381 366.99 102.811ZM374.001 106.108C348.349 110.504 331.934 136.125 338.534 161.465C340.738 169.928 344.493 176.211 351.128 182.54C368.39 199.005 395.622 198.735 412.786 181.928C422.67 172.249 426.47 162.249 425.827 147.606C425.493 140.007 424.91 137.394 422.3 131.82C413.578 113.194 393.872 102.703 374.001 106.108ZM453.001 128.095C438.626 130.894 438.001 131.102 438.001 133.071C438.001 135.495 438.955 135.488 451.874 132.98C463.361 130.75 464.001 130.51 464.001 128.441C464.001 126.806 460.233 126.687 453.001 128.095ZM285.501 179.968C280.766 181.049 277.746 182.891 274.343 186.774L271.184 190.377L267.475 187.548C261.071 182.663 254.524 180.689 244.501 180.621C236.655 180.567 234.855 180.897 230.461 183.19C225.056 186.011 218.195 192.79 215.532 197.939C211.496 205.745 213.166 219.011 218.908 224.753C221.646 227.491 221.797 228.089 221.762 236.072C221.703 249.453 226.505 266.088 232.346 272.74C235.47 276.299 243.913 280.972 247.251 280.99C248.44 280.997 249.001 281.787 249.001 283.455C249.001 286.17 249.973 285.892 233.008 288.035C221.076 289.542 205.371 293.919 192.751 299.254C184.418 302.777 183.001 303.712 183.001 305.688C183.001 306.96 183.164 308 183.363 308C183.561 308 187.549 306.208 192.224 304.017C199.142 300.775 222.927 293 225.927 293C226.348 293 227 305.938 227.376 321.75C228.183 355.665 228.566 358.931 231.884 360.155L234.266 361.034L233.645 353.267C233.304 348.995 232.728 333.532 232.366 318.905L231.707 292.31L234.06 291.695C235.355 291.356 236.45 291.174 236.495 291.29C236.54 291.405 238.047 296.675 239.845 303C243.48 315.79 249.458 330.161 253.981 336.978C256.391 340.611 256.842 342.144 256.37 345.095C255.544 350.258 257.283 353 261.381 353C266.146 353 268.437 350.129 267.642 345.154C267.109 341.823 267.769 339.68 272.191 330.379C275.036 324.395 279.931 313.2 283.07 305.5C288.322 292.617 288.966 291.528 291.139 291.848C292.438 292.039 293.726 292.414 294.001 292.68C294.276 292.947 294.825 306.966 295.221 323.833C295.618 340.7 296.068 355.598 296.221 356.939C296.494 359.318 296.547 359.333 298.354 357.515C300.094 355.765 300.185 353.749 299.854 324.23L299.501 292.808L304.001 293.406C306.476 293.735 315.701 295.795 324.501 297.986C333.301 300.176 341.064 301.975 341.751 301.984C344.116 302.015 342.998 298.949 340.251 297.873C329.945 293.835 295.997 287 286.249 287H280.696L281.371 274.371C281.743 267.424 282.388 261.131 282.806 260.385C283.223 259.639 285.669 257.694 288.242 256.062C290.814 254.431 294.292 251.2 295.971 248.883C301.567 241.158 304.625 226.401 302.039 219.601C301.419 217.968 301.424 216.857 302.054 216.468C304.671 214.85 307.34 207.274 307.326 201.5C307.292 187.204 297.242 177.29 285.501 179.968ZM226.607 224.343C225.25 229.4 226.115 242.788 228.362 251.5C232.527 267.652 237.402 273.903 247.461 275.992C256.378 277.843 262.438 275.812 268.247 269.026C271.836 264.832 274.001 263.901 274.001 266.55C274.001 272.06 264.855 279.924 257.479 280.755L253.218 281.236L252.516 289.666C251.866 297.461 252.007 298.493 254.386 303.353C255.8 306.245 258.085 309.669 259.462 310.963L261.967 313.316L265.443 309.63C267.355 307.603 270.569 302.607 272.585 298.527C275.945 291.729 276.332 290.041 277.219 278.305C278.804 257.346 279.287 255.717 286.099 248.395C291.984 242.068 293.074 239.473 290.801 237.2C288.274 234.673 284.2 235.828 276.887 241.145C273.987 243.253 272.128 241.445 271.392 235.797C270.834 231.519 270.027 229.86 267.198 227.173C264.585 224.691 263.164 224.019 261.598 224.528C256.878 226.06 253.164 226.095 249.681 224.639C247.657 223.794 246.001 223.518 246.001 224.025C246.001 224.533 244.618 225.664 242.928 226.538C239.253 228.438 235.49 227.821 230.627 224.521L227.186 222.186L226.607 224.343ZM255.572 231.571C253.052 234.092 253.689 234.651 259 234.573C263.978 234.5 265.103 233.502 262.801 231.2C261.118 229.517 257.437 229.706 255.572 231.571ZM230.751 232.08C229.788 232.641 229.001 233.8 229.001 234.657C229.001 235.776 229.493 235.99 230.751 235.418C231.714 234.981 233.964 234.675 235.751 234.74C239.194 234.865 239.762 234.161 237.801 232.2C236.349 230.748 233.133 230.693 230.751 232.08ZM241.446 237.362C240.251 242.126 241.357 246.357 244.216 247.954C246.502 249.231 247.133 249.256 248.216 248.11C249.249 247.016 249.253 246.659 248.233 246.286C245.497 245.284 244.001 242.683 244.001 238.929C244.001 234.614 242.385 233.623 241.446 237.362ZM252.67 250.953C248.452 253.707 245.001 256.559 245.001 257.291C245.001 259.293 248.729 262.894 251.529 263.596C258.279 265.29 263.236 259.992 262.772 251.579C262.623 248.872 262.015 246.497 261.42 246.302C260.826 246.106 256.889 248.199 252.67 250.953ZM373.501 248.685C367.248 252.032 368.314 254.859 374.946 252.519C385.778 248.698 395.761 252.613 398.865 261.899C400.806 267.706 400.318 277.328 397.928 280.365C395.987 282.834 395.332 283 387.551 283C381.622 283 378.911 283.404 378.075 284.411C376.249 286.611 378.429 287.358 387.984 287.806C395.665 288.166 396.783 287.983 399.372 285.935C402.843 283.19 405.001 278.366 405.001 273.352V269.639L409.062 275.069C418.865 288.179 423.245 302.384 423.379 321.5C423.552 346.141 416.559 365.202 401.153 382.082C394.809 389.032 393.825 392 397.862 392C400.21 392 409.978 381.642 415.101 373.72C428.338 353.251 432.798 323.708 426.438 298.627C423.048 285.255 410.662 265.765 406.556 267.34C405.474 267.756 404.844 267.128 404.421 265.215C401.526 252.116 395.11 246.942 381.885 247.04C378.924 247.062 375.151 247.802 373.501 248.685ZM254.501 253.531C248.453 257.429 248.072 259.382 253.276 259.812C256.786 260.102 257.159 259.867 258.581 256.464C261.028 250.607 260.087 249.932 254.501 253.531ZM374.251 259.989C370.083 262.53 369.738 265.599 373.751 264.436C375.263 263.998 380.006 263.642 384.291 263.646C390.792 263.651 392.031 263.395 391.782 262.101C390.98 257.938 379.819 256.594 374.251 259.989ZM375.952 272.046C373.504 274.332 372.977 275.376 373.837 276.236C374.696 277.095 375.864 276.959 378.525 275.69C382.705 273.697 384.982 273.579 388.481 275.173C390.481 276.084 391.328 276.069 392.278 275.103C393.245 274.121 392.914 273.352 390.695 271.43C386.486 267.785 380.234 268.045 375.952 272.046ZM241.111 290.911C237.751 293.039 256.735 339.954 261.207 340.574C262.146 340.704 263.299 340.29 263.77 339.655C265.286 337.609 273.171 319.902 279.089 305.25C284.608 291.588 284.753 291 282.624 291C280.959 291 280.072 291.939 279.081 294.75C275.61 304.596 265.901 317 261.664 317C258.869 317 253.962 312.015 250.838 306C249.182 302.811 248.501 299.826 248.501 295.753C248.501 290.031 248.488 290.006 245.501 290.018C243.851 290.025 241.875 290.427 241.111 290.911ZM260.214 344.188C258.504 345.897 258.707 348.95 260.579 349.668C262.947 350.577 265.738 347.391 264.413 345.291C263.008 343.064 261.685 342.716 260.214 344.188ZM111.755 352.929C92.6366 374.193 88.6126 416.24 103.541 438.752C106.702 443.518 113.987 450 116.182 450C116.667 450 117.336 449.29 117.669 448.422C118.074 447.367 116.625 445.271 113.296 442.096C104.102 433.326 99.9006 421.08 99.8846 403C99.8686 384.247 105.899 365.489 115.577 354.182C122.098 346.564 118.53 345.394 111.755 352.929ZM129.501 388.953C116.073 392.574 110.143 399.09 107.986 412.596C106.518 421.781 108.218 432.162 111.877 436.365C114.232 439.069 117.771 440.193 120.066 438.965C122.881 437.459 122.451 436.304 118.604 435.034C113.89 433.478 112.485 429.63 112.568 418.5C112.619 411.67 113.133 408.389 114.699 404.892C118.094 397.311 126.337 392.511 135.726 392.647C139.432 392.701 141.001 392.336 141.001 391.421C141.001 390.704 140.66 389.907 140.243 389.65C138.544 388.6 132.31 388.195 129.501 388.953ZM125.501 401.879C121.576 403.679 116.001 408.491 116.001 410.077C116.001 412.164 118.276 411.746 123.04 408.785C127.292 406.142 129.505 405.48 135.166 405.161C142.417 404.751 143.518 403.609 138.922 401.265C135.473 399.505 130.144 399.749 125.501 401.879ZM121.908 414.33C117.496 416.663 115.436 420 118.407 420C119.262 420 121.797 419.265 124.043 418.367C126.943 417.206 129.844 416.889 134.062 417.272C140.795 417.882 142.551 416.674 139.049 413.838C135.716 411.139 127.497 411.375 121.908 414.33ZM121.251 424.973C118.153 426.379 117.001 427.489 117.001 429.068C117.001 430.851 117.399 431.112 119.251 430.546C127.486 428.029 129.335 427.767 132.339 428.689C137.929 430.405 140.212 427.662 135.778 424.557C132.77 422.449 126.409 422.632 121.251 424.973Z" fill="#1C1C1C"/>
<path fill-rule="evenodd" clip-rule="evenodd" d="M371.667 121.667C371.3 122.033 371 126.066 371 130.628V138.922L362.25 139.211L353.5 139.5L352.975 149.5C352.686 155 352.621 160.063 352.832 160.75C353.1 161.627 355.856 162 362.069 162H370.925L371.212 171.25L371.5 180.5L382.871 180.784L394.242 181.068L393.826 171.574L393.411 162.081L402.545 162.681C410.115 163.178 411.777 163.024 412.253 161.784C412.569 160.961 412.576 155.723 412.268 150.144L411.709 140H402.855H394V130.5V121H383.167C377.208 121 372.033 121.3 371.667 121.667ZM198.094 130.12C157.721 130.556 124.312 131.288 123.853 131.747C122.941 132.659 119.556 390.889 120.445 391.778C120.746 392.079 122.052 391.842 123.347 391.252L125.703 390.178L126.359 304.339C126.72 257.128 127.299 207.886 127.646 194.914L128.276 171.328L230.793 170.676C287.177 170.317 333.476 169.857 333.679 169.655C333.881 169.452 333.738 168.48 333.359 167.494C332.704 165.785 329.327 165.732 261.086 166.359C221.714 166.721 175.663 167.305 158.75 167.658L128 168.299V151.65V135L163.25 134.859C182.638 134.781 228.824 134.443 265.886 134.109L333.272 133.5L334.104 131.25L334.936 129L303.218 129.164C285.773 129.254 238.467 129.684 198.094 130.12ZM149.145 146.018L146.914 149.036L143.467 146.407C140.322 144.008 137 143.687 137 145.782C137 146.246 138.35 147.919 140 149.5C141.65 151.081 143 152.77 143 153.254C143 153.738 141.803 155.703 140.34 157.621C137.889 160.834 137.807 161.236 139.298 162.726C140.788 164.216 141.182 164.053 144.297 160.652L147.679 156.96L150.34 159.053C155.627 163.212 158.93 159.905 154.047 155.341L150.992 152.487L153.602 148.819C155.037 146.802 155.912 144.667 155.547 144.076C154.319 142.088 151.394 142.976 149.145 146.018ZM391.525 201.25C391.299 201.938 390.971 212.264 390.796 224.199C390.483 245.614 390.507 245.91 392.64 246.882C395.763 248.305 395.971 246.742 395.986 221.75C396 200.55 395.949 200 393.969 200C392.851 200 391.752 200.563 391.525 201.25ZM308.504 207.981C308.147 209.605 306.796 212.495 305.502 214.402C303.416 217.476 303.275 218.286 304.265 221.51C305.607 225.884 304.004 236.942 301.065 243.587C298.763 248.789 292.275 255.998 287.655 258.486C284.636 260.112 284.169 260.916 283.629 265.413C283.292 268.211 283.013 273.727 283.009 277.67L283 284.841L289.75 285.505C293.463 285.87 301.45 287.275 307.5 288.627C313.55 289.979 324.912 292.51 332.75 294.251C349.122 297.889 348.393 296.996 344.488 308.631C339.707 322.874 332.987 333.848 322.803 344.045C297.371 369.508 258.765 376.502 226.34 361.521C210.852 354.366 197.657 343.07 190.045 330.453C187.072 325.526 180 307.552 180 304.924C180 303.611 199.331 294.463 208.057 291.648C215.602 289.213 228.939 286.668 240.75 285.408C246.862 284.756 248.747 283.49 245.25 282.384C237.105 279.808 230.239 274.25 226.696 267.364C223.264 260.694 220.856 250.223 220.289 239.5C219.75 229.297 219.505 228.266 216.909 225.277C213.882 221.793 212.014 216.437 212.006 211.215C212 208.122 211.868 207.999 209.75 209.122C205.97 211.125 193.035 224.144 188.51 230.5C177.314 246.228 172 263.159 172 283.108C172 305.845 179.227 325.382 194 342.58C205.358 355.804 222.441 366.514 239.5 371.109C249.818 373.888 270.785 374.171 281.743 371.678C317.666 363.506 344.41 336.463 351.549 301.09C353.84 289.736 353.126 268.683 350.094 258.238C344.434 238.737 331.035 219.996 314.826 208.91L309.153 205.029L308.504 207.981ZM389.658 308.75C389.31 319.063 388.728 355.257 388.364 389.181C388 423.106 387.396 451.359 387.021 451.966C386.541 452.742 357.746 453.487 289.92 454.476C236.889 455.25 178.088 456.179 159.25 456.541L125 457.2V443.1C125 435.204 124.596 429 124.082 429C123.577 429 122.452 429.273 121.582 429.607C119.691 430.333 119.432 435.597 121.25 436.354C122.16 436.733 122.023 437.262 120.75 438.297C119.295 439.481 119 441.406 119 449.738C119 456.961 119.379 460.07 120.359 460.883C122.28 462.477 390.984 458.644 391.995 457.008C392.671 455.915 393.267 428.431 394.65 334.75L395.31 290H392.801H390.291L389.658 308.75ZM178.426 385.12C177.544 386.547 177.877 403.283 178.805 404.15C179.187 404.507 215.117 405.125 258.65 405.522L337.799 406.243L338.932 404.127C340.577 401.053 340.672 387.514 339.061 385.574C337.893 384.166 329.378 384 258.437 384C200.962 384 178.927 384.308 178.426 385.12ZM257.622 388.756L181.744 389.013L182.437 394.238C182.818 397.112 183.323 399.657 183.559 399.892C183.795 400.128 217.941 400.536 259.44 400.799L334.892 401.277L335.516 398.793C336.378 395.356 335.714 388.671 334.5 388.577C333.95 388.535 299.355 388.615 257.622 388.756ZM182.769 417.177C179.653 419.558 182.215 421.101 190.1 421.593C194.17 421.847 209.875 422.475 225 422.99C248.249 423.78 252.719 423.707 253.914 422.513C255.016 421.412 255.067 420.785 254.143 419.672C253.205 418.543 247.99 418.111 229.229 417.608C216.178 417.259 200.775 416.721 195 416.413C187.12 415.993 184.068 416.184 182.769 417.177ZM262.5 418.906C260.783 419.257 259.5 420.157 259.5 421.01C259.5 423.196 267.253 423.766 298.691 423.891C326.029 424.001 329.162 423.613 325.868 420.525C324.844 419.565 317.082 419.123 295 418.768C278.775 418.507 264.15 418.569 262.5 418.906ZM185.501 431.998C183.609 435.06 187.843 435.771 212.289 436.493C225.605 436.886 245.05 437.274 255.5 437.354C273.882 437.495 274.5 437.435 274.5 435.5C274.5 433.621 273.623 433.462 260 432.868C252.025 432.521 232.182 431.889 215.904 431.465C191.994 430.841 186.153 430.944 185.501 431.998Z" fill="#3CA4FC"/>
</svg>
