<svg width="168" height="156" viewBox="0 0 168 156" fill="none" xmlns="http://www.w3.org/2000/svg">
<path fill-rule="evenodd" clip-rule="evenodd" d="M118.573 141.877C117.413 141.1 117.075 139.532 117.797 138.348C126.074 124.237 128.852 110.691 126.166 98.0984C123.548 85.8375 115.625 74.6171 102.706 64.7454C99.8749 62.542 94.3062 59.3999 88.0133 56.944C84.4178 60.9658 79.8018 64.1364 75.1382 66.2288C68.2499 69.317 61.3633 69.6982 57.5204 67.966C55.3923 67.0058 53.8807 65.4954 52.9533 63.5439C51.7697 61.045 51.4941 57.3552 53.9436 52.5092C57.345 45.8184 63.7096 42.9684 71.435 43.0357C75.4971 43.0753 79.9546 43.9823 84.3536 45.3671C85.7795 42.325 86.2154 38.836 84.9119 34.9951C82.2074 26.8526 74.1754 22.0742 65.3787 19.3566C57.7665 16.996 46.7571 14.5585 39.1143 17.5346C36.5167 18.5444 34.4771 20.2698 31.7624 18.4647C27.5706 15.709 30.3698 11.7153 33.9363 10.323C41.599 7.33639 51.8202 8.14254 59.7929 9.40546C74.4615 11.7151 88.8169 18.9596 93.5023 31.9893C95.6709 38.1039 95.2507 43.7917 93.2133 48.7738C99.6482 51.6537 105.204 55.0656 108.145 57.4597C122.473 69.3563 130.883 82.6569 133.241 96.8028C135.603 110.933 132.005 125.939 121.995 141.14C121.258 142.319 119.733 142.655 118.573 141.877ZM76.0219 53.5823C73.5857 53.2059 71.2524 53.1034 69.1208 53.3931C66.4111 53.7661 64.0623 54.841 62.7898 57.3681C62.5787 57.7954 62.2694 58.3272 62.0583 58.7545C63.0438 58.823 64.9677 58.893 66.4728 58.5677C69.8289 57.8256 73.6457 56.1561 77.01 53.7545C76.6649 53.6748 76.3457 53.6207 76.0219 53.5823Z" fill="#2B73B1"/>
<path fill-rule="evenodd" clip-rule="evenodd" d="M62.0398 59.2235C62.2272 59.4399 62.3642 59.6566 62.1727 59.6792C61.9308 59.7022 61.9315 59.5308 62.0398 59.2235Z" fill="#2B73B1"/>
<path fill-rule="evenodd" clip-rule="evenodd" d="M121.688 133.8C123.903 132.112 126.286 130.427 128.616 129.086C132.257 127.011 135.72 125.7 138.55 126.12C139.92 126.144 141.031 127.318 141.016 128.72C141.016 130.128 139.893 131.25 138.528 131.211C137.868 131.285 137.251 131.664 136.548 132.05C134.889 132.944 133.291 134.475 131.57 136.138C129.375 138.263 127.255 140.703 125.262 142.826C123.462 144.754 121.761 146.406 120.37 147.526C118.182 149.292 116.128 149.815 114.855 149.806C114.521 149.799 109.209 148.13 110.04 143.083C110.343 141.278 111.339 136.749 111.389 136.526C112.143 133.771 113.478 128.668 113.734 124.032C113.818 122.566 113.868 121.158 113.645 119.934C113.522 119.894 113.4 119.854 113.283 119.798C111.469 119.01 110.606 116.888 111.327 115.032C111.645 114.021 112.845 112.53 113.651 112.023C115.217 111.048 116.737 111.413 118.238 112.801C120.277 114.693 121.443 117.825 121.971 121.518C122.51 125.404 122.177 130.014 121.688 133.8ZM114.696 139.575C114.246 139.958 113.891 140.133 113.726 139.786C113.539 139.399 114.275 139.522 114.696 139.575Z" fill="#2B73B1"/>
</svg>
