<svg width="464" height="464" viewBox="0 0 464 464" fill="none" xmlns="http://www.w3.org/2000/svg">
<path fill-rule="evenodd" clip-rule="evenodd" d="M380.156 79.3681C377.107 80.1882 373.255 82.1103 371.596 83.6404C369.937 85.1693 367.865 88.1006 366.99 90.1538C366.115 92.207 365.4 96.5373 365.4 99.776C365.4 104.417 365.968 106.208 368.078 108.223C369.551 109.63 371.769 111.432 373.008 112.227C375.221 113.65 375.22 113.669 372.94 113.387C371.087 113.159 370.689 113.686 370.968 116.001C371.158 117.596 372.985 122.294 375.028 126.441C377.774 132.021 379.814 134.556 382.869 136.192C385.702 137.709 388.01 138.149 390.218 137.595C391.989 137.151 394.71 135.414 396.266 133.734C397.823 132.055 399.406 129.442 399.787 127.927C400.167 126.412 400.084 124.805 399.6 124.356C399.117 123.909 398.497 124.168 398.223 124.935C397.948 125.702 396.568 128.051 395.155 130.155C393.258 132.979 391.575 134.078 388.726 134.354C385.939 134.624 384.064 133.979 381.979 132.034C380.393 130.553 378.168 127.514 377.035 125.281C375.903 123.048 374.615 120.046 374.17 118.611C373.504 116.457 373.804 116.001 375.886 116.001C377.588 116.001 378.202 115.465 377.776 114.354C377.273 113.045 378.865 112.618 385.481 112.285C391.643 111.975 394.366 112.316 395.914 113.592C397.596 114.978 398.451 115.042 400.248 113.92C401.48 113.151 402.756 112.521 403.083 112.521C403.412 112.521 403.68 114.052 403.68 115.923C403.68 118.244 402.981 119.546 401.478 120.024C399.345 120.7 399.354 120.864 401.768 125.312C403.138 127.836 404.65 129.906 405.13 129.912C405.609 129.916 405.962 129.269 405.918 128.471C405.873 127.674 405.428 125.977 404.927 124.701C404.352 123.236 404.637 121.432 405.698 119.807C406.736 118.217 407.281 114.894 407.125 111.107C406.986 107.738 406.937 104.345 407.016 103.567C407.095 102.79 407.813 102.4 408.61 102.699C409.408 103 411.761 102.205 413.84 100.934C415.92 99.6623 418.657 96.9212 419.925 94.8413C421.193 92.7626 422.233 89.742 422.235 88.1296C422.237 86.516 421.455 84.0766 420.496 82.7078C419.537 81.339 416.926 79.6152 414.691 78.8786C412.435 78.1339 408.959 77.8961 406.866 78.3438C404.794 78.7869 402.521 79.6129 401.813 80.1813C401.038 80.803 398.56 80.52 395.577 79.4667C392.856 78.5062 389.519 77.7557 388.163 77.7986C386.808 77.8427 383.206 78.548 380.156 79.3681ZM214.02 82.7657C211.468 84.2494 192.415 97.0523 171.68 111.218C150.945 125.383 130.965 139.311 127.278 142.169C123.593 145.028 119.541 149.053 118.274 151.114C117.008 153.174 115.475 156.688 114.869 158.921C114.263 161.154 112.724 172.899 111.449 185.021C110.173 197.143 108.315 216.4 107.319 227.816C105.686 246.537 105.685 248.838 107.301 251.306C108.377 252.948 110.23 254.041 111.937 254.041C113.521 254.041 119.648 250.742 125.753 246.603C131.787 242.512 142.501 234.9 149.562 229.687C156.623 224.474 162.4 219.73 162.4 219.145C162.4 218.56 161.726 218.081 160.902 218.081C160.078 218.081 153.683 222.337 146.692 227.54C139.7 232.741 129.355 240.049 123.703 243.78C118.05 247.509 112.731 250.561 111.882 250.561C111.031 250.561 110.037 250.077 109.673 249.487C109.307 248.895 110.585 231.017 112.51 209.757C114.437 188.496 116.592 168.23 117.3 164.721C118.009 161.212 119.524 156.514 120.667 154.281C121.811 152.048 124.231 148.85 126.043 147.174C127.856 145.497 146.044 132.754 166.46 118.853C186.876 104.954 206.451 91.5841 209.96 89.1434C213.469 86.7028 217.645 84.5695 219.24 84.4037C221.705 84.1461 222.192 84.6322 222.486 87.6459C222.677 89.5958 220.981 105.365 218.716 122.688C216.452 140.013 214.6 155.296 214.6 156.651C214.6 158.068 215.198 158.915 216.009 158.645C216.921 158.341 218.973 146.741 221.822 125.777C224.244 107.96 226.03 90.8463 225.791 87.7468C225.551 84.631 224.637 81.6579 223.748 81.0953C222.863 80.5351 221.357 80.0745 220.4 80.0722C219.443 80.0711 216.572 81.2821 214.02 82.7657ZM403.414 81.9955C401.576 82.4781 401.612 82.7971 403.848 85.82C405.189 87.6343 406.902 91.8509 407.654 95.1905L409.021 101.264L413.891 96.6324C417.224 93.4609 418.76 91.0284 418.76 88.9207C418.76 87.2271 417.716 84.7969 416.44 83.5209C414.874 81.9549 412.707 81.245 409.77 81.3355C407.378 81.4097 404.517 81.7067 403.414 81.9955ZM252.737 89.0309C251.815 91.3938 251.983 96.6973 253.386 109.488C254.428 118.983 256.629 133.73 258.277 142.258C260.491 153.718 261.715 157.761 262.968 157.761C264.206 157.761 264.484 156.899 264 154.571C263.635 152.817 262.07 143.551 260.522 133.981C258.974 124.411 257.088 111.229 256.331 104.687C255.573 98.1462 255.254 92.0133 255.621 91.0574C255.987 90.1027 257.35 89.3209 258.652 89.3209C259.952 89.3209 272.626 96.4537 286.818 105.172C301.009 113.891 320.023 125.855 329.071 131.758C340.956 139.513 346.073 143.557 347.504 146.324C348.962 149.143 350.787 162.742 354.406 197.748C357.112 223.925 358.919 245.784 358.42 246.326C357.921 246.867 356.442 246.972 355.132 246.555C353.824 246.14 348.736 243.179 343.828 239.975C338.145 236.265 334.619 234.607 334.121 235.412C333.692 236.108 332.681 230.278 331.874 222.456C331.068 214.636 329.219 200.02 327.766 189.976C325.679 175.555 324.55 170.881 322.396 167.737C320.896 165.548 317.935 162.93 315.815 161.918C312.56 160.366 306.78 160.095 278.65 160.169C260.329 160.218 230.703 160.627 212.813 161.08C183.405 161.824 179.902 162.124 176.273 164.201C173.836 165.597 171.254 168.543 169.698 171.701C167.707 175.746 166.748 181.152 165.384 196.041C164.419 206.568 163.094 222.489 162.439 231.421C161.785 240.353 161.246 253.794 161.244 261.291C161.241 273.154 161.526 275.207 163.451 277.132C165.027 278.708 168.106 279.567 174.18 280.124C178.866 280.554 185.31 280.734 188.5 280.523C192.711 280.245 194.3 279.664 194.3 278.401C194.3 276.971 191.961 276.619 181.146 276.427C172.398 276.271 167.386 275.69 166.183 274.691C164.616 273.391 164.475 270.475 165.124 252.886C165.537 241.718 166.897 220.221 168.147 205.113C169.505 188.699 171.101 176.016 172.112 173.594C173.044 171.365 175.262 168.587 177.041 167.421C179.916 165.538 184.107 165.215 214.548 164.534C233.397 164.113 262.914 163.729 280.14 163.682C302.867 163.619 312.224 163.988 314.248 165.028C315.782 165.816 318.04 167.815 319.269 169.469C320.771 171.493 322.214 177.179 323.684 186.869C324.885 194.785 326.98 211.179 328.34 223.301C329.699 235.423 330.894 250.41 330.995 256.606C331.163 266.905 330.953 268.098 328.541 270.526C326.142 272.938 324.562 273.234 311.233 273.761C300.958 274.167 296.421 274.775 296.086 275.791C295.758 276.783 297.196 277.308 300.633 277.452C303.398 277.568 310.097 277.507 315.52 277.316C320.943 277.125 326.745 276.27 328.413 275.416C330.081 274.562 332.363 271.934 333.482 269.574C335.237 265.874 335.402 263.374 334.683 251.327C333.85 237.366 333.85 237.366 336.575 239.314C338.073 240.384 342.788 243.392 347.049 245.996C352.369 249.245 355.825 250.613 358.069 250.356C361.34 249.981 361.34 249.981 361.219 238.304L361.098 226.627L370.393 232.214C375.507 235.287 380.86 237.801 382.29 237.801C383.719 237.801 388.075 235.406 391.969 232.479C395.863 229.551 398.755 226.68 398.397 226.099C398.037 225.517 397.346 225.041 396.861 225.041C396.375 225.041 393.18 227.129 389.76 229.681C386.339 232.233 382.958 234.321 382.247 234.321C381.536 234.321 377.062 231.978 372.306 229.115C367.55 226.252 363.047 224.131 362.3 224.404C361.478 224.703 360.685 223.206 360.296 220.62C359.942 218.266 358.311 202.508 356.671 185.601C355.031 168.694 352.921 152.138 351.984 148.812C350.679 144.185 349.122 141.804 345.369 138.692C342.668 136.453 334.196 130.591 326.54 125.666C318.884 120.741 301.158 109.765 287.148 101.276C268.031 89.6909 260.718 85.8409 257.829 85.8409C254.708 85.8409 253.747 86.4418 252.737 89.0309ZM72.2942 94.295C70.5113 96.5326 69.3235 96.8795 64.7287 96.5036C60.0991 96.1243 58.8324 96.5025 56.3187 99.0162C54.6912 100.644 53.3561 102.913 53.3526 104.059C53.3479 105.204 51.7819 107.031 49.8726 108.116C47.5827 109.419 46.4053 111.001 46.4169 112.756C46.4274 114.223 46.8867 116.134 47.4389 117.005C48.0491 117.969 47.831 119.769 46.8809 121.6C46.0214 123.257 45.6316 125.936 46.0144 127.556C46.3972 129.176 47.505 131.414 48.4748 132.531C49.4457 133.648 50.898 134.561 51.7031 134.561C52.5081 134.561 53.4013 135.214 53.6878 136.011C53.9743 136.809 53.95 139.158 53.6321 141.231C53.2749 143.569 53.5451 145.001 54.3455 145.001C55.0555 145.001 55.9626 143.696 56.3628 142.101C56.763 140.506 57.8174 139.201 58.7048 139.201C59.5934 139.201 60.3195 138.697 60.3195 138.082C60.3195 137.467 59.2442 136.387 57.9288 135.684C56.4405 134.887 55.6749 133.494 55.8988 131.99C56.0971 130.663 57.2397 129.002 58.4392 128.299C60.0794 127.336 60.7487 127.379 61.1455 128.471C61.4355 129.269 62.8634 129.921 64.3192 129.921C65.775 129.921 68.211 128.956 69.7329 127.775C72.0901 125.947 74.0029 125.711 82.6495 126.18C90.4621 126.604 92.7995 127.117 92.7995 128.405C92.7995 129.547 92.0676 129.844 90.49 129.344C89.2198 128.941 87.5285 129.014 86.7316 129.507C85.7456 130.116 86.2061 130.618 88.1711 131.079C90.1373 131.54 91.1686 132.667 91.3994 134.608C91.6465 136.679 91.4447 137.022 90.6593 135.862C90.0654 134.983 88.9982 134.622 88.2895 135.061C87.5795 135.499 86.9995 136.348 86.9995 136.949C86.9995 137.55 87.7825 138.041 88.7395 138.041C89.6965 138.041 90.4795 138.323 90.4795 138.667C90.4795 139.012 89.4657 141.281 88.2268 143.71C86.9868 146.139 84.5763 149.041 82.8699 150.159C81.1636 151.278 77.9898 152.193 75.8171 152.193C73.6445 152.193 70.5484 151.33 68.9372 150.274C67.3271 149.219 65.0477 146.773 63.8726 144.842C62.6975 142.909 61.454 141.784 61.1095 142.341C60.765 142.899 61.3264 145.097 62.3588 147.227C63.3901 149.357 65.833 152.105 67.7865 153.334C70.4115 154.986 72.793 155.444 76.9041 155.091C81.0453 154.733 83.3711 153.753 85.9996 151.256C87.9426 149.411 90.5723 145.877 91.8449 143.402C93.1174 140.929 94.4467 136.107 94.7994 132.688C95.3457 127.392 96.0046 126.042 99.2457 123.57C101.468 121.874 103.381 119.16 103.846 117.037C104.332 114.827 104.07 112.333 103.176 110.663C102.368 109.153 100.822 107.638 99.7398 107.295C98.429 106.879 97.9383 105.798 98.2701 104.06C98.5589 102.546 97.7725 100.182 96.3955 98.4327C95.0905 96.7727 92.2335 94.5664 90.0457 93.5282C87.8579 92.49 83.4453 91.6409 80.2379 91.6409C75.5527 91.6409 73.9925 92.1617 72.2942 94.295ZM373.752 99.9929C372.986 100.759 372.36 102.269 372.36 103.349C372.36 104.429 373.185 105.629 374.195 106.017C375.204 106.404 377.537 106.721 379.378 106.721C382.069 106.721 382.585 106.322 382.007 104.691C381.611 103.574 380.503 101.748 379.543 100.631C378.584 99.5138 377.203 98.6009 376.472 98.6009C375.741 98.6009 374.517 99.2273 373.752 99.9929ZM400.2 109.16C397.967 110.449 397.184 111.141 398.46 110.697C399.736 110.254 401.694 109.928 402.81 109.974C403.925 110.02 404.84 109.307 404.84 108.389C404.84 107.471 404.708 106.743 404.55 106.77C404.391 106.796 402.433 107.873 400.2 109.16ZM383.96 114.705C383.96 115.269 385.252 115.978 386.832 116.279C388.413 116.582 389.964 116.569 390.28 116.253C390.597 115.936 390.578 115.228 390.24 114.68C389.9 114.13 388.349 113.681 386.791 113.681C385.233 113.681 383.96 114.143 383.96 114.705ZM375.84 119.481C375.84 120.757 376.362 121.801 377 121.801C377.638 121.801 378.16 120.757 378.16 119.481C378.16 118.205 377.638 117.161 377 117.161C376.362 117.161 375.84 118.205 375.84 119.481ZM384.701 117.966C384.294 118.374 383.96 119.403 383.96 120.255C383.96 121.105 384.743 121.801 385.7 121.801C386.657 121.801 387.44 121.049 387.44 120.129C387.44 119.209 386.991 118.181 386.441 117.841C385.892 117.502 385.109 117.558 384.701 117.966ZM379.903 122.95C379.499 124.221 379.496 125.787 379.893 126.43C380.29 127.074 381.629 127.601 382.868 127.601C384.107 127.601 385.12 127.079 385.12 126.441C385.12 125.803 384.598 125.281 383.96 125.281C383.322 125.281 382.8 124.237 382.8 122.961C382.8 121.685 382.312 120.641 381.717 120.641C381.122 120.641 380.306 121.68 379.903 122.95ZM388.175 127.429C387.132 128.581 386.28 129.875 386.28 130.303C386.28 130.731 387.044 131.081 387.979 131.081C388.913 131.081 390.22 130.068 390.882 128.832C391.544 127.594 391.632 126.302 391.077 125.958C390.523 125.616 389.217 126.277 388.175 127.429ZM75.0133 130.695C74.5875 131.119 74.2395 132.153 74.2395 132.989C74.2395 134.192 74.8485 134.234 77.1395 133.19C78.7345 132.464 80.0395 131.43 80.0395 130.894C80.0395 130.359 79.0825 129.921 77.9133 129.921C76.7428 129.921 75.4378 130.269 75.0133 130.695ZM77.7195 137.461C77.7195 138.418 78.2415 139.201 78.8795 139.201C79.5175 139.201 80.0395 138.418 80.0395 137.461C80.0395 136.504 79.5175 135.721 78.8795 135.721C78.2415 135.721 77.7195 136.504 77.7195 137.461ZM83.9743 139.696C84.4997 141.788 84.1587 142.636 82.6507 142.996C80.7483 143.451 80.7529 143.539 82.7273 144.395C83.9348 144.919 85.3605 144.784 86.0646 144.08C86.7409 143.404 86.9566 141.507 86.5448 139.866C86.133 138.224 85.2271 136.881 84.5322 136.881C83.7736 136.881 83.5509 138.006 83.9743 139.696ZM73.3626 146.451C73.6247 147.249 75.3647 148.044 77.2289 148.218C80.4629 148.519 80.5163 148.452 78.368 146.768C77.1291 145.796 75.3891 145.001 74.5017 145.001C73.6131 145.001 73.1004 145.654 73.3626 146.451ZM183.887 182.077C183.472 182.747 183.88 183.585 184.794 183.935C185.709 184.285 189.265 184.413 192.698 184.217C196.131 184.021 198.94 183.339 198.94 182.701C198.94 182.063 195.723 181.387 191.79 181.199C187.661 181 184.322 181.372 183.887 182.077ZM358.726 188.2C358.989 188.992 360.729 190.503 362.592 191.559C364.455 192.614 367.153 193.829 368.59 194.257C370.405 194.8 371.2 194.554 371.2 193.451C371.2 192.577 368.837 190.715 365.948 189.312C363.061 187.909 360.146 186.761 359.472 186.761C358.798 186.761 358.462 187.408 358.726 188.2ZM98.7759 198.521C93.6881 202.582 91.7845 204.77 92.6163 205.602C93.448 206.433 96.0487 205.053 101.032 201.133C104.998 198.013 108.201 194.952 108.149 194.33C108.096 193.708 107.623 193.074 107.097 192.922C106.57 192.77 102.825 195.289 98.7759 198.521ZM182.925 193.302C182.516 193.71 182.461 194.493 182.799 195.042C183.139 195.592 185.692 196.041 188.473 196.041C191.255 196.041 194.355 195.724 195.364 195.337C196.374 194.949 197.2 194.166 197.2 193.597C197.2 193.027 194.155 192.561 190.433 192.561C186.711 192.561 183.333 192.895 182.925 193.302ZM368.465 197.222C366.642 197.775 364.175 199.11 362.982 200.189C361.79 201.268 361.111 202.632 361.474 203.219C361.837 203.806 363.51 203.386 365.192 202.284C367.38 200.85 370.32 200.338 375.524 200.48C379.526 200.59 382.8 200.194 382.8 199.599C382.8 199.004 381.885 198.26 380.77 197.946C379.654 197.631 377.174 197.114 375.26 196.795C373.346 196.477 370.288 196.668 368.465 197.222ZM367.024 203.475C365.045 204.349 363.075 205.979 362.646 207.098C362.216 208.217 362.044 209.311 362.262 209.529C362.48 209.747 364.69 208.89 367.174 207.624C369.658 206.357 372.667 205.321 373.862 205.321C375.08 205.321 375.823 204.684 375.555 203.871C375.293 203.074 374.075 202.3 372.849 202.154C371.623 202.007 369.001 202.602 367.024 203.475ZM250.56 206.578C247.689 207.88 244.214 210.002 242.84 211.291C240.472 213.514 240.183 213.536 237.397 211.71C235.778 210.65 233.249 209.953 231.777 210.162C229.922 210.425 228.659 211.788 227.665 214.601C226.799 217.051 226.498 221.161 226.905 224.965C227.276 228.433 228.02 232.427 228.557 233.84C229.333 235.879 229.071 236.53 227.286 236.996C225.836 237.375 225.04 238.59 225.04 240.42C225.04 241.982 226.238 245.031 227.703 247.199C229.479 249.828 231.315 251.163 233.213 251.207C234.779 251.243 237.398 252.154 239.035 253.23C240.672 254.307 244.376 255.511 247.266 255.907C251.228 256.45 253.852 256.04 257.921 254.239C260.89 252.926 263.32 251.291 263.32 250.604C263.32 249.859 264.466 249.645 266.162 250.07C268.28 250.602 269.774 250.012 272.033 247.753C274.294 245.492 274.972 243.773 274.701 240.982C274.464 238.522 273.644 237.108 272.31 236.855C271.112 236.628 270.28 237.18 270.28 238.199C270.28 239.15 270.877 240.127 271.605 240.369C272.596 240.7 272.589 241.451 271.579 243.34C270.835 244.73 269.115 246.463 267.757 247.189C265.57 248.359 265.394 248.263 266.213 246.345C266.722 245.155 268.354 240.122 269.84 235.16C271.326 230.198 272.885 222.789 273.304 218.695C274.041 211.493 273.951 211.134 270.522 207.705C267.537 204.72 266.094 204.164 261.379 204.186C258.274 204.2 253.454 205.266 250.56 206.578ZM181.782 206.045C181.33 206.497 180.96 207.327 180.96 207.887C180.96 208.448 184.357 208.752 188.51 208.564C192.663 208.375 196.187 207.699 196.34 207.061C196.497 206.411 193.534 205.751 189.612 205.562C185.757 205.375 182.234 205.592 181.782 206.045ZM84.9057 210.076C85.2305 211.057 87.7048 211.933 91.1523 212.286C94.2925 212.608 98.8849 214.064 101.357 215.523C103.829 216.981 106.059 217.967 106.314 217.714C106.566 217.46 106.484 216.499 106.13 215.575C105.776 214.653 103.897 212.96 101.954 211.811C100.011 210.664 95.2599 209.438 91.3959 209.087C85.6957 208.571 84.4707 208.757 84.9057 210.076ZM367.749 211.927C366.363 213.688 365.44 216.31 365.634 217.928C365.824 219.509 366.633 221.016 367.43 221.278C368.382 221.591 368.88 220.509 368.88 218.124C368.88 215.305 369.656 214.051 372.353 212.516C374.262 211.431 375.828 210.149 375.833 209.671C375.836 209.193 374.573 208.801 373.024 208.801C371.347 208.801 369.212 210.066 367.749 211.927ZM375.326 216.02C374.333 217.437 373.52 219.991 373.52 221.695C373.52 223.398 374.303 225.093 375.26 225.461C376.548 225.955 377 225.294 377 222.907C377 221.134 377.766 218.671 378.702 217.432C379.64 216.195 380.423 214.789 380.442 214.311C380.463 213.833 379.727 213.441 378.806 213.441C377.885 213.441 376.319 214.601 375.326 216.02ZM95.1195 218.11C95.1195 218.763 96.3932 219.783 97.9488 220.374C99.5055 220.966 101.351 222.519 102.049 223.825C102.749 225.131 103.825 226.201 104.44 226.201C105.056 226.201 105.56 225.395 105.56 224.409C105.56 223.423 104.278 221.335 102.712 219.769C101.146 218.203 98.7967 216.921 97.4917 216.921C96.1867 216.921 95.1195 217.456 95.1195 218.11ZM180.605 219.982C180.196 220.39 180.141 221.173 180.479 221.722C180.819 222.272 184.197 222.721 187.988 222.721C193.34 222.721 194.88 222.332 194.88 220.981C194.88 219.633 193.354 219.241 188.113 219.241C184.391 219.241 181.013 219.575 180.605 219.982ZM90.4795 222.75C90.4795 223.403 91.7938 224.438 93.4004 225.049C95.007 225.659 96.8213 227.473 97.4314 229.08C98.0427 230.687 99.0775 232.001 99.7305 232.001C100.385 232.001 100.92 231.028 100.92 229.837C100.92 228.647 99.8373 226.298 98.5149 224.617C97.0973 222.815 94.956 221.561 93.2949 221.561C91.7463 221.561 90.4795 222.096 90.4795 222.75ZM81.1995 227.868C81.1995 228.899 82.6333 229.673 84.9614 229.898C87.7315 230.165 89.1247 231.102 90.2452 233.451C91.0816 235.205 92.3251 236.641 93.0083 236.641C93.7821 236.641 93.9746 235.264 93.5176 232.981C93.1151 230.969 92.2033 228.62 91.4911 227.761C90.7788 226.903 88.1711 226.201 85.698 226.201C82.5614 226.201 81.1995 226.706 81.1995 227.868ZM184.654 230.529C180.535 230.821 178.642 231.428 178.95 232.355C179.245 233.237 182.114 233.741 186.856 233.741C192.669 233.741 194.3 233.363 194.3 232.017C194.3 231.068 193.517 230.247 192.56 230.191C191.603 230.134 188.045 230.286 184.654 230.529ZM71.9195 236.987C71.9195 238.136 75.3415 239.979 81.8399 242.331C87.2965 244.305 92.919 245.921 94.3354 245.921C95.7517 245.921 98.8571 244.317 101.235 242.356C103.613 240.396 105.56 238.047 105.56 237.136C105.56 236.226 104.932 235.481 104.165 235.481C103.397 235.481 101.032 237.165 98.9093 239.223C95.0476 242.965 95.0476 242.965 84.9336 239.593C79.3714 237.737 74.1676 235.998 73.3695 235.727C72.5726 235.454 71.9195 236.023 71.9195 236.987ZM229.038 240.445C228.654 241.442 228.915 243.333 229.617 244.644C230.319 245.955 231.926 247.581 233.19 248.257C235.404 249.443 235.396 249.308 232.961 244.514C231.573 241.779 230.278 239.336 230.086 239.085C229.892 238.834 229.421 239.446 229.038 240.445ZM273.394 248.993C272.957 249.43 272.6 250.222 272.6 250.755C272.6 251.286 284.911 251.721 299.956 251.721C321.325 251.721 327.208 251.403 326.831 250.271C326.468 249.181 319.874 248.743 300.268 248.51C285.924 248.338 273.831 248.556 273.394 248.993ZM167.04 251.141C167.04 252.641 171.035 252.881 196.04 252.881C221.044 252.881 225.04 252.641 225.04 251.141C225.04 249.641 221.044 249.401 196.04 249.401C171.035 249.401 167.04 249.641 167.04 251.141ZM74.2395 253.015C72.0065 253.688 69.2655 255.058 68.1495 256.059C67.0255 257.067 66.1195 259.523 66.1195 261.559C66.1195 263.915 67.0951 266.152 68.8339 267.787C70.3269 269.189 73.3243 270.846 75.4958 271.469C77.6673 272.092 82.8409 272.589 86.9914 272.575C91.8634 272.559 96.2482 271.774 99.357 270.362C102.074 269.129 104.524 267.078 104.974 265.661C105.412 264.278 105.502 262.877 105.172 262.546C104.841 262.217 102.576 261.189 100.135 260.262L95.6995 258.577L100.05 259.136C102.532 259.455 104.4 259.201 104.4 258.543C104.4 257.91 101.929 256.297 98.9081 254.962C95.7088 253.547 90.2615 252.377 85.8581 252.162C81.7007 251.959 76.4725 252.343 74.2395 253.015ZM258.686 257.231C258.69 258.348 259.236 261.219 259.901 263.611C260.638 266.265 261.815 267.961 262.919 267.961C264.294 267.961 264.547 267.229 263.969 264.925C263.55 263.256 262.907 260.385 262.539 258.545C262.171 256.707 261.151 255.201 260.275 255.201C259.398 255.201 258.683 256.114 258.686 257.231ZM237.265 261.688C236.825 264.617 236.774 267.323 237.152 267.7C237.529 268.077 238.325 267.899 238.919 267.303C239.514 266.708 240.355 264.003 240.789 261.291C241.423 257.314 241.237 256.361 239.819 256.361C238.622 256.361 237.809 258.056 237.265 261.688ZM339.301 277.239C338.906 277.878 339.036 278.401 339.59 278.401C340.143 278.401 341.609 279.157 342.848 280.081C344.763 281.51 344.335 281.5 339.984 280.023C335.822 278.609 334.69 278.566 333.911 279.793C333.386 280.622 332.947 282.659 332.937 284.319C332.928 285.979 334.093 289.064 335.53 291.171C336.966 293.28 340.077 296.564 342.444 298.469C345.493 300.922 348.403 302.092 352.425 302.478C355.643 302.788 359.204 302.434 360.646 301.661C362.046 300.913 363.684 299.001 364.287 297.414C365.072 295.35 364.88 293.322 363.607 290.278C362.631 287.94 360.937 285.037 359.845 283.83C358.753 282.622 356.033 280.719 353.8 279.6C351.567 278.482 347.553 277.232 344.879 276.821C342.043 276.386 339.721 276.56 339.301 277.239Z" fill="#1C1C1C"/>
<path fill-rule="evenodd" clip-rule="evenodd" d="M360.443 127.545C356.76 128.722 351.877 131.11 349.592 132.853C345.439 136.021 345.439 136.021 348.437 138.48C350.085 139.832 352.236 142.899 353.216 145.296C354.195 147.693 355.324 152.782 355.723 156.606C356.123 160.431 356.774 163.559 357.169 163.559C357.566 163.559 358.782 160.818 359.871 157.469C360.96 154.12 361.568 152.684 361.22 154.279C360.872 155.874 360.306 159.581 359.963 162.519C359.337 167.858 359.337 167.858 364.809 169.236C367.819 169.994 373.752 172.289 377.991 174.337C382.457 176.493 388.596 180.856 392.588 184.708C399.099 190.993 399.733 191.326 404.188 190.79C406.779 190.478 408.378 190.433 407.74 190.689C407.102 190.946 401.473 192.334 395.231 193.774C388.991 195.214 384.059 196.704 384.273 197.085C384.487 197.467 385.63 199.867 386.813 202.419C387.995 204.971 389.274 210.452 389.652 214.599L390.34 222.139L405.42 222.099C417.547 222.066 422.09 221.565 428.62 219.54C433.086 218.155 438.92 215.415 441.585 213.452C444.498 211.306 447.62 207.495 449.415 203.893C451.814 199.079 452.4 196.217 452.4 189.309C452.4 184.582 451.573 177.507 450.561 173.586C449.549 169.666 446.826 162.843 444.509 158.423C442.192 154.003 437.46 147.324 433.994 143.58C430.528 139.836 425.372 135.413 422.537 133.752C419.7 132.091 415.486 130.079 413.171 129.283C409.013 127.854 408.9 127.898 404.29 132.819C401.371 135.935 397.81 138.34 394.795 139.234C392.141 140.02 388.748 140.345 387.255 139.955C385.761 139.566 382.899 138.234 380.895 136.996C378.889 135.759 376.309 132.615 375.161 130.012C373.485 126.213 372.487 125.292 370.107 125.342C368.475 125.375 364.126 126.367 360.443 127.545ZM93.361 143.88C92.1999 146.455 89.2628 150.356 86.8337 152.551C84.4059 154.744 81.0685 156.879 79.4202 157.293C77.7707 157.707 74.0818 157.781 71.2224 157.459C68.363 157.137 63.5711 155.358 60.5748 153.505C57.5785 151.653 54.0718 148.255 52.7819 145.956C50.4364 141.774 50.4364 141.774 44.648 144.711C41.465 146.326 35.7276 150.84 31.8996 154.74C27.9579 158.757 23.0395 165.451 20.5571 170.177C18.1466 174.767 15.1457 182.547 13.8871 187.466C12.4162 193.217 11.5996 200.258 11.5996 207.188C11.5996 213.115 12.161 220.581 12.8466 223.779C13.5322 226.977 15.2327 231.31 16.6259 233.406C18.019 235.503 21.4828 238.393 24.3248 239.829C28.1215 241.747 31.5029 242.437 37.0755 242.431C41.2469 242.426 48.9539 241.394 54.2018 240.135C59.4496 238.877 67.0905 236.329 71.1818 234.475C78.6198 231.102 78.6198 231.102 78.4678 223.72C78.3506 218.056 78.9376 215.152 80.9885 211.239L83.6611 206.137L65.9004 206.732C56.132 207.06 48.7927 207.094 49.5896 206.807C50.3877 206.52 51.0698 204.632 51.1069 202.613C51.1428 200.592 51.6161 196.851 52.1567 194.299C53.0128 190.262 53.1172 190.714 52.9606 197.779C52.7796 205.899 52.7796 205.899 59.7187 205.484C66.2553 205.094 67.0418 204.715 73.2408 198.976C76.86 195.625 83.1333 190.716 87.1806 188.069C91.2278 185.42 97.5417 182.088 101.21 180.662C105.27 179.086 107.869 177.387 107.852 176.325C107.837 175.364 106.558 171.5 105.011 167.736C103.465 163.973 102.738 161.434 103.399 162.094C104.059 162.754 105.811 165.809 107.293 168.883L109.986 174.472L110.813 168.726C111.268 165.565 112.695 159.883 113.984 156.098C116.327 149.217 116.327 149.217 112.973 146.427C111.129 144.892 107.532 142.65 104.98 141.444C102.428 140.237 99.2446 139.239 97.9059 139.225C96.174 139.206 94.8633 140.548 93.361 143.88ZM225.897 149.592C223.497 150.058 221.227 150.746 220.851 151.122C220.475 151.497 220.452 152.265 220.799 152.827C221.159 153.411 225.066 153.43 229.906 152.871C234.567 152.331 242.673 152.037 247.919 152.215C253.675 152.41 257.498 152.079 257.558 151.379C257.612 150.741 256.451 149.879 254.978 149.465C253.505 149.05 247.341 148.718 241.28 148.728C235.219 148.738 228.297 149.126 225.897 149.592ZM412.387 171.099C412.806 172.375 413.824 176.914 414.649 181.186C416.146 188.954 416.146 188.954 412.523 189.411C409.134 189.838 409.181 189.879 413.25 190.053C416.063 190.173 417.594 189.726 417.582 188.789C417.573 187.992 416.782 184.016 415.825 179.953C414.867 175.892 413.53 171.716 412.854 170.673C411.817 169.076 411.744 169.143 412.387 171.099ZM356.7 171.4C357.338 172.033 361.352 173.693 365.62 175.087C369.889 176.481 376.414 179.598 380.12 182.014C383.827 184.429 387.854 187.528 389.069 188.902C390.285 190.275 391.981 191.399 392.839 191.399C393.698 191.399 394.4 190.68 394.4 189.801C394.4 188.92 391.659 186.099 388.31 183.53C384.961 180.959 378.852 177.155 374.738 175.076C370.36 172.863 364.823 171.077 361.398 170.771C357.514 170.424 355.931 170.635 356.7 171.4ZM98.5996 183.606C94.4526 185.695 88.7106 189.037 85.8396 191.031C82.9686 193.025 78.8773 196.475 76.7487 198.698C74.1143 201.447 73.3128 203.006 74.2384 203.579C75.0226 204.063 77.157 202.938 79.2694 200.926C81.2878 199.004 86.0937 195.422 89.9483 192.965C93.803 190.509 99.6877 187.23 103.025 185.678C106.362 184.127 108.918 182.333 108.703 181.691C108.49 181.05 107.825 180.363 107.228 180.166C106.629 179.968 102.747 181.516 98.5996 183.606ZM215.76 180.878C210.975 181.242 207.06 182.061 207.06 182.699C207.06 183.392 212.664 183.974 220.98 184.146C228.636 184.303 245.297 184.042 258.006 183.566C274.824 182.935 281.242 182.305 281.592 181.249C281.969 180.111 275.868 179.844 253.266 180.008C237.423 180.123 220.545 180.515 215.76 180.878ZM287.68 180.937C287.68 181.562 288.865 182.372 290.314 182.736C291.763 183.099 296.55 183.24 300.951 183.048C306.059 182.826 309.128 182.175 309.434 181.249C309.795 180.156 307.172 179.799 298.796 179.799C292.302 179.799 287.68 180.272 287.68 180.937ZM267.96 192.48C261.052 192.854 255.78 193.641 255.78 194.299C255.78 194.997 262.018 195.605 271.44 195.827C280.053 196.029 292.476 195.845 299.048 195.421C307.256 194.89 310.858 194.231 310.552 193.313C310.251 192.405 305.328 191.954 295.124 191.9C286.883 191.857 274.659 192.118 267.96 192.48ZM207.64 194.299C207.64 195.76 210.153 196.039 223.3 196.039C236.446 196.039 238.96 195.76 238.96 194.299C238.96 192.839 236.446 192.559 223.3 192.559C210.153 192.559 207.64 192.839 207.64 194.299ZM209.601 204.971C207.774 205.26 206.542 206.087 206.797 206.853C207.092 207.738 210.286 208.219 215.856 208.219C222.73 208.219 224.46 207.87 224.46 206.479C224.46 205.183 222.979 204.703 218.66 204.598C215.47 204.52 211.393 204.688 209.601 204.971ZM280.155 206.455C279.746 207.115 280.127 207.93 281 208.264C281.874 208.6 288.956 208.727 296.738 208.546C305.179 208.351 310.888 207.752 310.888 207.059C310.887 206.362 304.9 205.77 295.892 205.577C286.455 205.372 280.622 205.698 280.155 206.455ZM280.365 217.66C279.956 218.069 279.901 218.852 280.239 219.4C280.579 219.95 283.174 220.399 286.008 220.399C289.814 220.399 291.16 219.944 291.16 218.659C291.16 217.38 289.828 216.919 286.133 216.919C283.368 216.919 280.773 217.253 280.365 217.66ZM296.96 218.659C296.96 220.027 298.571 220.399 304.5 220.399C310.428 220.399 312.04 220.027 312.04 218.659C312.04 217.291 310.428 216.919 304.5 216.919C298.571 216.919 296.96 217.291 296.96 218.659ZM206.48 219.71C206.48 220.792 208.47 221.615 212.387 222.154C216.305 222.692 218.745 222.517 219.628 221.635C220.63 220.632 220.533 220.033 219.23 219.209C218.278 218.607 215.021 218.107 211.99 218.097C208.02 218.084 206.48 218.535 206.48 219.71ZM412.703 239.829C412.239 253.211 411.642 257.273 408.99 265.059C407.251 270.163 404.228 277.141 402.272 280.564C400.316 283.987 396.225 289.78 393.183 293.436C390.14 297.092 384.341 302.592 380.295 305.657C376.249 308.723 369.286 312.931 364.82 315.011C360.354 317.091 353.568 319.588 349.74 320.56C345.912 321.534 341.214 322.493 339.3 322.694C337.142 322.92 335.82 323.72 335.82 324.799C335.82 326.145 337.002 326.452 341.04 326.155C343.911 325.943 350.958 324.216 356.7 322.316C362.442 320.417 370.794 316.587 375.26 313.808C379.726 311.029 387.065 304.926 391.57 300.247C396.076 295.567 401.648 288.602 403.955 284.768C406.262 280.934 409.455 273.887 411.051 269.108C412.649 264.329 414.559 255.982 415.299 250.559C416.061 244.967 416.306 237.059 415.863 232.289C415.433 227.663 414.671 223.879 414.169 223.879C413.667 223.879 413.008 231.057 412.703 239.829ZM279.27 229.318C278.153 229.611 277.24 230.309 277.24 230.872C277.24 231.434 279.119 232.246 281.414 232.678C283.71 233.108 291.663 233.086 299.088 232.629C306.512 232.172 312.994 231.546 313.492 231.238C313.99 230.931 314.097 230.193 313.73 229.599C313.363 229.005 305.916 228.579 297.181 228.654C288.446 228.728 280.387 229.027 279.27 229.318ZM209.019 230.524C206.735 230.804 205.361 231.552 205.629 232.368C205.878 233.122 208.389 233.875 211.21 234.042C214.031 234.208 217.059 233.875 217.938 233.301C218.817 232.728 219.178 231.678 218.74 230.969C218.301 230.259 216.799 229.763 215.401 229.865C214.003 229.967 211.131 230.264 209.019 230.524ZM57.6133 242.053C57.1876 242.477 56.8396 247.081 56.8396 252.282C56.8396 257.532 57.6632 264.541 58.6898 268.038C59.7083 271.504 62.1802 277.471 64.1836 281.299C66.3806 285.496 71.5171 291.943 77.1234 297.539C83.022 303.427 89.6606 308.643 95.2866 311.809C100.163 314.554 109.298 318.64 115.587 320.889C121.875 323.138 133.216 326.532 140.791 328.431C148.366 330.33 155.564 331.724 156.788 331.532C158.01 331.338 158.86 330.659 158.676 330.025C158.49 329.39 150.771 326.969 141.52 324.646C132.269 322.323 120.524 318.796 115.42 316.81C110.316 314.824 102.639 311.241 98.3595 308.849C94.0802 306.456 87.7954 302.17 84.3942 299.322C80.9931 296.475 76.0759 291.516 73.4682 288.302C70.8605 285.089 67.5383 280.11 66.086 277.239C64.6336 274.368 62.7486 269.409 61.896 266.219C61.0446 263.029 60.3405 256.112 60.3335 250.849C60.3254 245.586 59.8846 241.279 59.3533 241.279C58.8209 241.279 58.0379 241.627 57.6133 242.053ZM226.587 270.837C222.015 271.666 214.869 273.478 210.707 274.863C206.543 276.248 200.105 279.353 196.399 281.76C192.692 284.168 186.267 289.756 182.12 294.176C177.973 298.598 172.82 305.533 170.668 309.585C168.517 313.638 166.044 319.632 165.172 322.906C164.301 326.181 163.58 330.284 163.574 332.026C163.565 333.767 164.351 337.171 165.318 339.588C166.286 342.007 168.24 344.711 169.66 345.598C171.081 346.484 174.043 347.616 176.243 348.113C178.444 348.609 182.845 348.521 186.023 347.919C189.201 347.316 191.998 346.627 192.238 346.388C192.477 346.149 193.946 339.757 195.503 332.186C197.058 324.615 198.814 316.853 199.406 314.939C200.433 311.615 200.485 311.59 200.58 314.4C200.634 316.017 199.406 325.152 197.85 334.7C196.295 344.248 194.71 355.452 194.33 359.599C193.948 363.746 193.384 369.12 193.076 371.544C192.521 375.894 192.59 375.981 198.628 378.714C201.989 380.236 208.916 382.387 214.02 383.497C220.91 384.994 228.528 385.503 243.6 385.475C256.029 385.451 268.622 384.722 276.08 383.597C282.779 382.586 291.001 381.166 294.35 380.443C300.325 379.152 300.441 379.047 300.524 374.873C300.571 372.533 300.547 366.704 300.471 361.919C300.394 357.134 299.566 347.961 298.629 341.533C297.692 335.107 295.923 326.233 294.698 321.813C293.473 317.395 292.136 312.735 291.728 311.459C291.151 309.662 291.242 309.531 292.125 310.879C292.751 311.836 294.41 316.012 295.811 320.159C297.211 324.306 298.977 331.092 299.735 335.239C300.988 342.092 301.479 342.969 305.127 344.873C307.867 346.302 310.745 346.802 314.201 346.451C317.25 346.14 321.154 344.605 324.024 342.588C326.997 340.499 329.423 337.565 330.484 334.779C331.872 331.129 331.945 328.935 330.886 322.746C330.173 318.582 327.907 311.729 325.852 307.517C323.316 302.323 319.422 297.193 313.747 291.574C307.242 285.133 302.959 282.108 294.5 277.977C288.017 274.811 280.006 271.948 274.678 270.892C269.124 269.791 259.898 269.159 250.318 269.223C241.838 269.282 231.159 270.008 226.587 270.837ZM248.919 316.296C247.733 318.74 244.746 325.654 242.281 331.661C239.816 337.668 237.8 343.31 237.8 344.199C237.8 345.089 238.283 345.517 238.875 345.151C239.465 344.786 242.631 337.679 245.909 329.356C249.186 321.034 251.691 313.691 251.473 313.039C251.256 312.387 250.107 313.853 248.919 316.296ZM224.376 321.92C219.318 325.442 215.18 329.02 215.18 329.874C215.18 330.728 218.012 333.844 221.476 336.799C224.939 339.756 228.071 341.863 228.436 341.483C228.8 341.103 226.374 338.34 223.042 335.342L216.983 329.892L225.721 323.644C230.525 320.207 234.717 316.974 235.036 316.458C235.355 315.941 235.157 315.519 234.595 315.519C234.033 315.519 229.435 318.399 224.376 321.92ZM264.48 319.188C267.989 321.178 272.122 323.585 273.663 324.537C276.467 326.266 276.467 326.266 267.863 334.182C263.132 338.536 259.847 342.121 260.566 342.148C261.284 342.176 265.721 338.756 270.426 334.549C275.13 330.34 279.13 326.495 279.315 326.002C279.5 325.509 275.505 322.948 270.439 320.312C265.372 317.676 260.522 315.531 259.662 315.545C258.803 315.559 260.971 317.199 264.48 319.188Z" fill="#3CA4FC"/>
<path d="M107 248L110 251.5" stroke="black"/>
</svg>
