<svg width="1404" height="596" viewBox="0 0 1404 596" fill="none" xmlns="http://www.w3.org/2000/svg">
<path fill-rule="evenodd" clip-rule="evenodd" d="M900.354 549.313C899.952 549.09 899.491 548.964 899 548.964C897.456 548.964 896.201 550.219 896.201 551.762C896.201 553.306 897.456 554.561 899 554.561C900.543 554.561 901.798 553.306 901.798 551.762C901.798 551.598 901.784 551.436 901.756 551.279C901.613 550.467 901.117 549.774 900.429 549.362C900.403 549.347 900.378 549.33 900.354 549.313ZM896.332 555.75C895.048 554.889 894.201 553.424 894.201 551.762C894.201 549.114 896.351 546.964 899 546.964C899.562 546.964 900.103 547.061 900.605 547.239C906.129 539.55 915.156 534.539 925.35 534.539C942.17 534.539 955.813 548.177 955.813 564.997C955.813 581.817 942.175 595.455 925.355 595.455C908.534 595.455 894.896 581.817 894.896 564.997C894.896 561.772 895.402 558.668 896.332 555.75ZM903.733 550.969C903.776 551.229 903.799 551.495 903.799 551.767C903.799 554.415 901.649 556.566 899.001 556.566C898.725 556.566 898.455 556.542 898.194 556.497C897.353 559.182 896.896 562.034 896.896 564.997C896.896 580.713 909.639 593.455 925.355 593.455C941.07 593.455 953.813 580.713 953.813 564.997C953.813 549.282 941.066 536.539 925.35 536.539C915.878 536.539 907.484 541.168 902.312 548.291C903.046 548.991 903.559 549.923 903.733 550.969ZM902.576 564.994C902.576 552.419 912.77 542.226 925.345 542.226C937.92 542.226 948.113 552.419 948.113 564.994C948.113 570.01 946.487 574.641 943.741 578.403C944.189 579.132 944.446 579.99 944.446 580.908C944.446 583.558 942.298 585.706 939.648 585.706C938.548 585.706 937.535 585.336 936.726 584.714C933.378 586.651 929.493 587.763 925.345 587.763C912.77 587.763 902.576 577.569 902.576 564.994ZM937.591 582.801C937.604 582.815 937.616 582.83 937.628 582.845C938.138 583.376 938.854 583.706 939.648 583.706C941.193 583.706 942.446 582.453 942.446 580.908C942.446 580.225 942.202 579.6 941.796 579.115C941.784 579.102 941.771 579.09 941.759 579.076C941.754 579.07 941.748 579.064 941.743 579.058C941.229 578.476 940.481 578.11 939.649 578.11C938.106 578.11 936.851 579.365 936.851 580.908C936.851 581.634 937.132 582.296 937.591 582.801ZM946.113 564.994C946.113 569.441 944.714 573.553 942.335 576.932C941.568 576.413 940.644 576.109 939.648 576.109C936.998 576.109 934.85 578.258 934.85 580.908C934.85 581.722 935.053 582.489 935.411 583.161C932.429 584.817 929.001 585.763 925.345 585.763C913.874 585.763 904.576 576.465 904.576 564.994C904.576 553.524 913.874 544.226 925.345 544.226C936.815 544.226 946.113 553.524 946.113 564.994ZM925.351 557.897C921.429 557.897 918.25 561.077 918.25 564.998C918.25 568.92 921.429 572.099 925.351 572.099C929.272 572.099 932.452 568.92 932.452 564.998C932.452 561.077 929.272 557.897 925.351 557.897ZM916.25 564.998C916.25 559.972 920.325 555.897 925.351 555.897C930.377 555.897 934.452 559.972 934.452 564.998C934.452 570.024 930.377 574.099 925.351 574.099C920.325 574.099 916.25 570.024 916.25 564.998ZM925.846 550.011C925.538 549.835 925.16 549.835 924.853 550.011L920.237 552.654L915.103 554.048C914.76 554.141 914.493 554.409 914.4 554.751L913.005 559.885L910.363 564.501C910.186 564.809 910.186 565.187 910.363 565.495L913.005 570.106L914.4 575.24C914.493 575.582 914.76 575.85 915.103 575.943L920.237 577.338L924.853 579.98C925.16 580.156 925.538 580.156 925.846 579.98L930.462 577.337L935.592 575.943C935.934 575.85 936.201 575.583 936.294 575.241L937.693 570.106L940.332 565.494C940.508 565.187 940.508 564.809 940.332 564.502L937.693 559.885L936.294 554.75C936.201 554.408 935.934 554.141 935.592 554.048L930.462 552.654L925.846 550.011ZM921.119 554.453L925.349 552.031L929.579 554.453C929.653 554.495 929.732 554.528 929.814 554.55L934.515 555.828L935.797 560.534C935.819 560.615 935.852 560.694 935.894 560.767L938.312 564.998L935.894 569.224C935.852 569.297 935.82 569.376 935.797 569.457L934.515 574.163L929.814 575.441C929.732 575.463 929.653 575.496 929.579 575.538L925.349 577.96L921.119 575.538C921.045 575.496 920.967 575.463 920.885 575.441L916.18 574.163L914.902 569.458C914.879 569.376 914.847 569.297 914.804 569.223L912.383 564.998L914.804 560.768C914.847 560.694 914.879 560.615 914.902 560.533L916.18 555.828L920.885 554.55C920.967 554.528 921.045 554.495 921.119 554.453Z" fill="#4D2C5E" fill-opacity="0.1"/>
<path fill-rule="evenodd" clip-rule="evenodd" d="M993.479 16.3273C997.596 3.85876 1011.04 -2.91175 1023.51 1.20532C1035.98 5.32239 1042.75 18.7685 1038.63 31.237C1037.24 35.4698 1034.76 39.0518 1031.61 41.7723C1031.07 42.2308 1030.53 42.6625 1029.96 43.0673C1029.9 43.1179 1029.83 43.1635 1029.79 43.1925C1028.71 43.986 1022.09 49.0276 1017.61 56.6924L1017 57.741L1015.84 57.3605L1010.44 55.5779L1010.51 55.621L1008.53 54.9485L996.413 50.9489C995.496 50.9429 994.636 51.5183 994.326 52.4345C993.936 53.5847 994.551 54.8296 995.694 55.2169L995.695 55.2172L1013.97 61.4245L1013.97 61.4253C1015.12 61.8152 1016.36 61.2049 1016.75 60.0514L1016.75 60.0491C1016.82 59.8321 1016.86 59.6115 1016.86 59.3937L1019.59 61.0128C1018.67 63.7313 1015.73 65.1929 1013.01 64.2647L1013 64.2644L1000.01 59.851L999.574 59.7991L994.705 58.1467L994.704 58.1466C993.772 57.831 992.778 58.1754 992.228 58.9258L989.081 58.5517C989.553 57.1603 990.556 56.1022 991.788 55.5238C991.164 54.3137 991.014 52.8613 991.484 51.472C992.095 49.6693 993.599 48.4247 995.334 48.0593C995.972 39.7315 993.848 32.4092 993.47 31.1997C993.455 31.1552 993.443 31.1151 993.436 31.0897L993.435 31.0896L993.434 31.0855C993.424 31.053 993.421 31.0414 993.418 31.0316L993.414 31.0209L993.414 31.0209C993.194 30.3456 993.01 29.6639 992.855 28.9878L992.854 28.9823C991.937 24.9196 992.078 20.5655 993.479 16.3273ZM992.228 58.9258L999.574 59.7991L1012.98 64.3486L1012.98 64.3488C1014.12 64.7358 1014.74 65.9797 1014.35 67.1294C1013.96 68.2773 1012.71 68.8882 1011.57 68.4999L1011.57 68.4998L993.292 62.2929L993.291 62.2925C992.146 61.9048 991.534 60.6594 991.922 59.5166L991.922 59.5154C991.996 59.2989 992.1 59.1013 992.228 58.9258ZM1016.86 59.3937L1010.51 55.621L1015.38 57.2728L1015.38 57.2732C1016.31 57.5873 1016.88 58.4644 1016.86 59.3937ZM1009.55 52.1233L1004.71 50.528L1008.59 38.777L1011 39.5739L1011 39.5761L1013.42 40.375L1009.55 52.1233ZM1012.4 53.0633L1015.65 54.137C1020.42 46.5016 1026.92 41.5717 1028.03 40.7606L1028.05 40.7519L1028.06 40.7434C1028.12 40.7016 1028.14 40.6874 1028.15 40.6783L1028.17 40.66L1028.2 40.6426C1028.69 40.2875 1029.17 39.9077 1029.64 39.5029L1029.64 39.5023C1032.4 37.1252 1034.56 33.9979 1035.78 30.2968L1035.78 30.2963C1039.38 19.4011 1033.47 7.6516 1022.57 4.05404C1011.67 0.456464 999.925 6.37272 996.328 17.2679L996.327 17.2686C995.102 20.9742 994.98 24.7731 995.78 28.3194C995.917 28.9179 996.078 29.5108 996.266 30.0893C996.282 30.1374 996.295 30.1812 996.303 30.2082L996.304 30.2123C996.314 30.2448 996.318 30.2564 996.321 30.2662L996.325 30.2791L996.33 30.2921C996.74 31.6036 999.022 39.4182 998.318 48.3744L998.485 48.4735L1001.86 49.588L1005.74 37.8366L1004.02 37.2676L1004.01 37.2671C1001.5 36.4323 1000.12 33.7128 1000.95 31.1844C1001.79 28.6648 1004.51 27.2853 1007.04 28.123C1009.56 28.9577 1010.93 31.6766 1010.1 34.2047L1010.1 34.2057L1009.53 35.9281L1011.95 36.7269L1011.95 36.729L1014.36 37.5261L1014.93 35.8028L1014.93 35.801C1015.77 33.2774 1018.49 31.9103 1021.01 32.7384L1021.02 32.7397C1023.54 33.5758 1024.91 36.2964 1024.08 38.8185L1024.08 38.8224C1023.24 41.3459 1020.52 42.713 1018 41.885L1018 41.8842L1016.27 41.3154L1012.4 53.0633ZM994.292 62.7224L992.424 62.0884L992.312 64.0578C992.055 68.5932 994.847 72.9121 999.368 74.4068L999.369 74.4072C1003.83 75.8783 1008.58 74.1298 1011.1 70.4374L1012.22 68.8058L1010.34 68.1707L994.292 62.7224ZM1000.31 71.5583C997.807 70.7309 996.052 68.6832 995.489 66.2968L1007.22 70.277C1005.35 71.8009 1002.77 72.3676 1000.31 71.5583ZM1006.68 34.9877L1007.25 33.2639L1007.25 33.2622C1007.56 32.3153 1007.05 31.2874 1006.09 30.9708C1005.15 30.6571 1004.12 31.1722 1003.8 32.1279C1003.49 33.0745 1004 34.1021 1004.96 34.419L1004.96 34.4193L1006.68 34.9877ZM1017.78 36.7446L1017.78 36.7439C1018.1 35.7933 1019.12 35.2765 1020.07 35.5881C1021.02 35.9039 1021.54 36.9289 1021.23 37.8809C1020.91 38.831 1019.89 39.3471 1018.93 39.035L1018.93 39.0347L1017.21 38.4664L1017.78 36.7446ZM1039.93 36.3794C1040.19 35.5929 1041.03 35.1661 1041.82 35.4262L1047.72 37.3784C1048.51 37.6385 1048.94 38.4869 1048.68 39.2735C1048.42 40.06 1047.57 40.4868 1046.78 40.2267L1040.88 38.2745C1040.09 38.0144 1039.67 37.166 1039.93 36.3794ZM1050.43 29.969C1051.25 29.8456 1051.81 29.0815 1051.69 28.2623C1051.57 27.4431 1050.8 26.8791 1049.98 27.0025L1043.83 27.9289C1043.01 28.0523 1042.45 28.8164 1042.57 29.6356C1042.7 30.4547 1043.46 31.0188 1044.28 30.8954L1050.43 29.969ZM1036.16 42.1654C1036.75 41.581 1037.7 41.5833 1038.28 42.1705L1042.67 46.5773C1043.25 47.1645 1043.25 48.1142 1042.66 48.6986C1042.08 49.283 1041.13 49.2808 1040.54 48.6936L1036.16 44.2867C1035.57 43.6995 1035.58 42.7498 1036.16 42.1654ZM981.083 15.38C980.297 15.1206 979.448 15.548 979.189 16.3348C978.929 17.1215 979.357 17.9696 980.144 18.2291L986.047 20.1761C986.834 20.4355 987.682 20.0081 987.942 19.2213C988.201 18.4346 987.774 17.5865 986.987 17.327L981.083 15.38ZM983.33 5.6921C983.917 5.10771 984.867 5.10998 985.451 5.69716L989.837 10.104C990.421 10.6912 990.419 11.641 989.832 12.2254C989.245 12.8097 988.295 12.8075 987.71 12.2203L983.325 7.81342C982.74 7.22623 982.742 6.27649 983.33 5.6921ZM986.265 27.8187C987.084 27.6952 987.648 26.931 987.524 26.1118C987.401 25.2927 986.637 24.7287 985.818 24.8522L979.673 25.7786C978.854 25.9021 978.29 26.6663 978.413 27.4855C978.537 28.3046 979.301 28.8686 980.12 28.7451L986.265 27.8187Z" fill="#4D2C5E" fill-opacity="0.1"/>
<path fill-rule="evenodd" clip-rule="evenodd" d="M788.802 59.4053C785.912 58.5433 782.874 60.1841 782.012 63.0706L782.012 63.071L773.028 93.1599L837.753 112.496L846.738 82.4076C847.6 79.5171 845.96 76.4784 843.073 75.6171L843.072 75.6169L788.803 59.4055L788.802 59.4053ZM767.341 98.223L768.601 94.0052C768.607 93.9804 768.614 93.9557 768.621 93.931C768.629 93.9064 768.636 93.8821 768.645 93.8581L778.179 61.9269L778.18 61.9265C779.674 56.9194 784.943 54.0796 789.947 55.5725L789.947 55.5727L844.217 71.784L844.217 71.7842C849.224 73.2785 852.064 78.5477 850.571 83.5512L850.571 83.5516L839.733 119.848L839.732 119.85C838.233 124.848 832.967 127.696 827.965 126.202L810.439 120.967L809.403 124.436L813.061 125.528C814.119 125.844 814.721 126.959 814.405 128.017C814.088 129.075 812.974 129.677 811.916 129.361L785.381 121.434C784.323 121.118 783.721 120.004 784.037 118.946C784.353 117.887 785.468 117.286 786.526 117.602L790.2 118.699L791.236 115.23L773.696 109.991L773.695 109.99C768.688 108.496 765.848 103.227 767.341 98.2234L767.341 98.223ZM836.609 116.328L771.883 96.9927L771.174 99.3671C770.312 102.258 771.952 105.296 774.839 106.158L774.84 106.158L829.11 122.369C831.992 123.23 835.034 121.589 835.9 118.702L835.9 118.701L836.609 116.328ZM802.666 111.943C803.651 112.237 804.69 111.676 804.985 110.691C805.279 109.707 804.718 108.667 803.733 108.373C802.749 108.078 801.709 108.64 801.415 109.624C801.12 110.609 801.682 111.648 802.666 111.943ZM795.067 116.38L794.141 119.481L805.679 122.927L806.605 119.826L795.067 116.38Z" fill="#4D2C5E" fill-opacity="0.1"/>
<path fill-rule="evenodd" clip-rule="evenodd" d="M1337.41 39.1061C1337.42 39.1621 1337.43 39.2183 1337.43 39.2746C1340.41 38.2417 1343.76 37.4541 1347.37 36.9639C1349.39 34.4738 1351.51 32.2699 1353.66 30.4071C1353.35 30.1887 1353.04 29.979 1352.73 29.7782C1347.7 26.4689 1343.49 25.8488 1340.83 27.4688C1338.17 29.0888 1336.79 33.1119 1337.41 39.1061ZM1334.43 39.4182C1334.46 39.743 1334.5 40.0709 1334.55 40.4018C1334.25 40.5337 1333.95 40.6684 1333.66 40.8058C1327.96 43.5087 1323.78 47.5373 1323.78 52.4858C1323.78 57.4343 1327.96 61.4629 1333.66 64.1658C1333.96 64.3046 1334.25 64.4406 1334.56 64.5738C1334.51 64.913 1334.47 65.249 1334.44 65.5817C1333.78 71.8574 1335.05 77.5202 1339.27 80.0934C1343.5 82.6666 1349.11 81.1936 1354.39 77.7288C1354.95 77.3605 1355.51 76.9664 1356.07 76.5475C1356.63 76.964 1357.19 77.3559 1357.75 77.7224C1363.02 81.1871 1368.64 82.6601 1372.86 80.0869C1377.09 77.5137 1378.36 71.8509 1377.7 65.5752C1377.67 65.2491 1377.63 64.9198 1377.58 64.5874C1377.9 64.4499 1378.21 64.3093 1378.51 64.1658C1384.21 61.4629 1388.39 57.4343 1388.39 52.4858C1388.39 47.5373 1384.21 43.5087 1378.51 40.8058C1378.21 40.6637 1377.9 40.5244 1377.59 40.3882C1377.64 40.0641 1377.68 39.7429 1377.71 39.4247C1378.37 33.1489 1377.1 27.4862 1372.87 24.913C1368.64 22.3398 1363.03 23.8128 1357.76 27.2775C1357.2 27.6452 1356.64 28.0386 1356.07 28.4567C1355.51 28.0362 1354.94 27.6406 1354.38 27.2711C1349.11 23.8063 1343.5 22.3333 1339.27 24.9065C1335.04 27.4797 1333.77 33.1425 1334.43 39.4182ZM1359.4 75.2152C1359.1 75.0176 1358.8 74.8114 1358.49 74.5968C1360.64 72.7257 1362.78 70.5109 1364.81 68.0076C1368.39 67.5197 1371.73 66.737 1374.7 65.7111C1374.71 65.77 1374.71 65.8287 1374.72 65.8873C1375.35 71.8815 1373.97 75.9046 1371.3 77.5246C1368.64 79.1446 1364.44 78.5245 1359.4 75.2152ZM1377.23 61.4549C1377.17 61.4831 1377.11 61.5111 1377.05 61.539C1376.42 58.6585 1375.44 55.6114 1374.13 52.5069C1375.45 49.3892 1376.43 46.3293 1377.06 43.4377C1377.11 43.4639 1377.17 43.4903 1377.23 43.5167C1382.67 46.0984 1385.39 49.3704 1385.39 52.4858C1385.39 55.6012 1382.67 58.8732 1377.23 61.4549ZM1374.22 62.6977C1373.81 60.653 1373.2 58.4928 1372.39 56.2665C1371.61 57.804 1370.76 59.3447 1369.82 60.8758C1369.05 62.142 1368.25 63.3644 1367.43 64.5385C1369.88 64.064 1372.16 63.4414 1374.22 62.6977ZM1374.23 42.2778C1373.82 44.3339 1373.2 46.507 1372.39 48.7468C1371.61 47.2049 1370.75 45.6596 1369.82 44.1241C1369.04 42.8456 1368.23 41.6119 1367.4 40.4273C1369.87 40.9034 1372.16 41.5294 1374.23 42.2778ZM1367.26 45.6841C1365.97 43.573 1364.6 41.6 1363.19 39.7844C1360.92 39.5237 1358.54 39.3847 1356.09 39.3847C1353.62 39.3847 1351.23 39.525 1348.95 39.788C1347.54 41.6044 1346.17 43.5784 1344.88 45.6906C1343.5 47.9684 1342.3 50.2561 1341.28 52.5065C1342.29 54.7526 1343.49 57.0359 1344.88 59.3093C1346.16 61.4092 1347.51 63.3724 1348.92 65.1801C1351.21 65.4453 1353.61 65.5869 1356.09 65.5869C1358.55 65.5869 1360.94 65.4466 1363.22 65.1837C1364.63 63.3769 1365.98 61.4146 1367.26 59.3158C1368.65 57.0402 1369.85 54.7547 1370.86 52.5064C1369.85 50.254 1368.64 47.964 1367.26 45.6841ZM1374.71 39.2635C1371.73 38.233 1368.38 37.4476 1364.77 36.9596C1362.75 34.4718 1360.63 32.2696 1358.49 30.4077C1358.8 30.1914 1359.1 29.9837 1359.4 29.7847C1364.44 26.4754 1368.65 25.8552 1371.31 27.4753C1373.97 29.0953 1375.35 33.1183 1374.73 39.1126C1374.72 39.1628 1374.71 39.2131 1374.71 39.2635ZM1360.45 36.5267C1359.01 34.9424 1357.54 33.5226 1356.07 32.2857C1354.61 33.523 1353.14 34.9434 1351.69 36.5287C1353.13 36.4337 1354.6 36.3847 1356.09 36.3847C1357.56 36.3847 1359.02 36.433 1360.45 36.5267ZM1335.1 61.5253C1335.72 58.6487 1336.7 55.6064 1338.01 52.5069C1336.69 49.3943 1335.71 46.3391 1335.09 43.4514C1335.04 43.4731 1334.99 43.4949 1334.95 43.5167C1329.5 46.0984 1326.78 49.3704 1326.78 52.4858C1326.78 55.6012 1329.5 58.8733 1334.95 61.4549C1335 61.4784 1335.05 61.5019 1335.1 61.5253ZM1337.91 42.2888C1338.32 44.342 1338.94 46.5117 1339.75 48.7479C1340.53 47.2078 1341.39 45.6643 1342.32 44.1306C1343.1 42.8521 1343.91 41.6184 1344.74 40.4339C1342.27 40.9114 1339.98 41.5389 1337.91 42.2888ZM1342.31 60.8693C1341.38 59.34 1340.53 57.8012 1339.75 56.2655C1338.95 58.488 1338.33 60.6449 1337.92 62.6867C1339.98 63.4319 1342.26 64.0559 1344.71 64.532C1343.89 63.3579 1343.09 62.1355 1342.31 60.8693ZM1337.44 65.7C1340.41 66.7283 1343.75 67.5133 1347.33 68.0033C1349.37 70.5088 1351.5 72.7254 1353.65 74.5974C1353.35 74.8141 1353.04 75.0223 1352.74 75.2217C1347.7 78.531 1343.5 79.1511 1340.83 77.5311C1338.17 75.9111 1336.79 71.888 1337.42 65.8938C1337.43 65.8294 1337.43 65.7648 1337.44 65.7ZM1356.07 72.7191C1354.6 71.4728 1353.11 70.0404 1351.66 68.4407C1353.11 68.5372 1354.59 68.5869 1356.09 68.5869C1357.58 68.5869 1359.04 68.5379 1360.48 68.4427C1359.03 70.0414 1357.55 71.4731 1356.07 72.7191ZM1353.72 52.4852C1353.72 51.179 1354.78 50.1201 1356.09 50.1201C1357.39 50.1201 1358.45 51.179 1358.45 52.4852C1358.45 53.7914 1357.39 54.8503 1356.09 54.8503C1354.78 54.8503 1353.72 53.7914 1353.72 52.4852ZM1356.09 47.1201C1353.12 47.1201 1350.72 49.5221 1350.72 52.4852C1350.72 55.4483 1353.12 57.8503 1356.09 57.8503C1359.05 57.8503 1361.45 55.4483 1361.45 52.4852C1361.45 49.5221 1359.05 47.1201 1356.09 47.1201Z" fill="#4D2C5E" fill-opacity="0.1"/>
<path fill-rule="evenodd" clip-rule="evenodd" d="M1328.3 436.963C1327.91 436.241 1327.01 435.968 1326.28 436.351C1309.69 445.094 1303.34 465.624 1312.08 482.21C1319.24 495.792 1334.3 502.514 1348.63 499.702L1350.65 508.102L1341.61 510.189L1341.61 510.19C1339.65 510.646 1338.44 512.594 1338.89 514.546L1338.89 514.549L1339.77 518.356L1338.09 518.758C1337.28 518.951 1336.79 519.761 1336.98 520.567C1337.17 521.372 1337.98 521.869 1338.79 521.675L1371.21 513.899C1372.02 513.706 1372.51 512.896 1372.32 512.091C1372.13 511.285 1371.32 510.789 1370.51 510.982L1368.07 511.568L1367.25 507.997L1367.25 507.993C1366.79 506.037 1364.84 504.828 1362.89 505.274L1362.89 505.275L1353.57 507.427L1351.55 498.994C1353.72 498.363 1355.86 497.505 1357.94 496.409C1358.29 496.223 1358.56 495.906 1358.67 495.526C1358.79 495.146 1358.75 494.734 1358.57 494.382L1356.28 490.052C1357.39 489.39 1358.47 488.642 1359.51 487.807C1363.46 484.623 1366.3 480.572 1367.98 476.148L1368.21 475.622L1368.17 475.615C1371.28 466.879 1369.91 456.779 1363.67 449.031C1359.55 443.92 1353.98 440.667 1348.02 439.384C1347.32 438.547 1346.3 438.093 1345.26 437.873C1343.97 437.601 1342.43 437.631 1340.79 437.874C1337.84 438.312 1334.27 439.478 1330.63 441.262L1328.3 436.963ZM1363.2 453.564C1362.64 452.653 1362.02 451.767 1361.33 450.914C1357.98 446.76 1353.56 443.983 1348.78 442.659C1348.7 443.071 1348.57 443.474 1348.41 443.859C1347.94 445.013 1347.11 446.198 1346.06 447.357C1349.06 450.22 1351.92 453.928 1354.34 458.232L1363.2 453.564ZM1364.6 456.216L1355.74 460.886C1358.08 465.651 1359.57 470.445 1360.16 474.782C1361.85 474.723 1363.53 474.82 1365.18 475.065C1367.46 469.037 1367.32 462.232 1364.6 456.216ZM1351.69 459.632C1349.37 455.536 1346.67 452.073 1343.91 449.45C1342.1 451.021 1339.88 452.584 1337.37 454.005L1342.8 464.315L1351.69 459.632ZM1344.2 466.969L1353.08 462.286C1355.26 466.733 1356.62 471.139 1357.17 475.05C1354.62 475.42 1352.08 476.157 1349.64 477.283L1344.2 466.969ZM1340.15 465.714L1334.71 455.403C1332.14 456.657 1329.61 457.603 1327.31 458.202C1327.91 461.963 1329.24 466.149 1331.32 470.37L1340.15 465.714ZM1332.72 473.024L1341.55 468.368L1346.98 478.682C1344.69 480.054 1342.66 481.715 1340.92 483.593C1338.01 480.931 1335.15 477.327 1332.72 473.024ZM1328.66 471.77C1326.48 467.341 1325.04 462.885 1324.37 458.795C1322.82 459.004 1321.37 459.018 1320.15 458.76C1319.74 458.673 1319.33 458.55 1318.94 458.381C1316.96 464.209 1317.19 470.688 1319.79 476.446L1328.66 471.77ZM1321.19 479.099L1330.06 474.423C1332.66 479.041 1335.77 482.97 1339.01 485.905C1338 487.267 1337.12 488.712 1336.39 490.22C1331.32 488.99 1326.6 486.142 1323.07 481.766C1322.37 480.907 1321.75 480.016 1321.19 479.099ZM1345.64 442.713C1345.34 443.448 1344.73 444.357 1343.8 445.38C1343.41 445.066 1343.02 444.768 1342.62 444.485C1341.23 443.491 1339.8 442.664 1338.37 442.06C1340.85 441.67 1343.37 441.665 1345.84 442.035C1345.82 442.216 1345.75 442.44 1345.64 442.713ZM1340.87 446.923C1337.47 444.484 1334.44 443.61 1332.13 444.078L1335.97 451.35C1338.14 450.111 1340.05 448.78 1341.61 447.471C1341.36 447.281 1341.12 447.099 1340.87 446.923ZM1320.08 455.605C1321.16 453.386 1322.58 451.305 1324.34 449.449C1324.03 450.975 1323.9 452.626 1323.94 454.334C1323.95 454.82 1323.97 455.314 1324.01 455.815C1322.64 456.005 1321.55 455.99 1320.77 455.825C1320.47 455.762 1320.25 455.685 1320.08 455.605ZM1326.94 454.269C1326.95 454.57 1326.96 454.876 1326.98 455.185C1328.92 454.647 1331.08 453.831 1333.31 452.748L1329.49 445.492C1327.82 447.141 1326.85 450.119 1326.94 454.269ZM1339.48 490.765C1340.02 489.744 1340.64 488.76 1341.32 487.819C1341.47 487.929 1341.62 488.036 1341.76 488.141C1343.18 489.157 1344.64 489.998 1346.11 490.605C1345.29 490.737 1344.47 490.827 1343.65 490.875C1342.26 490.956 1340.86 490.919 1339.48 490.765ZM1363.85 477.917C1362.83 479.833 1361.55 481.624 1360.03 483.231C1360.35 481.69 1360.48 480.02 1360.45 478.292C1360.44 478.121 1360.44 477.948 1360.43 477.775C1361.58 477.742 1362.72 477.791 1363.85 477.917ZM1357.45 478.357C1357.44 478.253 1357.44 478.148 1357.44 478.043C1355.27 478.373 1353.12 478.999 1351.04 479.941L1354.85 487.176C1356.55 485.536 1357.54 482.543 1357.45 478.357ZM1343.51 485.703C1346.89 488.121 1349.89 489.002 1352.19 488.56L1348.39 481.34C1346.45 482.516 1344.73 483.923 1343.24 485.507C1343.33 485.573 1343.42 485.639 1343.51 485.703ZM1335.15 493.001C1329.66 491.555 1324.57 488.406 1320.73 483.649C1314.2 475.551 1313 464.884 1316.67 455.89C1316.39 454.845 1316.59 453.75 1316.99 452.774C1317.5 451.558 1318.39 450.306 1319.52 449.087C1321.53 446.916 1324.48 444.653 1327.98 442.664L1326.38 439.727C1312.23 448.06 1307 466.13 1314.73 480.811C1322.47 495.487 1340.33 501.376 1355.2 494.423L1353.63 491.444C1347.76 494.121 1341.21 494.599 1335.15 493.001ZM1363.56 508.198L1363.56 508.199L1342.29 513.111L1342.29 513.112C1341.95 513.192 1341.73 513.53 1341.81 513.876L1341.81 513.877L1342.62 517.37L1365.13 512.173L1364.32 508.675L1364.32 508.674C1364.24 508.333 1363.91 508.12 1363.56 508.198Z" fill="#4D2C5E" fill-opacity="0.1"/>
<path fill-rule="evenodd" clip-rule="evenodd" d="M1351.01 296.384C1352.18 295.213 1354.07 295.213 1355.24 296.384L1358.17 299.313L1346.72 310.762L1343.79 307.833C1342.62 306.662 1342.62 304.764 1343.79 303.601L1343.79 303.599L1351.01 296.384ZM1357.36 294.262C1355.02 291.92 1351.23 291.92 1348.88 294.262L1341.67 301.476L1341.67 301.477C1339.33 303.814 1339.33 307.614 1341.67 309.954L1345.66 313.944C1345.68 313.97 1345.71 313.995 1345.74 314.018L1349.24 317.521C1349.27 317.553 1349.3 317.584 1349.33 317.614C1349.36 317.644 1349.39 317.673 1349.42 317.7L1383.27 351.549C1383.51 351.79 1383.81 351.932 1384.13 351.974L1393.11 353.889C1393.17 353.906 1393.24 353.919 1393.3 353.929L1401.26 355.623C1401.75 355.729 1402.27 355.576 1402.63 355.217C1402.99 354.858 1403.14 354.341 1403.04 353.844L1401.34 345.875C1401.33 345.824 1401.32 345.774 1401.31 345.724L1399.38 336.698C1399.35 336.451 1399.25 336.212 1399.09 336.005C1399.04 335.935 1398.98 335.871 1398.91 335.812L1361.36 298.255C1361.33 298.232 1361.31 298.21 1361.29 298.188L1357.36 294.262ZM1384.32 348.362L1352.51 316.549L1357.17 311.887L1388.99 343.698L1384.32 348.362ZM1391.11 341.576L1359.29 309.765L1363.96 305.098L1395.77 336.913L1391.11 341.576ZM1350.39 314.428L1361.84 302.977L1360.3 301.437L1348.85 312.886L1350.39 314.428ZM1397 339.933L1398.22 345.63L1393.04 350.806L1387.35 349.593L1397 339.933ZM1399.62 352.208L1396.54 351.551L1398.96 349.126L1399.62 352.208Z" fill="#4D2C5E" fill-opacity="0.1"/>
<path fill-rule="evenodd" clip-rule="evenodd" d="M294.437 501.236C294.998 500.511 295.981 500.261 296.821 500.629L312.094 507.326C312.134 507.34 312.173 507.356 312.212 507.373C312.252 507.391 312.29 507.409 312.328 507.428L324.261 512.66C324.289 512.671 324.317 512.683 324.345 512.695C324.373 512.707 324.4 512.719 324.426 512.733L330.254 515.288C330.295 515.303 330.336 515.319 330.377 515.337C330.418 515.355 330.458 515.374 330.497 515.394L336.37 517.969C336.393 517.978 336.415 517.987 336.437 517.997C336.46 518.007 336.484 518.018 336.507 518.029L348.443 523.262C348.476 523.275 348.509 523.288 348.542 523.303C348.575 523.317 348.607 523.332 348.639 523.348L354.513 525.923C354.543 525.935 354.574 525.947 354.604 525.961C354.636 525.975 354.667 525.989 354.697 526.004L360.558 528.574C360.575 528.581 360.593 528.588 360.61 528.596C360.627 528.603 360.644 528.611 360.661 528.619L366.918 531.362C366.934 531.369 366.951 531.376 366.967 531.383C366.985 531.391 367.003 531.399 367.021 531.407L375.085 534.943C375.57 535.156 375.952 535.553 376.145 536.047C376.337 536.541 376.326 537.092 376.113 537.578L357.713 579.543C357.431 580.187 356.831 580.635 356.133 580.724C355.435 580.812 354.742 580.528 354.308 579.974L294.444 503.696C293.878 502.975 293.875 501.961 294.437 501.236ZM302.507 507.49L308.774 510.238L308.329 511.254C307.885 512.265 308.346 513.445 309.358 513.888C310.37 514.331 311.549 513.871 311.992 512.859L312.437 511.844L314.84 512.897L314.396 513.907C313.951 514.919 314.411 516.099 315.422 516.543C316.434 516.987 317.613 516.528 318.058 515.516L318.503 514.503L320.906 515.557L319.212 519.416C318.769 520.427 319.229 521.607 320.24 522.051C321.252 522.495 322.431 522.034 322.875 521.023L324.569 517.163L326.938 518.202L326.493 519.217C326.05 520.229 326.511 521.408 327.523 521.852C328.534 522.295 329.714 521.834 330.157 520.823L330.602 519.808L333.003 520.86L332.559 521.876C332.117 522.888 332.579 524.067 333.591 524.509C334.603 524.951 335.782 524.49 336.224 523.477L336.666 522.467L339.037 523.506L337.343 527.367C336.899 528.379 337.359 529.559 338.371 530.002C339.382 530.446 340.562 529.986 341.006 528.974L342.7 525.112L345.104 526.166L344.658 527.183C344.215 528.195 344.676 529.374 345.687 529.817C346.699 530.261 347.879 529.8 348.322 528.788L348.767 527.772L351.169 528.825L350.726 529.839C350.284 530.851 350.745 532.03 351.758 532.473C352.77 532.915 353.949 532.453 354.391 531.441L354.833 530.431L357.171 531.456L355.477 535.317C355.033 536.328 355.494 537.508 356.505 537.952C357.517 538.396 358.696 537.935 359.14 536.924L360.834 533.063L363.533 534.246L363.09 535.262C362.647 536.274 363.109 537.453 364.121 537.895C365.133 538.338 366.312 537.876 366.755 536.864L367.197 535.852L371.647 537.803L355.392 574.876L302.507 507.49ZM337.256 531.965C336.416 531.597 335.434 531.848 334.872 532.572C334.31 533.297 334.313 534.311 334.88 535.032L351.256 555.899C351.691 556.453 352.384 556.737 353.081 556.649C353.779 556.56 354.379 556.111 354.662 555.467L359.692 543.983C360.136 542.971 359.675 541.792 358.663 541.348L337.256 531.965ZM352.339 550.8L342.941 538.824L355.226 544.209L352.339 550.8Z" fill="#4D2C5E" fill-opacity="0.1"/>
<path fill-rule="evenodd" clip-rule="evenodd" d="M477.776 30.5329C477.295 29.5385 477.712 28.3426 478.706 27.8617L501.27 16.9518C502.265 16.471 503.461 16.8874 503.941 17.8818L548.916 110.899C549.397 111.893 548.98 113.089 547.986 113.57L525.422 124.48C524.427 124.961 523.231 124.545 522.75 123.55L477.776 30.5329ZM482.248 30.5923L525.481 120.008L544.444 110.84L537.867 97.2367L528.377 101.823C527.382 102.304 526.186 101.887 525.706 100.893C525.225 99.8985 525.642 98.7026 526.636 98.222L536.126 93.6355L534.418 90.1029L530.566 91.9645C529.572 92.4452 528.376 92.0286 527.895 91.0341C527.414 90.0396 527.831 88.8438 528.825 88.3631L532.676 86.5018L530.932 82.8935L527.083 84.7511C526.088 85.2312 524.892 84.814 524.412 83.8192C523.932 82.8244 524.349 81.6288 525.344 81.1487L529.191 79.2923L527.445 75.6824L517.955 80.2724C516.961 80.7533 515.765 80.3371 515.284 79.3427C514.803 78.3484 515.219 77.1524 516.214 76.6714L525.704 72.0812L523.978 68.5123L520.13 70.3751C519.135 70.8564 517.939 70.4405 517.458 69.4462C516.977 68.452 517.393 67.2559 518.387 66.7747L522.237 64.9111L520.493 61.3041L516.643 63.1622C515.648 63.6423 514.453 63.2251 513.973 62.2303C513.493 61.2355 513.91 60.0399 514.905 59.5598L518.752 57.703L517.025 54.1316L507.533 58.7226C506.539 59.2035 505.343 58.7873 504.862 57.7929C504.381 56.7986 504.797 55.6026 505.792 55.1216L515.284 50.5305L513.54 46.923L509.69 48.7863C508.696 49.2675 507.5 48.8516 507.019 47.8574C506.537 46.8631 506.953 45.667 507.948 45.1858L511.799 43.3218L510.055 39.7156L506.206 41.5734C505.211 42.0535 504.015 41.6362 503.535 40.6415C503.055 39.6467 503.472 38.4511 504.467 37.971L508.314 36.1145L506.606 32.5811L497.119 37.1661C496.124 37.6468 494.928 37.2302 494.448 36.2357C493.967 35.2412 494.384 34.0454 495.378 33.5647L504.864 28.98L501.211 21.4236L482.248 30.5923Z" fill="#4D2C5E" fill-opacity="0.1"/>
<path fill-rule="evenodd" clip-rule="evenodd" d="M29.6785 483.786C29.5272 483.469 29.1557 483.343 28.8527 483.486L28.8478 483.488L4.36229 494.99L4.36065 494.991C4.04313 495.142 3.91693 495.514 4.06027 495.817L4.06277 495.822L5.62867 499.157L5.62948 499.159C5.78081 499.477 6.15221 499.603 6.45515 499.459L6.46005 499.457L30.1095 488.348L30.2687 488.272L30.2693 488.273L30.9505 487.953L30.9545 487.951C31.2569 487.81 31.3965 487.445 31.2457 487.125L31.2452 487.123L29.6793 483.788L29.6785 483.786ZM8.16563 503.075L8.91562 502.723L20.0088 525.824L23.3396 544.22C23.3503 544.332 23.3705 544.443 23.3998 544.552L27.5203 567.309L27.5683 567.574L27.685 567.817C30.6491 573.998 38.0634 576.597 44.2345 573.633L43.3685 571.83L44.2345 573.633L65.1637 563.58L65.1648 563.58C71.3447 560.615 73.9431 553.201 70.9793 547.031L70.8623 546.787L70.6849 546.583L53.9606 527.374C53.9172 527.318 53.8709 527.265 53.8217 527.214L42.9999 514.784L32.0009 491.879L32.6472 491.575L32.6496 491.574C34.9647 490.491 35.9534 487.736 34.8655 485.422L33.2976 482.083L33.2952 482.078C32.2073 479.778 29.4601 478.776 27.145 479.869L27.1423 479.87L2.65671 491.372L2.65671 491.372L2.65181 491.374C0.352275 492.462 -0.650177 495.209 0.443086 497.524L0.44444 497.527L2.01034 500.863L2.01283 500.868C3.10061 503.167 5.8476 504.17 8.16272 503.077L8.16563 503.075ZM50.1724 529.114L39.8055 517.207L39.6281 517.003L39.5111 516.759L28.3943 493.609L12.6148 501.186L23.7315 524.336L23.8485 524.58L23.8966 524.845L26.6141 539.854C26.9002 539.631 27.2087 539.405 27.5403 539.181C30.1985 537.386 34.2693 535.724 40.0333 535.924C44.6125 536.082 47.1242 534.126 48.5608 532.205C49.3055 531.209 49.7786 530.192 50.0644 529.42C50.1042 529.312 50.1401 529.21 50.1724 529.114ZM27.461 544.531L31.4057 566.317C33.4842 570.338 38.3993 571.998 42.5026 570.027L63.4329 559.974L63.434 559.973C67.543 558.003 69.3156 553.127 67.4811 548.995L53.0897 532.465C52.7441 533.143 52.3089 533.872 51.7641 534.6C49.6483 537.43 45.9492 540.131 39.8947 539.921C35.025 539.752 31.7792 541.145 29.7793 542.496C28.7683 543.179 28.057 543.864 27.6088 544.363C27.5558 544.422 27.5066 544.478 27.461 544.531Z" fill="#4D2C5E" fill-opacity="0.1"/>
<path d="M65.8973 86.1637C75.2003 86.1637 82.7418 78.6221 82.7418 69.3192C82.7418 60.0162 75.2003 52.4746 65.8973 52.4746C56.5943 52.4746 49.0527 60.0162 49.0527 69.3192C49.0527 78.6221 56.5943 86.1637 65.8973 86.1637Z" stroke="#4D2C5E" stroke-opacity="0.1" stroke-width="4" stroke-miterlimit="10" stroke-linecap="round" stroke-linejoin="round"/>
<path d="M89.5097 102.803C93.23 102.803 96.2459 99.7867 96.2459 96.0663C96.2459 92.346 93.23 89.3301 89.5097 89.3301C85.7894 89.3301 82.7734 92.346 82.7734 96.0663C82.7734 99.7867 85.7894 102.803 89.5097 102.803Z" stroke="#4D2C5E" stroke-opacity="0.1" stroke-width="4" stroke-miterlimit="10" stroke-linecap="round" stroke-linejoin="round"/>
</svg>
