<svg width="1440" height="438" viewBox="0 0 1440 438" fill="none" xmlns="http://www.w3.org/2000/svg">
<rect x="-4" y="4.2168" width="1448" height="433" fill="#FCFCFD"/>
<path fill-rule="evenodd" clip-rule="evenodd" d="M1302.18 50.4623C1299.57 50.8308 1297.12 51.4026 1294.91 52.1456C1294.49 47.5919 1295.58 44.6883 1297.44 43.5392C1299.34 42.3686 1302.47 42.7613 1306.37 45.3573C1306.49 45.4402 1306.62 45.5252 1306.74 45.612C1305.19 47.0126 1303.65 48.641 1302.18 50.4623ZM1306.52 50.0502C1307.39 49.1167 1308.27 48.2635 1309.15 47.4971C1310.03 48.2632 1310.92 49.1161 1311.79 50.049C1310.93 50.0053 1310.05 49.9829 1309.17 49.9829C1308.27 49.9829 1307.39 50.0057 1306.52 50.0502ZM1311.57 45.6127C1313.12 47.0124 1314.65 48.6393 1316.12 50.4588C1318.74 50.8257 1321.19 51.3958 1323.39 52.137C1323.81 47.5913 1322.72 44.6924 1320.86 43.5445C1318.96 42.3739 1315.84 42.7666 1311.93 45.3626C1311.81 45.4441 1311.69 45.5275 1311.57 45.6127ZM1309.17 52.9829C1311.01 52.9829 1312.8 53.0861 1314.52 53.2795C1315.58 54.6742 1316.62 56.1873 1317.59 57.8049C1318.64 59.5471 1319.55 61.2953 1320.32 63.0152C1319.55 64.7316 1318.64 66.4762 1317.59 68.2147C1316.63 69.8244 1315.6 71.3305 1314.54 72.7195C1312.82 72.9144 1311.02 73.0184 1309.17 73.0184C1307.3 73.0184 1305.49 72.9134 1303.77 72.7167C1302.71 71.327 1301.68 69.82 1300.71 68.2094C1299.66 66.4727 1298.76 64.7299 1297.99 63.0152C1298.76 61.2971 1299.67 59.5506 1300.71 57.8102C1301.69 56.1916 1302.72 54.6777 1303.79 53.2823C1305.51 53.0871 1307.31 52.9829 1309.17 52.9829ZM1320.14 56.2309C1320.74 57.2229 1321.3 58.2205 1321.81 59.2179C1322.29 57.817 1322.66 56.4547 1322.93 55.1519C1321.63 54.6884 1320.21 54.2874 1318.7 53.9607C1319.19 54.6957 1319.68 55.453 1320.14 56.2309ZM1320.15 69.7887C1320.74 68.8004 1321.3 67.8067 1321.81 66.8131C1322.28 68.2045 1322.65 69.5577 1322.92 70.8523C1321.63 71.3126 1320.22 71.711 1318.72 72.0363C1319.21 71.3084 1319.68 70.5586 1320.15 69.7887ZM1323.58 63.0157C1324.52 65.2967 1325.24 67.5396 1325.73 69.6759C1329.77 67.6776 1331.67 65.2309 1331.67 63.0007C1331.67 60.772 1329.77 58.327 1325.74 56.3294C1325.25 58.4737 1324.53 60.7255 1323.58 63.0157ZM1326.79 72.4973C1326.62 72.579 1326.44 72.6595 1326.27 72.7387C1326.29 72.9213 1326.31 73.1028 1326.33 73.2831C1326.84 78.2598 1325.87 82.9087 1322.4 85.0458C1318.94 87.183 1314.41 85.9245 1310.28 83.1769C1309.9 82.9284 1309.53 82.6653 1309.16 82.3881C1308.78 82.6673 1308.4 82.9321 1308.03 83.1822C1303.89 85.9298 1299.37 87.1882 1295.9 85.0511C1292.43 82.914 1291.46 78.2651 1291.97 73.2883C1291.99 73.1026 1292.01 72.9157 1292.04 72.7275C1291.87 72.6519 1291.71 72.5751 1291.54 72.4973C1287.07 70.348 1283.66 67.088 1283.66 63.0007C1283.66 58.9134 1287.07 55.6534 1291.54 53.5041C1291.7 53.4273 1291.87 53.3516 1292.03 53.277C1292.01 53.0939 1291.99 52.912 1291.97 52.7312C1291.45 47.7545 1292.43 43.1056 1295.9 40.9685C1299.36 38.8314 1303.89 40.0898 1308.02 42.8374C1308.4 43.0886 1308.78 43.3546 1309.16 43.6351C1309.53 43.3566 1309.91 43.0923 1310.28 42.8427C1314.41 40.0951 1318.94 38.8366 1322.41 40.9738C1325.88 43.1109 1326.85 47.7598 1326.33 52.7365C1326.32 52.9118 1326.3 53.0882 1326.27 53.2657C1326.45 53.344 1326.62 53.4234 1326.79 53.5041C1331.26 55.6534 1334.67 58.9134 1334.67 63.0007C1334.67 67.088 1331.26 70.348 1326.79 72.4973ZM1316.14 75.5395C1318.75 75.1728 1321.19 74.6046 1323.39 73.8665C1323.81 78.4215 1322.72 81.3258 1320.86 82.4751C1318.96 83.6457 1315.83 83.253 1311.93 80.657C1311.81 80.5768 1311.69 80.4946 1311.57 80.4107C1313.13 79.0047 1314.67 77.3692 1316.14 75.5395ZM1311.81 75.9512C1310.93 76.8934 1310.04 77.7542 1309.15 78.5267C1308.27 77.754 1307.38 76.8928 1306.5 75.95C1307.37 75.9953 1308.26 76.0184 1309.17 76.0184C1310.06 76.0184 1310.94 75.9957 1311.81 75.9512ZM1298.16 69.7834C1298.62 70.5531 1299.1 71.3026 1299.58 72.0304C1298.09 71.7042 1296.68 71.3049 1295.38 70.8438C1295.65 69.5514 1296.03 68.2007 1296.5 66.812C1297.01 67.8042 1297.56 68.7965 1298.16 69.7834ZM1298.16 56.2362C1297.56 57.2269 1297.01 58.223 1296.49 59.219C1296.02 57.8208 1295.65 56.461 1295.37 55.1604C1296.68 54.6961 1298.09 54.2942 1299.6 53.9666C1299.11 54.7014 1298.63 55.4585 1298.16 56.2362ZM1294.73 63.0157C1293.78 60.7297 1293.06 58.4818 1292.57 56.3408C1288.55 58.3363 1286.66 60.7762 1286.66 63.0007C1286.66 65.2266 1288.55 67.6683 1292.58 69.6646C1293.06 67.5315 1293.78 65.2926 1294.73 63.0157ZM1306.74 80.4114C1305.18 79.0045 1303.64 77.3676 1302.16 75.5359C1299.56 75.1677 1297.12 74.5978 1294.92 73.8579C1294.49 78.4209 1295.58 81.3299 1297.45 82.4803C1299.35 83.651 1302.47 83.2583 1306.37 80.6623C1306.5 80.5806 1306.62 80.4969 1306.74 80.4114ZM1307.65 62.9984C1307.65 62.1255 1308.35 61.4495 1309.17 61.4495C1309.98 61.4495 1310.68 62.1255 1310.68 62.9984C1310.68 63.8713 1309.98 64.5473 1309.17 64.5473C1308.35 64.5473 1307.65 63.8713 1307.65 62.9984ZM1309.17 58.4495C1306.66 58.4495 1304.65 60.5036 1304.65 62.9984C1304.65 65.4933 1306.66 67.5473 1309.17 67.5473C1311.68 67.5473 1313.68 65.4933 1313.68 62.9984C1313.68 60.5036 1311.68 58.4495 1309.17 58.4495Z" fill="#4D2C5E" fill-opacity="0.1"/>
<path fill-rule="evenodd" clip-rule="evenodd" d="M1344.08 198.519C1344.9 197.699 1346.22 197.699 1347.04 198.519L1349.17 200.651L1340.44 209.39L1338.3 207.257C1337.48 206.437 1337.49 205.108 1338.3 204.295L1338.3 204.293L1344.08 198.519ZM1349.16 196.398C1347.17 194.407 1343.95 194.407 1341.96 196.398L1336.18 202.17L1336.18 202.171C1334.19 204.159 1334.19 207.389 1336.18 209.379L1339.38 212.572C1339.39 212.586 1339.4 212.599 1339.42 212.613L1342.26 215.452C1342.27 215.471 1342.29 215.49 1342.31 215.508C1342.33 215.526 1342.35 215.543 1342.37 215.56L1369.47 242.666C1369.72 242.914 1370.03 243.056 1370.35 243.095L1377.47 244.611C1377.54 244.631 1377.61 244.645 1377.68 244.655L1384.02 246.005C1384.51 246.111 1385.03 245.958 1385.39 245.599C1385.75 245.24 1385.9 244.723 1385.8 244.226L1384.43 237.833C1384.43 237.804 1384.42 237.775 1384.42 237.745L1382.87 230.487C1382.85 230.391 1382.83 230.296 1382.79 230.204C1382.7 229.973 1382.56 229.769 1382.38 229.609L1355.35 202.58C1355.33 202.56 1355.31 202.54 1355.29 202.521C1355.27 202.502 1355.25 202.484 1355.23 202.466L1352.36 199.595C1352.35 199.585 1352.34 199.576 1352.33 199.566L1349.16 196.398ZM1370.53 239.479L1345.49 214.445L1348.8 211.137L1373.84 236.169L1370.53 239.479ZM1375.96 234.048L1379.27 230.741L1354.23 205.705L1350.92 209.015L1375.96 234.048ZM1343.37 212.324L1352.11 203.584L1351.3 202.777L1342.56 211.515L1343.37 212.324ZM1380.5 233.76L1381.32 237.619L1377.41 241.53L1373.55 240.709L1380.5 233.76ZM1382.38 242.59L1380.9 242.275L1382.07 241.115L1382.38 242.59Z" fill="#4D2C5E" fill-opacity="0.1"/>
<path fill-rule="evenodd" clip-rule="evenodd" d="M1243.58 317.002C1243.19 316.28 1242.29 316.007 1241.56 316.39C1228.23 323.414 1223.13 339.909 1230.15 353.234C1235.86 364.054 1247.8 369.455 1259.23 367.343L1260.69 373.426L1253.81 375.013L1253.81 375.014C1252.09 375.415 1251.03 377.128 1251.42 378.843L1251.42 378.846L1252.05 381.574L1251.01 381.822C1250.21 382.015 1249.71 382.825 1249.9 383.631C1250.1 384.436 1250.91 384.933 1251.71 384.74L1277.47 378.563C1278.27 378.37 1278.77 377.56 1278.58 376.754C1278.38 375.949 1277.57 375.452 1276.77 375.646L1275.13 376.038L1274.55 373.504L1274.55 373.5C1274.14 371.78 1272.43 370.717 1270.72 371.109L1270.71 371.11L1263.61 372.75L1262.14 366.635C1263.79 366.137 1265.42 365.475 1267 364.642C1267.35 364.456 1267.61 364.139 1267.73 363.758C1267.85 363.378 1267.81 362.967 1267.62 362.615L1265.95 359.433C1266.75 358.938 1267.54 358.387 1268.29 357.777C1271.47 355.213 1273.76 351.953 1275.11 348.391L1275.44 347.628L1275.39 347.617C1277.74 340.659 1276.59 332.683 1271.64 326.542C1268.35 322.455 1263.9 319.842 1259.14 318.794C1258.53 318.111 1257.67 317.747 1256.84 317.571C1255.77 317.344 1254.51 317.372 1253.18 317.569C1250.87 317.911 1248.11 318.804 1245.29 320.158L1243.58 317.002ZM1270.59 330.218C1270.2 329.603 1269.77 329.005 1269.31 328.425C1266.76 325.268 1263.42 323.128 1259.8 322.06C1259.74 322.297 1259.66 322.526 1259.57 322.746C1259.21 323.629 1258.6 324.523 1257.84 325.389C1260.11 327.599 1262.27 330.403 1264.12 333.632L1270.59 330.218ZM1271.99 332.869L1265.51 336.286C1267.26 339.907 1268.4 343.548 1268.88 346.874C1270.06 346.848 1271.24 346.916 1272.4 347.075C1274.06 342.52 1273.96 337.421 1271.99 332.869ZM1261.46 335.031C1259.73 332.021 1257.73 329.46 1255.7 327.485C1254.35 328.631 1252.73 329.765 1250.92 330.807L1254.96 338.459L1261.46 335.031ZM1256.36 341.113L1262.86 337.686C1264.44 340.982 1265.45 344.234 1265.89 347.145C1264.03 347.441 1262.19 347.98 1260.4 348.776L1256.36 341.113ZM1252.3 339.858L1248.27 332.204C1246.4 333.096 1244.57 333.785 1242.87 334.246C1243.35 337.043 1244.34 340.135 1245.84 343.264L1252.3 339.858ZM1247.24 345.917L1253.7 342.512L1257.74 350.176C1256.09 351.194 1254.61 352.402 1253.32 353.755C1251.18 351.745 1249.06 349.08 1247.24 345.917ZM1243.19 344.664C1241.57 341.317 1240.47 337.953 1239.93 334.834C1238.79 334.967 1237.71 334.964 1236.77 334.766C1236.54 334.716 1236.3 334.652 1236.07 334.569C1234.66 338.943 1234.83 343.76 1236.7 348.085L1243.19 344.664ZM1238.1 350.738L1244.59 347.317C1246.58 350.8 1248.94 353.788 1251.4 356.067C1250.71 357.029 1250.1 358.043 1249.57 359.094C1245.69 358.102 1242.1 355.897 1239.39 352.544C1238.92 351.96 1238.49 351.357 1238.1 350.738ZM1256.8 321.599C1256.6 322.09 1256.2 322.706 1255.59 323.413C1255.35 323.226 1255.11 323.046 1254.86 322.873C1254.06 322.3 1253.24 321.791 1252.4 321.368C1253.89 321.218 1255.39 321.242 1256.86 321.436C1256.84 321.487 1256.82 321.541 1256.8 321.599ZM1253.12 325.311C1250.65 323.542 1248.49 322.865 1246.83 323.041L1249.52 328.151C1250.99 327.299 1252.29 326.397 1253.38 325.507C1253.29 325.44 1253.21 325.375 1253.12 325.311ZM1237.21 331.787C1237.88 330.471 1238.71 329.219 1239.69 328.064C1239.56 328.995 1239.52 329.966 1239.54 330.954C1239.54 331.251 1239.56 331.551 1239.57 331.855C1238.64 331.963 1237.91 331.941 1237.39 331.831C1237.33 331.817 1237.27 331.802 1237.21 331.787ZM1242.54 330.889C1242.54 330.999 1242.54 331.109 1242.55 331.221C1243.89 330.826 1245.35 330.267 1246.87 329.548L1244.18 324.456C1243.12 325.733 1242.47 327.882 1242.54 330.889ZM1252.68 359.625C1253 359.061 1253.35 358.512 1253.72 357.98C1253.76 358.004 1253.79 358.028 1253.82 358.052C1254.65 358.643 1255.5 359.164 1256.36 359.594C1256.09 359.622 1255.82 359.645 1255.55 359.662C1254.6 359.721 1253.64 359.708 1252.68 359.625ZM1271.05 349.942C1270.47 350.983 1269.78 351.974 1269 352.899C1269.12 351.956 1269.17 350.973 1269.15 349.971L1269.15 349.87C1269.79 349.862 1270.42 349.887 1271.05 349.942ZM1264.47 356.508C1265.55 355.25 1266.2 353.123 1266.15 350.142C1264.68 350.394 1263.22 350.822 1261.8 351.437L1264.47 356.508ZM1255.65 355.667C1258.06 357.38 1260.17 358.046 1261.81 357.89L1259.15 352.836C1257.85 353.654 1256.68 354.607 1255.65 355.667ZM1248.32 361.867C1244.04 360.662 1240.07 358.16 1237.06 354.427C1231.82 347.933 1230.84 339.388 1233.75 332.163C1233.54 331.277 1233.72 330.372 1234.04 329.591C1234.46 328.579 1235.2 327.553 1236.11 326.571C1237.68 324.873 1239.95 323.116 1242.64 321.56L1241.67 319.774C1230.78 326.381 1226.79 340.416 1232.81 351.835C1238.82 363.249 1252.65 367.887 1264.25 362.647L1263.29 360.826C1260.59 362.016 1257.71 362.632 1254.84 362.694C1253.25 362.728 1251.67 362.592 1250.13 362.294L1248.29 361.94L1248.32 361.867ZM1271.39 374.033L1271.39 374.034L1254.49 377.935L1254.49 377.936C1254.39 377.961 1254.32 378.064 1254.34 378.174L1254.34 378.175L1254.91 380.648L1272.2 376.659L1271.62 374.181L1271.62 374.18C1271.6 374.075 1271.5 374.009 1271.39 374.033Z" fill="#4D2C5E" fill-opacity="0.1"/>
<path fill-rule="evenodd" clip-rule="evenodd" d="M777.914 376.185C784.891 369.905 795.638 370.47 801.917 377.446C808.197 384.423 807.633 395.17 800.656 401.45C798.289 403.583 795.478 404.927 792.557 405.498L792.558 405.498L792.269 404.026L792.557 405.498C792.068 405.595 791.577 405.668 791.085 405.72L791.12 405.715L790.908 404.23L791.061 405.722L791.085 405.72C791.022 405.728 790.965 405.733 790.93 405.736L790.945 405.735L790.778 404.244L790.915 405.738L790.93 405.736C790.07 405.834 785.1 406.496 780.171 409.043C780.437 410.41 779.992 411.879 778.876 412.867C778.136 413.524 777.224 413.863 776.308 413.893C776.168 414.799 775.722 415.664 774.983 416.318L774.981 416.321C773.344 417.764 770.876 417.657 769.371 416.11C766.608 416.985 763.465 416.242 761.398 413.947L761.397 413.946C759.166 411.466 758.86 407.928 760.387 405.164L760.69 400.172C761.431 399.515 762.344 399.179 763.26 399.152C763.4 398.245 763.845 397.379 764.585 396.724C765.607 395.817 766.958 395.521 768.194 395.805C771.266 391.15 772.452 386.243 772.635 385.41L772.632 385.427L774.103 385.721L772.638 385.4L772.635 385.41C772.643 385.375 772.65 385.343 772.654 385.326L772.655 385.323L772.66 385.301L772.661 385.296L772.661 385.296L772.663 385.285L772.663 385.285C772.766 384.787 772.894 384.298 773.037 383.825L773.038 383.82C773.91 380.972 775.541 378.319 777.914 376.185L778.917 377.3L777.914 376.185ZM766.575 398.969C766.909 398.672 767.38 398.625 767.758 398.813L768.025 399.11L766.48 400.478L766.48 400.477C766.091 400.039 766.13 399.363 766.575 398.969ZM766.481 400.478L766.432 400.521L766.432 400.521L766.48 400.478L766.481 400.478ZM766.481 400.478L768.025 399.11L773.685 405.395L776.978 409.116L776.979 409.117C777.368 409.557 777.327 410.232 776.887 410.622L776.885 410.624C776.44 411.019 775.768 410.975 775.381 410.536L775.379 410.534L766.481 400.478L766.481 400.478ZM770.684 397.478L771.88 398.829L777.559 393.715L777.019 393.116L777.018 393.114C775.617 391.554 775.735 389.147 777.302 387.739C778.863 386.338 781.27 386.456 782.678 388.023C784.079 389.583 783.961 391.99 782.395 393.398L782.394 393.399L781.796 393.937L782.677 394.915L782.676 394.916L783.554 395.891L784.153 395.352L784.154 395.35C785.718 393.946 788.121 394.075 789.527 395.632L789.53 395.635C790.934 397.198 790.806 399.601 789.249 401.007L789.246 401.01C787.682 402.414 785.279 402.286 783.873 400.729L783.871 400.727L783.332 400.128L777.615 405.276L778.666 406.444C784.154 403.576 789.658 402.86 790.611 402.753L790.626 402.752L790.64 402.75L790.689 402.746L790.698 402.745L790.698 402.745L790.725 402.741L790.755 402.738C791.163 402.696 791.571 402.635 791.98 402.554L791.981 402.554C794.386 402.084 796.697 400.978 798.648 399.221L798.649 399.221C804.394 394.049 804.859 385.199 799.688 379.454C794.516 373.708 785.666 373.243 779.921 378.415L779.92 378.415C777.965 380.174 776.625 382.354 775.908 384.695C775.788 385.092 775.684 385.492 775.601 385.891C775.593 385.931 775.585 385.966 775.581 385.985L775.58 385.988L775.575 386.01L775.574 386.015L775.571 386.028L775.568 386.041C775.364 386.976 774.082 392.337 770.684 397.478ZM775.61 403.044L781.325 397.899L780.444 396.92L780.444 396.92L779.566 395.945L773.868 401.076L775.61 403.044ZM762.679 402.418C763.118 402.029 763.794 402.068 764.188 402.512L764.188 402.512L773.088 412.564L773.088 412.565C773.477 413.003 773.438 413.678 772.995 414.072C772.55 414.463 771.877 414.421 771.486 413.98L771.485 413.979L762.587 403.924L762.587 403.923C762.197 403.483 762.238 402.808 762.678 402.418L762.679 402.418ZM763.627 411.939C762.723 410.934 762.34 409.642 762.461 408.397L766.948 413.465C765.722 413.435 764.511 412.92 763.627 411.939ZM779.788 391.708L780.388 391.168L780.389 391.167C780.717 390.873 780.747 390.363 780.446 390.028C780.152 389.7 779.642 389.67 779.307 389.971C778.98 390.265 778.95 390.775 779.25 391.109L779.25 391.11L779.788 391.708ZM786.159 397.582L786.16 397.582C786.49 397.285 787 397.311 787.299 397.641C787.595 397.972 787.569 398.48 787.239 398.78C786.908 399.076 786.399 399.049 786.1 398.719L786.099 398.718L785.561 398.121L786.159 397.582ZM799.051 404.325C799.667 403.771 800.615 403.821 801.169 404.437L804.062 407.654C804.616 408.27 804.566 409.218 803.95 409.772C803.334 410.326 802.385 410.276 801.831 409.66L798.939 406.443C798.385 405.827 798.435 404.879 799.051 404.325ZM807.749 404.842C808.521 405.141 809.39 404.757 809.689 403.985C809.988 403.212 809.605 402.344 808.832 402.044L804.798 400.482C804.025 400.183 803.156 400.567 802.857 401.339C802.558 402.112 802.942 402.98 803.714 403.28L807.749 404.842ZM794.968 406.42C795.768 406.204 796.591 406.677 796.807 407.476L797.936 411.652C798.152 412.451 797.679 413.275 796.88 413.491C796.08 413.707 795.256 413.234 795.04 412.435L793.911 408.259C793.695 407.46 794.168 406.636 794.968 406.42ZM771.396 371.37C770.842 370.754 769.893 370.705 769.278 371.259C768.662 371.813 768.613 372.762 769.167 373.377L772.062 376.591C772.616 377.206 773.565 377.256 774.18 376.701C774.796 376.147 774.845 375.198 774.291 374.583L771.396 371.37ZM775.638 366.158C776.437 365.941 777.261 366.414 777.477 367.214L778.606 371.39C778.822 372.189 778.349 373.013 777.549 373.229C776.75 373.445 775.926 372.972 775.71 372.173L774.581 367.997C774.365 367.197 774.838 366.374 775.638 366.158ZM769.73 381.403C770.503 381.702 771.372 381.318 771.671 380.545C771.97 379.773 771.586 378.904 770.813 378.605L766.782 377.044C766.009 376.745 765.141 377.129 764.842 377.902C764.543 378.674 764.926 379.543 765.699 379.842L769.73 381.403Z" fill="#4D2C5E" fill-opacity="0.1"/>
<path fill-rule="evenodd" clip-rule="evenodd" d="M753.829 73.324C752.49 72.9249 751.084 73.685 750.686 75.0202L750.686 75.0206L745.457 92.5298L783.237 103.816L788.465 86.3075C788.865 84.9684 788.104 83.5624 786.769 83.1639L786.768 83.1637L753.829 73.3242L753.829 73.3241L753.829 73.324ZM740.274 95.9067L741.038 93.3487C741.043 93.3328 741.047 93.3169 741.052 93.3011C741.057 93.2853 741.061 93.2697 741.067 93.2542L746.853 73.8766L746.853 73.8761C747.884 70.4204 751.521 68.4611 754.973 69.4912L754.974 69.4913L787.913 79.3309C791.369 80.3621 793.328 83.9988 792.298 87.4511L792.298 87.4516L785.72 109.482L785.719 109.484C784.685 112.932 781.052 114.898 777.599 113.867L767.715 110.914L767.536 111.513L769.004 111.952C770.062 112.268 770.664 113.382 770.347 114.441C770.031 115.499 768.917 116.101 767.859 115.784L751.753 110.973C750.695 110.657 750.093 109.543 750.409 108.485C750.725 107.426 751.84 106.825 752.898 107.141L754.374 107.582L754.553 106.983L744.66 104.027C741.204 102.996 739.244 99.3594 740.274 95.9071L740.274 95.9067ZM782.093 107.649L744.313 96.3625L744.107 97.0508L744.107 97.0509L744.107 97.0512C743.708 98.3902 744.468 99.7959 745.803 100.194L745.804 100.194L778.744 110.034C780.077 110.432 781.486 109.673 781.887 108.336L781.887 108.335L782.093 107.649ZM762.469 104.459C763.066 104.638 763.697 104.297 763.876 103.699C764.055 103.102 763.714 102.471 763.116 102.292C762.519 102.113 761.888 102.454 761.709 103.052C761.53 103.649 761.871 104.28 762.469 104.459ZM758.385 108.132L758.272 108.508L763.769 110.149L763.881 109.774L758.385 108.132Z" fill="#4D2C5E" fill-opacity="0.1"/>
<path fill-rule="evenodd" clip-rule="evenodd" d="M526.912 30.7905C526.069 30.0763 525.965 28.8142 526.679 27.9716L538.232 14.3418C538.947 13.4992 540.209 13.3952 541.051 14.1094L597.238 61.7352C598.081 62.4494 598.185 63.7115 597.47 64.5541L585.917 78.1839C585.203 79.0265 583.941 79.1305 583.098 78.4163L526.912 30.7905ZM531.024 29.0324L584.159 74.0717L593.126 63.4933L585.785 57.271L581.297 62.5644C580.582 63.4069 579.32 63.5108 578.478 62.7964C577.635 62.0821 577.531 60.82 578.246 59.9775L582.734 54.6846L581.476 53.6188L579.875 55.5072C579.161 56.3497 577.899 56.4536 577.056 55.7393C576.214 55.0249 576.11 53.7629 576.824 52.9204L578.425 51.0324L577.121 49.9269L575.52 51.8123C574.806 52.6544 573.543 52.7575 572.701 52.0427C571.859 51.3279 571.756 50.0658 572.471 49.2237L574.07 47.3405L572.765 46.2351L568.278 51.5303C567.564 52.373 566.302 52.4772 565.459 51.7631C564.617 51.049 564.512 49.787 565.227 48.9443L569.714 43.6487L568.434 42.564L566.836 44.4518C566.122 45.2947 564.86 45.3992 564.017 44.6854C563.174 43.9715 563.069 42.7095 563.783 41.8666L565.383 39.9776L564.08 38.8733L562.479 40.7595C561.764 41.6016 560.502 41.7047 559.66 40.9899C558.818 40.2751 558.715 39.013 559.43 38.1709L561.029 36.2869L559.748 35.2012L555.26 40.4979C554.546 41.3406 553.284 41.4448 552.441 40.7307C551.598 40.0166 551.494 38.7546 552.208 37.9119L556.697 32.6148L555.394 31.5104L553.794 33.399C553.081 34.2419 551.819 34.3465 550.976 33.6326C550.133 32.9187 550.028 31.6567 550.742 30.8138L552.343 28.924L551.039 27.8194L549.439 29.7049C548.724 30.547 547.462 30.6501 546.62 29.9353C545.778 29.2205 545.675 27.9584 546.389 27.1163L547.988 25.233L546.731 24.1671L542.244 29.4586C541.53 30.3011 540.267 30.4049 539.425 29.6906C538.582 28.9762 538.479 27.7142 539.193 26.8717L543.679 21.5806L539.991 18.454L531.024 29.0324Z" fill="#4D2C5E" fill-opacity="0.1"/>
<path fill-rule="evenodd" clip-rule="evenodd" d="M172.658 321.232C173.22 320.507 174.203 320.257 175.042 320.625L184.495 324.77C184.525 324.781 184.554 324.793 184.584 324.806C184.614 324.819 184.643 324.833 184.672 324.848L192.032 328.074C192.057 328.084 192.082 328.094 192.106 328.105C192.13 328.116 192.154 328.127 192.178 328.138L195.743 329.702C195.778 329.714 195.812 329.728 195.846 329.743C195.88 329.758 195.913 329.774 195.946 329.79L199.575 331.381L199.602 331.393L199.633 331.407L207.035 334.652C207.059 334.662 207.083 334.672 207.107 334.682C207.131 334.693 207.155 334.704 207.179 334.715L210.796 336.301C210.819 336.31 210.842 336.32 210.864 336.33C210.889 336.34 210.913 336.351 210.936 336.363L214.583 337.962L214.589 337.964L214.593 337.966L218.484 339.672C218.499 339.678 218.514 339.684 218.529 339.691C218.545 339.698 218.562 339.705 218.578 339.713L223.563 341.898C224.048 342.111 224.43 342.509 224.622 343.003C224.815 343.497 224.804 344.047 224.591 344.533L213.184 370.55C212.902 371.194 212.302 371.642 211.604 371.731C210.906 371.819 210.213 371.535 209.779 370.981L172.666 323.692C172.1 322.971 172.097 321.957 172.658 321.232ZM180.728 327.486L181.147 327.67C181.115 327.752 181.088 327.834 181.067 327.918L180.728 327.486ZM210.862 365.883L183.02 330.406C183.762 330.401 184.468 329.981 184.808 329.275L184.907 329.318C184.514 330.313 184.975 331.449 185.963 331.883C186.952 332.317 188.102 331.888 188.568 330.923L188.667 330.966L187.923 332.663C187.479 333.674 187.939 334.854 188.951 335.298C189.962 335.741 191.142 335.281 191.586 334.27L192.33 332.573L192.409 332.607C192.014 333.603 192.476 334.741 193.466 335.174C194.455 335.608 195.604 335.177 196.07 334.212L196.169 334.256C195.775 335.253 196.238 336.39 197.228 336.823C198.217 337.255 199.365 336.824 199.83 335.861L199.908 335.895L199.162 337.593C198.798 338.423 199.042 339.365 199.7 339.922C198.968 339.776 198.198 340.049 197.726 340.659C197.165 341.383 197.168 342.397 197.734 343.118L207.887 356.055C208.321 356.609 209.014 356.893 209.712 356.805C210.41 356.716 211.01 356.267 211.292 355.623L214.411 348.503C214.854 347.491 214.394 346.312 213.382 345.869L212.136 345.323C212.942 345.363 213.725 344.911 214.068 344.128L214.813 342.43L215.096 342.554C214.702 343.551 215.166 344.688 216.156 345.121C217.144 345.553 218.292 345.122 218.757 344.159L220.125 344.759L210.862 365.883ZM210.835 344.753C210.26 344.187 210.062 343.304 210.405 342.521L211.15 340.824L211.092 340.799C210.627 341.761 209.479 342.192 208.491 341.76C207.501 341.327 207.038 340.19 207.431 339.193L207.332 339.15C206.867 340.116 205.717 340.547 204.727 340.113C203.737 339.68 203.275 338.541 203.671 337.545L203.571 337.501L202.825 339.2C202.482 339.983 201.698 340.435 200.892 340.395L210.835 344.753ZM208.97 350.956L205.795 346.911L209.945 348.73L208.97 350.956Z" fill="#4D2C5E" fill-opacity="0.1"/>
<path fill-rule="evenodd" clip-rule="evenodd" d="M114.487 174.255L115.522 176.459L115.068 176.677L98.0748 184.659L97.0383 182.452L114.487 174.255ZM119.19 174.859C120.098 176.791 119.286 179.09 117.368 180.016L125.018 195.947L132.752 204.831C132.797 204.877 132.839 204.926 132.879 204.976L144.919 218.806L145.096 219.009L145.213 219.253C147.483 223.978 145.493 229.655 140.76 231.925L125.678 239.169C120.953 241.439 115.276 239.449 113.006 234.716L112.89 234.473L112.842 234.208L109.877 217.834C109.852 217.738 109.834 217.639 109.824 217.54L107.442 204.386L99.72 188.306L99.6823 188.324L99.6793 188.325C97.7301 189.245 95.4191 188.4 94.5044 186.467L94.5019 186.461L94.5019 186.461L93.3742 184.059L93.3727 184.056C92.4527 182.107 93.2974 179.796 95.231 178.881L95.2359 178.879L95.2359 178.879L112.88 170.591L112.882 170.59C114.832 169.669 117.143 170.514 118.058 172.448L118.06 172.453L119.19 174.859ZM113.947 217.861L116.726 233.209C118.107 235.786 121.287 236.841 123.946 235.564L139.029 228.319L139.031 228.318C141.693 227.041 142.856 223.899 141.711 221.212L131.918 209.965C131.739 210.262 131.537 210.566 131.309 210.871C129.69 213.036 126.858 215.087 122.289 214.929C118.904 214.812 116.681 215.777 115.331 216.689C114.702 217.114 114.247 217.539 113.947 217.861ZM129.078 206.702C128.882 207.209 128.573 207.85 128.106 208.475C127.166 209.732 125.521 211.039 122.427 210.931C118.175 210.784 115.138 212.003 113.13 213.349L111.33 203.408L111.282 203.142L111.165 202.898L103.395 186.719L113.759 181.743L121.529 197.922L121.646 198.166L121.823 198.369L129.078 206.702Z" fill="#4D2C5E" fill-opacity="0.1"/>
<path d="M202.845 62.9059C212.148 62.9059 219.689 55.3643 219.689 46.0613C219.689 36.7584 212.148 29.2168 202.845 29.2168C193.542 29.2168 186 36.7584 186 46.0613C186 55.3643 193.542 62.9059 202.845 62.9059Z" stroke="#4D2C5E" stroke-opacity="0.1" stroke-width="4" stroke-miterlimit="10" stroke-linecap="round" stroke-linejoin="round"/>
<path d="M226.458 79.5448C230.178 79.5448 233.194 76.5288 233.194 72.8085C233.194 69.0882 230.178 66.0723 226.458 66.0723C222.738 66.0723 219.722 69.0882 219.722 72.8085C219.722 76.5288 222.738 79.5448 226.458 79.5448Z" stroke="#4D2C5E" stroke-opacity="0.1" stroke-width="4" stroke-miterlimit="10" stroke-linecap="round" stroke-linejoin="round"/>
</svg>
