<svg width="138" height="52" viewBox="0 0 138 52" fill="none" xmlns="http://www.w3.org/2000/svg">
<rect width="138" height="52" rx="26" fill="#E6E8EC"/>
<path d="M68.3887 20.0842C68.6203 19.5475 69.3813 19.5475 69.6129 20.0842L71.0663 23.4521C71.1643 23.6793 71.3802 23.8336 71.627 23.8526L75.3541 24.1406C75.9521 24.1868 76.1897 24.9375 75.7272 25.3194L72.9243 27.6336C72.7266 27.7968 72.64 28.059 72.7016 28.3078L73.5642 31.7934C73.7061 32.3666 73.0877 32.8276 72.5788 32.5281L69.339 30.6207C69.1303 30.4979 68.8713 30.4979 68.6626 30.6207L65.4228 32.5281C64.9139 32.8276 64.2955 32.3666 64.4374 31.7934L65.3 28.3078C65.3616 28.059 65.275 27.7968 65.0773 27.6336L62.2744 25.3194C61.8119 24.9375 62.0495 24.1868 62.6475 24.1406L66.3746 23.8526C66.6214 23.8336 66.8373 23.6793 66.9353 23.4521L68.3887 20.0842Z" fill="#23262F"/>
</svg>
