<svg width="17" height="16" viewBox="0 0 17 16" fill="none" xmlns="http://www.w3.org/2000/svg">
<path d="M7.75348 0.49769C8.03594 -0.165897 8.96406 -0.165897 9.24652 0.49769L11.019 4.66185C11.1386 4.94283 11.4019 5.13351 11.7029 5.15709L16.2484 5.51317C16.9777 5.5703 17.2675 6.49849 16.7034 6.97063L13.285 9.83192C13.0439 10.0337 12.9383 10.3579 13.0134 10.6656L14.0655 14.9752C14.2385 15.6839 13.4844 16.2539 12.8637 15.8835L8.91248 13.5253C8.65791 13.3734 8.34209 13.3734 8.08751 13.5253L4.13626 15.8835C3.51565 16.2539 2.76151 15.6839 2.93452 14.9752L3.98657 10.6656C4.06169 10.3579 3.9561 10.0337 3.71498 9.83192L0.296558 6.97063C-0.26751 6.49849 0.0222685 5.5703 0.751573 5.51317L5.29711 5.15709C5.59808 5.13351 5.86139 4.94283 5.98099 4.66185L7.75348 0.49769Z" fill="url(#paint0_linear_47_269)"/>
<defs>
<linearGradient id="paint0_linear_47_269" x1="8.49991" y1="-0.844" x2="8.49991" y2="17.7023" gradientUnits="userSpaceOnUse">
<stop offset="0.3125" stop-color="#C07EED"/>
<stop offset="0.75" stop-color="#3D75A9"/>
</linearGradient>
</defs>
</svg>
