<svg width="21" height="20" viewBox="0 0 21 20" fill="none" xmlns="http://www.w3.org/2000/svg">
<path fill-rule="evenodd" clip-rule="evenodd" d="M15.5427 7.42857C15.5427 3.32588 12.2168 0 8.11412 0C4.01143 0 0.685547 3.32588 0.685547 7.42857C0.685547 11.5313 4.01143 14.8571 8.11412 14.8571C9.95412 14.8571 11.6455 14.1829 12.9484 13.0743L13.257 13.3829V14.2857L18.9713 20L20.6855 18.2857L14.9713 12.5714H14.0684L13.7598 12.2629C14.8684 10.96 15.5427 9.26857 15.5427 7.42857ZM2.97126 7.42857C2.97126 4.57143 5.25698 2.28571 8.11412 2.28571C10.9713 2.28571 13.257 4.57143 13.257 7.42857C13.257 10.2857 10.9713 12.5714 8.11412 12.5714C5.25698 12.5714 2.97126 10.2857 2.97126 7.42857Z" fill="black"/>
</svg>
