<svg width="400" height="400" viewBox="0 0 400 400" fill="none" xmlns="http://www.w3.org/2000/svg">
<path fill-rule="evenodd" clip-rule="evenodd" d="M57.649 19.7586C56.798 21.1356 60.884 28.1896 62.098 27.4386C63.637 26.4876 63.099 24.2266 60.66 21.3916C59.198 19.6906 58.069 19.0786 57.649 19.7586ZM64 21.9406C64 23.0086 64.497 24.1886 65.103 24.5636C65.839 25.0186 65.982 27.3466 65.531 31.5536C64.879 37.6396 66.055 42.7016 67.861 41.5856C68.28 41.3266 68.7 37.4616 68.795 32.9976C68.922 27.0136 68.547 24.2386 67.369 22.4396C65.445 19.5036 64 19.2896 64 21.9406ZM54.869 26.5746C57.429 31.3006 57.719 32.5226 56.772 34.6016C55.937 36.4336 55.951 37.3506 56.827 38.2266C57.724 39.1236 58 39.0316 58 37.8346C58 36.9736 58.885 35.1436 59.967 33.7686C61.979 31.2116 61.789 29.7596 59.556 30.6166C58.73 30.9336 58.277 30.0286 58.218 27.9476C58.121 24.5656 55.582 20.9996 53.27 20.9996C52.234 20.9996 52.667 22.5096 54.869 26.5746ZM48 23.4996C48 24.3246 48.395 24.9996 48.879 24.9996C49.362 24.9996 50.317 26.3496 51 27.9996C52.968 32.7506 55.507 31.7526 53.813 26.8936C52.446 22.9716 48 20.3756 48 23.4996ZM44 25.0346C44 26.5396 47.077 30.9996 48.115 30.9996C49.694 30.9996 49.05 27.3556 47.171 25.6546C45.074 23.7566 44 23.5466 44 25.0346ZM49 38.5496C49 39.9416 52.157 44.9996 53.026 44.9996C54.312 44.9996 54.256 43.6556 52.839 40.5466C51.849 38.3736 49 36.8916 49 38.5496ZM62.5 45.0276C59.2 46.0236 55.204 46.8756 53.621 46.9196L50.742 46.9996L51.447 53.2496C52.564 63.1376 58.397 84.4606 64.125 99.5996C70.809 117.262 80.235 135.825 91.388 153.296L100.152 167.024L97.999 181.262C95.403 198.435 88.571 236.14 82.373 267.5C79.873 280.15 77.754 290.922 77.664 291.438C77.236 293.889 109.766 300.027 137 302.634C151.868 304.058 186.073 304.26 187.401 302.932C187.643 302.691 187.416 291.019 186.896 276.996C186.377 262.973 185.601 232.825 185.174 210L184.396 168.5L188.2 163.405C192.293 157.923 199.595 151.351 205.398 147.928C207.379 146.759 209 145.613 209 145.381C209 144.418 194.293 135.545 187.66 132.506C180.042 129.016 168.408 126 162.562 126C159.488 126 158.562 126.628 155.559 130.75C153.656 133.363 150.011 139.213 147.458 143.75C144.904 148.288 142.704 152 142.569 152C141.573 152 130.467 135.086 127.997 129.808C125.267 123.973 124.132 122.716 117.785 118.496C108.615 112.398 101.833 106.028 96.497 98.4996C90.707 90.3316 88.9 86.6146 79.478 63.4996C74.567 51.4516 70.764 43.4426 69.913 43.3576C69.136 43.2786 65.8 44.0306 62.5 45.0276ZM132.109 53.0066C123.665 57.0896 107.433 66.5306 103.106 69.8746C101.653 70.9986 101.009 72.2056 101.468 72.9476C102.298 74.2906 121.626 83.9996 123.468 83.9996C124.098 83.9996 125.04 82.7886 125.56 81.3096C126.322 79.1426 126.506 79.9696 126.503 85.5596C126.501 91.0026 126.122 92.7816 124.75 93.8066C121.899 95.9356 122.463 101.695 125.832 104.849C127.389 106.307 128.991 108.809 129.391 110.409C129.791 112.009 131.621 114.821 133.459 116.659C136.492 119.692 137.344 120 142.7 120C146.065 120 149.133 119.467 149.842 118.758C150.83 117.77 151.275 117.82 152.026 119.008C152.545 119.829 152.976 121.251 152.985 122.168C153.008 124.658 154.084 127 155.205 127C155.826 127 155.939 124.778 155.505 121.046C154.759 114.613 156.237 108 158.423 108C160.372 108 162.909 104.707 163.592 101.289C164.044 99.0316 163.713 97.7106 162.354 96.3486C160.924 94.9136 160.5 92.9806 160.5 87.8926C160.5 82.6566 160.738 81.6236 161.656 82.8796C162.704 84.3156 163.309 84.2876 168.156 82.5776C176.399 79.6706 185 75.1146 185 73.6546C185 70.3346 148.416 48.9996 142.722 48.9996C141.442 48.9996 136.666 50.8026 132.109 53.0066ZM295.48 54.7496C296.28 60.1256 296.45 60.4576 297.933 59.5406C300.197 58.1416 298.421 49.9996 295.851 49.9996C295.132 49.9996 295.009 51.5826 295.48 54.7496ZM300.67 50.7496C299.745 52.2996 301.271 62.0766 302.381 61.7126C303.702 61.2796 304.399 55.7246 303.555 52.3616C302.974 50.0486 301.56 49.2586 300.67 50.7496ZM305.907 52.1666C305.855 52.3496 305.673 54.4116 305.502 56.7496C305.189 61.0026 306.551 63.3436 307.987 61.0206C308.555 60.1016 308.932 60.0806 309.464 60.9416C310.644 62.8516 313 60.1436 313 56.8776C313 53.0216 310.053 52.9016 309.868 56.7496C309.751 59.2056 309.671 59.1336 309.118 56.0786C308.778 54.1976 307.938 52.4726 307.25 52.2456C306.563 52.0186 305.958 51.9826 305.907 52.1666ZM291.634 56.8516C288.837 59.9426 290.372 70.9996 293.598 70.9996C295.291 70.9996 295.394 68.4276 293.875 64.0706C293.059 61.7306 293.049 60.1876 293.837 58.4576C295.201 55.4646 293.808 54.4496 291.634 56.8516ZM298 62.8676C298 63.4256 298.478 64.1766 299.062 64.5376C299.646 64.8986 300.562 66.3486 301.099 67.7596C301.857 69.7526 302.342 70.0576 303.273 69.1266C304.203 68.1966 304.132 67.3246 302.951 65.2216C301.449 62.5446 298 60.9046 298 62.8676ZM133.345 66.7646C132.711 67.1686 136.086 67.5046 140.845 67.5106C145.605 67.5176 151.23 68.1286 153.345 68.8696C157.021 70.1576 157.173 70.3866 156.821 74.0826C156.395 78.5426 157.452 78.0196 158.325 73.3366C159.032 69.5456 158.127 68.6846 151.807 67.1436C146.569 65.8666 135.126 65.6316 133.345 66.7646ZM203.945 72.3696C195.961 79.0216 178 97.3296 178 98.8146C178 100.06 181.313 100.677 191.868 101.399C195.921 101.677 199.438 102.105 199.684 102.351C199.93 102.597 199.589 104.756 198.927 107.149C197.559 112.09 197.1 134.84 198.33 136.766C200.193 139.684 201.001 136.201 201.016 125.191C201.032 112.814 202.715 103.077 205.339 100.178C206.211 99.2136 206.745 97.5426 206.526 96.4626C205.235 90.1096 205.052 87.5746 205.986 88.9996C206.527 89.8246 206.983 91.3996 207 92.4996C207.064 96.6526 208.26 97.0886 213.808 94.9806C216.675 93.8906 221.015 92.9996 223.452 92.9996C225.888 92.9996 228.071 92.6616 228.302 92.2496C228.532 91.8376 228.51 89.8126 228.251 87.7496C227.793 84.0906 227.68 84.0006 223.641 84.0236C221.363 84.0376 217.528 84.5036 215.118 85.0586C212.708 85.6146 210.525 85.8576 210.267 85.5996C209.681 85.0146 216.01 83.3416 222.089 82.4746C227.713 81.6736 230 83.4616 230 88.6586C230 91.5366 230.812 92.9296 234.477 96.3376C236.94 98.6266 242.31 105.675 246.412 112C255.93 126.677 256.892 128 258.047 128C260.003 128 258.746 125.628 248.437 109.856C240.499 97.7126 238.2 93.4876 239.187 92.8586C239.909 92.3976 243.278 90.3846 246.674 88.3856C254.585 83.7266 260.368 78.9576 259.32 77.9566C256.944 75.6916 220.741 66.9996 213.679 66.9996C211.168 66.9996 208.864 68.2706 203.945 72.3696ZM129.07 72.1906C129.032 74.2206 129.45 76.1596 130 76.4996C131.207 77.2456 131.207 73.3076 130 70.4996C129.307 68.8876 129.127 69.2156 129.07 72.1906ZM307.619 70.5236C305.595 72.5476 305.519 74.9996 307.481 74.9996C308.911 74.9996 310.758 70.4246 309.739 69.4056C309.464 69.1296 308.51 69.6326 307.619 70.5236ZM286.769 87.6576C283.32 106.737 281.622 112.223 277.822 116.549C273.72 121.222 263.661 127.073 252.04 131.548C246.838 133.552 242.01 135.936 241.312 136.846C239.544 139.151 232.288 157.95 231.457 162.375C231.081 164.381 230.402 166.252 229.947 166.533C228.849 167.211 222.788 156.765 219.848 149.127C218.556 145.774 217.024 143.023 216.441 143.015C214.803 142.992 204.443 149.469 199.73 153.462C197.404 155.433 193.363 159.615 190.75 162.755L186 168.464V184.732C186 193.679 186.301 201 186.669 201C187.871 201 198.387 194.831 203.363 191.206L208.225 187.664L207.552 180.832C206.528 170.442 207.592 172.679 208.94 183.75C214.328 228.008 226.294 302.431 228.63 306.211C230.361 309.012 253.575 307.495 271.921 303.383C296.214 297.938 318.152 287.826 332.904 275.276L336.307 272.38L328.266 262.817C314.692 246.672 300.06 223.292 279.064 184.198L269.772 166.897L281.164 155.198C299.594 136.275 301.747 133.024 304.488 120C306.388 110.972 309.311 78.8946 308.316 77.9886C307.131 76.9096 298.16 74.1576 293.476 73.4366L289.452 72.8166L286.769 87.6576ZM134.083 76.3636C135.074 77.2306 153.978 77.7726 153.451 76.9196C153.138 76.4136 148.559 75.9996 143.274 75.9996C137.99 75.9996 133.854 76.1636 134.083 76.3636ZM133.595 86.1276C130.298 96.4976 130.296 96.5016 128.076 96.2506C126.153 96.0326 125.913 96.4136 126.187 99.2506C126.422 101.69 127.036 102.576 128.649 102.806C130.242 103.033 130.976 104.061 131.485 106.772C132.676 113.121 134.661 115.832 138.969 116.992C146.299 118.965 150.841 116.602 153.6 109.378C154.732 106.413 155.862 105 157.101 105C159.016 105 161 102.236 161 99.5656C161 98.6716 160.15 97.9996 159.02 97.9996C156.86 97.9996 153 91.6136 153 88.0396C153 86.1996 152.375 85.9996 146.625 85.9996C143.119 85.9996 138.851 85.7196 137.14 85.3776C134.957 84.9406 133.901 85.1646 133.595 86.1276ZM133.571 91.5706C130.848 94.2946 131.558 95.7836 134.764 94.0726C135.719 93.5626 137.316 92.8906 138.313 92.5796C139.311 92.2686 139.847 91.5606 139.504 91.0066C138.567 89.4906 135.346 89.7966 133.571 91.5706ZM145.531 90.9496C145.169 91.5346 145.689 92.2686 146.687 92.5796C147.684 92.8906 149.331 93.5936 150.347 94.1416C152.7 95.4106 153.744 94.4066 152.364 92.2016C151.131 90.2316 146.499 89.3826 145.531 90.9496ZM133.709 97.6236C132.298 99.0356 133.052 99.8576 135.517 99.5946C136.902 99.4476 138.139 98.9156 138.267 98.4126C138.551 97.2996 134.699 96.6336 133.709 97.6236ZM139.975 99.5646C138.17 104.313 138.701 106 142 106C143.65 106 145 105.55 145 105C145 104.45 144.275 104 143.389 104C142.089 104 141.904 103.324 142.434 100.5C143.213 96.3496 141.452 95.6796 139.975 99.5646ZM145.694 97.6386C145.342 97.9906 145.256 98.6056 145.503 99.0046C146.112 99.9896 151 98.9916 151 97.8826C151 96.8726 146.66 96.6726 145.694 97.6386ZM217.485 100.389C211.831 101.763 203.831 105.918 204.563 107.101C204.827 107.529 206.721 107.17 208.772 106.302C212.314 104.803 221.647 102.037 223.25 102.012C223.662 102.005 224 102.614 224 103.365C224 104.116 224.966 105.959 226.148 107.461C227.863 109.641 228.862 110.078 231.109 109.628C234.853 108.879 235.91 110.844 233.022 113.183C230.997 114.823 230.797 115.639 231.325 120.098C231.986 125.676 236.284 136 237.945 136C239.345 136 239.369 136.141 236.5 127.595C233.481 118.6 233.439 117.561 236 115C238.532 112.468 238.547 109.805 236.04 107.536C234.716 106.338 233.266 105.967 231.567 106.394C229.385 106.941 228.783 106.495 227.006 103.012C224.769 98.6266 224.753 98.6226 217.485 100.389ZM146.997 105.504C146.31 106.331 144.373 107.364 142.692 107.8C139.028 108.749 138.343 110.2 140.527 112.384C144.284 116.141 150 112.996 150 107.171C150 103.725 148.955 103.144 146.997 105.504ZM216.694 106.639C215.427 107.906 216.972 108.658 219.946 108.221C221.614 107.976 222.733 107.376 222.431 106.888C221.8 105.867 217.647 105.687 216.694 106.639ZM146.5 109C146.16 109.55 144.982 110 143.882 110C142.782 110 142.16 110.45 142.5 111C143.521 112.651 145.859 112.132 147 110C148.077 107.987 147.652 107.136 146.5 109ZM209.667 108.667C209.3 109.033 209 109.949 209 110.702C209 111.76 209.453 111.828 211 111C212.1 110.411 213 109.495 213 108.965C213 107.868 210.674 107.66 209.667 108.667ZM206 110.951C206 119.856 211.972 131.644 216.993 132.649C219.786 133.207 220 133.562 220 137.625C220 140.847 220.395 142 221.5 142C222.586 142 223 140.884 223 137.96C223 134.521 223.619 133.331 227.165 129.958C232.114 125.25 231.665 123.628 226.503 127.566C222.571 130.564 218.081 131.142 215.48 128.984C213.032 126.951 210.388 121.182 208.959 114.75C207.722 109.183 206 106.972 206 110.951ZM218 112C218 112.55 218.648 113 219.441 113C220.234 113 221.16 112.55 221.5 112C221.84 111.45 221.191 111 220.059 111C218.927 111 218 111.45 218 112ZM214.679 112.641C214.228 113.1 213.142 113.48 212.266 113.487C211.389 113.494 210.495 114.027 210.279 114.671C210.029 115.417 210.633 115.647 211.943 115.305C213.541 114.887 214 115.239 214 116.883C214 119.11 217.307 119.931 218.5 118C218.84 117.45 218.446 117 217.625 117C216.767 117 215.999 115.898 215.816 114.404C215.642 112.976 215.131 112.183 214.679 112.641ZM220.179 119.632C216.71 123.108 216.65 124.414 219.92 125.269C223.144 126.112 226.159 123.275 225.806 119.731C225.4 115.653 224.171 115.631 220.179 119.632ZM131.595 117.733C130.669 118.653 128 124.882 128 126.122C128 126.605 128.441 127 128.98 127C130.498 127 134.298 118.898 133.264 117.864C132.771 117.371 132.019 117.312 131.595 117.733ZM222.02 121.476C221.231 122.426 221.155 123 221.819 123C223.027 123 224.436 121.103 223.743 120.409C223.491 120.158 222.716 120.638 222.02 121.476ZM158.361 140.75C154.987 146.113 150.298 154.1 147.942 158.5C145.586 162.9 143.48 166.718 143.261 166.985C142.264 168.201 129.88 149.77 124.556 139.148C122.53 135.104 120.614 132.052 120.3 132.367C119.986 132.681 122.236 138.015 125.3 144.219C131.009 155.775 140.614 169.5 142.993 169.5C143.725 169.5 148.534 162.075 153.68 153C166.251 130.828 166.16 131 165.274 131C164.847 131 161.736 135.387 158.361 140.75ZM247.837 146.25C244.988 151.447 240.099 162.123 236.502 171C234.385 176.225 232.342 180.867 231.962 181.315C230.455 183.09 219.364 165.756 215.452 155.513C214.437 152.856 213.443 151.17 213.244 151.768C212.725 153.326 218.468 166.732 222.612 173.633C226.036 179.336 230.72 185 232.012 185C232.363 185 234.825 179.488 237.484 172.75C240.142 166.012 244.017 156.787 246.094 152.25C249.639 144.506 250.593 141.223 247.837 146.25ZM356.694 292.639C355.557 293.776 357.053 295 359.58 295C361.189 295 362.369 295.78 362.982 297.25C364.76 301.51 368.117 320.966 367.809 325.229L367.5 329.5L361.628 320C358.398 314.775 355.066 309.712 354.223 308.75C352.581 306.875 351 306.446 351 307.875C351 309.259 361.758 327.363 364.028 329.8C366.425 332.373 369.527 332.674 370.393 330.418C372.374 325.256 368.465 297.305 365.265 293.75C363.746 292.063 358.013 291.32 356.694 292.639ZM262.501 356.998C262.162 357.547 262.585 358.997 263.442 360.221C265.854 363.664 265.35 365.284 260.648 369.215C251.129 377.171 239.209 383.543 237.34 381.674C237.056 381.39 239.001 378.309 241.662 374.829C246.65 368.304 250.762 360.428 249.723 359.39C248.706 358.372 247.043 359.994 245.002 363.997C243.918 366.12 240.745 370.605 237.951 373.963C232.327 380.721 231.753 383.98 236 385.044C239.565 385.937 245.684 383.903 252.446 379.578C259.539 375.041 269 366.265 269 364.223C269 362.344 265.125 356 263.977 356C263.505 356 262.84 356.449 262.501 356.998ZM83 371.374C72.724 375.868 65.271 379.752 64.485 381.025C64.123 381.609 64.419 382.8 65.141 383.67C66.286 385.05 69.23 385.195 88.199 384.807C114.098 384.276 114.279 384.207 113.794 375.055C113.575 370.915 113.118 369.5 112 369.5C110.897 369.5 110.42 370.88 110.199 374.714C109.911 379.709 109.763 379.953 106.699 380.509C104.94 380.829 96.356 380.958 87.625 380.795L71.75 380.5L82.996 375.5C89.182 372.75 94.3 370.05 94.371 369.5C94.633 367.468 90.298 368.183 83 371.374ZM157.03 369.113C148.579 372.485 141.538 383.457 146.582 385.393C148.888 386.278 166.773 386.053 171.83 385.076C178.138 383.857 178.584 382.985 175.78 377.352C171.782 369.324 164.509 366.128 157.03 369.113ZM156.411 372.891C153.275 374.804 149 379.558 149 381.135C149 382.107 168.959 382.337 171.418 381.393C173.892 380.444 173.301 378.368 169.467 374.533C165.357 370.423 161.296 369.912 156.411 372.891Z" fill="#1C1C1C"/>
<path fill-rule="evenodd" clip-rule="evenodd" d="M82.9998 12.4618C80.5248 13.7878 75.9118 15.8568 72.7498 17.0578C66.8488 19.3008 64.7758 21.7328 69.7498 20.5778C71.7178 20.1208 72.0818 20.2168 71.0288 20.9148C66.8088 23.7148 75.7208 22.7328 84.2498 19.4578C85.6148 18.9338 85.9998 19.3098 85.9998 21.1708C85.9998 22.4818 86.6548 24.4898 87.4558 25.6328C88.8868 27.6758 88.7688 27.7228 80.5388 28.3548C72.0048 29.0108 68.9998 29.6748 68.9998 30.9018C68.9998 31.6038 93.4698 31.2058 95.7498 30.4678C98.0188 29.7328 97.1948 21.7428 94.2498 15.9288C91.0158 9.54376 89.3838 9.04076 82.9998 12.4618ZM82.9998 15.4998C77.7618 18.3048 78.0548 18.5978 83.9998 16.4998C86.3378 15.6748 88.6328 14.9998 89.0998 14.9998C90.5108 14.9998 93.1458 20.9838 92.7628 23.3178C92.4608 25.1508 92.1138 24.8598 90.5898 21.4998C89.5928 19.2998 88.5648 18.0618 88.3048 18.7488C87.7008 20.3498 91.1068 27.2688 92.7498 27.7788C94.7578 28.4018 94.2618 21.4338 91.9798 16.9598C90.8678 14.7818 89.4058 13.0198 88.7298 13.0448C88.0528 13.0698 85.4748 14.1748 82.9998 15.4998ZM34.9998 28.5728C31.4248 29.3058 26.1738 29.9278 23.3318 29.9528C17.8728 30.0028 14.9998 30.7048 14.9998 31.9898C14.9998 33.4758 19.0448 33.8068 26.2498 32.9118C37.5058 31.5138 43.9998 29.8408 43.9998 28.3408C43.9998 26.7868 43.6558 26.7958 34.9998 28.5728ZM41.0698 37.5528C35.3328 39.4878 28.4198 42.2788 25.7068 43.7558L20.7748 46.4398L18.3878 43.6638C17.0398 42.0968 15.9998 39.6058 15.9998 37.9438C15.9998 35.9938 15.4938 34.9998 14.4998 34.9998C12.1618 34.9998 12.6408 41.1698 15.2838 45.1018C16.5408 46.9708 18.5908 48.6468 19.8418 48.8268C21.0918 49.0068 25.8008 47.3568 30.3068 45.1598C34.8128 42.9638 42.4378 39.9378 47.2498 38.4358C55.7198 35.7938 58.3848 33.9818 53.7498 34.0168C52.5128 34.0268 46.8058 35.6178 41.0698 37.5528ZM263.923 46.9228C258.771 52.0748 260.435 62.9788 265.924 60.0408C268.089 58.8818 269.768 54.3968 268.483 53.2028C268.067 52.8168 267.547 52.9988 267.327 53.6078C267.107 54.2178 266.283 55.5678 265.496 56.6078C264.168 58.3618 264.061 58.2348 264.032 54.8608C263.997 50.8478 266.964 46.2418 268.838 47.3998C270.352 48.3358 270.335 56.1718 268.811 59.5158C268.078 61.1238 266.543 62.3408 264.811 62.6878C261.908 63.2678 261.214 64.3958 263.057 65.5348C267.084 68.0238 272.99 61.3388 272.996 54.2858L273 50.0708L277.75 52.1098C283.345 54.5118 292 55.7938 292 54.2218C292 53.6408 289.662 52.6638 286.805 52.0518C283.948 51.4388 278.548 49.3768 274.804 47.4688C271.061 45.5608 267.739 43.9998 267.422 43.9998C267.105 43.9998 265.531 45.3148 263.923 46.9228ZM314 57.9118C314 58.8408 315.225 59.0878 329.75 61.0918C337.494 62.1598 338 62.3778 338 64.6468C338 65.9768 337.325 68.6798 336.5 70.6538C334.643 75.0988 334.617 76.0838 336.374 75.4098C338.945 74.4228 341.175 68.7128 340.83 63.9998L340.5 59.4998L331.5 58.3268C320.329 56.8698 314 56.7198 314 57.9118ZM270.694 63.6388C269.022 65.3108 271.901 65.9998 280.559 65.9998C289.509 65.9998 292.686 64.9528 287.75 63.6298C284.743 62.8248 271.502 62.8318 270.694 63.6388ZM305 66.9608C305 67.4898 306.688 68.3598 308.75 68.8938C310.813 69.4278 314.48 70.3808 316.9 71.0118C319.32 71.6418 323.763 73.2468 326.774 74.5788C332.672 77.1868 334 77.4748 334 76.1478C334 74.8908 321.414 69.3268 314.54 67.5448C307.671 65.7638 305 65.6008 305 66.9608ZM170.386 86.0118C170.739 88.2188 171.311 93.3768 171.657 97.4748C172.266 104.671 172.163 105.162 168.626 111.893C165.134 118.538 165.043 122.563 168.494 117.767C170.095 115.541 170.113 115.567 169.473 119.135C168.603 123.983 170.527 125.075 172.397 120.796C173.261 118.818 173.869 118.2 173.918 119.25C174.022 121.474 175.586 121.521 176.428 119.326C177.37 116.872 175.988 109.131 174.308 107.45C173.299 106.442 173.227 106 174.072 106C175.711 106 174.724 85.5768 172.984 83.4808C170.76 80.8008 169.715 81.8178 170.386 86.0118ZM250 87.5198C250 88.3558 251.184 91.8428 252.632 95.2698C254.169 98.9078 255.385 103.881 255.556 107.223C255.905 114.05 256.597 115.579 258.589 113.926C259.603 113.084 260 113.071 260 113.878C260 114.495 260.45 115 261 115C261.55 115 262 114.01 262 112.8C262 111.089 262.267 110.867 263.2 111.8C264.623 113.223 266 113.365 266 112.09C266 111.589 264.2 108.902 262 106.119C259.8 103.336 258 100.586 258 100.007C258 99.4288 256.678 96.0408 255.063 92.4778C252.294 86.3728 250 84.1258 250 87.5198ZM132 127.945C132 129.32 136.262 131 139.752 131H142.374L139.687 133.805C137.046 136.561 136.182 139 137.845 139C138.31 139 139.493 138.113 140.474 137.029C142.248 135.068 142.272 135.069 144.855 137.101C148.156 139.697 149.069 137.767 146.056 134.56L143.898 132.263L148.449 131.117C155.227 129.41 153.97 128.048 145.75 128.19C141.762 128.259 137.037 127.984 135.25 127.578C133.1 127.091 132 127.215 132 127.945ZM232.024 140.053C230.112 141.119 226.4 142.276 223.774 142.624C218.367 143.342 217.537 144.757 222 145.65C225.387 146.327 225.535 146.709 223.468 149.441C221.646 151.851 221.601 153 223.331 153C224.063 153 225.264 151.875 226 150.5C227.617 147.479 228.163 147.418 230.5 150C231.495 151.1 232.69 152 233.155 152C234.707 152 234.024 149.655 231.75 147.177C230.032 145.305 229.825 144.61 230.874 144.238C231.629 143.97 233.654 142.47 235.374 140.905C239.025 137.581 237.262 137.132 232.024 140.053ZM326.5 282.614C323.75 284.541 318.428 287.932 314.673 290.148C310.918 292.365 308.018 294.351 308.229 294.562C309.518 295.851 346.721 308 349.379 308C350.485 308 353.95 300.166 354.576 296.25L355.205 292.317L345.852 286.783C336.208 281.076 332.363 278.96 331.816 279.055C331.642 279.085 329.25 280.687 326.5 282.614ZM98.6538 303.166C97.2288 313.497 92.9048 365.238 93.4228 365.757C93.7378 366.071 98.6598 366.535 104.362 366.789L114.729 367.25L117.906 350.375C119.654 341.094 122.33 326.704 123.853 318.397L126.622 303.294L115.061 301.646C108.703 300.739 102.544 299.735 101.376 299.415C99.5038 298.902 99.1808 299.346 98.6538 303.166ZM147.417 316.897C148.288 331.493 150.761 360.279 151.574 365.287C152.12 368.653 152.429 368.987 154.344 368.287C155.53 367.854 159.988 367.5 164.25 367.5C171.324 367.5 172.002 367.326 172.028 365.5C172.043 364.4 172.705 353.375 173.5 341C174.295 328.625 174.957 315.575 174.971 312L174.998 305.5L160.861 305.397L146.724 305.294L147.417 316.897ZM260 307.601C256.425 308.252 250.398 308.833 246.608 308.892L239.715 309L240.357 315.142C241.571 326.76 246.249 355.501 247.101 356.574C248.107 357.842 259.859 356.681 262.991 355.005C264.607 354.14 265.001 352.91 265.007 348.715C265.01 345.847 265.672 335.41 266.478 325.521C267.283 315.633 267.618 307.29 267.221 306.98C266.825 306.671 263.575 306.95 260 307.601ZM10.4478 387.085C10.0768 387.684 10.1858 388.586 10.6898 389.09C11.2388 389.639 87.1818 389.904 200.553 389.753C367.727 389.529 389.5 389.327 389.5 388C389.5 386.673 367.7 386.471 200.311 386.247C64.6278 386.066 10.9308 386.303 10.4478 387.085Z" fill="#3CA4FC"/>
</svg>
