<svg width="228" height="228" viewBox="0 0 228 228" fill="none" xmlns="http://www.w3.org/2000/svg">
<path fill-rule="evenodd" clip-rule="evenodd" d="M155.476 46.7039C154.618 46.9809 153.05 47.7419 151.993 48.3957C150.935 49.05 149.408 50.548 148.599 51.725C147.791 52.9021 146.829 55.0732 146.463 56.5501C145.95 58.6163 145.955 59.8954 146.482 62.0973C146.86 63.6711 147.891 65.9551 148.773 67.172C149.719 68.4796 151.61 70.001 153.39 70.8879C155.343 71.8609 157.318 72.3853 159 72.3773C160.427 72.3704 162.636 71.8922 163.907 71.3148C165.179 70.7374 167.147 69.1813 168.28 67.8572C169.552 66.3712 170.605 64.3494 171.03 62.5767C171.564 60.3491 171.568 59.0256 171.043 56.684C170.671 55.0231 169.636 52.6553 168.743 51.4224C167.85 50.1889 166.202 48.6128 165.08 47.9197C163.887 47.1821 161.795 46.5643 160.038 46.4303C158.387 46.3043 156.334 46.4275 155.476 46.7039ZM70.6804 52.4963C68.0156 55.0054 65.1519 57.5601 64.3163 58.1735C62.7972 59.2884 62.7972 59.2884 60.0738 55.5788C58.5758 53.5388 56.9513 51.8755 56.4628 51.8818C55.9567 51.8886 53.1529 55.5617 49.9358 60.4318C46.8344 65.128 43.9696 68.9698 43.5706 68.9698C43.1716 68.9698 41.648 68.4568 40.1853 67.8298C38.7227 67.2028 37.1558 66.6898 36.7032 66.6898C36.2512 66.6898 32.6876 70.9859 28.7848 76.2373C24.8814 81.4887 21.682 86.2095 21.674 86.7282C21.6632 87.4823 22.0884 87.6231 23.7978 87.4316C24.9738 87.2993 35.6823 86.5572 47.5953 85.7825C59.5084 85.0079 70.466 84.3068 71.9452 84.2242C73.4414 84.1409 74.6515 84.3279 74.6715 84.6448C74.6914 84.9583 73.7378 85.371 72.5517 85.5614C70.3953 85.9079 70.3954 85.9079 72.8355 85.9889C74.3483 86.039 75.3623 85.7991 75.5031 85.3573C75.6279 84.9657 76.1347 77.2063 76.6283 68.1148C77.1219 59.0233 77.5249 50.7509 77.5232 49.7323C77.5209 48.3387 77.2735 47.8867 76.5229 47.9072C75.9739 47.9226 73.3451 49.9877 70.6804 52.4963ZM155.895 49.2056C154.955 49.5739 153.493 50.3451 152.646 50.9196C151.799 51.4942 150.55 53.113 149.87 54.5169C148.921 56.4777 148.694 57.7802 148.889 60.1354C149.057 62.1617 149.648 63.9624 150.629 65.4467C151.539 66.8221 153.14 68.1878 154.76 68.9721C156.852 69.985 157.96 70.1771 160.052 69.8904C161.507 69.6909 163.637 68.906 164.785 68.1462C165.962 67.3676 167.4 65.6758 168.081 64.2673C168.746 62.8936 169.287 60.7607 169.282 59.5272C169.278 58.2937 169.123 56.7182 168.937 56.0257C168.613 54.8162 168.432 54.8794 164.344 57.6382C162.003 59.2177 159.732 60.3737 159.297 60.2066C158.66 59.9627 158.574 58.7748 158.854 54.176C159.14 49.469 159.061 48.4578 158.404 48.4931C157.964 48.5171 156.836 48.8374 155.895 49.2056ZM176.385 58.7594C176.174 59.1003 176.268 59.6458 176.594 59.9718C176.92 60.2978 177.847 60.3987 178.654 60.1964C179.46 59.994 180.12 59.448 180.12 58.984C180.12 58.43 179.545 58.1398 178.444 58.1398C177.522 58.1398 176.595 58.4186 176.385 58.7594ZM104.453 60.8137C101.88 60.9801 100.89 61.2668 100.89 61.846C100.89 62.3174 101.747 62.8087 102.967 63.0378C104.11 63.2522 107.23 63.2732 109.9 63.0851C112.571 62.8965 115.018 62.4804 115.338 62.1606C115.657 61.8408 115.734 61.3939 115.508 61.1677C115.282 60.9414 113.503 60.7168 111.556 60.6695C109.608 60.6216 106.413 60.6866 104.453 60.8137ZM82.9354 62.1298C82.7416 62.4433 82.7416 62.9563 82.9354 63.2698C83.1292 63.5833 85.5602 63.8398 88.3372 63.8398C91.1149 63.8398 93.7927 63.6842 94.2886 63.4938C94.7845 63.3034 95.1903 62.7905 95.1903 62.3538C95.1903 61.7257 93.946 61.5598 89.239 61.5598C85.8862 61.5598 83.1337 61.8089 82.9354 62.1298ZM176.273 65.9408C175.567 66.0828 174.99 66.5359 174.99 66.948C174.99 67.3601 175.567 67.8492 176.273 68.0356C176.979 68.222 179.298 68.214 181.428 68.0179C184.561 67.7295 185.268 67.4867 185.128 66.748C184.991 66.032 184.155 65.8183 181.255 65.7584C179.22 65.7163 176.979 65.7983 176.273 65.9408ZM86.9368 80.461C83.4945 80.7432 80.4519 81.2003 80.1748 81.4773C79.8984 81.7538 79.8659 82.2947 80.103 82.6783C80.4217 83.1936 81.8934 83.2757 85.7249 82.9913C88.5795 82.7798 91.8131 82.4133 92.9103 82.1773C94.072 81.9271 94.9053 81.4038 94.9053 80.9244C94.9053 80.4713 94.5206 80.066 94.0504 80.0244C93.5801 79.9822 90.379 80.1789 86.9368 80.461ZM102.075 80.3026C101.003 80.4964 100.028 80.9524 99.9082 81.3154C99.788 81.6785 100.409 82.1306 101.288 82.3198C102.167 82.509 105.532 82.4087 108.767 82.0964C112.001 81.7846 114.887 81.3816 115.179 81.2009C115.471 81.0202 115.71 80.6315 115.71 80.3362C115.71 80.0312 113.192 79.8323 109.868 79.8751C106.655 79.9161 103.148 80.1088 102.075 80.3026ZM64.8379 86.4722C65.5429 86.6079 66.6978 86.6079 67.4029 86.4722C68.1079 86.336 67.5311 86.2249 66.1203 86.2249C64.7096 86.2249 64.1328 86.336 64.8379 86.4722ZM57.7128 87.0326C58.2618 87.1762 59.1589 87.1762 59.7079 87.0326C60.2568 86.8895 59.8076 86.7721 58.7104 86.7721C57.6131 86.7721 57.1639 86.8895 57.7128 87.0326ZM147.01 102.651C146.355 103.305 145.335 104.908 144.742 106.213C144.15 107.517 143.66 109.019 143.653 109.549C143.646 110.079 143.888 110.666 144.191 110.853C144.494 111.04 145.508 109.677 146.443 107.823C147.379 105.97 148.543 104.3 149.031 104.113C149.641 103.879 150.369 104.489 151.368 106.072C152.56 107.96 153.094 108.338 154.357 108.192C155.547 108.055 156.196 107.408 157.226 105.332C157.959 103.856 158.393 102.381 158.19 102.054C157.988 101.727 157.585 101.46 157.294 101.46C157.003 101.46 156.404 102.326 155.961 103.385C155.519 104.444 154.874 105.485 154.528 105.699C154.183 105.913 153.9 105.835 153.9 105.527C153.9 105.219 153.236 104.178 152.425 103.214C151.528 102.148 150.41 101.46 149.575 101.46C148.819 101.46 147.665 101.996 147.01 102.651ZM102.315 109.753C99.4938 110.172 96.1782 110.729 94.9475 110.991C93.7163 111.254 92.6048 111.781 92.4771 112.164C92.3119 112.661 93.1976 112.852 95.5705 112.833C97.3991 112.818 101.648 112.352 105.014 111.797C108.379 111.242 111.291 110.629 111.484 110.437C111.676 110.244 111.666 109.812 111.459 109.478C111.252 109.143 110.265 108.897 109.264 108.931C108.264 108.965 105.137 109.335 102.315 109.753ZM97.7553 119.199C96.1878 119.481 93.1714 120.122 91.0527 120.623C88.934 121.125 87.0593 121.763 86.8866 122.043C86.7145 122.321 86.7082 122.769 86.8735 123.037C87.0399 123.305 88.6513 123.302 90.4702 123.03C92.2822 122.76 96.6513 121.985 100.178 121.308C104.525 120.475 106.59 119.834 106.59 119.32C106.59 118.775 105.743 118.578 103.598 118.624C101.952 118.658 99.3228 118.918 97.7553 119.199ZM103.502 125.137C101.333 125.575 99.2943 126.198 98.9706 126.522C98.5995 126.893 98.5824 127.304 98.9239 127.634C99.2539 127.953 101.47 127.857 104.595 127.386C107.417 126.962 110.185 126.438 110.747 126.222C111.309 126.006 111.674 125.541 111.558 125.187C111.442 124.834 110.469 124.499 109.396 124.443C108.323 124.387 105.671 124.699 103.502 125.137Z" fill="#2B73B1"/>
<path fill-rule="evenodd" clip-rule="evenodd" d="M7.18676 37.7911C5.7002 39.2776 5.7002 39.2776 5.7002 92.7841C5.7002 146.291 5.7002 146.291 7.01918 147.53C7.88672 148.345 9.06662 148.77 10.4637 148.77C11.6322 148.77 28.2882 146.315 47.4766 143.315C66.6657 140.315 82.6046 137.627 82.897 137.34C83.19 137.053 83.247 136.636 83.0241 136.414C82.8018 136.191 66.326 138.422 46.4107 141.37C19.2542 145.392 9.96037 146.58 9.23362 146.121C8.3353 145.555 8.25437 141.7 8.11985 93.0338C7.98533 44.5952 8.04803 40.4832 8.92867 39.602C9.74777 38.7834 10.7436 38.6951 15.9146 38.9801C19.2314 39.1631 43.2347 39.6054 69.2552 39.9639C107.884 40.4957 116.801 40.7613 117.848 41.4106C119.13 42.2057 119.13 42.2057 119.13 72.4026C119.13 102.219 119.144 102.6 120.27 102.6C121.396 102.6 121.41 102.222 121.402 72.532C121.395 49.4584 121.226 42.1328 120.673 41.0395C120.262 40.225 119.106 39.346 117.974 38.9886C116.709 38.5879 101.706 38.1217 76.3802 37.6953C54.5919 37.3282 30.4445 36.8654 22.7193 36.6665C8.67332 36.3045 8.67332 36.3045 7.18676 37.7911ZM140.81 40.3623C139.08 42.0917 139.08 42.0917 139.08 60.0131C139.08 77.9339 139.08 77.9339 140.583 79.437C141.721 80.5747 142.655 80.9389 144.43 80.9366C145.72 80.9349 155.881 80.2948 167.01 79.5145C178.139 78.7342 187.45 78.0941 187.7 78.0924C187.95 78.0906 188.784 77.4106 189.553 76.5813C190.95 75.0731 190.95 75.0731 190.95 59.1524C190.95 43.2317 190.95 43.2317 189.351 41.6334C187.753 40.0346 187.753 40.0346 172.964 39.6732C164.83 39.4749 154.657 39.1596 150.357 38.9727C142.539 38.6335 142.539 38.6335 140.81 40.3623ZM142.821 41.911C141.678 42.4816 141.641 42.9695 141.495 59.6278C141.354 75.5872 141.415 76.8224 142.383 77.6979C143.348 78.5723 144.931 78.5375 164.982 77.2032C176.84 76.4137 187.022 75.512 187.607 75.1985C188.606 74.6638 188.67 73.6652 188.67 58.7095C188.67 44.0537 188.59 42.7467 187.66 42.249C187.094 41.9458 177.27 41.6238 165.323 41.516C151.458 41.3918 143.585 41.5297 142.821 41.911ZM19.7724 48.2477C19.5563 48.4632 19.3802 57.8157 19.3802 69.0311C19.3802 80.2464 19.5928 89.5533 19.8527 89.7141C20.1121 89.8748 27.8715 89.3863 37.0952 88.6288C46.3184 87.8713 58.4645 86.8436 64.0864 86.3454C69.7078 85.8466 74.5397 85.2949 74.8235 85.1199C75.1074 84.9443 75.1251 84.6063 74.8623 84.3681C74.6001 84.1298 63.8687 84.6525 51.0152 85.5297C38.1617 86.4069 26.3017 87.2289 24.6601 87.356L21.675 87.5868L21.5251 67.923C21.4242 54.6762 21.1774 48.1936 20.7699 48.0573C20.4364 47.9468 19.9878 48.0323 19.7724 48.2477ZM177.698 51.1376C176.836 51.2682 176.13 51.7156 176.13 52.1311C176.13 52.5472 176.536 53.0431 177.032 53.2335C177.528 53.4239 178.746 53.5761 179.739 53.5715C180.732 53.5675 182.122 53.4091 182.828 53.2204C183.533 53.0312 184.11 52.5518 184.11 52.1545C184.11 51.7572 183.533 51.2778 182.828 51.0886C182.122 50.8999 181.032 50.7802 180.405 50.8224C179.778 50.8652 178.56 51.0071 177.698 51.1376ZM106.875 52.2429C106.248 52.3757 105.158 52.6071 104.453 52.7576C103.747 52.908 103.17 53.4114 103.17 53.8753C103.17 54.516 103.908 54.7195 106.234 54.7195C107.919 54.7195 110.099 54.5593 111.079 54.3633C112.059 54.1672 112.86 53.6867 112.86 53.2945C112.86 52.9029 112.059 52.4218 111.079 52.2258C110.099 52.0297 109.009 51.8991 108.656 51.9356C108.304 51.9721 107.502 52.11 106.875 52.2429ZM85.0727 53.5972C84.367 53.881 83.7902 54.3775 83.7902 54.7013C83.7902 55.0245 84.367 55.3226 85.0727 55.363C85.7784 55.4035 87.6377 55.387 89.2052 55.3271C90.7727 55.2667 92.5038 55.0877 93.0527 54.9298C93.6016 54.7719 94.0502 54.2755 94.0502 53.8263C94.0502 53.1942 93.1792 53.0175 90.2027 53.0454C88.0863 53.0654 85.7784 53.3139 85.0727 53.5972ZM104.556 71.8833C104.34 72.2316 104.518 72.7406 104.95 73.0142C105.382 73.2884 106.761 73.5118 108.015 73.5118C109.269 73.5118 110.649 73.2884 111.081 73.0142C111.513 72.7406 111.69 72.2316 111.475 71.8833C111.259 71.5345 109.702 71.2495 108.015 71.2495C106.328 71.2495 104.771 71.5345 104.556 71.8833ZM85.9157 72.4419C85.3605 72.7651 85.055 73.2702 85.2369 73.5643C85.4187 73.859 87.0272 74.0955 88.8113 74.091C90.5954 74.0858 92.4086 73.8584 92.8407 73.5842C93.2727 73.3106 93.45 72.8016 93.2345 72.4533C93.0191 72.1045 91.5114 71.8275 89.8841 71.8366C88.2567 71.8463 86.4709 72.1188 85.9157 72.4419ZM164.445 85.2185C153.786 85.9521 144.508 86.5722 143.827 86.5962C143.145 86.6201 141.799 87.3036 140.834 88.1152C139.08 89.591 139.08 89.591 139.08 107.521C139.08 125.451 139.08 125.451 140.48 126.85C141.51 127.881 142.494 128.25 144.217 128.25C145.503 128.25 148.336 127.955 150.513 127.596C153.138 127.163 154.47 126.683 154.47 126.171C154.47 125.723 153.858 125.4 153.012 125.4C152.21 125.4 149.754 125.679 147.555 126.02C144.009 126.57 143.432 126.528 142.458 125.646C141.421 124.708 141.36 123.713 141.36 107.729C141.36 92.323 141.45 90.7281 142.358 89.9381C143.082 89.3077 145.857 88.8921 152.475 88.423C157.491 88.0674 162.036 87.7772 162.575 87.7778C163.211 87.7789 163.439 88.0793 163.227 88.6345C163.046 89.1048 162.434 89.4895 161.866 89.4895C161.298 89.4895 160.428 89.6451 159.932 89.8355C159.436 90.0259 159.03 90.764 159.03 91.476C159.03 92.1873 158.645 93.0891 158.175 93.4795C157.705 93.87 157.32 94.8629 157.321 95.6865C157.321 96.5108 158.059 98.7235 158.961 100.604C159.864 102.486 161.397 105.105 162.37 106.426C163.342 107.748 164.936 109.242 165.912 109.746C166.888 110.251 167.598 110.737 167.491 110.826C167.383 110.915 166.363 111.132 165.223 111.307C163.388 111.59 163.184 111.502 163.437 110.533C163.623 109.821 163.431 109.44 162.885 109.44C162.386 109.44 161.111 111.461 159.739 114.427C158.471 117.17 157.153 120.441 156.81 121.695C156.467 122.949 156.185 124.398 156.184 124.916C156.181 125.452 156.918 126.115 157.89 126.454C159.24 126.925 159.601 127.387 159.604 128.647C159.605 129.526 159.888 131.259 160.232 132.498C160.576 133.737 161.697 135.532 162.724 136.488C163.75 137.443 165.006 138.555 165.515 138.959C166.024 139.364 166.44 140.161 166.44 140.732C166.44 141.538 165.776 141.882 163.451 142.277C160.463 142.785 160.463 142.785 160.001 145.695C159.539 148.607 159.539 148.607 155.437 150.7C153.181 151.85 149.675 154.138 147.645 155.783C145.615 157.428 142.488 160.521 140.695 162.656C138.902 164.79 136.279 168.777 134.864 171.515C133.45 174.252 131.764 178.423 131.116 180.783C130.469 183.143 129.88 186.432 129.807 188.093C129.724 190.006 129.921 191.2 130.348 191.35C130.775 191.501 131.157 190.588 131.394 188.846C131.6 187.338 132.171 184.565 132.663 182.684C133.155 180.803 134.258 177.69 135.114 175.766C135.97 173.842 137.774 170.636 139.124 168.641C140.473 166.646 142.998 163.519 144.735 161.691C146.471 159.862 149.743 157.129 152.006 155.616C154.268 154.102 157.543 152.331 159.284 151.68C161.025 151.029 165.463 150.092 169.147 149.598C172.831 149.105 178.667 148.555 182.115 148.376C186.928 148.128 189.246 148.271 192.09 148.995C194.128 149.514 197.206 150.613 198.93 151.438C200.985 152.42 203.741 154.624 206.928 157.835C211.15 162.089 212.246 163.636 215.238 169.575C217.134 173.337 219.174 178.146 219.773 180.262C220.379 182.406 221.18 184.109 221.581 184.109C221.976 184.109 222.3 183.623 222.3 183.029C222.3 182.435 221.789 180.295 221.165 178.273C220.54 176.251 219.232 172.826 218.257 170.661C217.282 168.496 215.106 164.641 213.42 162.094C211.734 159.548 208.811 156.036 206.925 154.289C205.038 152.543 201.634 150.198 199.36 149.078C197.073 147.951 193.57 146.777 191.52 146.45C189.482 146.124 187.238 145.739 186.533 145.593C185.433 145.365 185.25 144.964 185.25 142.774C185.25 140.22 185.25 140.22 180.752 140.22C176.255 140.22 176.255 140.22 176.022 138.225C175.883 137.031 176.037 136.229 176.405 136.229C176.744 136.229 178.451 134.754 180.198 132.952C181.945 131.15 184.738 128.007 186.403 125.97C188.069 123.932 190.059 120.894 190.827 119.219C191.931 116.81 192.169 115.526 191.966 113.078C191.769 110.708 191.349 109.608 190.169 108.376C188.828 106.976 188.676 106.466 189.001 104.433C189.288 102.644 189.083 101.495 188.127 99.5204C187.44 98.1011 186.065 96.4412 185.067 95.8268C184.071 95.2129 180.832 94.0307 177.87 93.1996C174.908 92.3686 171.958 91.4127 171.315 91.0752C170.671 90.7384 169.351 89.7728 168.38 88.9298C166.615 87.3976 166.615 87.3976 176.503 86.7136C183.134 86.2548 186.74 86.2166 187.452 86.5979C188.068 86.9268 188.664 88.0742 188.871 89.3253C189.067 90.5127 189.231 92.8314 189.234 94.477C189.238 96.7542 189.445 97.4695 190.095 97.4695C190.792 97.4695 190.95 96.5233 190.95 92.3714C190.95 87.9049 190.791 87.0881 189.667 85.7811C188.772 84.7408 187.693 84.2278 186.104 84.0865C184.851 83.9753 175.104 84.4843 164.445 85.2185ZM95.1497 95.9687C93.7167 96.3552 91.3872 97.3498 89.9724 98.1791C88.5577 99.0079 86.4686 100.717 85.3298 101.978C84.1915 103.237 82.5476 105.624 81.6766 107.281C80.238 110.019 80.0926 110.842 80.0892 116.289C80.0852 121.916 80.1998 122.515 81.9588 126.091C83.1204 128.453 84.8253 130.774 86.4481 132.202C87.8868 133.468 90.5065 135.206 92.2695 136.064C95.0648 137.423 96.1694 137.624 100.902 137.639C105.87 137.653 106.641 137.501 110.022 135.836C112.053 134.835 114.584 133.119 115.646 132.023L117.576 130.03L124.9 133.699C128.928 135.718 132.633 137.369 133.132 137.369C133.856 137.369 133.963 136.993 133.657 135.517C133.446 134.498 132.849 133.332 132.329 132.926C131.81 132.519 128.948 130.882 125.97 129.286C122.992 127.69 120.477 126.319 120.381 126.24C120.284 126.16 120.637 124.778 121.164 123.167C121.864 121.026 122.052 118.978 121.863 115.552C121.66 111.875 121.259 110.189 120.002 107.729C119.12 106.005 117.78 103.782 117.023 102.79C116.267 101.798 114.315 100.084 112.687 98.9811C111.058 97.8788 108.332 96.5746 106.629 96.0833C104.926 95.5914 102.233 95.2066 100.644 95.2277C99.0554 95.2494 96.5827 95.5828 95.1497 95.9687ZM53.5802 99.5409C37.1214 100.612 23.0727 101.736 22.3613 102.037C21.6494 102.339 20.816 103.246 20.5088 104.055C20.1936 104.884 19.9502 112.318 19.9502 121.128C19.9502 130.144 20.1742 136.871 20.4809 137.06C20.7727 137.241 21.1392 137.181 21.2954 136.929C21.4516 136.676 21.7628 131.185 21.9868 124.726C22.3944 112.982 22.3944 112.982 24.4498 112.642C25.5801 112.455 27.0951 112.299 27.8162 112.296C29.0668 112.29 29.1129 112.439 28.8285 115.567C28.6644 117.369 28.3759 122.756 28.1878 127.537C27.8909 135.073 27.9604 136.229 28.7094 136.229C29.1842 136.229 29.6892 136.037 29.8311 135.802C29.9731 135.567 30.3994 130.244 30.7791 123.975C31.1581 117.705 31.556 112.482 31.6626 112.369C31.7697 112.255 41.4261 111.466 53.1213 110.614C64.8166 109.762 74.424 109.086 74.4707 109.11C74.518 109.135 74.2986 113.732 73.9833 119.326C73.5821 126.44 73.5912 129.678 74.013 130.1C74.4365 130.524 74.7848 130.296 75.1849 129.334C75.4984 128.581 76.0234 124.208 76.3523 119.616C76.6812 115.024 76.9502 110.746 76.9502 110.108C76.9502 109.341 77.3828 108.887 78.227 108.767C78.9292 108.667 79.5893 108.136 79.6936 107.587C79.835 106.846 79.5066 106.59 78.4168 106.59C77.0055 106.59 76.9502 106.462 76.9502 103.195C76.9502 99.7997 76.9502 99.7997 81.0827 99.6321C84.2838 99.5021 85.2152 99.2736 85.2152 98.6175C85.2152 98.1512 84.8304 97.73 84.3602 97.681C83.8899 97.6325 70.0389 98.4693 53.5802 99.5409ZM96.0748 99.5198C94.5239 100.015 92.2017 101.144 90.9146 102.03C89.627 102.916 87.8566 104.675 86.9799 105.94C86.1032 107.205 85.0385 109.215 84.6133 110.407C84.1881 111.599 83.829 114.393 83.8153 116.616C83.7942 120.01 84.0684 121.214 85.527 124.133C86.4823 126.044 88.1564 128.392 89.2479 129.35C90.3389 130.308 92.3151 131.648 93.6387 132.326C95.1805 133.116 97.5038 133.655 100.104 133.825C103.004 134.014 104.999 133.812 107.093 133.117C108.915 132.511 111.178 131.088 113.077 129.353C115.022 127.575 116.594 125.483 117.409 123.589C118.113 121.953 118.82 119.172 118.979 117.409C119.168 115.329 118.944 113.08 118.341 111.008C117.678 108.726 116.603 106.927 114.578 104.711C112.748 102.709 110.679 101.152 108.739 100.318C107.087 99.607 104.197 98.9344 102.315 98.8227C100.226 98.699 97.7979 98.9703 96.0748 99.5198ZM50.7302 101.965L31.6352 103.455L31.4619 106.814C31.2886 110.173 31.2886 110.173 34.8819 109.822C36.8581 109.629 46.5549 108.917 56.4302 108.241C66.3054 107.565 74.4411 106.968 74.5095 106.914C74.5779 106.86 74.8053 105.354 75.0156 103.568C75.3969 100.32 75.3969 100.32 72.6114 100.397C71.0786 100.44 61.2324 101.145 50.7302 101.965ZM23.5988 104.176C23.2545 104.406 22.811 106.005 22.6127 107.729C22.253 110.865 22.253 110.865 25.2341 110.67C26.8734 110.562 28.3816 110.306 28.5846 110.1C28.788 109.893 29.1323 108.378 29.3506 106.732C29.7474 103.74 29.7474 103.74 26.9863 103.748C25.4678 103.753 23.9436 103.945 23.5988 104.176ZM58.1402 113.827C56.7294 113.931 52.8073 114.408 49.4238 114.886C46.0408 115.365 42.6419 115.996 41.8713 116.289C41.1006 116.582 40.4702 117.121 40.4702 117.487C40.4702 117.975 41.8074 118.047 45.4577 117.756C48.2011 117.537 53.0102 116.924 56.1452 116.392C60.2275 115.699 61.8452 115.195 61.8452 114.617C61.8452 114.173 61.5887 113.771 61.2752 113.724C60.9617 113.677 59.5509 113.724 58.1402 113.827ZM161.754 115.14C161.442 115.923 160.589 118.296 159.858 120.412C158.61 124.024 158.592 124.26 159.564 124.26C160.134 124.26 160.853 124.58 161.162 124.972C161.471 125.364 161.875 127.031 162.06 128.676C162.245 130.323 162.817 132.555 163.33 133.637C163.972 134.989 164.873 135.806 166.207 136.247C167.992 136.836 168.15 137.075 168.15 139.195C168.15 141.475 168.171 141.498 169.931 141.146C170.911 140.95 172.169 140.79 172.726 140.79C173.54 140.79 173.787 140.197 173.977 137.797C174.128 135.881 173.951 134.489 173.484 133.928C173.082 133.447 172.359 132.108 171.877 130.955C171.395 129.8 171 128.082 171 127.136C171 125.708 171.34 125.273 172.995 124.581C174.257 124.054 174.99 123.359 174.99 122.693C174.99 122.112 174.682 121.33 174.306 120.953C173.93 120.577 172.935 120.27 172.096 120.27C171.257 120.27 170.295 119.939 169.96 119.535C169.625 119.131 169.026 117.587 168.63 116.105C167.909 113.41 167.909 113.41 165.114 113.562C162.735 113.692 162.236 113.926 161.754 115.14ZM24.8904 115.52C24.6812 115.728 24.5102 116.483 24.5102 117.196C24.5102 117.909 24.7889 118.664 25.1298 118.875C25.4706 119.086 26.0161 118.992 26.3422 118.666C26.6682 118.339 26.7691 117.413 26.5668 116.606C26.3644 115.8 25.9893 115.14 25.7346 115.14C25.4792 115.14 25.099 115.311 24.8904 115.52ZM164.906 115.861C164.219 116.171 163.513 116.799 163.337 117.258C163.16 117.717 163.161 118.326 163.337 118.611C163.513 118.896 164.232 119.13 164.935 119.13C165.638 119.13 166.52 118.822 166.896 118.446C167.272 118.069 167.58 117.327 167.58 116.796C167.58 116.266 167.26 115.711 166.868 115.564C166.476 115.417 165.593 115.55 164.906 115.861ZM39.394 126.121C38.6456 126.508 38.0044 127.081 37.969 127.395C37.9337 127.708 38.5464 128.032 39.3302 128.115C40.1139 128.198 42.0177 127.941 43.5613 127.545C45.1049 127.149 46.4729 126.504 46.6011 126.112C46.7693 125.601 45.9747 125.402 43.795 125.408C42.1232 125.413 40.1424 125.733 39.394 126.121ZM166.53 127.68C165.835 128.62 164.889 129.39 164.428 129.39C163.968 129.39 163.59 129.747 163.59 130.184C163.59 130.62 163.996 131.133 164.492 131.324C164.988 131.514 165.581 131.67 165.809 131.67C166.038 131.67 166.787 131.146 167.472 130.507C168.213 129.817 168.72 128.659 168.72 127.657C168.72 126.729 168.512 125.97 168.257 125.97C168.003 125.97 167.226 126.739 166.53 127.68ZM133.38 127.409C133.38 127.618 133.848 128.47 134.42 129.302C134.993 130.134 135.827 131.712 136.273 132.81C136.744 133.967 137.061 136.539 137.026 138.937C136.983 142 137.162 143.07 137.717 143.07C138.129 143.07 138.76 141.98 139.12 140.647C139.479 139.314 139.623 136.956 139.44 135.406C139.251 133.805 138.416 131.468 137.505 129.991C136.52 128.395 135.416 127.324 134.641 127.212C133.948 127.112 133.38 127.201 133.38 127.409ZM139.362 128.918C139.159 129.441 139.293 130.433 139.662 131.121C140.029 131.808 140.632 133.412 141.001 134.684C141.369 135.957 141.985 137.103 142.37 137.231C142.862 137.395 143.07 136.606 143.07 134.576C143.07 132.186 142.782 131.366 141.401 129.826C139.996 128.259 139.673 128.115 139.362 128.918ZM144.452 132.307C144.675 134.307 145.108 136.199 145.413 136.51C145.778 136.882 146.151 136.785 146.505 136.225C146.801 135.757 147.043 134.605 147.043 133.665C147.043 132.724 146.727 131.334 146.339 130.575C145.952 129.815 145.278 129.077 144.841 128.932C144.189 128.717 144.12 129.326 144.452 132.307ZM148.089 129.69C147.91 129.869 148.013 131.093 148.318 132.41C148.623 133.727 148.756 136.528 148.613 138.634C148.408 141.673 148.545 142.63 149.275 143.272C149.781 143.718 151.791 144.88 153.741 145.856C155.692 146.831 157.552 147.63 157.874 147.63C158.196 147.63 158.46 147.255 158.46 146.797C158.46 146.34 156.798 144.993 154.766 143.805C151.072 141.645 151.072 141.645 151.018 137.655C150.988 135.46 150.645 132.782 150.255 131.704C149.865 130.626 149.292 129.659 148.981 129.555C148.669 129.45 148.267 129.512 148.089 129.69ZM128.25 139.991C128.25 141.119 128.675 142.937 129.194 144.032C129.713 145.126 131.169 146.704 132.429 147.538C134.241 148.737 135.457 149.069 138.239 149.123C141.279 149.183 142.175 149.474 144.829 151.261C146.518 152.399 148.224 153.33 148.62 153.33C149.016 153.33 149.34 152.994 149.34 152.585C149.34 152.175 147.658 150.604 145.603 149.095C142.391 146.737 141.592 146.395 139.926 146.666C138.859 146.839 137.089 146.732 135.992 146.43C134.895 146.127 133.217 145.099 132.264 144.145C131.178 143.059 130.396 141.575 130.172 140.176C129.957 138.834 129.501 137.939 129.032 137.939C128.514 137.939 128.25 138.633 128.25 139.991ZM174.99 143.072C172.639 143.299 168.856 143.799 166.583 144.183C162.531 144.869 162.45 144.916 162.45 146.586C162.45 148.143 162.586 148.262 164.018 147.97C164.88 147.794 167.252 147.409 169.29 147.116C171.328 146.822 175.047 146.406 177.555 146.19C180.063 145.975 182.304 145.505 182.534 145.147C182.764 144.788 182.956 144.046 182.962 143.497C182.968 142.734 182.535 142.518 181.118 142.579C180.099 142.623 177.341 142.845 174.99 143.072ZM204.674 177.412C204.698 178.744 205.027 180.861 205.405 182.115C205.8 183.427 206.447 184.395 206.928 184.395C207.567 184.395 207.732 183.749 207.626 181.676C207.549 180.182 207.114 178.065 206.658 176.974C206.202 175.883 205.559 174.99 205.229 174.99C204.898 174.99 204.65 176.071 204.674 177.412ZM158.206 182.636C157.994 184.334 157.993 186.642 158.204 187.766C158.415 188.89 158.913 189.809 159.312 189.809C159.711 189.809 160.192 189.233 160.381 188.527C160.57 187.821 160.725 186.09 160.725 184.679C160.725 183.269 160.57 181.538 160.381 180.832C160.192 180.126 159.712 179.549 159.315 179.549C158.867 179.549 158.445 180.726 158.206 182.636Z" fill="#1C1C1C"/>
</svg>
