<svg width="228" height="228" viewBox="0 0 228 228" fill="none" xmlns="http://www.w3.org/2000/svg">
<path fill-rule="evenodd" clip-rule="evenodd" d="M153.898 21.137C149.353 22.7301 145.122 24.1779 144.495 24.3546C143.868 24.5308 143.087 24.8819 142.76 25.1355C142.414 25.4029 142.109 28.6541 142.031 32.8904C141.958 36.9026 141.631 44.4175 141.304 49.5902C140.977 54.763 140.675 63.9394 140.633 69.982L140.557 80.9687L145.661 86.1255C148.468 88.9624 152.198 92.5357 153.949 94.0662L157.132 96.8495L162.213 95.1099C165.008 94.1534 169.294 92.4565 171.736 91.3399C174.179 90.2233 175.964 89.0964 175.703 88.8353C175.442 88.5742 173.444 89.1106 171.262 90.0272C169.08 90.9437 165.143 92.4873 162.512 93.4574L157.729 95.221L158.073 91.6431C158.262 89.6755 158.826 78.8312 159.324 67.5452C159.824 56.2592 160.361 45.4771 160.518 43.5853C160.805 40.1448 160.805 40.1448 170.32 36.5959C175.553 34.6437 179.963 33.0494 180.12 33.0534C180.277 33.0568 180.316 43.3202 180.208 55.8602C180.088 69.7722 180.219 78.6602 180.544 78.6602C180.852 78.6602 181.237 72.4638 181.454 64.0329C181.661 55.9879 181.83 45.3591 181.83 40.4144V31.4232L177.698 28.0642C175.425 26.2162 171.48 23.25 168.931 21.4721C166.381 19.6949 163.815 18.2402 163.228 18.2402C162.641 18.2402 158.442 19.5438 153.898 21.137ZM153.763 22.7763L144.222 26.0709L148.626 29.4231C151.049 31.267 154.661 34.1484 156.653 35.827L160.276 38.8788L165.411 37.0417C168.236 36.0311 172.596 34.3775 175.101 33.3669L179.657 31.5292L176.611 28.9517C174.936 27.5341 171.404 24.8004 168.762 22.8772C166.12 20.954 163.811 19.403 163.632 19.431C163.452 19.4589 159.011 20.9643 153.763 22.7763ZM143.464 39.2157C143.269 45.7057 142.803 57.556 142.428 65.5502L141.748 80.0852L149.106 87.322L156.465 94.5587L156.851 90.742C157.063 88.6426 157.64 77.3065 158.134 65.5502C158.627 53.794 159.031 43.2165 159.031 42.0446C159.03 40.0313 158.663 39.5998 152.333 34.1712C148.649 31.0128 145.227 28.2004 144.727 27.9223C143.914 27.4691 143.782 28.6519 143.464 39.2157ZM36.4802 36.397C26.6049 41.0174 17.978 45.0998 17.3088 45.4691C16.1192 46.1246 16.0845 46.5379 15.7339 63.9673C15.5373 73.7725 15.315 92.953 15.2403 106.59L15.1052 131.385L20.8052 133.601C23.9402 134.82 28.6854 136.691 31.3502 137.758C34.0149 138.826 36.483 139.831 36.8347 139.993C37.1864 140.154 42.3164 137.008 48.2347 133.002C54.153 128.995 62.7395 123.215 67.3155 120.157L75.6358 114.598L76.342 92.7814C76.7302 80.7823 76.9622 63.3107 76.8567 53.9547L76.6652 36.9448L71.057 34.7212C67.9721 33.498 63.2554 31.4699 60.5752 30.2137C57.8951 28.9579 55.4173 27.9451 55.069 27.9633C54.7202 27.9815 46.3554 31.7766 36.4802 36.397ZM45.7416 33.6C40.4913 36.0191 32.2839 39.8763 27.5027 42.1711C22.7215 44.4659 18.8102 46.5253 18.8102 46.7471C18.8102 46.9694 22.4656 48.7016 26.9327 50.5974C31.4004 52.4932 35.6457 54.2175 36.3668 54.4301C37.3637 54.7231 41.0334 53.1567 51.6519 47.9047C59.3378 44.104 66.9552 40.4651 68.5803 39.8187C70.2054 39.1729 72.1753 38.396 72.9573 38.0933C74.2433 37.5952 73.8192 37.3307 68.5359 35.3374C65.3222 34.1244 61.0267 32.248 58.9901 31.1667L55.2879 29.2008L45.7416 33.6ZM69.5402 41.0608C66.5619 42.3079 58.2895 46.1982 51.1577 49.7059L38.1902 56.0842V61.6725C38.1902 64.7454 38.3469 67.2602 38.5385 67.2602C38.73 67.2602 40.9746 66.0154 43.526 64.494C46.0779 62.9727 51.2432 60.0634 55.0052 58.0291C58.7672 55.9948 64.9876 52.6893 68.8277 50.6835C75.8102 47.0366 75.8102 47.0366 75.8102 42.8984C75.8102 40.6224 75.6175 38.7676 75.3827 38.7768C75.1479 38.7859 72.5184 39.8136 69.5402 41.0608ZM203.49 39.9208C200.198 40.1459 197.299 40.3619 197.046 40.4001C196.794 40.4389 196.666 41.6889 196.761 43.1777C196.915 45.5683 197.085 45.8807 198.218 45.8448C198.923 45.822 202.207 45.7581 205.515 45.7023L211.53 45.6002L211.357 42.6129C211.232 40.4469 210.95 39.6101 210.33 39.5685C209.86 39.5366 206.782 39.695 203.49 39.9208ZM197.79 42.7155C197.79 44.3907 197.79 44.3907 204.06 44.283C210.33 44.1752 210.33 44.1752 210.33 42.6077C210.33 41.0402 210.33 41.0402 204.06 41.0402C197.79 41.0402 197.79 41.0402 197.79 42.7155ZM188.226 42.6026C186.154 42.72 184.788 43.0341 184.982 43.3476C185.166 43.6463 187.077 43.8902 189.227 43.8902C191.378 43.8902 193.541 43.7352 194.035 43.5454C194.529 43.3561 194.792 42.9714 194.618 42.6904C194.445 42.4099 193.741 42.2298 193.054 42.2902C192.367 42.3507 190.194 42.4909 188.226 42.6026ZM101.46 49.283C101.46 51.1703 101.46 51.1703 92.3402 51.5852C86.6886 51.8423 83.2202 52.2248 83.2202 52.5913C83.2202 52.9909 86.0434 53.0564 91.923 52.7942C99.1996 52.4699 100.811 52.5463 101.755 53.2599C102.441 53.7786 104.154 54.1212 106.116 54.132C107.893 54.1423 109.753 54.3058 110.248 54.4962C110.927 54.7567 111.15 55.6585 111.15 58.1345C111.15 61.0672 111.29 61.465 112.433 61.7711C113.138 61.9598 114.317 62.1183 115.051 62.1223C115.903 62.1274 116.495 62.5429 116.685 63.2702C116.953 64.294 117.462 64.4102 121.692 64.4102C124.961 64.4102 126.597 64.1737 127.042 63.6367C127.414 63.1887 127.532 62.1006 127.322 61.0518C127.123 60.0549 126.527 59.0083 125.998 58.7251C125.469 58.4418 123.13 58.13 120.8 58.0325C116.78 57.8644 116.556 57.9202 116.383 59.1377C116.241 60.1347 115.829 60.4202 114.53 60.4202C113.09 60.4202 112.859 60.2042 112.852 58.8527C112.848 57.9903 112.693 56.7204 112.508 56.0301C112.188 54.8371 112.364 54.7664 116.078 54.6051C119.985 54.4352 119.985 54.4352 120.158 51.4365C120.278 49.3491 120.104 48.367 119.588 48.2051C119.179 48.0775 114.933 47.8432 110.153 47.6842C101.46 47.3963 101.46 47.3963 101.46 49.283ZM17.1002 54.6575V61.4069L24.9377 64.2672C29.2486 65.8404 33.5721 67.2979 34.5462 67.5065C36.2961 67.8804 36.3223 67.8525 36.6837 65.2134C36.8855 63.7433 37.0502 61.0723 37.0502 59.2768C37.0502 56.013 37.0502 56.013 32.6327 54.4164C30.2028 53.5386 26.2914 51.9421 23.9402 50.8693C21.5889 49.7966 19.0878 48.6913 18.3827 48.4132C17.1002 47.9087 17.1002 47.9087 17.1002 54.6575ZM66.1202 53.6418C60.9474 56.3721 52.6112 60.8996 47.5952 63.7023L38.4752 68.7987L38.3173 76.5159L38.1588 84.2337L45.5802 79.8795C49.662 77.4843 57.5976 72.979 63.2143 69.8668C68.8311 66.7546 73.9714 63.7975 74.6371 63.2953C75.7703 62.4403 75.837 61.9473 75.6865 55.5302L75.5252 48.6777L66.1202 53.6418ZM102.6 50.0861C102.6 50.7394 103.177 51.6365 103.883 52.08C104.719 52.6055 107.496 52.9812 111.863 53.1579C118.56 53.4298 118.56 53.4298 118.56 51.51C118.56 49.5902 118.56 49.5902 111.482 49.5902C107.589 49.5902 103.998 49.4346 103.502 49.2442C102.857 48.9969 102.6 49.2374 102.6 50.0861ZM117.99 60.9851C117.99 62.7002 117.99 62.7002 121.98 62.7002C124.175 62.7002 125.97 62.4928 125.97 62.2391C125.97 61.9855 125.65 61.375 125.258 60.8819C124.837 60.3524 123.203 59.8388 121.268 59.6279C117.99 59.2705 117.99 59.2705 117.99 60.9851ZM17.1002 69.168V75.6352L24.3677 79.0752C28.3651 80.967 32.5905 82.8509 33.7584 83.2618C34.9264 83.6728 36.0806 83.8102 36.3234 83.5679C36.5663 83.3251 36.7652 80.0339 36.7652 76.2531V69.3789L32.9707 68.3364C30.8834 67.7624 26.5821 66.2599 23.4118 64.9968C20.2415 63.7336 17.5243 62.7002 17.3738 62.7002C17.2233 62.7002 17.1002 65.6107 17.1002 69.168ZM60.6197 72.9015C52.4214 77.4798 44.0213 82.3054 41.9522 83.6249L38.1902 86.0252V93.7424C38.1902 97.9872 38.3829 101.459 38.6177 101.458C38.8525 101.457 39.911 100.928 40.9689 100.283C42.0269 99.6379 47.9264 96.4066 54.0789 93.1023C60.2315 89.798 67.4711 85.828 70.1672 84.281L75.0692 81.4669L75.4625 73.1512C75.6785 68.5775 75.7811 64.7773 75.6899 64.7066C75.5993 64.636 68.8174 68.3239 60.6197 72.9015ZM99.4692 72.5527C95.16 72.9437 93.0128 73.3815 92.5944 73.9543C92.1675 74.538 90.2916 74.8971 86.3204 75.1559C82.8468 75.3822 80.7652 75.7458 80.9402 76.0952C81.1129 76.4401 83.5314 76.5843 87.0677 76.4606C92.6959 76.2634 92.9102 76.2999 92.9102 77.4581C92.9102 78.6101 93.1792 78.6602 99.3563 78.6602C103.711 78.6602 106.128 78.4225 106.805 77.9272C107.56 77.3755 107.763 76.5655 107.626 74.6543C107.501 72.8958 107.182 72.095 106.59 72.0494C106.12 72.0129 102.915 72.2398 99.4692 72.5527ZM98.1827 73.9406C94.122 74.1464 94.0502 74.1772 94.0513 75.6928C94.0519 77.2352 94.0519 77.2352 99.7223 77.2352C103.217 77.2352 105.642 76.985 106.045 76.5832C106.403 76.2246 106.607 75.4551 106.496 74.8732C106.349 74.0934 105.772 73.8044 104.306 73.7731C103.211 73.7503 100.456 73.8255 98.1827 73.9406ZM192.66 75.5703C189.995 76.5889 185.378 78.4077 182.4 79.6121C176.985 81.8026 176.985 81.8026 176.792 85.2187C176.686 87.0979 176.781 101.79 177.003 117.868L177.406 147.1L180.901 149.593C182.823 150.964 187.325 153.628 190.905 155.513L197.416 158.94L206.295 155.795C211.179 154.066 216.048 152.364 217.115 152.013C219.055 151.376 219.055 151.376 218.684 139.1C218.48 132.349 218.312 116.674 218.311 104.266L218.31 81.7069L212.468 79.3414C209.255 78.0406 204.573 76.2429 202.065 75.3474C197.505 73.7183 197.505 73.7183 192.66 75.5703ZM130.958 76.1853C129.782 76.6732 128.82 77.4473 128.82 77.9056C128.82 78.3638 132.822 82.8087 137.712 87.7837L146.603 96.829L142.557 98.8667C140.331 99.9874 138.51 101.158 138.51 101.468C138.51 101.777 138.703 102.03 138.938 102.029C139.173 102.027 141.146 101.13 143.323 100.034C145.499 98.9374 147.588 98.0402 147.965 98.0402C148.341 98.0402 150.52 100.157 152.806 102.743C155.093 105.329 157.364 107.878 157.854 108.408C158.688 109.31 158.998 109.282 162.715 107.972C164.899 107.202 166.934 106.325 167.237 106.021C167.541 105.718 167.614 105.293 167.399 105.079C167.185 104.865 165.327 105.356 163.271 106.172L159.534 107.655L145.032 93.1673C137.056 85.1993 130.53 78.4391 130.53 78.1444C130.53 77.8497 131.425 77.3133 132.517 76.9531C133.61 76.5923 134.651 76.0593 134.831 75.7686C135.01 75.4779 134.693 75.2533 134.126 75.2699C133.559 75.2858 132.134 75.6979 130.958 76.1853ZM193.8 76.9941C191.762 77.8959 187.979 79.3334 185.393 80.189C182.806 81.0451 180.69 81.891 180.69 82.0688C180.69 82.2467 184.594 83.7093 189.364 85.319L198.038 88.2454L206.769 85.3441L215.502 82.4422L206.521 78.8415C201.581 76.8607 197.532 75.2659 197.523 75.2978C197.513 75.3292 195.838 76.0924 193.8 76.9941ZM17.2284 85.8485L17.3852 94.704L26.3655 98.3668C31.3046 100.382 35.6013 102.03 35.913 102.03C36.263 102.03 36.4802 98.8998 36.4802 93.8616V85.6929L31.1758 83.593C28.2585 82.4388 23.8917 80.4814 21.4715 79.2439L17.0717 76.9936L17.2284 85.8485ZM65.8352 87.6902C60.8192 90.437 52.4191 95.0757 47.1677 97.998L37.6202 103.311V111.221C37.6202 115.571 37.7809 119.13 37.9782 119.13C38.1748 119.13 41.4449 117.421 45.2457 115.333C49.0458 113.245 54.9767 109.868 58.4252 107.829C61.8737 105.791 66.9541 102.609 69.7146 100.76C72.4751 98.9112 74.856 97.0786 75.0059 96.6888C75.1558 96.2983 75.2054 92.99 75.1165 89.3369L74.9552 82.6953L65.8352 87.6902ZM178.538 114.73L178.695 146.241L182.115 148.46C183.996 149.681 188.029 152.045 191.076 153.714C194.124 155.385 196.753 156.75 196.919 156.75C197.085 156.75 197.22 141.638 197.22 123.167V89.5831L193.373 88.3132C191.257 87.6144 187.259 86.1831 184.489 85.1314C181.719 84.0804 179.212 83.2202 178.917 83.2202C178.587 83.2202 178.442 95.3419 178.538 114.73ZM207.48 86.5547L199.215 89.2372L198.865 100.621C198.672 106.883 198.48 122.103 198.437 134.444C198.365 155.572 198.418 156.865 199.358 156.576C199.906 156.407 204.074 154.952 208.62 153.344L216.885 150.419V117.106C216.885 95.2495 216.689 83.8056 216.315 83.8324C216.002 83.8546 212.026 85.0796 207.48 86.5547ZM105.735 95.4199C104.795 95.8349 103.533 96.7264 102.931 97.4013C102.237 98.1799 101.743 99.7719 101.578 101.762C101.329 104.757 101.408 104.981 103.347 106.81C105.376 108.723 105.376 108.723 104.021 112.99C103.276 115.337 102.366 119.41 101.999 122.041C101.505 125.592 101.497 127.431 101.969 129.173C102.318 130.465 103.16 132.228 103.84 133.092C104.519 133.956 106.122 135.139 107.4 135.72C108.679 136.3 110.559 136.781 111.578 136.788C113.43 136.8 113.43 136.8 113.43 142.5C113.43 148.2 113.43 148.2 110.943 148.2C109.575 148.2 107.202 148.438 105.67 148.729C104.139 149.02 102.138 149.543 101.225 149.89C100.173 150.291 99.7633 150.721 100.108 151.066C100.452 151.41 101.371 151.403 102.617 151.045C103.699 150.735 106.604 150.228 109.075 149.918C113.41 149.374 113.626 149.404 115.226 150.75C116.138 151.517 117.752 152.308 118.812 152.507C119.873 152.706 121.341 152.686 122.073 152.463C122.806 152.24 124.201 151.462 125.173 150.734C126.941 149.411 126.941 149.411 127.347 141.575C127.693 134.914 127.936 133.476 128.968 131.992C129.636 131.031 131.193 129.091 132.427 127.68C133.661 126.269 135.663 123.077 136.875 120.585C138.392 117.469 139.08 115.29 139.08 113.602C139.08 111.315 138.889 111.011 136.266 109.126C134.313 107.723 133.396 106.643 133.273 105.601C133.108 104.201 132.483 103.89 124.26 101.105C119.401 99.4595 113.914 97.3272 112.067 96.3667C110.221 95.4063 108.425 94.6305 108.077 94.6425C107.73 94.655 106.676 95.0044 105.735 95.4199ZM16.5302 103.353V110.96L23.7977 114.454C27.7951 116.375 32.1955 118.345 33.5766 118.83C34.9577 119.315 36.2208 119.58 36.3827 119.418C36.5446 119.256 36.7937 115.694 36.9356 111.501L37.1944 103.88L34.1723 102.876C32.5107 102.324 28.8228 100.911 25.9779 99.7348C23.1331 98.5589 19.8436 97.1807 18.6677 96.6711C16.5302 95.7449 16.5302 95.7449 16.5302 103.353ZM69.9854 101.749C67.8792 103.135 61.9797 106.799 56.8754 109.891C51.7716 112.983 45.4788 116.612 42.8927 117.955C38.1902 120.397 38.1902 120.397 38.1902 125.093C38.1902 127.675 38.0203 131.796 37.8129 134.249L37.4361 138.71L49.9254 130.221C56.795 125.552 65.044 119.993 68.2577 117.866C73.9845 114.076 74.1002 113.956 74.1002 111.807C74.1002 110.602 74.2666 107.267 74.4707 104.398C74.6827 101.408 74.6217 99.1905 74.3282 99.2047C74.046 99.2184 72.0921 100.364 69.9854 101.749ZM111.651 107.989C111.509 108.132 110.42 108.314 109.232 108.394C107.88 108.485 106.875 108.907 106.545 109.525C106.094 110.368 106.327 110.537 108.151 110.688C109.69 110.816 110.341 111.159 110.486 111.918C110.65 112.788 110.454 112.896 109.35 112.541C108.616 112.305 107.461 112.049 106.785 111.972C105.938 111.876 105.454 112.214 105.232 113.059C105.054 113.733 105.169 114.374 105.486 114.482C105.803 114.591 106.788 115.29 107.675 116.036C109.279 117.386 109.294 117.387 110.311 116.263C110.873 115.642 111.447 115.247 111.586 115.386C111.725 115.525 111.134 117.08 110.272 118.841C109.359 120.708 108.918 122.25 109.215 122.538C109.495 122.81 110.495 123.128 111.435 123.244C113.145 123.455 113.145 123.455 111.65 124.202C110.47 124.79 109.884 124.803 108.875 124.263C107.805 123.69 107.644 123.237 107.892 121.496C108.055 120.352 108.369 118.967 108.59 118.418C108.888 117.678 108.714 117.42 107.918 117.42C107.327 117.42 106.299 117.039 105.634 116.573C104.453 115.746 104.41 115.811 103.797 119.327C103.452 121.308 103.17 124.345 103.17 126.075C103.17 128.393 103.51 129.732 104.46 131.158C105.17 132.224 106.752 133.585 107.975 134.185C109.562 134.963 111.357 135.264 114.237 135.237C117.012 135.211 119.137 134.826 121.03 134.005C122.545 133.348 123.892 132.81 124.022 132.81C124.153 132.81 124.26 133.062 124.26 133.369C124.26 133.675 123.258 134.439 122.033 135.063C120.807 135.689 118.771 136.365 117.508 136.567C115.211 136.935 115.211 136.935 115.033 142.895C114.881 147.981 115.001 148.987 115.847 149.751C116.392 150.244 118.06 150.762 119.552 150.904C121.689 151.108 122.58 150.914 123.748 149.992C125.139 148.893 125.254 148.421 125.619 142.31C125.833 138.729 126.367 133.395 126.805 130.457C127.553 125.446 127.728 125.009 129.636 123.405C130.755 122.465 131.67 121.383 131.67 121.003C131.67 120.622 131.171 120.043 130.56 119.716C129.664 119.237 129.174 119.398 128.021 120.551C127.235 121.337 126.356 121.98 126.066 121.98C125.776 121.98 125.206 121.578 124.799 121.088C124.184 120.347 124.229 119.906 125.062 118.496C126.012 116.888 126.014 116.716 125.089 115.305C124.551 114.485 123.09 112.705 121.842 111.351C120.491 109.886 118.732 108.655 117.498 108.312C116.358 107.996 114.635 107.735 113.668 107.734C112.701 107.732 111.794 107.847 111.651 107.989ZM79.9096 111.194C80.0516 111.62 81.5182 112.511 83.1689 113.174L86.1699 114.381L81.9879 116.829C79.6873 118.175 71.5209 123.488 63.8402 128.636C56.1594 133.783 47.5165 139.629 44.6329 141.627C40.6931 144.357 39.0651 145.18 38.0779 144.94C37.3563 144.764 33.3024 143.344 29.0702 141.784C24.8379 140.224 18.1689 137.549 14.2502 135.839C10.3314 134.128 6.80486 132.591 6.4127 132.423C6.02111 132.256 5.7002 132.363 5.7002 132.663C5.7002 132.963 8.21105 134.389 11.2805 135.833C14.3494 137.277 21.8073 140.398 27.8527 142.77C37.7017 146.633 38.9882 147.006 40.216 146.359C40.9701 145.961 46.2705 142.429 51.9945 138.51C57.719 134.591 62.6916 131.309 63.0445 131.216C63.3979 131.122 65.3245 131.989 67.3263 133.141C69.3276 134.293 74.7232 137.511 79.3157 140.293C83.9088 143.074 87.97 145.35 88.3411 145.35C88.7116 145.35 88.9162 145.053 88.7948 144.69C88.674 144.327 85.767 142.33 82.335 140.253C78.903 138.177 73.8876 135.14 71.1898 133.504C68.4914 131.869 65.9908 130.53 65.6323 130.53C65.2737 130.53 64.9813 130.338 64.9825 130.103C64.9836 129.868 68.6385 127.299 73.105 124.395C77.5709 121.492 82.8731 118.157 84.8874 116.985C86.9018 115.814 88.6466 114.558 88.7652 114.195C88.8848 113.828 87.5853 113.012 85.8388 112.359C84.1105 111.713 82.0112 111.012 81.1739 110.801C80.031 110.515 79.7158 110.612 79.9096 111.194ZM16.5302 121.272V130.348L26.5052 134.329L36.4802 138.309V129.708C36.4802 121.108 36.4802 121.108 33.718 120.127C32.1984 119.587 27.9017 117.677 24.1705 115.882C20.4387 114.087 17.1931 112.523 16.9577 112.407C16.7223 112.29 16.5302 116.28 16.5302 121.272ZM115.489 112.757C115.291 113.077 116.009 113.629 117.084 113.984C118.159 114.338 119.347 115 119.724 115.454C120.101 115.909 120.635 116.28 120.91 116.28C121.185 116.28 121.41 115.935 121.41 115.514C121.41 115.092 120.945 114.326 120.375 113.81C119.806 113.295 118.554 112.717 117.595 112.524C116.626 112.331 115.689 112.434 115.489 112.757ZM115.14 118.275C115.14 118.873 115.742 119.13 117.135 119.13C118.528 119.13 119.13 118.873 119.13 118.275C119.13 117.678 118.528 117.42 117.135 117.42C115.742 117.42 115.14 117.678 115.14 118.275ZM115.853 127.801C114.207 128.735 112.995 129.716 113.158 129.981C113.321 130.246 114.155 130.213 115.01 129.909C115.865 129.605 117.176 128.888 117.923 128.316C118.67 127.745 119.183 127.012 119.063 126.689C118.94 126.359 117.534 126.846 115.853 127.801ZM44.6181 147.572C40.4725 149.717 33.9032 153.33 30.0198 155.6C22.9592 159.728 22.9592 159.728 22.5984 164.367C22.3995 166.918 22.2353 175.739 22.2336 183.968C22.2319 192.197 22.4468 198.93 22.7113 198.93C22.9763 198.93 23.3599 195.275 23.5646 190.808C23.7686 186.341 23.9368 177.904 23.9379 172.059L23.9402 161.432L33.4877 165.847C38.7391 168.276 44.2892 170.814 45.8214 171.489C48.6081 172.716 48.6081 172.716 48.2524 176.276C48.0575 178.234 47.724 186.569 47.5125 194.798C47.2549 204.837 47.3193 209.76 47.7092 209.76C48.029 209.76 48.453 208.286 48.652 206.483C48.8509 204.68 49.1832 196.264 49.3907 187.782L49.768 172.358L54.0966 170.084C56.4775 168.834 62.4785 165.678 67.4323 163.07C72.3868 160.463 76.566 158.456 76.7205 158.61C76.8744 158.765 76.7336 165.655 76.4076 173.923C76.0815 182.19 75.8136 191.349 75.8125 194.275C75.8108 198.278 75.9869 199.537 76.5227 199.359C77.0226 199.194 77.3463 196.754 77.6074 191.189C77.812 186.826 78.097 177.135 78.2412 169.656L78.5034 156.056L65.8614 149.848C58.908 146.434 52.98 143.647 52.687 143.656C52.3946 143.664 48.7631 145.427 44.6181 147.572ZM47.7879 147.417C44.8603 148.84 38.5436 152.324 33.7499 155.16C28.9568 157.995 25.1093 160.378 25.1999 160.455C25.2911 160.533 30.6719 162.965 37.1579 165.861L48.9507 171.125L62.3645 164.08C69.742 160.206 75.7857 156.889 75.7942 156.709C75.8028 156.53 71.6424 154.364 66.5477 151.896C61.4536 149.428 56.3458 146.828 55.1979 146.119C53.1111 144.83 53.1111 144.83 47.7879 147.417ZM169.148 147.179C166.534 147.859 164.73 148.626 164.73 149.058C164.73 149.46 165.116 149.936 165.587 150.117C166.059 150.298 170.024 152.681 174.398 155.412L182.352 160.378L179.098 162.34C177.309 163.419 172.073 166.464 167.463 169.108C162.853 171.751 158.236 174.043 157.203 174.202C155.681 174.436 154.358 173.932 150.223 171.543C147.416 169.922 144.787 168.468 144.38 168.312C143.973 168.156 143.64 168.309 143.64 168.652C143.64 168.995 144.73 169.967 146.063 170.813C147.395 171.658 149.985 173.2 151.817 174.24C153.65 175.28 155.792 176.13 156.577 176.13C157.362 176.13 161.377 174.298 165.5 172.058C169.622 169.819 175.304 166.581 178.125 164.864C180.947 163.147 183.512 161.731 183.825 161.718C184.139 161.706 186.96 163.335 190.095 165.338C193.23 167.343 196.664 169.564 197.728 170.276C198.79 170.988 200.041 171.57 200.507 171.57C200.974 171.57 205.107 170.181 209.691 168.482C214.275 166.784 219.005 164.977 220.202 164.468C221.416 163.952 222.267 163.237 222.126 162.854C221.987 162.475 221.648 162.211 221.374 162.267C221.1 162.323 216.4 164.072 210.929 166.154C203.136 169.121 200.73 169.82 199.814 169.388C199.171 169.084 191.848 164.568 183.54 159.352C175.232 154.136 168.365 149.665 168.278 149.417C168.191 149.169 169.666 148.536 171.555 148.01C173.444 147.485 174.99 146.8 174.99 146.488C174.99 146.176 174.67 145.945 174.278 145.976C173.886 146.006 171.577 146.548 169.148 147.179ZM128.535 148.623C128.849 148.934 130.359 149.604 131.892 150.112C133.425 150.62 135.81 151.698 137.191 152.507C139.703 153.979 139.703 153.979 138.132 155.222C137.268 155.906 135.282 157.387 133.72 158.516C130.881 160.565 130.881 160.565 128.333 158.62C126.932 157.551 124.569 156.059 123.082 155.306C120.378 153.936 120.378 153.936 118.757 155.151C117.865 155.819 115.948 157.502 114.498 158.89C111.861 161.413 111.861 161.413 109.598 159.984C108.353 159.199 105.77 157.254 103.858 155.663C101.946 154.072 100.246 152.989 100.081 153.256C99.9155 153.523 101.549 155.45 103.711 157.537C105.873 159.624 108.55 161.711 109.662 162.175C110.774 162.64 111.83 163.02 112.009 163.02C112.189 163.02 114.111 161.353 116.28 159.315C118.45 157.277 120.374 155.61 120.555 155.61C120.737 155.61 121.927 156.141 123.199 156.791C124.472 157.44 126.626 158.997 127.986 160.25C130.219 162.308 130.585 162.461 131.777 161.826C132.502 161.44 134.813 159.755 136.912 158.082C139.012 156.409 141.17 155.04 141.71 155.04C142.249 155.04 145.074 156.314 147.989 157.871C150.903 159.428 153.424 160.48 153.591 160.209C153.759 159.938 152.678 158.956 151.19 158.026C149.703 157.097 144.99 154.614 140.718 152.509C136.333 150.348 131.865 148.545 130.458 148.368C128.806 148.161 128.157 148.247 128.535 148.623ZM95.1902 152.231C93.7794 152.494 91.0224 153.134 89.0627 153.653C87.1036 154.172 85.5002 154.825 85.5002 155.104C85.5002 155.382 85.8051 155.61 86.1785 155.61C86.5513 155.61 89.6355 155.052 93.0322 154.37C96.4459 153.684 99.1221 152.871 99.016 152.553C98.9106 152.236 98.5834 151.926 98.2899 151.864C97.9957 151.803 96.6009 151.967 95.1902 152.231ZM67.1177 170.181C63.3414 172.119 63.2702 172.198 63.2702 174.428C63.2702 175.976 63.5199 176.7 64.0545 176.7C64.4854 176.7 66.2809 176.062 68.0445 175.283C71.2502 173.864 71.2502 173.864 71.2502 171.008C71.2502 169.436 71.1864 168.163 71.1077 168.178C71.029 168.194 69.2341 169.095 67.1177 170.181ZM25.7631 171.681C25.9352 174.641 25.9352 174.641 33.6302 177.601C37.8624 179.228 41.9026 180.735 42.6077 180.948C43.807 181.312 43.8902 181.168 43.8902 178.733C43.8902 177.302 43.909 175.938 43.9318 175.703C43.9546 175.467 40.1823 173.801 35.5494 171.998C30.917 170.195 26.7805 168.72 26.3581 168.72C25.791 168.72 25.6354 169.493 25.7631 171.681ZM67.1177 171.323C65.2732 172.283 64.4102 173.092 64.4102 173.861C64.4102 174.482 64.677 174.99 65.003 174.99C65.329 174.99 66.6115 174.472 67.853 173.839C69.5664 172.964 70.1102 172.347 70.1102 171.274C70.1102 170.496 70.0464 169.872 69.9677 169.887C69.889 169.901 68.6065 170.548 67.1177 171.323ZM26.7902 171.238C26.7902 171.683 26.9418 172.442 27.1265 172.924C27.3117 173.406 30.7477 175.095 34.7622 176.676C38.7767 178.257 42.2326 179.55 42.4418 179.55C42.651 179.55 42.7422 178.745 42.6436 177.761C42.4715 176.032 42.2252 175.879 35.3402 173.226C31.4214 171.715 27.8949 170.468 27.5027 170.455C27.1111 170.441 26.7902 170.794 26.7902 171.238ZM191.613 178.565L191.805 184.135L188.528 183.764C185.788 183.454 185.25 183.538 185.25 184.276C185.25 184.944 186.166 185.258 188.998 185.561C191.06 185.781 192.97 185.738 193.243 185.464C193.525 185.18 193.523 182.657 193.237 179.616C192.961 176.674 192.439 173.981 192.078 173.631C191.583 173.152 191.469 174.371 191.613 178.565ZM56.5066 175.885C52.4402 177.919 52.4402 177.919 52.4402 180.445C52.4402 181.834 52.703 182.97 53.0244 182.97C53.3459 182.97 55.3979 182.069 57.5844 180.968C61.5602 178.966 61.5602 178.966 61.5602 176.408C61.5602 175.001 61.3379 173.85 61.0666 173.85C60.7953 173.85 58.7433 174.766 56.5066 175.885ZM56.8577 177.078C54.1719 178.304 53.5802 178.825 53.5802 179.965C53.5802 180.73 53.7729 181.267 54.0077 181.158C54.2425 181.05 55.7815 180.356 57.4277 179.615C59.8211 178.539 60.4202 177.999 60.4202 176.915C60.4202 176.17 60.3564 175.565 60.2777 175.571C60.199 175.577 58.66 176.255 56.8577 177.078ZM64.1252 181.039C59.7362 183.077 55.1836 185.144 54.0077 185.63C51.9152 186.495 51.8702 186.578 51.8702 189.554C51.8702 191.225 52.0822 192.724 52.3416 192.884C52.6009 193.044 56.897 191.261 61.8891 188.921C66.8811 186.581 71.6064 184.341 72.3902 183.942C73.5929 183.331 73.842 182.754 73.9873 180.244C74.1355 177.686 74.0158 177.275 73.1323 177.301C72.5675 177.318 68.5142 179 64.1252 181.039ZM62.8427 183.142C53.09 187.677 53.0102 187.729 53.0102 189.553C53.0102 191.391 53.0102 191.391 62.8427 186.9C70.3792 183.458 72.7179 182.14 72.8582 181.258C72.9591 180.625 72.9591 179.761 72.8582 179.338C72.7288 178.794 69.803 179.905 62.8427 183.142ZM167.77 180.522C167.271 180.868 167.262 181.668 167.732 183.723C168.077 185.229 168.761 186.669 169.252 186.922C169.743 187.176 172.919 187.253 176.31 187.095C182.475 186.807 182.475 186.807 182.096 184.461C181.888 183.171 181.423 181.812 181.062 181.441C180.69 181.06 177.811 180.614 174.42 180.413C171.128 180.218 168.136 180.267 167.77 180.522ZM34.7263 182.482C34.7024 182.907 34.6374 184.132 34.5827 185.204C34.4892 187.022 34.6727 187.238 37.3341 188.438C38.9021 189.145 40.8202 189.807 41.5959 189.909C42.6031 190.042 43.0671 189.794 43.2165 189.041C43.3316 188.461 43.2706 187.16 43.0814 186.15C42.7719 184.502 42.4014 184.208 39.4659 183.284C37.6669 182.717 35.8749 182.131 35.4827 181.981C35.0911 181.831 34.7502 182.057 34.7263 182.482ZM169.241 183.683C169.619 185.535 169.619 185.535 173.865 185.706C176.201 185.799 178.707 185.726 179.433 185.544C180.492 185.278 180.677 184.961 180.361 183.949C180.144 183.254 179.681 182.497 179.331 182.266C178.981 182.036 176.483 181.844 173.78 181.839C168.864 181.83 168.864 181.83 169.241 183.683ZM36.0071 184.958C36.1604 186.243 36.6928 186.727 38.9027 187.592C41.6102 188.651 41.6102 188.651 41.6102 186.977C41.6102 185.579 41.3058 185.216 39.7577 184.769C38.7391 184.474 37.4361 184.042 36.8621 183.809C35.9803 183.449 35.8481 183.626 36.0071 184.958ZM91.7702 185.201C89.0992 185.486 88.609 185.72 88.4568 186.788C88.3587 187.478 88.5263 188.504 88.829 189.069C89.322 189.992 89.9297 190.059 94.7074 189.722C97.6378 189.516 100.869 189.323 101.888 189.294C103.66 189.243 103.74 189.142 103.74 186.96C103.74 184.68 103.74 184.68 99.3227 184.773C96.8934 184.824 93.4944 185.017 91.7702 185.201ZM91.9127 186.802C90.755 186.946 90.0602 187.351 90.0602 187.881C90.0602 188.594 90.8553 188.674 95.0477 188.381C97.7911 188.19 100.612 187.915 101.318 187.771C102.023 187.627 102.6 187.257 102.6 186.949C102.6 186.624 100.752 186.428 98.1827 186.481C95.7534 186.532 92.9313 186.676 91.9127 186.802ZM99.0907 190.238C99.0417 190.473 98.9778 191.691 98.9482 192.945C98.8952 195.225 98.8952 195.225 96.0452 195.641C94.4777 195.869 90.9511 196.212 88.2077 196.405C85.4649 196.596 83.2202 197.01 83.2202 197.326C83.2202 197.698 85.3765 197.773 89.3477 197.538C92.7175 197.339 96.7167 197.03 98.2334 196.853C100.712 196.562 100.959 196.406 100.664 195.307C100.483 194.635 100.332 193.124 100.328 191.948C100.324 190.772 100.064 189.81 99.7502 189.81C99.4367 189.81 99.1403 190.002 99.0907 190.238ZM68.1152 191.738C67.1747 192.089 65.8278 192.705 65.1227 193.108C64.1873 193.642 63.8402 194.366 63.8402 195.782C63.8402 196.849 64.05 197.853 64.3065 198.011C64.563 198.17 66.102 197.684 67.7265 196.931C70.4585 195.665 70.6802 195.413 70.6802 193.575C70.6802 192.482 70.4875 191.478 70.2527 191.344C70.0179 191.21 69.0557 191.387 68.1152 191.738ZM66.2627 193.926C65.5576 194.266 64.9802 195.023 64.9802 195.609C64.9802 196.632 65.0691 196.628 67.2602 195.51C68.5142 194.871 69.5402 194.096 69.5402 193.789C69.5402 193.482 69.0916 193.247 68.5427 193.269C67.9938 193.29 66.9678 193.586 66.2627 193.926ZM55.7177 197.077C52.6745 198.403 52.4402 198.64 52.4402 200.394C52.4402 201.433 52.6585 202.418 52.9253 202.583C53.192 202.748 54.8587 202.314 56.6291 201.619C59.7311 200.401 59.8479 200.279 59.8491 198.251C59.8496 197.094 59.6575 196.035 59.4227 195.898C59.1879 195.761 57.52 196.292 55.7177 197.077ZM56.0027 198.377C54.67 198.969 53.5802 199.837 53.5802 200.305C53.5802 201.044 53.9148 201.032 56.1452 200.205C57.8717 199.565 58.7102 198.922 58.7102 198.237C58.7102 197.678 58.6464 197.238 58.5677 197.261C58.489 197.282 57.3354 197.785 56.0027 198.377Z" fill="#1C1C1D"/>
<path fill-rule="evenodd" clip-rule="evenodd" d="M144.305 34.7116C144.41 34.9932 146.804 36.9968 149.625 39.1633C152.447 41.3305 155.058 43.2845 155.428 43.5056C155.798 43.7268 156.246 43.6738 156.423 43.3876C156.6 43.1015 154.168 40.9172 151.018 38.5335C147.869 36.1498 145.027 34.1992 144.703 34.1992C144.38 34.1992 144.201 34.4295 144.305 34.7116ZM173.322 39.8291C172.562 40.0417 171.835 40.5291 171.708 40.9127C171.58 41.2957 171.865 41.6092 172.341 41.6092C172.817 41.6092 173.879 41.3533 174.702 41.0404C175.525 40.7274 176.04 40.2144 175.846 39.9004C175.652 39.5863 175.316 39.3549 175.099 39.3862C174.883 39.4176 174.083 39.6165 173.322 39.8291ZM197.79 42.7144C197.79 44.3897 197.79 44.3897 204.06 44.2819C210.33 44.1742 210.33 44.1742 210.33 42.6067C210.33 41.0392 210.33 41.0392 204.06 41.0392C197.79 41.0392 197.79 41.0392 197.79 42.7144ZM164.249 42.8404C162.256 43.6048 161.396 44.2027 161.762 44.5687C162.128 44.9346 163.432 44.7779 165.532 44.1161C167.299 43.5592 168.658 42.8478 168.554 42.5343C168.45 42.2214 168.123 41.8993 167.83 41.819C167.536 41.738 165.924 42.198 164.249 42.8404ZM148.774 44.3167C148.777 44.5516 149.626 45.3216 150.662 46.0267C151.698 46.7318 152.85 47.3092 153.223 47.3092C153.595 47.3092 153.9 47.0738 153.9 46.786C153.9 46.4975 153.036 45.728 151.98 45.076C150.925 44.4233 149.771 43.8892 149.416 43.8892C149.06 43.8892 148.772 44.0819 148.774 44.3167ZM173.498 46.1504C171.893 46.7215 170.026 47.4853 169.35 47.8479C168.672 48.2098 168.257 48.7314 168.427 49.0061C168.597 49.2808 170.833 48.8009 173.397 47.9396C175.96 47.0784 178.158 46.0712 178.281 45.7012C178.405 45.3319 178.035 45.048 177.46 45.0708C176.886 45.0936 175.103 45.5798 173.498 46.1504ZM144.21 48.3774C144.21 48.6516 146.269 50.227 148.785 51.8783C151.3 53.5302 153.506 54.7335 153.687 54.5533C153.867 54.3727 153.83 53.9263 153.604 53.5616C153.379 53.1967 151.449 51.7689 149.315 50.3889C147.181 49.0084 145.16 47.8792 144.823 47.8792C144.486 47.8792 144.21 48.1032 144.21 48.3774ZM66.1203 53.6408C60.9475 56.3711 52.6113 60.8986 47.5953 63.7013L38.4753 68.7976L38.3174 76.5149L38.1589 84.2327L45.5803 79.8785C49.6621 77.4833 57.5976 72.978 63.2144 69.8658C68.8312 66.7536 73.9715 63.7965 74.6372 63.2943C75.7704 62.4393 75.8371 61.9462 75.6866 55.5292L75.5253 48.6767L66.1203 53.6408ZM164.197 49.3698C162.885 49.9215 162.439 50.3758 162.828 50.7646C163.209 51.1459 163.9 51.1533 164.867 50.7856C165.671 50.4796 166.487 49.9751 166.679 49.6639C166.872 49.3527 166.83 48.9748 166.586 48.8243C166.343 48.6744 165.268 48.9195 164.197 49.3698ZM174.99 51.6931C174.52 51.8601 171.506 53.0297 168.293 54.2917C165.08 55.5537 162.45 56.8396 162.45 57.1491C162.45 57.4757 163.199 57.5618 164.235 57.3549C165.216 57.1582 168.472 56.016 171.47 54.8161C174.468 53.6163 177.02 52.3343 177.143 51.9673C177.265 51.5996 177.023 51.3197 176.605 51.3442C176.187 51.3688 175.461 51.5261 174.99 51.6931ZM143.64 56.3882C143.64 56.6789 144.462 57.5595 145.466 58.345C146.47 59.131 147.496 59.6474 147.746 59.493C147.996 59.3385 148.199 59.0347 148.196 58.8181C148.194 58.6015 147.345 57.8468 146.308 57.1417C145.273 56.4366 144.248 55.8592 144.032 55.8592C143.817 55.8592 143.64 56.0969 143.64 56.3882ZM171.428 59.0353C170.566 59.5032 169.86 60.1342 169.86 60.4375C169.86 60.7407 169.983 60.9892 170.134 60.9892C170.284 60.9892 171.439 60.5765 172.699 60.0721C173.959 59.5682 174.99 58.927 174.99 58.6471C174.99 58.3678 174.541 58.1495 173.993 58.162C173.444 58.1746 172.29 58.5673 171.428 59.0353ZM149.91 60.9413C149.91 61.2286 150.909 62.2546 152.13 63.2213C153.351 64.1881 154.633 64.9792 154.98 64.9792C155.326 64.9792 155.61 64.7244 155.61 64.4126C155.61 64.1014 154.546 63.0754 153.245 62.1326C151.943 61.1904 150.661 60.4192 150.395 60.4192C150.128 60.4192 149.91 60.6541 149.91 60.9413ZM164.873 61.2691C163.854 61.712 163.02 62.3481 163.02 62.6827C163.02 63.0572 163.623 63.1467 164.588 62.9164C165.45 62.71 166.604 62.3116 167.153 62.03C167.701 61.749 168.15 61.2714 168.15 60.9693C168.15 60.6666 167.83 60.4295 167.438 60.4415C167.046 60.454 165.892 60.8262 164.873 61.2691ZM17.1003 69.167V75.6342L24.3678 79.0742C28.3652 80.966 32.5906 82.8499 33.7585 83.2608C34.9265 83.6718 36.0807 83.8092 36.3235 83.5669C36.5663 83.3241 36.7653 80.0329 36.7653 76.2521V69.3779L32.9708 68.3354C30.8834 67.7614 26.5822 66.2589 23.4119 64.9957C20.2415 63.7326 17.5244 62.6992 17.3739 62.6992C17.2234 62.6992 17.1003 65.6096 17.1003 69.167ZM57.0003 69.3175C52.141 72.3237 47.9088 75.0563 47.5953 75.3897C47.2818 75.7237 48.3078 75.2728 49.8753 74.3876C51.4428 73.5024 55.7389 70.877 59.4228 68.5531C63.1067 66.2292 66.1203 64.2177 66.1203 64.0832C66.1203 63.9492 66.0564 63.8421 65.9778 63.8461C65.8991 63.8495 61.8595 66.3119 57.0003 69.3175ZM164.873 66.3991C163.854 66.842 163.02 67.473 163.02 67.8019C163.02 68.1302 163.245 68.3992 163.521 68.3992C163.796 68.3992 164.933 68.0185 166.046 67.5528C167.161 67.0871 168.233 66.4458 168.43 66.1278C168.627 65.8097 168.324 65.5595 167.756 65.5714C167.189 65.584 165.892 65.9562 164.873 66.3991ZM169.025 68.1085C165.588 69.4571 162.669 70.8799 162.538 71.2703C162.37 71.7753 162.735 71.8717 163.804 71.6032C164.63 71.3957 167.998 70.1862 171.288 68.9156C174.578 67.6445 177.27 66.3672 177.27 66.077C177.27 65.7869 176.821 65.5732 176.273 65.6028C175.724 65.6324 172.463 66.7599 169.025 68.1085ZM19.6653 74.1032C20.2923 74.3762 23.3355 75.6548 26.4278 76.9447C29.52 78.234 32.1545 79.1848 32.2822 79.0577C32.4099 78.93 30.9752 78.1348 29.0942 77.2906C27.2132 76.4465 24.2179 75.2552 22.4383 74.6424C20.6582 74.0303 19.0497 73.5463 18.8633 73.568C18.6775 73.5891 19.0383 73.8296 19.6653 74.1032ZM98.1828 73.9396C94.1221 74.1454 94.0503 74.1762 94.0514 75.6918C94.052 77.2342 94.052 77.2342 99.7223 77.2342C103.217 77.2342 105.642 76.984 106.045 76.5821C106.403 76.2236 106.607 75.4541 106.496 74.8721C106.349 74.0924 105.772 73.8034 104.306 73.772C103.211 73.7492 100.456 73.8245 98.1828 73.9396ZM136.088 76.4157C134.285 77.3459 132.819 78.2956 132.83 78.5258C132.84 78.7561 138.803 85.0312 146.082 92.4715L159.315 105.998L167.079 103.109C174.843 100.22 174.843 100.22 175.197 97.2771C175.391 95.6583 175.553 93.2609 175.555 91.9488L175.56 89.5633L171.428 91.4694C169.155 92.5176 164.994 94.1621 162.181 95.1231C157.068 96.8707 157.068 96.8707 155.341 95.3317C154.392 94.4853 150.73 90.9689 147.203 87.5176C140.79 81.243 140.79 81.243 140.79 77.9558C140.79 75.6918 140.569 74.6778 140.078 74.6966C139.686 74.712 137.89 75.4855 136.088 76.4157ZM164.873 75.2569C164.167 75.5408 163.59 76.0372 163.59 76.361C163.59 76.6842 163.958 76.9492 164.408 76.9492C164.858 76.9492 165.884 76.699 166.688 76.3935C167.492 76.0874 168.15 75.5744 168.15 75.2535C168.15 74.932 167.701 74.6857 167.153 74.7051C166.604 74.7251 165.578 74.9736 164.873 75.2569ZM65.8353 87.6892C60.8193 90.436 52.4192 95.0746 47.1678 97.997L37.6203 103.31V111.22C37.6203 115.57 37.781 119.129 37.9782 119.129C38.1749 119.129 41.445 117.42 45.2457 115.332C49.0459 113.244 54.9768 109.867 58.4253 107.828C61.8738 105.79 66.9542 102.608 69.7147 100.759C72.4752 98.9102 74.8561 97.0776 75.006 96.6877C75.1559 96.2973 75.2055 92.989 75.1166 89.3359L74.9553 82.6942L65.8353 87.6892ZM184.416 95.6065C183.621 96.7767 182.97 98.0905 182.97 98.5266C182.97 99.1496 183.145 99.1741 183.787 98.6417C184.462 98.0808 184.634 98.2815 184.784 99.8102C184.884 100.826 185.286 101.762 185.678 101.89C186.206 102.063 186.39 101.004 186.39 97.8015C186.39 95.4241 186.271 93.4792 186.126 93.4792C185.98 93.4792 185.211 94.4362 184.416 95.6065ZM16.5303 103.352V110.959L23.7978 114.453C27.7952 116.374 32.1956 118.344 33.5767 118.829C34.9578 119.314 36.2209 119.579 36.3828 119.417C36.5447 119.255 36.7938 115.693 36.9357 111.5L37.1945 103.879L34.1723 102.875C32.5108 102.323 28.8229 100.91 25.978 99.7338C23.1332 98.5579 19.8437 97.1797 18.6678 96.6701C16.5303 95.7438 16.5303 95.7438 16.5303 103.352ZM50.5724 108.845C45.3124 112.219 40.8237 115.182 40.5974 115.428C40.3705 115.674 41.4678 115.15 43.0353 114.262C44.6028 113.374 49.348 110.393 53.5803 107.635C57.8125 104.878 61.0188 102.642 60.7053 102.666C60.3918 102.69 55.8318 105.47 50.5724 108.845ZM185.129 107.017C184.652 107.566 184.105 109.054 183.912 110.326C183.666 111.949 183.823 113.009 184.439 113.888C184.921 114.576 185.645 115.139 186.049 115.139C186.453 115.139 187.23 114.646 187.775 114.044C188.321 113.441 188.902 111.939 189.068 110.706C189.233 109.472 189.074 107.913 188.714 107.241C188.354 106.569 187.596 106.019 187.029 106.019C186.461 106.019 185.607 106.468 185.129 107.017ZM24.4584 111.704C27.7222 113.284 30.5198 114.45 30.6765 114.293C30.8327 114.137 28.8041 113.015 26.1678 111.801C23.5322 110.587 20.734 109.423 19.9503 109.212C19.1665 109.003 21.1952 110.124 24.4584 111.704ZM186.215 111.678C185.649 112.641 185.425 113.429 185.718 113.429C186.011 113.429 186.56 113.057 186.937 112.602C187.315 112.146 187.539 111.358 187.435 110.85C187.297 110.178 186.964 110.404 186.215 111.678ZM184.145 121.341C183.492 122.62 183.213 123.772 183.51 123.955C183.801 124.136 184.305 123.829 184.628 123.274C185.113 122.439 185.22 122.611 185.242 124.259C185.256 125.356 185.491 126.608 185.766 127.04C186.039 127.472 186.484 127.689 186.754 127.522C187.024 127.355 187.117 125.483 186.96 123.361C186.793 121.101 186.393 119.411 185.994 119.279C185.618 119.155 184.787 120.083 184.145 121.341ZM185.184 131.735C184.459 132.461 184.11 133.621 184.11 135.311C184.11 136.943 184.494 138.281 185.214 139.158C186.114 140.255 186.511 140.387 187.352 139.872C187.92 139.524 188.736 138.317 189.166 137.189C189.631 135.966 189.798 134.349 189.579 133.183C189.294 131.664 188.882 131.164 187.735 130.944C186.758 130.758 185.894 131.026 185.184 131.735ZM185.869 133.522C185.602 134.227 185.519 135.032 185.684 135.309C185.849 135.587 186.44 135.209 186.997 134.47C187.555 133.731 187.888 132.927 187.737 132.683C187.586 132.439 187.213 132.239 186.908 132.239C186.603 132.239 186.135 132.816 185.869 133.522ZM117.663 159.561C116.69 161.032 116.305 162.2 116.545 162.956C116.747 163.59 117.686 164.762 118.634 165.559C119.582 166.357 120.62 167.009 120.941 167.009C121.261 167.009 122.267 166.212 123.177 165.239C124.188 164.156 124.83 162.848 124.83 161.87C124.83 160.784 124.268 159.797 123.076 158.795C122.112 157.983 120.833 157.319 120.234 157.319C119.599 157.319 118.528 158.253 117.663 159.561ZM117.974 167.722C117.965 167.8 117.598 174.533 117.157 182.684C116.356 197.504 116.356 197.504 117.723 199.499C118.475 200.596 119.823 202.37 120.717 203.44C122.343 205.386 122.343 205.386 124.459 201.536C126.575 197.687 126.575 197.687 125.217 182.908C124.47 174.779 123.694 167.963 123.493 167.762C123.292 167.561 122.657 167.822 122.081 168.342C121.506 168.863 120.763 169.289 120.429 169.289C120.095 169.289 119.675 168.904 119.494 168.434C119.314 167.964 118.902 167.579 118.578 167.579C118.255 167.579 117.983 167.644 117.974 167.722ZM67.1178 171.322C65.2733 172.282 64.4103 173.091 64.4103 173.86C64.4103 174.481 64.677 174.989 65.0031 174.989C65.3291 174.989 66.6116 174.471 67.8531 173.838C69.5665 172.963 70.1103 172.346 70.1103 171.273C70.1103 170.495 70.0464 169.871 69.9678 169.886C69.8891 169.9 68.6066 170.547 67.1178 171.322ZM26.7903 171.237C26.7903 171.682 26.9419 172.441 27.1266 172.923C27.3118 173.405 30.7478 175.094 34.7623 176.675C38.7768 178.256 42.2327 179.549 42.4419 179.549C42.6511 179.549 42.7423 178.744 42.6437 177.76C42.4715 176.031 42.2253 175.878 35.3403 173.224C31.4215 171.714 27.8949 170.467 27.5028 170.454C27.1112 170.44 26.7903 170.793 26.7903 171.237ZM56.8578 177.077C54.1719 178.303 53.5803 178.824 53.5803 179.964C53.5803 180.729 53.7729 181.265 54.0078 181.157C54.2426 181.049 55.7816 180.355 57.4278 179.614C59.8212 178.538 60.4203 177.998 60.4203 176.914C60.4203 176.169 60.3564 175.564 60.2778 175.57C60.1991 175.576 58.6601 176.254 56.8578 177.077ZM62.8428 183.141C53.0901 187.676 53.0103 187.728 53.0103 189.552C53.0103 191.39 53.0103 191.39 62.8428 186.899C70.3793 183.457 72.718 182.139 72.8582 181.257C72.9591 180.624 72.9591 179.76 72.8582 179.337C72.7289 178.793 69.803 179.904 62.8428 183.141ZM169.241 183.682C169.619 185.534 169.619 185.534 173.865 185.705C176.201 185.798 178.707 185.725 179.433 185.543C180.492 185.277 180.677 184.96 180.361 183.948C180.144 183.253 179.681 182.496 179.331 182.265C178.981 182.035 176.483 181.843 173.78 181.838C168.864 181.829 168.864 181.829 169.241 183.682ZM36.0072 184.957C36.1605 186.242 36.6929 186.726 38.9028 187.591C41.6103 188.65 41.6103 188.65 41.6103 186.976C41.6103 185.578 41.3059 185.215 39.7578 184.768C38.7392 184.473 37.4362 184.041 36.8622 183.808C35.9804 183.448 35.8481 183.625 36.0072 184.957ZM66.2628 193.925C65.5577 194.265 64.9803 195.022 64.9803 195.608C64.9803 196.631 65.0692 196.627 67.2603 195.509C68.5143 194.87 69.5403 194.094 69.5403 193.788C69.5403 193.481 69.0917 193.246 68.5428 193.268C67.9939 193.289 66.9679 193.585 66.2628 193.925ZM56.0028 198.376C54.6701 198.968 53.5803 199.836 53.5803 200.303C53.5803 201.043 53.9149 201.031 56.1453 200.204C57.8718 199.564 58.7103 198.921 58.7103 198.236C58.7103 197.677 58.6464 197.237 58.5678 197.26C58.4891 197.281 57.3354 197.784 56.0028 198.376Z" fill="#2B73B1"/>
</svg>
