<svg width="228" height="228" viewBox="0 0 228 228" fill="none" xmlns="http://www.w3.org/2000/svg">
<path fill-rule="evenodd" clip-rule="evenodd" d="M50.445 7.36954L56.145 7.69501V12.54V17.385L51.585 17.5714C49.077 17.6746 43.3605 17.5828 38.8814 17.369L30.7372 16.9792L30.9014 12.0521L31.065 7.12501L37.905 7.08454C41.667 7.06231 47.31 7.19056 50.445 7.36954ZM87.495 8.67883C97.8884 9.0556 101.899 9.39247 102.315 9.92485C102.641 10.3427 102.763 12.4608 102.6 14.8753L102.315 19.095L83.79 18.9479C73.6012 18.867 64.1746 18.659 62.8425 18.4857C60.42 18.1699 60.42 18.1699 60.42 13.0752V7.98001L66.8325 8.07121C70.3591 8.12194 79.6575 8.39497 87.495 8.67883ZM50.5875 9.54352C53.3292 9.67348 54.7177 9.97159 54.7137 10.4276C54.7103 10.8055 54.5439 12.1045 54.3444 13.3135C53.9813 15.5114 53.9813 15.5114 43.5651 15.3056C37.8366 15.1922 33.0241 14.9722 32.8713 14.8172C32.7186 14.6621 32.7317 13.3169 32.901 11.8275C33.2082 9.12001 33.2082 9.12001 39.8316 9.23344C43.4745 9.29557 48.3143 9.43522 50.5875 9.54352ZM84.645 10.8591C90.6015 11.0751 96.7267 11.2849 98.2566 11.3259C101.038 11.4 101.038 11.4 100.744 14.0146C100.582 15.4527 100.228 16.8492 99.9569 17.1177C99.6839 17.389 94.9027 17.3742 89.205 17.0846C83.562 16.7985 75.867 16.5528 72.105 16.5391C68.343 16.5254 64.6882 16.3596 63.9825 16.1709C62.8744 15.8739 62.7 15.4481 62.7 13.0433C62.7 10.26 62.7 10.26 68.2575 10.3632C71.3144 10.4202 78.6885 10.643 84.645 10.8591ZM94.335 23.3894C98.724 23.5986 102.416 23.8083 102.539 23.8551C102.662 23.9018 102.62 26.0273 102.445 28.5787C102.249 31.4389 101.846 33.3917 101.394 33.671C100.991 33.9201 96.5443 33.9851 91.5129 33.8153C86.4815 33.6448 79.1588 33.3416 75.24 33.1404L68.115 32.775L67.9423 29.0877C67.8471 27.0596 67.9161 24.815 68.0956 24.1002C68.4194 22.8097 68.4895 22.8006 77.3883 22.9043C82.32 22.9619 89.946 23.1802 94.335 23.3894ZM93.6767 25.5064C100.013 25.6608 100.953 25.8039 100.659 26.5688C100.473 27.0556 100.32 28.4806 100.32 29.7369C100.32 32.0198 100.32 32.0198 93.6225 31.6909C89.9386 31.5096 83.1419 31.2041 78.5175 31.0114L70.11 30.6614V27.8707V25.08L78.2325 25.2037C82.7002 25.2721 89.6496 25.4083 93.6767 25.5064ZM55.005 36.8699C56.886 36.9634 67.9155 37.2769 79.515 37.567C91.1145 37.8571 101.054 38.2721 101.603 38.4881C102.424 38.8124 102.6 39.6076 102.6 42.9871C102.6 45.4073 102.308 47.4645 101.888 47.9991C101.237 48.8279 98.9794 48.8308 75.81 48.0322C61.8593 47.5511 50.1406 46.9178 49.769 46.6243C49.3022 46.2561 49.1939 44.8231 49.419 41.9982C49.598 39.7467 49.9981 37.5847 50.3071 37.1925C50.6166 36.8009 51.0304 36.5296 51.2271 36.59C51.4243 36.6504 53.124 36.7764 55.005 36.8699ZM58.425 39.1858C60.6195 39.2952 71.0078 39.6931 81.51 40.0699L100.605 40.755L100.406 43.605C100.297 45.1725 100.168 46.4903 100.121 46.5331C100.074 46.5758 94.1355 46.4003 86.925 46.1426C79.7145 45.885 68.7494 45.5014 62.5575 45.2899C51.3 44.9052 51.3 44.9052 51.3 42.7346C51.3 41.5405 51.4556 40.1576 51.646 39.6617C51.8364 39.1658 52.5415 38.8107 53.2135 38.8734C53.8855 38.9356 56.2305 39.0764 58.425 39.1858ZM162.45 48.4141C163.234 48.6541 165.169 49.5074 166.751 50.3105C168.332 51.1136 170.952 52.9627 172.571 54.419C174.191 55.8754 176.696 58.8405 178.138 61.0088C179.579 63.1765 181.36 66.4335 182.097 68.2467C182.834 70.0598 183.845 73.518 184.343 75.9326C184.842 78.3465 185.25 81.8366 185.25 83.688C185.25 85.5393 184.988 88.4349 184.668 90.1221C184.348 91.8093 183.333 94.8007 182.411 96.7695C181.404 98.9212 179.559 101.496 177.782 103.226C175.193 105.748 174.726 106 173.997 105.271C173.268 104.542 173.476 104.153 175.685 102.117C177.071 100.839 178.884 98.5462 179.714 97.022C180.544 95.4972 181.616 92.7401 182.096 90.8951C182.577 89.05 182.97 85.5832 182.97 83.1915C182.97 80.7211 182.482 76.934 181.84 74.4238C181.218 71.9933 179.91 68.3812 178.933 66.3965C177.956 64.4117 175.964 61.3098 174.506 59.5034C173.048 57.6971 170.236 55.1122 168.256 53.7596C166.276 52.4069 164.289 51.3 163.839 51.3C163.185 51.3 163.02 52.3796 163.02 56.6438C163.02 61.9869 163.02 61.9869 159.977 66.1913C158.304 68.5032 156.52 71.1645 156.014 72.105C155.508 73.0455 154.447 77.2629 153.656 81.4769C152.865 85.691 152.339 89.2592 152.486 89.4056C152.633 89.5527 154.117 89.368 155.784 88.9947C157.451 88.6219 159.797 87.6489 160.998 86.8332C162.985 85.4829 163.084 85.2994 162.103 84.7841C161.51 84.4729 160.704 83.8162 160.312 83.3255C159.92 82.8341 159.6 81.9683 159.6 81.4011C159.6 80.834 160.113 79.857 160.74 79.23C161.367 78.603 162.521 78.09 163.305 78.09C164.69 78.09 164.73 77.976 164.73 74.1C164.73 71.9055 164.961 70.11 165.244 70.11C165.527 70.11 166.04 70.9177 166.384 71.9049C166.728 72.8922 167.01 75.5455 167.01 77.8004C167.01 80.9924 166.716 82.4573 165.684 84.413C164.955 85.7947 163.293 87.7395 161.991 88.7348C160.526 89.8542 158.371 90.8044 156.337 91.2262C154.471 91.6138 151.448 91.7626 149.343 91.5699C147.303 91.3841 143.016 90.4151 139.815 89.4176C135.063 87.9362 133.837 87.7344 133.134 88.3175C132.66 88.7108 131.496 90.5872 130.547 92.4871C129.597 94.3874 128.82 96.4109 128.82 96.9838C128.82 97.5794 129.797 98.6425 131.102 99.4661C132.357 100.258 134.537 101.467 135.947 102.152C137.356 102.837 138.51 103.598 138.51 103.843C138.51 104.088 137.853 104.453 137.05 104.655C136.11 104.89 134.872 104.64 133.58 103.953C132.474 103.366 130.566 102.031 129.34 100.988C127.492 99.4165 127.111 98.7326 127.116 96.998C127.119 95.8466 127.777 93.4948 128.579 91.7717C129.381 90.0486 130.385 88.2531 130.808 87.7817C131.232 87.3103 132.129 83.9986 132.803 80.4213C134.028 73.9182 134.028 73.9182 132.564 69.2231C131.759 66.641 131.1 63.9084 131.1 63.1514C131.1 62.3945 131.625 59.7383 132.266 57.2497C132.907 54.761 133.566 52.2764 133.729 51.7275C133.944 51.0076 133.705 50.73 132.87 50.73C132.233 50.73 130.276 51.2675 128.521 51.9242C125.916 52.8989 125.483 53.2391 126.163 53.7767C126.62 54.1386 127.153 54.9719 127.348 55.628C127.575 56.3964 127.276 57.3597 126.509 58.3355C125.843 59.1808 124.745 59.85 124.022 59.85C123.31 59.85 122.302 59.3809 121.783 58.8075C121.265 58.2341 120.84 57.2172 120.84 56.5469C120.84 55.3282 120.84 55.3282 118.702 56.5845C117.527 57.2753 115.468 58.934 114.128 60.2701C112.787 61.6067 111.44 62.7 111.135 62.7C110.83 62.7 110.58 62.3671 110.58 61.9607C110.58 61.5543 111.542 60.2969 112.717 59.1666C113.893 58.0368 116.485 56.0692 118.478 54.7941C120.47 53.5196 124.074 51.7155 126.486 50.7853C128.898 49.8551 132.07 48.7926 133.534 48.4238C135.833 47.8447 136.549 47.8982 138.776 48.8142C140.195 49.3973 141.357 50.1634 141.358 50.5157C141.359 50.8685 140.962 52.2793 140.476 53.6507C139.99 55.0227 138.239 62.8203 136.585 70.9793L133.578 85.8135L140.176 87.3514C143.806 88.1972 147.609 89.0448 148.627 89.2352C149.646 89.425 150.48 89.4815 150.48 89.36C150.48 89.2392 150.988 86.3767 151.608 82.9994C152.229 79.6227 153.512 71.429 154.461 64.7925C155.411 58.1554 156.475 51.6352 156.828 50.3025C157.413 48.0892 157.622 47.884 159.247 47.929C160.225 47.9558 161.666 48.1741 162.45 48.4141ZM174.378 61.352C175.028 62.1779 175.56 63.0409 175.56 63.27C175.56 63.4991 175.028 64.3621 174.378 65.1881C173.722 66.0237 172.622 66.69 171.902 66.69C171.19 66.69 170.182 66.2209 169.663 65.6475C169.145 65.0741 168.72 63.9597 168.72 63.1708C168.72 62.3819 169.189 61.3121 169.763 60.7934C170.336 60.2747 171.343 59.85 172.001 59.85C172.659 59.85 173.729 60.526 174.378 61.352ZM41.1774 61.4038C41.6767 61.9601 43.9048 65.3494 46.129 68.9358C48.788 73.2245 49.9793 75.6487 49.6094 76.0186C49.2395 76.3885 48.6409 76.2136 47.86 75.5068C47.2074 74.9162 45.437 72.3701 43.9254 69.8489C42.4143 67.3278 40.7402 64.402 40.2055 63.347C39.6224 62.1967 39.4406 61.2214 39.7512 60.9108C40.0613 60.6007 40.6324 60.7979 41.1774 61.4038ZM53.8456 64.3906C55.8463 66.4124 57.0342 68.0586 56.8461 68.5488C56.6751 68.9951 55.6776 69.7657 54.6299 70.2611C53.5823 70.757 52.0193 71.3378 51.1575 71.5527C49.8397 71.8816 49.59 71.7619 49.59 70.8037C49.59 70.0028 50.2791 69.3878 51.9088 68.7357L54.2275 67.8083L51.9088 65.1738C50.6337 63.7249 49.59 62.3341 49.59 62.0833C49.59 61.8325 49.8026 61.4962 50.062 61.3354C50.3213 61.1753 52.0245 62.5501 53.8456 64.3906ZM38.9435 65.9239C39.1561 66.136 39.33 66.4831 39.33 66.6951C39.33 66.9072 38.4323 67.5638 37.335 68.1549C36.2377 68.746 35.34 69.365 35.34 69.5315C35.34 69.6973 36.5136 70.5421 37.9483 71.409C39.383 72.2754 40.4569 73.2838 40.3355 73.6491C40.2135 74.0145 39.8658 74.3964 39.5631 74.4973C39.2605 74.5982 37.6092 73.8424 35.894 72.8169C33.4801 71.3748 32.775 70.6395 32.775 69.5662C32.775 68.62 33.3188 67.8705 34.485 67.2093C35.4255 66.6758 36.7268 66.0818 37.376 65.8886C38.0258 65.6954 38.7315 65.7113 38.9435 65.9239ZM129.39 71.82C130.017 72.447 130.53 73.5614 130.53 74.2967C130.53 75.032 130.061 76.058 129.487 76.5767C128.914 77.0954 127.775 77.52 126.955 77.52C126.061 77.52 125.109 77.0133 124.577 76.2529C124.09 75.5564 123.69 74.5492 123.69 74.0145C123.69 73.4799 124.366 72.5108 125.192 71.8616C126.018 71.2118 127.044 70.68 127.472 70.68C127.9 70.68 128.763 71.193 129.39 71.82ZM177.954 81.8178C178.4 82.7976 178.439 83.7655 178.074 84.8103C177.656 86.0062 177.106 86.396 175.639 86.5374C174.433 86.6537 173.348 86.3624 172.656 85.7365C172.059 85.1956 171.57 84.1919 171.57 83.505C171.57 82.8182 172.039 81.8321 172.613 81.3134C173.186 80.7947 174.474 80.37 175.474 80.37C176.87 80.37 177.448 80.7074 177.954 81.8178ZM148.073 94.9375C148.939 95.544 149.34 96.4092 149.34 97.6735C149.34 98.6904 149.032 99.8298 148.656 100.206C148.28 100.582 147.157 100.89 146.161 100.89C145.165 100.89 144.093 100.57 143.78 100.178C143.466 99.7859 143.034 98.8922 142.819 98.1922C142.532 97.2551 142.808 96.5398 143.863 95.4847C144.653 94.6952 145.637 94.05 146.052 94.05C146.467 94.05 147.376 94.4496 148.073 94.9375ZM108.585 101.226C109.525 101.359 111.834 101.744 113.715 102.084C115.596 102.422 119.893 103.588 123.263 104.674C126.632 105.759 129.39 106.738 129.39 106.85C129.39 106.961 127.659 107.862 125.542 108.851C123.426 109.839 120.989 111.322 120.128 112.146C118.82 113.395 118.56 114.123 118.56 116.538C118.56 118.271 118.986 120.23 119.622 121.419C120.206 122.511 121.478 123.871 122.449 124.441C123.419 125.011 125.635 125.625 127.373 125.804C129.266 125.999 133.17 125.716 137.106 125.1C142.006 124.331 143.842 124.234 144.324 124.716C144.806 125.198 144.765 125.417 144.163 125.578C143.719 125.696 140.57 126.466 137.166 127.29C133.762 128.113 129.148 129.628 126.911 130.656C124.674 131.684 121.688 133.394 120.275 134.457C118.862 135.52 117.892 136.188 118.121 135.942C118.349 135.695 116.554 134.686 114.131 133.7C111.608 132.673 105.938 129.343 100.868 125.911C95.996 122.614 90.2247 119.195 88.0428 118.312C85.7098 117.368 82.5297 116.59 80.3244 116.424C77.308 116.196 76.0363 116.379 73.8241 117.357C72.3113 118.026 70.9525 118.452 70.8037 118.304C70.6549 118.155 71.3583 116.748 72.3661 115.178C73.3738 113.607 75.6647 110.968 77.4567 109.313C79.2482 107.659 82.0401 105.588 83.66 104.711C85.28 103.835 88.3443 102.753 90.4704 102.306C92.5959 101.86 97.1565 101.38 100.605 101.241C104.053 101.1 107.645 101.094 108.585 101.226ZM125.646 102.092C127.695 102.391 129.936 103.187 131.338 104.115C132.61 104.956 133.397 105.727 133.088 105.827C132.778 105.927 129.704 104.999 126.255 103.764C122.806 102.529 120.498 101.537 121.125 101.559C121.752 101.581 123.786 101.821 125.646 102.092ZM84.4347 119.648C86.2005 120.213 89.8947 121.872 92.6444 123.334C95.3941 124.798 99.3214 127.191 101.372 128.654L105.099 131.314L102.282 131.97C100.733 132.331 98.4589 133.058 97.2289 133.585C95.9994 134.112 93.9303 135.415 92.6313 136.479C91.3322 137.544 89.4581 139.937 88.4663 141.798C87.4739 143.659 86.2701 146.874 85.7907 148.941C85.3113 151.008 84.6667 157.105 84.3577 162.489C84.0488 167.874 83.5118 173.336 83.1641 174.628C82.8164 175.919 82.0253 177.686 81.4063 178.556C80.7867 179.426 79.4797 180.552 78.501 181.057C77.1506 181.755 75.7502 181.904 72.6927 181.673C70.1619 181.481 66.7601 180.659 63.5442 179.462C58.425 177.555 58.425 177.555 58.2369 174.705C58.1337 173.138 58.3372 167.623 58.69 162.45C59.0429 157.277 59.7138 150.352 60.1812 147.06C60.6486 143.768 61.5321 139.05 62.1442 136.574C62.7564 134.099 64.0766 130.296 65.078 128.123C66.2802 125.515 67.7593 123.415 69.4323 121.944C70.8254 120.717 72.8945 119.455 74.0299 119.14C75.1659 118.824 77.2493 118.579 78.66 118.594C80.0708 118.609 82.6694 119.083 84.4347 119.648Z" fill="#2B73B1"/>
<path fill-rule="evenodd" clip-rule="evenodd" d="M162.735 7.6312C163.675 8.04217 165.26 9.06532 166.256 9.90493C167.252 10.7445 168.506 12.5788 169.041 13.9804C169.956 16.3761 169.957 16.6811 169.052 19.0494C168.523 20.4357 167.739 21.8607 167.311 22.2158C166.728 22.6997 166.609 23.8922 166.84 26.9633C167.067 29.9752 166.911 31.6322 166.253 33.202C165.761 34.3773 164.664 36.2498 163.815 37.3624C162.965 38.4756 161.156 40.0391 159.793 40.8377C157.316 42.2901 157.316 42.29 157.436 45.5123C157.519 47.7655 157.198 49.5233 156.367 51.3576C155.423 53.4415 154.627 54.2475 152.492 55.2809C151.015 55.9963 148.739 56.6957 147.435 56.8353C145.875 57.0023 144.675 56.7971 143.925 56.2351C143.064 55.5899 142.798 54.7571 142.838 52.8333C142.89 50.3561 142.831 50.2683 140.691 49.6271C139.481 49.2646 137.603 48.1884 136.517 47.2348C135.431 46.2818 133.714 43.8188 132.701 41.7611C131.1 38.5087 130.831 37.306 130.636 32.5476C130.435 27.6524 130.261 26.9137 128.98 25.5503C128.048 24.5568 127.465 23.1677 127.306 21.5603C127.123 19.7066 127.389 18.5336 128.376 16.8344C129.098 15.5918 130.84 13.8636 132.246 12.9938C133.653 12.1239 136.227 11.1498 137.966 10.8283C140.45 10.3695 141.734 10.4265 143.951 11.0945C145.794 11.6497 147.809 11.8235 149.753 11.5955C151.951 11.3373 152.819 10.9714 153.065 10.1973C153.248 9.62107 154.058 8.62927 154.865 7.99429C155.816 7.24645 157.159 6.84745 158.679 6.8617C159.969 6.87424 161.794 7.22023 162.735 7.6312ZM172.555 27.9164C174.421 29.1629 177.161 31.4783 178.642 33.0617C180.122 34.6446 182.151 37.6645 183.149 39.7724C184.913 43.4962 184.966 43.8296 184.998 51.5845C185.017 55.9735 185.08 59.9914 185.141 60.5124C185.201 61.0339 186.838 63.5989 188.78 66.2124C190.722 68.8264 193.087 72.5035 194.034 74.3845C195.542 77.3758 195.76 78.4121 195.776 82.6495C195.791 86.5534 195.518 88.1591 194.37 90.9145C193.203 93.7137 192.955 95.214 193.004 99.1795C193.052 103.119 193.462 105.25 195.192 110.579C196.891 115.81 197.318 117.999 197.307 121.409C197.298 124.315 196.813 127.327 195.793 130.814C194.968 133.636 193.275 139.628 192.033 144.13C190.791 148.632 189.405 153.029 188.953 153.902C188.502 154.774 187.292 156.331 186.264 157.36C185.236 158.39 182.599 160.052 180.405 161.055C178.21 162.057 173.85 163.527 170.715 164.321C167.58 165.115 163.219 166.082 161.025 166.47C158.525 166.912 156.457 167.657 155.487 168.464C154.636 169.173 152.933 169.923 151.703 170.13C150.474 170.338 148.399 170.22 147.093 169.869C145.744 169.505 143.591 169.398 142.107 169.62C140.672 169.836 139.049 170.46 138.502 171.007C137.668 171.841 137.437 173.611 137.083 181.861C136.71 190.581 136.767 191.795 137.579 192.39C138.084 192.759 141.899 194.149 146.056 195.48C150.213 196.81 154.684 198.272 155.991 198.728C157.298 199.185 158.796 200.213 159.32 201.012C159.844 201.811 160.35 203.508 160.445 204.782C160.586 206.672 160.917 207.25 162.246 207.923C163.142 208.377 165.052 209.489 166.491 210.394C167.93 211.3 169.405 212.694 169.768 213.492C170.132 214.29 170.43 215.78 170.43 216.804C170.43 217.888 169.945 219.185 169.267 219.912C168.628 220.598 167.484 221.159 166.725 221.159C165.965 221.159 162.321 219.465 158.624 217.395C154.928 215.325 147.207 211.19 141.466 208.207L131.026 202.784L124.651 206.082C121.144 207.896 115.588 211.192 112.304 213.406C109.021 215.62 105.045 217.877 103.469 218.422C101.894 218.967 99.8825 219.42 98.9995 219.431C98.1172 219.441 96.9042 219.187 96.3051 218.866C95.7061 218.545 94.9445 217.776 94.6128 217.156C94.2115 216.407 94.1967 215.679 94.5683 214.985C94.8756 214.411 97.566 212.333 100.548 210.367C105.968 206.793 105.968 206.793 104.797 205.21C103.865 203.949 103.752 203.391 104.244 202.473C104.583 201.839 106.083 200.724 107.577 199.994C109.072 199.265 113.501 197.372 117.42 195.788C122.91 193.567 124.694 192.584 125.194 191.501C125.552 190.727 126.022 186.091 126.238 181.197L126.631 172.299L122.738 171.99C120.596 171.82 116.541 170.999 113.726 170.164C110.911 169.331 107.766 168.249 106.737 167.761C105.623 167.232 104.723 166.301 104.511 165.457C104.316 164.678 104.593 162.464 105.129 160.537C105.663 158.611 107.072 154.961 108.259 152.427C109.445 149.893 111.701 145.917 113.271 143.592C114.84 141.267 117.249 138.329 118.625 137.064C119.999 135.799 122.554 133.946 124.3 132.948C126.047 131.949 129.766 130.388 132.565 129.477C135.364 128.566 139.526 127.489 141.813 127.084C144.1 126.679 146.086 126.161 146.227 125.933C146.368 125.705 146.005 124.927 145.419 124.204C144.355 122.89 144.355 122.89 138.362 123.859C135.066 124.393 130.865 124.829 129.027 124.828C126.972 124.828 124.932 124.444 123.73 123.831C122.655 123.283 121.279 122.157 120.673 121.329C119.934 120.321 119.555 118.835 119.525 116.835C119.487 114.324 119.702 113.666 120.87 112.72C121.635 112.101 123.673 110.883 125.398 110.015C127.123 109.146 131.079 107.623 134.187 106.629C137.296 105.636 142.932 104.298 146.71 103.656C151.771 102.797 155.386 102.541 160.438 102.687C166.569 102.863 167.638 103.053 170.542 104.479C172.594 105.487 174.221 106.771 174.96 107.967C175.604 109.007 176.13 110.803 176.13 111.958C176.13 113.112 175.752 114.787 175.29 115.679C174.819 116.591 173.382 117.812 172.013 118.463C170.672 119.101 168.036 119.898 166.155 120.234C164.193 120.584 162.431 121.254 162.022 121.806C161.63 122.335 161.31 123.098 161.31 123.503C161.31 124.057 161.975 124.137 164.017 123.829C165.506 123.604 170.059 123.416 174.135 123.412C179.956 123.406 181.942 123.609 183.397 124.358C185.25 125.312 185.25 125.312 185.25 122.32C185.25 120.675 184.737 116.527 184.11 113.102C183.483 109.677 182.607 105.348 182.163 103.482C181.481 100.616 181.476 99.9176 182.131 98.9828C182.87 97.9277 182.923 97.9534 183.254 99.5249C183.445 100.432 184.221 103.483 184.978 106.304C185.735 109.126 186.651 113.358 187.013 115.709C187.391 118.163 187.519 122.049 187.314 124.829C187.118 127.494 186.477 131.47 185.89 133.664C185.303 135.859 183.384 142.382 181.625 148.161C179.866 153.939 178.535 158.775 178.667 158.907C178.799 159.039 180.327 158.496 182.063 157.701C184.105 156.767 185.614 155.608 186.335 154.422C186.949 153.412 187.995 150.509 188.661 147.97C189.325 145.432 191.053 139.25 192.5 134.234C194.441 127.505 195.128 124.143 195.119 121.409C195.111 118.864 194.528 115.831 193.255 111.719C191.925 107.422 191.318 104.175 191.101 100.202C190.834 95.3143 190.975 94.1087 192.299 89.8588C193.125 87.2123 193.8 83.8026 193.799 82.2812C193.799 80.378 193.252 78.3585 192.048 75.8095C191.085 73.7717 188.883 70.224 187.155 67.9258C185.427 65.627 183.66 62.9041 183.231 61.8747C182.668 60.5295 182.482 57.6943 182.567 51.8033C182.681 43.894 182.628 43.4836 181.087 40.1845C180.209 38.3035 178.541 35.7698 177.382 34.5546C176.223 33.3388 173.544 31.2104 171.427 29.8241C169.311 28.4385 167.58 26.932 167.58 26.4771C167.58 26.0217 167.935 25.6495 168.37 25.6495C168.804 25.6495 170.687 26.6698 172.555 27.9164ZM148.819 28.6049C149.889 30.2585 151.376 31.9132 152.123 32.2831C153.187 32.8098 153.955 32.7881 155.671 32.1828C157.045 31.6983 157.988 31.6174 158.203 31.9656C158.392 32.2712 157.721 33.2915 156.713 34.2337C154.879 35.9465 154.879 35.9465 155.272 42.1498C155.577 46.9618 155.481 48.7943 154.845 50.3151C154.261 51.7144 153.28 52.6378 151.424 53.5361C149.893 54.2771 148.049 54.7212 146.943 54.6152C145.167 54.4442 145.065 54.3119 145.065 52.1909C145.065 50.1042 145.204 49.9109 147.06 49.435C148.157 49.1534 149.889 48.2904 150.907 47.5169C151.926 46.744 152.76 45.7397 152.76 45.2854C152.76 44.8311 152.627 44.4595 152.466 44.4595C152.305 44.4595 150.768 45.2523 149.051 46.2208C146.983 47.3881 145.111 47.9946 143.502 48.0191C142.167 48.0391 140.287 47.6492 139.327 47.1521C138.366 46.6551 136.866 45.2187 135.994 43.9601C135.122 42.7016 134.056 40.6502 133.625 39.4007C133.195 38.1518 132.671 35.0602 132.46 32.5299C132.075 27.9295 132.075 27.9295 133.596 27.9295C135.071 27.9295 135.089 27.9705 134.217 29.3015C133.593 30.2534 133.51 30.7926 133.943 31.0605C134.288 31.2737 134.94 31.1403 135.392 30.7646C135.845 30.389 136.578 30.2214 137.021 30.3913C137.465 30.5617 137.98 30.5498 138.164 30.3651C138.349 30.1804 138.214 29.6851 137.865 29.2644C137.372 28.671 137.47 28.4955 138.298 28.4807C138.884 28.4704 140.647 27.9967 142.215 27.4279C143.782 26.859 145.472 26.2149 145.969 25.996C146.638 25.7025 147.381 26.3825 148.819 28.6049ZM147.503 28.817C148.2 29.3049 148.77 30.0744 148.77 30.527C148.77 30.9795 148.529 31.3495 148.233 31.3495C147.938 31.3495 147.538 31.093 147.345 30.7795C147.151 30.466 146.11 30.2095 145.031 30.2095C143.952 30.2095 143.07 29.9621 143.07 29.6594C143.07 29.3573 143.566 28.8443 144.172 28.5194C144.778 28.1951 145.491 27.9295 145.755 27.9295C146.02 27.9295 146.806 28.329 147.503 28.817ZM170.022 34.0803C171.154 35.2431 172.784 37.7335 173.644 39.6145C174.983 42.5414 175.245 43.9784 175.461 49.5803C175.683 55.3288 175.61 56.0407 174.865 55.4228C174.281 54.9378 173.91 53.0796 173.672 49.4464C173.482 46.5468 173.018 43.2174 172.641 42.0472C172.263 40.877 171.261 39.0889 170.413 38.0732C168.872 36.227 168.872 36.227 167.563 38.7754C166.843 40.1776 165.831 42.7346 165.316 44.4583C164.719 46.4522 164.027 47.6594 163.414 47.7774C162.779 47.8994 162.45 47.5899 162.45 46.8706C162.45 46.2698 162.958 44.301 163.579 42.4958C164.2 40.6912 165.284 38.2824 165.987 37.1441C166.691 36.0052 167.194 34.517 167.104 33.8364C167.015 33.1552 167.172 32.4564 167.453 32.2826C167.735 32.1087 168.891 32.9181 170.022 34.0803ZM146.805 33.1091C147.016 33.4499 146.903 34.0142 146.554 34.3631C146.088 34.8287 145.751 34.8287 145.285 34.3631C144.936 34.0142 144.824 33.4499 145.034 33.1091C145.245 32.7682 145.643 32.4895 145.92 32.4895C146.196 32.4895 146.595 32.7682 146.805 33.1091ZM137.115 33.6791C137.326 34.0199 137.213 34.5842 136.864 34.9331C136.398 35.3987 136.061 35.3987 135.595 34.9331C135.246 34.5842 135.134 34.0199 135.344 33.6791C135.555 33.3382 135.953 33.0595 136.23 33.0595C136.506 33.0595 136.905 33.3382 137.115 33.6791ZM140.79 35.8485C140.79 36.818 141.157 37.6383 141.681 37.8395C142.171 38.0276 142.412 38.4397 142.217 38.7555C142.022 39.0713 141.502 39.3295 141.061 39.3295C140.62 39.3295 139.972 38.7925 139.621 38.1365C139.27 37.4804 139.138 36.3261 139.327 35.5715C139.516 34.8168 139.923 34.1995 140.23 34.1995C140.538 34.1995 140.79 34.9416 140.79 35.8485ZM147.63 39.6145C147.63 40.0847 147.117 40.9825 146.49 41.6095C145.863 42.2365 144.852 42.7495 144.243 42.7495C143.635 42.7495 142.978 42.4924 142.784 42.1783C142.59 41.8643 143.094 41.3552 143.905 41.0469C144.716 40.7385 145.528 40.0978 145.71 39.623C145.892 39.1482 146.399 38.7595 146.836 38.7595C147.272 38.7595 147.63 39.1442 147.63 39.6145ZM98.3246 60.4548C104.281 61.385 111.255 62.3814 113.822 62.6693C116.39 62.9571 118.958 63.4422 119.529 63.7483C120.1 64.0538 121.055 64.8432 121.652 65.5022C122.566 66.5116 122.778 67.8654 123.003 74.1052C123.271 81.5095 123.271 81.5095 125.147 81.5095C126.336 81.5095 127.668 82.0533 128.789 82.996C129.76 83.8134 130.817 84.9716 131.137 85.5696C131.584 86.4035 131.512 86.7358 130.829 86.9974C130.273 87.2112 129.501 86.7808 128.766 85.8455C128.12 85.0241 127.089 84.083 126.474 83.7541C125.86 83.4252 124.853 83.3158 124.238 83.5113C123.623 83.7068 123.12 84.1052 123.12 84.3977C123.12 84.6901 123.977 84.9295 125.026 84.9295C126.185 84.9295 127.323 85.3604 127.926 86.0273C128.473 86.6309 128.833 87.5532 128.727 88.0764C128.556 88.9235 128.368 88.8972 127.02 87.8336C126.187 87.177 124.968 86.6395 124.312 86.6395C123.579 86.6395 123.12 87.0054 123.12 87.5897C123.12 88.1118 123.27 88.3894 123.453 88.2058C123.637 88.0229 124.514 88.126 125.402 88.4361C126.291 88.7456 127.173 89.4028 127.362 89.8959C127.551 90.3889 127.561 90.9384 127.382 91.1168C127.204 91.2952 126.56 91.1305 125.951 90.7503C125.343 90.3701 124.585 90.0595 124.268 90.0595C123.95 90.0595 123.69 90.288 123.69 90.5679C123.69 90.8472 124.323 91.2348 125.098 91.4292C125.873 91.6241 126.771 92.2773 127.095 92.8815C127.503 93.6442 127.497 94.0951 127.075 94.3556C126.741 94.5625 126.015 94.3214 125.461 93.8203C124.908 93.3193 124.268 92.9095 124.04 92.9095C123.811 92.9095 123.703 93.9993 123.8 95.332C123.949 97.4034 124.175 97.783 125.359 97.95C126.121 98.0577 127.258 98.7993 127.887 99.5984C128.515 100.398 130.586 102.039 132.487 103.245C135.092 104.898 135.625 105.44 134.65 105.444C133.938 105.447 132.399 104.816 131.229 104.043C129.841 103.124 127.639 102.428 124.887 102.037C122.567 101.709 120.594 101.515 120.502 101.607C120.409 101.699 122.884 102.639 126.002 103.694C129.119 104.749 131.67 105.814 131.67 106.059C131.67 106.305 131.221 106.593 130.672 106.699C130.123 106.805 127.623 106.165 125.115 105.276C122.607 104.386 118.374 103.118 115.71 102.458C111.911 101.515 109.142 101.261 102.885 101.278C97.778 101.291 93.4112 101.625 90.7573 102.207C88.4768 102.705 85.2836 103.832 83.662 104.71C82.0409 105.587 79.2479 107.658 77.4564 109.313C75.6643 110.967 73.3735 113.606 72.3657 115.177C71.3579 116.747 70.6546 118.154 70.8033 118.303C70.9521 118.452 72.311 118.026 73.8238 117.357C76.0359 116.378 77.3076 116.196 80.3241 116.423C82.5294 116.59 85.7094 117.368 88.0424 118.312C90.2244 119.194 95.9956 122.614 100.867 125.911C105.959 129.356 111.606 132.671 114.149 133.707C117.823 135.203 118.431 135.627 117.734 136.206C117.072 136.755 116.436 136.754 114.734 136.204C113.546 135.82 111.623 135.027 110.46 134.443C109.297 133.858 107.245 133.382 105.9 133.386C104.555 133.39 102.092 133.756 100.426 134.199C98.7607 134.643 96.7856 135.406 96.0367 135.897C95.2877 136.388 94.0035 137.497 93.1827 138.362C92.3619 139.227 91.0355 141.206 90.2352 142.761C89.4349 144.315 88.3103 147.906 87.7358 150.741C87.1618 153.575 86.4179 159.742 86.0833 164.444C85.7493 169.147 85.1953 174.405 84.8527 176.129C84.5101 177.854 83.8569 179.99 83.4015 180.877C82.9466 181.764 81.7017 182.854 80.6353 183.299C79.5688 183.745 77.9232 184.109 76.9787 184.109C75.666 184.109 75.1912 184.412 74.9626 185.392C74.7985 186.098 74.4359 188.805 74.1566 191.408C73.8084 194.657 73.317 196.517 72.592 197.336C72.0106 197.993 67.6871 201.093 62.9846 204.226C58.2822 207.359 53.1521 210.524 51.5846 211.26C50.0172 211.996 47.659 212.601 46.3446 212.604C44.5166 212.608 43.7454 212.311 43.0671 211.342C42.5792 210.646 42.1796 209.484 42.1796 208.759C42.1796 208.035 42.5262 206.618 42.9497 205.609C43.3738 204.6 46.5686 200.312 50.0502 196.079C53.5323 191.847 57.0333 187.054 57.8301 185.428C58.6276 183.802 59.2796 181.951 59.2796 181.315C59.2796 180.68 58.7934 179.899 58.1995 179.581C57.6056 179.264 56.8361 178.191 56.4895 177.197C56.1429 176.202 55.8596 174.53 55.8596 173.48C55.8596 172.429 55.7622 171.569 55.6436 171.569C55.5245 171.569 53.9365 172.252 52.1136 173.086C49.8239 174.135 47.7879 174.617 45.5238 174.648C43.0386 174.682 41.8604 174.404 40.6458 173.498C39.7651 172.841 38.958 171.862 38.8514 171.322C38.7454 170.781 38.8052 169.756 38.9842 169.043C39.1632 168.33 41.5999 165.799 44.3998 163.417C47.1996 161.036 50.6681 157.437 52.1079 155.42C53.5471 153.402 55.2315 150.608 55.85 149.209C56.4684 147.811 57.8723 143.295 58.9696 139.174C60.0662 135.054 61.64 130.332 62.4654 128.683C63.2913 127.034 64.5265 124.915 65.2105 123.974C65.8945 123.034 67.1884 120.507 68.0856 118.359C68.9828 116.211 70.7954 112.989 72.1132 111.199C73.431 109.409 75.7635 107.042 77.2968 105.94C78.8301 104.837 81.0536 103.352 82.2381 102.641C83.5782 101.836 87.0221 100.863 91.3581 100.065L98.3246 98.7822L90.4991 98.0412C85.1964 97.5396 82.1549 96.985 81.065 96.3221C80.0664 95.715 79.2046 94.5038 78.793 93.1295C78.4282 91.9114 77.4353 86.8105 76.5866 81.7945C75.7378 76.7785 75.0236 70.3078 74.9991 67.4156C74.9569 62.4014 75.0282 62.0833 76.5347 60.5756C77.9802 59.129 78.5149 58.9848 82.8047 58.8788C85.7419 58.8064 91.5428 59.3952 98.3246 60.4548ZM88.6346 61.5794C90.8291 61.8564 98.6085 62.96 105.922 64.0316C113.235 65.1032 119.464 66.2261 119.765 66.5264C120.065 66.8268 120.578 72.4368 120.905 78.9935C121.232 85.5502 121.329 92.7738 121.121 95.047C120.742 99.1795 120.742 99.1795 118.369 99.1698C117.063 99.1641 113.558 98.9133 110.58 98.6123C107.601 98.3108 101.061 97.5287 96.0446 96.8738C91.0286 96.2189 85.771 95.5058 84.3602 95.2887C81.9947 94.9244 81.7376 94.7175 81.044 92.6193C80.6301 91.3682 79.5431 85.8557 78.6277 80.3695C77.7123 74.8832 76.9605 68.831 76.9565 66.9203C76.9513 64.2493 77.1953 63.2239 78.0116 62.4851C78.5952 61.9568 80.3269 61.4232 81.8591 61.3001C83.3912 61.177 86.4401 61.3024 88.6346 61.5794ZM98.3389 69.324C99.101 70.1459 99.8864 71.6827 100.084 72.7394C100.283 73.7962 100.304 75.0274 100.132 75.476C99.9412 75.9736 99.3655 76.172 98.653 75.9862C98.0111 75.818 96.5844 74.6832 95.4826 73.4633C94.1306 71.9671 93.4796 70.6909 93.4796 69.5378C93.4796 68.0136 93.6672 67.8295 95.217 67.8295C96.3593 67.8295 97.428 68.3413 98.3389 69.324ZM97.2485 70.9821C97.7689 71.7756 98.0282 72.5907 97.8259 72.793C97.6235 72.9954 97.0837 72.6671 96.6266 72.0629C96.17 71.4587 95.7876 70.6441 95.7779 70.252C95.7676 69.8604 95.8822 69.5395 96.0315 69.5395C96.1809 69.5395 96.7286 70.1887 97.2485 70.9821ZM104.652 79.4575C106.235 81.0409 106.59 81.8298 106.59 83.7701C106.59 85.076 106.326 86.6378 106.003 87.2408C105.68 87.8444 104.666 88.7251 103.751 89.1988C102.836 89.6719 101.163 90.0595 100.035 90.0595C98.906 90.0595 97.2576 89.6844 96.3707 89.2256C95.4832 88.7667 94.6065 87.9978 94.4219 87.5167C94.2121 86.9689 94.6128 86.2969 95.4929 85.7201C96.2664 85.2133 96.8996 84.3441 96.8996 83.7895C96.8996 83.2349 96.2584 82.3605 95.4746 81.8469C94.6909 81.3333 94.0496 80.541 94.0496 80.0862C94.0496 79.6308 94.8066 78.8675 95.7311 78.3893C96.6562 77.9111 98.6057 77.5195 100.063 77.5195C102.317 77.5195 103.003 77.809 104.652 79.4575ZM102.093 80.0845C102.913 80.5291 103.886 81.6263 104.257 82.5218C104.737 83.6812 104.762 84.5932 104.346 85.6898C104.024 86.5369 103.098 87.4819 102.288 87.7897C101.478 88.0975 100.255 88.3455 99.5701 88.3409C98.8849 88.3358 97.9735 88.1095 97.5449 87.8382C96.9156 87.4392 96.9977 87.1114 97.9724 86.1367C98.6364 85.4727 99.1796 84.5795 99.1796 84.1514C99.1796 83.7234 98.6285 82.6723 97.9541 81.8156C96.943 80.5296 96.8683 80.1688 97.5266 79.7522C97.9655 79.474 98.8376 79.2534 99.4646 79.2608C100.092 79.2688 101.274 79.6393 102.093 80.0845ZM77.6912 91.7946C77.9038 92.6079 77.3424 92.9083 74.5984 93.4481C72.6695 93.8277 70.5844 94.6765 69.6884 95.4471C68.4298 96.5295 68.1431 97.2398 68.1927 99.1458C68.2269 100.443 68.3934 101.644 68.5632 101.813C68.7331 101.983 72.2289 101.764 76.3312 101.327C80.4335 100.889 83.7896 100.689 83.7896 100.882C83.7896 101.075 82.6023 101.809 81.1511 102.514C79.2148 103.455 77.0386 103.886 72.975 104.133C67.6176 104.46 67.4067 104.427 66.4936 103.123C65.9504 102.348 65.5496 100.673 65.5496 99.1795C65.5496 97.7454 65.9492 96.0126 66.4423 95.3086C66.933 94.6075 68.293 93.5456 69.4633 92.9482C70.634 92.3509 72.9061 91.6236 74.5117 91.3317C77.075 90.866 77.4632 90.9225 77.6912 91.7946ZM163.098 104.855C164.865 105.092 167.507 105.864 168.97 106.572C170.432 107.28 172.017 108.452 172.491 109.176C172.994 109.943 173.279 111.401 173.174 112.674C173.019 114.563 172.704 114.996 170.815 115.919C169.616 116.505 165.897 117.45 162.55 118.02C159.203 118.59 150.691 119.714 143.633 120.518C136.576 121.322 129.233 121.979 127.315 121.979C125.208 121.979 123.605 121.698 123.264 121.267C122.953 120.875 122.385 119.583 122.002 118.395C121.409 116.551 121.446 116.024 122.261 114.78C122.785 113.98 124.54 112.739 126.159 112.023C127.779 111.308 131.572 109.932 134.588 108.967C137.604 108.001 142.606 106.709 145.703 106.095C148.8 105.481 153.258 104.854 155.61 104.702C157.961 104.549 161.331 104.618 163.098 104.855ZM84.4343 119.648C86.2002 120.212 89.8943 121.871 92.644 123.334C95.3937 124.797 99.321 127.19 101.371 128.654L105.099 131.313L102.282 131.97C100.732 132.331 98.4586 133.057 97.2285 133.585C95.999 134.112 93.9299 135.414 92.6309 136.479C91.3319 137.543 89.4577 139.937 88.4659 141.798C87.4735 143.659 86.2697 146.873 85.7903 148.94C85.311 151.007 84.6663 157.105 84.3574 162.489C84.0484 167.874 83.5115 173.336 83.1638 174.627C82.8161 175.918 82.0249 177.686 81.4059 178.555C80.7863 179.425 79.4793 180.551 78.5006 181.057C77.1503 181.755 75.7498 181.903 72.6923 181.672C70.1615 181.481 66.7598 180.658 63.5438 179.461C58.4246 177.554 58.4247 177.554 58.2366 174.704C58.1334 173.137 58.3369 167.622 58.6897 162.449C59.0425 157.277 59.7134 150.351 60.1808 147.059C60.6482 143.768 61.5317 139.049 62.1439 136.574C62.7561 134.099 64.0762 130.296 65.0777 128.123C66.2798 125.515 67.759 123.415 69.4319 121.943C70.825 120.716 72.8941 119.455 74.0295 119.139C75.1656 118.824 77.2489 118.578 78.6596 118.593C80.0704 118.608 82.669 119.083 84.4343 119.648ZM159.374 122.605C159.153 123.358 158.472 126.283 157.863 129.104C157.138 132.461 156.558 138.472 156.186 146.489C155.873 153.23 155.346 160.068 155.013 161.686C154.677 163.328 153.806 165.279 153.042 166.103C152.004 167.223 151.117 167.579 149.367 167.579C147.06 167.579 147.06 167.579 147.06 164.389C147.06 162.634 147.593 155.901 148.245 149.427C148.928 142.653 149.349 135.099 149.238 131.636C149.096 127.223 148.79 125.23 148.09 124.162C147.136 122.706 147.136 122.706 151.23 122.326C153.482 122.117 156.327 121.786 157.552 121.591C159.694 121.249 159.763 121.287 159.374 122.605ZM182.257 126.599C184.099 127.511 184.68 128.126 184.68 129.164C184.68 129.915 184.358 130.529 183.963 130.529C183.569 130.529 182.351 130.256 181.256 129.922C180.161 129.588 177.442 129.322 175.215 129.33C172.988 129.337 168.768 129.867 165.837 130.507C162.906 131.146 160.432 131.669 160.339 131.669C160.246 131.669 160.17 130.781 160.17 129.694C160.17 128.394 160.51 127.54 161.167 127.195C161.716 126.907 165.128 126.384 168.75 126.035C172.372 125.686 176.347 125.399 177.585 125.4C178.822 125.4 180.924 125.94 182.257 126.599ZM147.06 131.892C147.06 134.893 147.06 134.893 142.19 136.743C139.512 137.76 135.729 139.677 133.783 141.002C131.62 142.473 129.09 144.939 127.275 147.342C125.642 149.505 123.521 152.867 122.563 154.814C121.605 156.76 120.42 160.108 119.929 162.253C119.44 164.399 118.926 166.731 118.788 167.437C118.644 168.176 118.12 168.719 117.553 168.719C117.012 168.719 114.561 168.051 112.108 167.234C109.655 166.417 107.502 165.369 107.324 164.905C107.146 164.441 107.427 162.525 107.949 160.648C108.471 158.771 109.824 155.394 110.956 153.145C112.088 150.895 114.056 147.515 115.329 145.634C116.603 143.753 118.997 140.859 120.65 139.202C122.551 137.297 125.181 135.465 127.81 134.217C130.095 133.132 134.399 131.636 137.375 130.893C140.35 130.15 143.746 129.396 144.922 129.217C147.06 128.891 147.06 128.891 147.06 131.892ZM181.178 132.852C182.641 133.501 183.55 134.245 183.393 134.664C183.246 135.055 182.08 138.965 180.803 143.354C179.525 147.743 177.92 153.3 177.236 155.704C176.272 159.091 175.72 160.149 174.779 160.412C174.111 160.599 170.006 161.658 165.657 162.766C161.308 163.873 157.632 164.662 157.488 164.518C157.344 164.374 157.655 158.037 158.177 150.434C158.701 142.833 159.338 136.062 159.594 135.39C159.97 134.4 161.097 133.928 165.494 132.918C168.483 132.231 172.676 131.688 174.812 131.71C177.338 131.736 179.562 132.135 181.178 132.852ZM146.091 145.742C145.673 150.071 144.979 156.514 144.549 160.058C144.118 163.603 143.648 166.621 143.502 166.767C143.357 166.912 140.571 167.546 137.311 168.175C134.052 168.804 129.42 169.477 127.018 169.67C124.616 169.863 122.259 169.87 121.778 169.686C121.016 169.393 121.085 168.678 122.322 164.048C123.101 161.131 124.687 156.821 125.847 154.469C127.26 151.605 129.178 148.955 131.665 146.436C134.293 143.774 136.621 142.076 139.65 140.612C142.001 139.475 144.583 138.393 145.388 138.207C146.851 137.868 146.851 137.868 146.091 145.742ZM56.7979 158.047C56.5607 162.895 56.1612 165.456 55.3597 167.269C54.6267 168.926 53.6059 170.111 52.3559 170.758C51.0352 171.441 49.1872 171.724 46.2471 171.693C43.9284 171.669 41.7789 171.397 41.47 171.088C41.1006 170.718 41.1747 170.148 41.686 169.424C42.1141 168.819 44.08 166.917 46.0545 165.198C48.0284 163.479 50.4201 161.132 51.3686 159.981C52.3171 158.83 54.0009 156.414 55.1095 154.611L57.1262 151.334L56.7979 158.047ZM95.4746 159.359C101.23 161.738 102.926 162.681 103.068 163.586C103.249 164.734 103.2 164.731 99.6482 163.393C97.6663 162.646 94.0565 161.206 91.6271 160.194C88.3052 158.809 87.2096 158.083 87.2096 157.266C87.2096 156.669 87.4023 156.206 87.6371 156.239C87.872 156.272 91.3991 157.676 95.4746 159.359ZM134.83 178.761C134.602 183.113 134.247 188.726 134.04 191.234C133.665 195.794 133.665 195.794 131.237 195.97C129.625 196.086 128.713 195.894 128.522 195.398C128.364 194.986 128.458 189.58 128.729 183.383C129 177.186 129.325 172.017 129.449 171.896C129.573 171.775 130.927 171.49 132.459 171.262L135.244 170.847L134.83 178.761ZM64.6576 182.201C65.8916 182.646 68.2001 183.201 69.7876 183.435C72.4102 183.821 72.6638 183.989 72.5555 185.267C72.49 186.041 72.262 188.342 72.0488 190.379C71.835 192.417 71.338 194.726 70.9436 195.509C70.5183 196.354 67.8228 198.352 64.3253 200.415C61.0803 202.329 56.7078 204.844 54.6091 206.004C52.5103 207.163 49.4323 208.594 47.7691 209.183C46.0562 209.789 44.5263 210.039 44.2408 209.759C43.9512 209.474 44.361 208.201 45.2063 206.758C46.014 205.379 48.64 201.738 51.0414 198.666C53.4434 195.593 56.5431 191.388 57.9299 189.32C59.3167 187.251 60.7417 184.592 61.0962 183.41C61.4502 182.227 61.892 181.289 62.0772 181.326C62.263 181.363 63.4241 181.756 64.6576 182.201ZM143.355 196.716C146.49 197.946 150.813 199.494 152.962 200.155C156.43 201.222 156.962 201.58 157.698 203.34C158.154 204.431 158.418 205.431 158.285 205.564C158.152 205.697 153.328 203.651 147.564 201.019C140.94 197.993 137.017 195.89 136.901 195.301C136.799 194.788 136.927 194.394 137.186 194.424C137.444 194.453 140.22 195.484 143.355 196.716ZM125.4 195.439C125.4 195.781 124.13 196.704 122.579 197.49C121.027 198.276 117.281 200.349 114.253 202.097C111.225 203.845 108.391 205.138 107.954 204.97C107.517 204.802 107.16 204.273 107.16 203.792C107.16 203.312 107.238 202.919 107.334 202.919C107.43 202.919 111.213 201.232 115.742 199.17C120.27 197.108 124.295 195.285 124.687 195.119C125.079 194.953 125.4 195.097 125.4 195.439ZM139.447 199.696C141.283 200.631 146.889 203.292 151.905 205.609C156.921 207.926 162.349 210.618 163.966 211.591C165.585 212.563 167.195 213.989 167.547 214.76C167.898 215.53 168.032 216.644 167.844 217.235C167.656 217.826 167.058 218.309 166.513 218.309C165.968 218.309 164.254 217.497 162.704 216.504C161.153 215.511 154.343 211.822 147.57 208.307C140.797 204.791 134.577 201.47 133.747 200.926C132.918 200.383 132.24 199.774 132.24 199.574C132.24 199.373 133.111 198.936 134.175 198.603C135.874 198.071 136.518 198.204 139.447 199.696ZM128.425 198.758C129.011 198.911 129.376 199.434 129.272 199.973C129.17 200.503 126.58 202.26 123.397 203.959C120.266 205.63 114.424 209.068 110.414 211.599C104.458 215.358 102.605 216.251 100.296 216.473C98.6592 216.63 97.4696 216.511 97.4696 216.19C97.4696 215.885 97.9182 215.238 98.4671 214.753C99.0161 214.266 101.901 212.396 104.88 210.596C107.858 208.796 113.837 205.307 118.167 202.841C122.498 200.377 126.345 198.389 126.717 198.426C127.09 198.462 127.858 198.612 128.425 198.758Z" fill="#1C1C1C"/>
</svg>
