<svg width="74" height="75" viewBox="0 0 74 75" fill="none" xmlns="http://www.w3.org/2000/svg">
<path fill-rule="evenodd" clip-rule="evenodd" d="M15.0825 16.3273C19.1996 3.85876 32.6456 -2.91175 45.1142 1.20532C57.5827 5.32239 64.3532 18.7685 60.2361 31.237C58.84 35.4698 56.3591 39.0518 53.2087 41.7723C52.6784 42.2308 52.1312 42.6625 51.5669 43.0673C51.5004 43.1179 51.4353 43.1635 51.3938 43.1925C50.3088 43.986 43.6887 49.0276 39.2138 56.6924L38.6015 57.741L37.4484 57.3605L32.0456 55.5779L32.1181 55.621L30.1382 54.9485L18.0165 50.9489C17.0995 50.9429 16.2396 51.5183 15.9292 52.4345C15.5396 53.5847 16.1548 54.8296 17.2979 55.2169L17.299 55.2172L35.5755 61.4245L35.5779 61.4253C36.7198 61.8152 37.9614 61.2049 38.3511 60.0514L38.3519 60.0491C38.4256 59.8321 38.4632 59.6115 38.4679 59.3937L41.1929 61.0128C40.2737 63.7313 37.3293 65.1929 34.6093 64.2647L34.6084 64.2644L21.6139 59.851L21.1773 59.7991L16.3081 58.1467L16.3078 58.1466C15.3756 57.831 14.3812 58.1754 13.8317 58.9258L10.6848 58.5517C11.1565 57.1603 12.16 56.1022 13.3911 55.5238C12.7673 54.3137 12.6172 52.8613 13.0878 51.472C13.6985 49.6693 15.2028 48.4247 16.9372 48.0593C17.5752 39.7315 15.4515 32.4092 15.0736 31.1997C15.059 31.1552 15.0468 31.1151 15.0391 31.0897L15.039 31.0896L15.0378 31.0855C15.0279 31.053 15.0243 31.0414 15.021 31.0316L15.0175 31.0209L15.0175 31.0209C14.798 30.3456 14.6139 29.6639 14.4587 28.9878L14.4574 28.9823C13.541 24.9196 13.6811 20.5655 15.0825 16.3273ZM13.8317 58.9258L21.1773 59.7991L34.5838 64.3486L34.5846 64.3488C35.7271 64.7358 36.3422 65.9797 35.9538 67.1294C35.5608 68.2773 34.3181 68.8882 33.1713 68.4999L33.1709 68.4998L14.8956 62.2929L14.8945 62.2925C13.7499 61.9048 13.1372 60.6594 13.5254 59.5166L13.5258 59.5154C13.5991 59.2989 13.7032 59.1013 13.8317 58.9258ZM38.4679 59.3937L32.1181 55.621L36.9817 57.2728L36.9828 57.2732C37.9101 57.5873 38.4883 58.4644 38.4679 59.3937ZM31.1499 52.1233L26.3152 50.528L30.1927 38.777L32.6071 39.5739L32.6064 39.5761L35.0266 40.375L31.1499 52.1233ZM33.9989 53.0633L37.2529 54.137C42.0207 46.5016 48.5259 41.5717 49.6371 40.7606L49.6491 40.7519L49.6612 40.7434C49.7209 40.7016 49.7406 40.6874 49.7523 40.6783L49.7759 40.66L49.8002 40.6426C50.2963 40.2875 50.7784 39.9077 51.2466 39.5029L51.2473 39.5023C54.0002 37.1252 56.1665 33.9979 57.3872 30.2968L57.3874 30.2963C60.985 19.4011 55.0687 7.6516 44.1735 4.05404C33.2783 0.456464 21.5288 6.37272 17.9312 17.2679L17.931 17.2686C16.7056 20.9742 16.5838 24.7731 17.3833 28.3194C17.5207 28.9179 17.6813 29.5108 17.8692 30.0893C17.8851 30.1374 17.8984 30.1812 17.9067 30.2082L17.9079 30.2123C17.9178 30.2448 17.9214 30.2564 17.9246 30.2662L17.929 30.2791L17.933 30.2921C18.3439 31.6036 20.6259 39.4182 19.9217 48.3744L20.0884 48.4735L23.4663 49.588L27.3439 37.8366L25.62 37.2676L25.6184 37.2671C23.0988 36.4323 21.7193 33.7128 22.5571 31.1844C23.3919 28.6648 26.1114 27.2853 28.6398 28.123C31.159 28.9577 32.5385 31.6766 31.7015 34.2047L31.7011 34.2057L31.1328 35.9281L33.5527 36.7269L33.552 36.729L35.9666 37.5261L36.5353 35.8028L36.5359 35.801C37.372 33.2774 40.0926 31.9103 42.6147 32.7384L42.6186 32.7397C45.1421 33.5758 46.5092 36.2964 45.6812 38.8185L45.6799 38.8224C44.8438 41.3459 42.1232 42.713 39.6011 41.885L39.5988 41.8842L37.8754 41.3154L33.9989 53.0633ZM15.8953 62.7224L14.0274 62.0884L13.9156 64.0578C13.6582 68.5932 16.4509 72.9121 20.9717 74.4068L20.9729 74.4072C25.4353 75.8783 30.181 74.1298 32.7039 70.4374L33.8186 68.8058L31.9475 68.1707L15.8953 62.7224ZM21.9129 71.5583C19.4109 70.7309 17.6551 68.6832 17.0926 66.2968L28.8189 70.277C26.9505 71.8009 24.3687 72.3676 21.9129 71.5583ZM28.284 34.9877L28.8528 33.2639L28.8534 33.2622C29.1671 32.3153 28.6519 31.2874 27.6962 30.9708C26.7494 30.6571 25.7215 31.1722 25.4048 32.1279C25.0912 33.0745 25.606 34.1021 26.5611 34.419L26.562 34.4193L28.284 34.9877ZM39.3836 36.7446L39.3838 36.7439C39.6992 35.7933 40.7246 35.2765 41.677 35.5881C42.6268 35.9039 43.1429 36.9289 42.8315 37.8809C42.5155 38.831 41.49 39.3471 40.5378 39.035L40.5369 39.0347L38.8154 38.4664L39.3836 36.7446ZM61.5289 36.3794C61.789 35.5929 62.6375 35.1661 63.424 35.4262L69.3278 37.3784C70.1143 37.6385 70.5411 38.4869 70.281 39.2735C70.0209 40.06 69.1724 40.4868 68.3859 40.2267L62.4821 38.2745C61.6956 38.0144 61.2688 37.166 61.5289 36.3794ZM72.0334 29.969C72.8526 29.8456 73.4167 29.0815 73.2933 28.2623C73.1699 27.4431 72.4058 26.8791 71.5866 27.0025L65.4368 27.9289C64.6177 28.0523 64.0536 28.8164 64.177 29.6356C64.3004 30.4547 65.0645 31.0188 65.8837 30.8954L72.0334 29.969ZM57.7663 42.1654C58.3535 41.581 59.3032 41.5833 59.8876 42.1705L64.2735 46.5773C64.8579 47.1645 64.8557 48.1142 64.2685 48.6986C63.6813 49.283 62.7316 49.2808 62.1472 48.6936L57.7612 44.2867C57.1769 43.6995 57.1791 42.7498 57.7663 42.1654ZM2.68679 15.38C1.90004 15.1206 1.05193 15.548 0.792465 16.3348C0.533005 17.1215 0.960456 17.9696 1.7472 18.2291L7.65093 20.1761C8.43768 20.4355 9.2858 20.0081 9.54525 19.2213C9.80472 18.4346 9.37726 17.5865 8.59052 17.327L2.68679 15.38ZM4.93317 5.6921C5.52035 5.10771 6.47009 5.10998 7.05448 5.69716L11.4404 10.104C12.0248 10.6912 12.0225 11.641 11.4353 12.2254C10.8481 12.8097 9.8984 12.8075 9.31401 12.2203L4.92811 7.81342C4.34372 7.22623 4.34598 6.27649 4.93317 5.6921ZM7.86832 27.8187C8.68749 27.6952 9.25144 26.931 9.12793 26.1118C9.00443 25.2927 8.24024 24.7287 7.42108 24.8522L1.27658 25.7786C0.457415 25.9021 -0.106535 26.6663 0.0169681 27.4855C0.140471 28.3046 0.904658 28.8686 1.72383 28.7451L7.86832 27.8187Z" fill="#2B73B1"/>
</svg>
