<svg width="88" height="78" viewBox="0 0 88 78" fill="none" xmlns="http://www.w3.org/2000/svg">
<path fill-rule="evenodd" clip-rule="evenodd" d="M7.91715 29.5158C5.20476 30.8348 4.07541 34.098 5.39245 36.8071L5.39264 36.8075L19.116 65.0517L79.8793 35.5366L66.1563 7.29319C64.8374 4.58038 61.574 3.45078 58.8647 4.76791L58.8641 4.76819L7.91773 29.5155L7.91715 29.5158ZM18.3494 72.6268L16.4257 68.6676C16.4137 68.645 16.402 68.6221 16.3908 68.5989C16.3796 68.5759 16.3688 68.5527 16.3586 68.5294L1.79503 38.5559L1.79484 38.5556C-0.48958 33.856 1.47287 28.2011 6.16884 25.9181L6.16942 25.9178L57.1158 1.17049L57.1164 1.17021C61.8159 -1.11407 67.4708 0.848399 69.7537 5.54431L69.7539 5.5447L86.3085 39.616L86.3095 39.6181C88.5841 44.3135 86.6298 49.9726 81.9339 52.2537L65.4814 60.2455L67.0633 63.5019L70.4969 61.834C71.4905 61.3513 72.6872 61.7655 73.1698 62.7591C73.6524 63.7526 73.2382 64.9493 72.2447 65.4319L47.3348 77.5321C46.3412 78.0147 45.1446 77.6005 44.6619 76.6069C44.1793 75.6134 44.5935 74.4167 45.587 73.9341L49.0357 72.2589L47.4538 69.0025L30.9875 77.001L30.9869 77.0013C26.2874 79.2856 20.6326 77.3231 18.3496 72.6272L18.3494 72.6268ZM81.6274 39.1344L20.8641 68.6495L21.9471 70.8783C23.2659 73.5911 26.5293 74.7207 29.2386 73.4036L29.2392 73.4033L80.1862 48.6557C82.8923 47.3412 84.0238 44.0751 82.7098 41.3623L82.7097 41.362L81.6274 39.1344ZM53.6529 58.8521C54.5773 58.4034 54.9639 57.2869 54.5152 56.3625C54.0665 55.4381 52.9501 55.0515 52.0256 55.5002C51.1012 55.9489 50.7147 57.0653 51.1633 57.9897C51.612 58.9142 52.7285 59.3007 53.6529 58.8521ZM51.0541 67.2592L52.4682 70.1702L63.2995 64.9085L61.8853 61.9974L51.0541 67.2592Z" fill="#2B73B1"/>
</svg>
