<svg width="160" height="216" viewBox="0 0 160 216" fill="none" xmlns="http://www.w3.org/2000/svg">
<path fill-rule="evenodd" clip-rule="evenodd" d="M35.2654 1.6312C34.3249 2.04217 32.7403 3.06532 31.7439 3.90493C30.7475 4.74454 29.4941 6.5788 28.9589 7.98043C28.044 10.3761 28.0435 10.6811 28.9481 13.0494C29.477 14.4357 30.2608 15.8607 30.6888 16.2158C31.2719 16.6997 31.3905 17.8922 31.1597 20.9633C30.9334 23.9752 31.089 25.6322 31.7468 27.202C32.2392 28.3773 33.3365 30.2498 34.1852 31.3624C35.0345 32.4756 36.8437 34.0391 38.2066 34.8377C40.6838 36.2901 40.6838 36.29 40.5641 39.5123C40.4809 41.7655 40.8018 43.5233 41.6328 45.3576C42.5773 47.4415 43.373 48.2475 45.5077 49.2809C46.9851 49.9963 49.2606 50.6957 50.5647 50.8353C52.1254 51.0023 53.3247 50.7971 54.0754 50.2351C54.9361 49.5899 55.2023 48.7571 55.1623 46.8333C55.1105 44.3561 55.1692 44.2683 57.309 43.6271C58.5191 43.2646 60.3972 42.1884 61.4831 41.2348C62.5689 40.2818 64.2858 37.8188 65.2987 35.7611C66.8998 32.5087 67.1694 31.306 67.3643 26.5476C67.565 21.6524 67.7394 20.9137 69.0196 19.5503C69.9521 18.5568 70.5352 17.1677 70.6937 15.5603C70.8767 13.7066 70.6111 12.5336 69.6244 10.8344C68.9022 9.59182 67.1603 7.86358 65.7535 6.99376C64.3468 6.12394 61.7726 5.14981 60.0336 4.82833C57.5495 4.36948 56.2664 4.42648 54.0486 5.09452C52.2058 5.6497 50.1914 5.82355 48.2471 5.59555C46.0486 5.33734 45.1811 4.9714 44.9354 4.19734C44.7524 3.62107 43.9425 2.62927 43.1348 1.99429C42.184 1.24645 40.8405 0.847447 39.3209 0.861697C38.031 0.874237 36.2059 1.22023 35.2654 1.6312ZM25.4454 21.9164C23.5787 23.1629 20.8392 25.4783 19.3584 27.0617C17.8775 28.6446 15.8495 31.6645 14.8508 33.7724C13.0867 37.4962 13.0342 37.8296 13.0017 45.5845C12.9835 49.9735 12.9197 53.9914 12.8592 54.5124C12.7994 55.0339 11.1618 57.5989 9.21978 60.2124C7.27779 62.8264 4.91343 66.5035 3.96552 68.3845C2.45787 71.3758 2.23956 72.4121 2.2236 76.6495C2.20878 80.5534 2.48238 82.1591 3.63036 84.9145C4.79658 87.7137 5.04453 89.214 4.99608 93.1795C4.94763 97.1187 4.53837 99.25 2.80785 104.579C1.10925 109.81 0.681752 111.999 0.692582 115.409C0.701702 118.315 1.18677 121.327 2.20707 124.814C3.03243 127.636 4.72476 133.628 5.96679 138.13C7.20939 142.632 8.59506 147.029 9.0465 147.902C9.49794 148.774 10.7081 150.331 11.7363 151.36C12.764 152.39 15.4009 154.052 17.5954 155.055C19.7899 156.057 24.1504 157.527 27.2854 158.321C30.4204 159.115 34.7809 160.082 36.9754 160.47C39.4754 160.912 41.5433 161.657 42.5129 162.464C43.3645 163.173 45.0671 163.923 46.2966 164.13C47.5261 164.338 49.6009 164.22 50.9073 163.869C52.2565 163.505 54.4094 163.398 55.8925 163.62C57.3278 163.836 58.9506 164.46 59.4983 165.007C60.3317 165.841 60.5631 167.611 60.9165 175.861C61.2904 184.581 61.2334 185.795 60.4212 186.39C59.9156 186.759 56.1011 188.149 51.9441 189.48C47.7866 190.81 43.316 192.272 42.009 192.728C40.702 193.185 39.2041 194.213 38.6802 195.012C38.1564 195.811 37.6502 197.508 37.555 198.782C37.4143 200.672 37.0825 201.25 35.7539 201.923C34.8584 202.377 32.9477 203.489 31.5091 204.394C30.0698 205.3 28.5952 206.694 28.2316 207.492C27.8679 208.29 27.5704 209.78 27.5704 210.804C27.5704 211.888 28.0549 213.185 28.7326 213.912C29.3716 214.598 30.5161 215.159 31.2754 215.159C32.0346 215.159 35.6792 213.465 39.3756 211.395C43.0715 209.325 50.7927 205.19 56.5343 202.207L66.9739 196.784L73.3493 200.082C76.856 201.896 82.4118 205.192 85.6955 207.406C88.9793 209.62 92.9551 211.877 94.5305 212.422C96.106 212.967 98.1175 213.42 99.0005 213.431C99.8828 213.441 101.096 213.187 101.695 212.866C102.294 212.545 103.055 211.776 103.387 211.156C103.788 210.407 103.803 209.679 103.432 208.985C103.124 208.411 100.434 206.333 97.4524 204.367C92.0322 200.793 92.0322 200.793 93.203 199.21C94.135 197.949 94.2478 197.391 93.7565 196.473C93.4173 195.839 91.9171 194.724 90.4225 193.994C88.928 193.265 84.4991 191.372 80.5804 189.788C75.0895 187.567 73.306 186.584 72.8056 185.501C72.4476 184.727 71.9785 180.091 71.7625 175.197L71.3692 166.299L75.2623 165.99C77.4037 165.82 81.4587 164.999 84.274 164.164C87.0892 163.331 90.2344 162.249 91.2627 161.761C92.3771 161.232 93.2765 160.301 93.4886 159.457C93.6841 158.678 93.4065 156.464 92.8713 154.537C92.3366 152.611 90.9281 148.961 89.7414 146.427C88.5547 143.893 86.2992 139.917 84.7294 137.592C83.1596 135.267 80.7508 132.329 79.3754 131.064C78.0005 129.799 75.4464 127.946 73.6999 126.948C71.9534 125.949 68.2342 124.388 65.4349 123.477C62.6356 122.566 58.4741 121.489 56.1872 121.084C53.9004 120.679 51.9139 120.161 51.7726 119.933C51.6318 119.705 51.9954 118.927 52.5808 118.204C53.645 116.89 53.645 116.89 59.638 117.859C62.9337 118.393 67.1346 118.829 68.9729 118.828C71.0283 118.828 73.0678 118.444 74.2699 117.831C75.3449 117.283 76.7209 116.157 77.3274 115.329C78.0655 114.321 78.4451 112.835 78.4753 110.835C78.513 108.324 78.2981 107.666 77.1296 106.72C76.3646 106.101 74.3275 104.883 72.6021 104.015C70.8767 103.146 66.9214 101.623 63.8127 100.629C60.7039 99.6359 55.0683 98.2981 51.2898 97.6562C46.2287 96.7967 42.6138 96.5413 37.5625 96.6867C31.431 96.8634 30.3617 97.0532 27.4575 98.4793C25.4061 99.4871 23.7787 100.771 23.04 101.967C22.3965 103.007 21.8704 104.803 21.8704 105.958C21.8704 107.112 22.2483 108.787 22.71 109.679C23.1814 110.591 24.6183 111.812 25.9875 112.463C27.3281 113.101 29.9644 113.898 31.8454 114.234C33.8073 114.584 35.5692 115.254 35.9779 115.806C36.37 116.335 36.6904 117.098 36.6904 117.503C36.6904 118.057 36.0246 118.137 33.9829 117.829C32.494 117.604 27.9409 117.416 23.8654 117.412C18.044 117.406 16.0581 117.609 14.6029 118.358C12.7504 119.312 12.7504 119.312 12.7504 116.32C12.7504 114.675 13.2634 110.527 13.8898 107.102C14.5168 103.677 15.3929 99.348 15.8369 97.4818C16.5186 94.6164 16.5238 93.9176 15.8688 92.9828C15.1295 91.9277 15.0771 91.9534 14.7459 93.5249C14.555 94.4323 13.7792 97.483 13.0217 100.304C12.2647 103.126 11.3487 107.358 10.9868 109.709C10.6094 112.163 10.4812 116.049 10.6858 118.829C10.8825 121.494 11.5232 125.47 12.1103 127.664C12.6968 129.859 14.616 136.382 16.375 142.161C18.134 147.939 19.465 152.775 19.3333 152.907C19.2011 153.039 17.6729 152.496 15.9367 151.701C13.8955 150.767 12.3861 149.608 11.6645 148.422C11.0506 147.412 10.0047 144.509 9.33948 141.97C8.67486 139.432 6.94662 133.25 5.49996 128.234C3.55854 121.505 2.87169 118.143 2.88081 115.409C2.88879 112.864 3.47247 109.831 4.74471 105.719C6.07509 101.422 6.68214 98.175 6.89874 94.2021C7.1655 89.3143 7.02528 88.1087 5.7006 83.8588C4.87524 81.2123 4.20036 77.8026 4.20093 76.2812C4.20093 74.378 4.74756 72.3585 5.95197 69.8095C6.9147 67.7717 9.11661 64.224 10.8448 61.9258C12.5731 59.627 14.3395 56.9041 14.7693 55.8747C15.3319 54.5295 15.5183 51.6943 15.4334 45.8033C15.3194 37.894 15.3718 37.4836 16.9125 34.1845C17.7914 32.3035 19.4587 29.7698 20.6175 28.5546C21.7769 27.3388 24.4565 25.2104 26.5729 23.8241C28.6893 22.4385 30.4204 20.932 30.4204 20.4771C30.4204 20.0217 30.0647 19.6495 29.6303 19.6495C29.196 19.6495 27.3127 20.6698 25.4454 21.9164ZM49.1808 22.6049C48.1109 24.2585 46.6243 25.9132 45.8771 26.2831C44.8129 26.8098 44.0445 26.7881 42.3294 26.1828C40.9551 25.6983 40.0123 25.6174 39.7969 25.9656C39.6082 26.2712 40.2785 27.2915 41.2868 28.2337C43.1205 29.9465 43.1205 29.9465 42.7278 36.1498C42.4234 40.9618 42.5192 42.7943 43.1547 44.3151C43.739 45.7144 44.72 46.6378 46.5759 47.5361C48.1069 48.2771 49.9508 48.7212 51.0566 48.6152C52.8328 48.4442 52.9354 48.3119 52.9354 46.1909C52.9354 44.1042 52.7957 43.9109 50.9404 43.435C49.8431 43.1534 48.1115 42.2904 47.0929 41.5169C46.0743 40.744 45.2404 39.7397 45.2404 39.2854C45.2404 38.8311 45.3726 38.4595 45.5339 38.4595C45.6952 38.4595 47.2319 39.2523 48.9488 40.2208C51.0167 41.3881 52.8892 41.9946 54.4977 42.0191C55.8332 42.0391 57.7125 41.6492 58.673 41.1521C59.634 40.6551 61.1342 39.2187 62.0063 37.9601C62.8784 36.7016 63.9443 34.6502 64.3747 33.4007C64.805 32.1518 65.3294 29.0602 65.5403 26.5299C65.9245 21.9295 65.9245 21.9295 64.4043 21.9295C62.9292 21.9295 62.9109 21.9705 63.783 23.3015C64.4066 24.2534 64.4904 24.7926 64.0566 25.0605C63.7124 25.2737 63.0603 25.1403 62.6077 24.7646C62.1551 24.389 61.4221 24.2214 60.9786 24.3913C60.5346 24.5617 60.0205 24.5498 59.8358 24.3651C59.6511 24.1804 59.7862 23.6851 60.135 23.2644C60.6275 22.671 60.53 22.4955 59.7024 22.4807C59.1159 22.4704 57.3529 21.9967 55.7854 21.4279C54.2179 20.859 52.5284 20.2149 52.0308 19.996C51.3622 19.7025 50.6194 20.3825 49.1808 22.6049ZM50.4975 22.817C49.8004 23.3049 49.2304 24.0744 49.2304 24.527C49.2304 24.9795 49.4715 25.3495 49.7667 25.3495C50.062 25.3495 50.4616 25.093 50.6554 24.7795C50.8492 24.466 51.89 24.2095 52.969 24.2095C54.048 24.2095 54.9304 23.9621 54.9304 23.6594C54.9304 23.3573 54.4345 22.8443 53.828 22.5194C53.2215 22.1951 52.509 21.9295 52.2445 21.9295C51.98 21.9295 51.194 22.329 50.4975 22.817ZM27.9779 28.0803C26.8459 29.2431 25.2163 31.7335 24.3556 33.6145C23.0172 36.5414 22.755 37.9784 22.539 43.5803C22.3172 49.3288 22.3902 50.0407 23.1346 49.4228C23.7194 48.9378 24.0899 47.0796 24.3282 43.4464C24.518 40.5468 24.982 37.2174 25.3593 36.0472C25.7367 34.877 26.7393 33.0889 27.5869 32.0732C29.1282 30.227 29.1282 30.227 30.4375 32.7754C31.1574 34.1776 32.1686 36.7346 32.6844 38.4583C33.2812 40.4522 33.9732 41.6594 34.5865 41.7774C35.2209 41.8994 35.5504 41.5899 35.5504 40.8706C35.5504 40.2698 35.0425 38.301 34.4212 36.4958C33.8005 34.6912 32.7163 32.2824 32.0129 31.1441C31.309 30.0052 30.8063 28.517 30.8957 27.8364C30.9847 27.1552 30.8279 26.4564 30.5469 26.2826C30.2653 26.1087 29.1094 26.9181 27.9779 28.0803ZM51.1946 27.1091C50.9843 27.4499 51.0971 28.0142 51.4459 28.3631C51.9116 28.8287 52.2491 28.8287 52.7148 28.3631C53.0636 28.0142 53.1765 27.4499 52.9661 27.1091C52.7552 26.7682 52.3568 26.4895 52.0804 26.4895C51.8039 26.4895 51.4055 26.7682 51.1946 27.1091ZM60.8846 27.6791C60.6743 28.0199 60.7871 28.5842 61.1359 28.9331C61.6016 29.3987 61.9391 29.3987 62.4048 28.9331C62.7536 28.5842 62.8665 28.0199 62.6561 27.6791C62.4452 27.3382 62.0468 27.0595 61.7704 27.0595C61.4939 27.0595 61.0955 27.3382 60.8846 27.6791ZM57.2104 29.8485C57.2104 30.818 56.8433 31.6383 56.3195 31.8395C55.8293 32.0276 55.5876 32.4397 55.7831 32.7555C55.978 33.0713 56.4984 33.3295 56.939 33.3295C57.3797 33.3295 58.0277 32.7925 58.3789 32.1365C58.73 31.4804 58.8622 30.3261 58.673 29.5715C58.4837 28.8168 58.0768 28.1995 57.7695 28.1995C57.4617 28.1995 57.2104 28.9416 57.2104 29.8485ZM50.3704 33.6145C50.3704 34.0847 50.8834 34.9825 51.5104 35.6095C52.1374 36.2365 53.148 36.7495 53.7567 36.7495C54.3655 36.7495 55.0221 36.4924 55.2159 36.1783C55.4103 35.8643 54.9059 35.3552 54.0953 35.0469C53.2842 34.7385 52.472 34.0978 52.2896 33.623C52.1077 33.1482 51.601 32.7595 51.1644 32.7595C50.7278 32.7595 50.3704 33.1442 50.3704 33.6145ZM99.6754 54.4548C93.7189 55.385 86.7449 56.3814 84.1776 56.6693C81.6104 56.9571 79.0425 57.4422 78.4714 57.7483C77.9002 58.0538 76.9449 58.8432 76.3481 59.5022C75.4344 60.5116 75.2218 61.8654 74.9966 68.1052C74.7293 75.5095 74.7293 75.5095 72.8534 75.5095C71.6638 75.5095 70.3318 76.0533 69.2111 76.996C68.2399 77.8134 67.1831 78.9716 66.8627 79.5696C66.4164 80.4035 66.4883 80.7358 67.1705 80.9974C67.7274 81.2112 68.4986 80.7808 69.2339 79.8455C69.8803 79.0241 70.9115 78.083 71.5259 77.7541C72.1404 77.4252 73.147 77.3158 73.762 77.5113C74.377 77.7068 74.8804 78.1052 74.8804 78.3977C74.8804 78.6901 74.0225 78.9295 72.9737 78.9295C71.8155 78.9295 70.6772 79.3604 70.0736 80.0273C69.5275 80.6309 69.1673 81.5532 69.2727 82.0764C69.4443 82.9235 69.6318 82.8972 70.9804 81.8336C71.8132 81.177 73.0319 80.6395 73.6879 80.6395C74.4209 80.6395 74.8804 81.0054 74.8804 81.5897C74.8804 82.1118 74.7304 82.3894 74.5469 82.2058C74.3634 82.0229 73.4861 82.126 72.5975 82.4361C71.7089 82.7456 70.8271 83.4028 70.6379 83.8959C70.4486 84.3889 70.4395 84.9384 70.6179 85.1168C70.7963 85.2952 71.4398 85.1305 72.0486 84.7503C72.6568 84.3701 73.4149 84.0595 73.7324 84.0595C74.0504 84.0595 74.3104 84.288 74.3104 84.5679C74.3104 84.8472 73.6765 85.2348 72.9019 85.4292C72.1273 85.6241 71.2289 86.2773 70.9052 86.8815C70.4971 87.6442 70.5028 88.0951 70.9246 88.3556C71.2586 88.5625 71.9853 88.3214 72.5388 87.8203C73.0923 87.3193 73.7318 86.9095 73.9604 86.9095C74.1889 86.9095 74.2972 87.9993 74.2003 89.332C74.051 91.4034 73.8247 91.783 72.6408 91.95C71.8793 92.0577 70.7416 92.7993 70.1134 93.5984C69.4847 94.3976 67.4145 96.0386 65.513 97.2447C62.9075 98.8983 62.3746 99.4398 63.3498 99.4438C64.0623 99.4472 65.6013 98.8162 66.771 98.0427C68.1589 97.1239 70.3608 96.4279 73.1134 96.0375C75.4327 95.7086 77.406 95.5148 77.4984 95.6071C77.5907 95.6994 75.1158 96.6388 71.9984 97.6939C68.8811 98.7489 66.3304 99.8137 66.3304 100.059C66.3304 100.305 66.779 100.593 67.3279 100.699C67.8768 100.805 70.3774 100.165 72.8854 99.2756C75.3934 98.3864 79.6256 97.1182 82.2904 96.4575C86.0894 95.5153 88.8585 95.2605 95.1154 95.2776C100.222 95.2913 104.589 95.6253 107.243 96.2067C109.523 96.7055 112.716 97.8318 114.338 98.7096C115.959 99.5868 118.752 101.658 120.544 103.313C122.336 104.967 124.627 107.606 125.634 109.177C126.642 110.747 127.345 112.154 127.197 112.303C127.048 112.452 125.689 112.026 124.176 111.357C121.964 110.378 120.692 110.196 117.676 110.423C115.471 110.59 112.291 111.368 109.958 112.312C107.776 113.194 102.004 116.614 97.1326 119.911C92.0408 123.356 86.3944 126.671 83.851 127.707C80.1768 129.203 79.5692 129.627 80.2663 130.206C80.9281 130.755 81.5636 130.754 83.2656 130.204C84.4535 129.82 86.3773 129.027 87.5401 128.443C88.7034 127.858 90.7554 127.382 92.1001 127.386C93.4453 127.39 95.9082 127.756 97.5738 128.199C99.2393 128.643 101.214 129.406 101.963 129.897C102.712 130.388 103.997 131.497 104.817 132.362C105.638 133.227 106.965 135.206 107.765 136.761C108.565 138.315 109.69 141.906 110.264 144.741C110.838 147.575 111.582 153.742 111.917 158.444C112.251 163.147 112.805 168.405 113.147 170.129C113.49 171.854 114.143 173.99 114.599 174.877C115.053 175.764 116.298 176.854 117.365 177.299C118.431 177.745 120.077 178.109 121.021 178.109C122.334 178.109 122.809 178.412 123.037 179.392C123.202 180.098 123.564 182.805 123.843 185.408C124.192 188.657 124.683 190.517 125.408 191.336C125.989 191.993 130.313 195.093 135.015 198.226C139.718 201.359 144.848 204.524 146.415 205.26C147.983 205.996 150.341 206.601 151.655 206.604C153.483 206.608 154.255 206.311 154.933 205.342C155.421 204.646 155.82 203.484 155.82 202.759C155.82 202.035 155.474 200.618 155.05 199.609C154.626 198.6 151.431 194.312 147.95 190.079C144.468 185.847 140.967 181.054 140.17 179.428C139.372 177.802 138.72 175.951 138.72 175.315C138.72 174.68 139.207 173.899 139.801 173.581C140.394 173.264 141.164 172.191 141.51 171.197C141.857 170.202 142.14 168.53 142.14 167.48C142.14 166.429 142.238 165.569 142.356 165.569C142.476 165.569 144.064 166.252 145.886 167.086C148.176 168.135 150.212 168.617 152.476 168.648C154.961 168.682 156.14 168.404 157.354 167.498C158.235 166.841 159.042 165.862 159.149 165.322C159.255 164.781 159.195 163.756 159.016 163.043C158.837 162.33 156.4 159.799 153.6 157.417C150.8 155.036 147.332 151.437 145.892 149.42C144.453 147.402 142.768 144.608 142.15 143.209C141.532 141.811 140.128 137.295 139.03 133.174C137.934 129.054 136.36 124.332 135.535 122.683C134.709 121.034 133.474 118.915 132.79 117.974C132.106 117.034 130.812 114.507 129.914 112.359C129.017 110.211 127.205 106.989 125.887 105.199C124.569 103.409 122.237 101.042 120.703 99.9397C119.17 98.8367 116.946 97.3524 115.762 96.6405C114.422 95.8357 110.978 94.8627 106.642 94.0647L99.6754 92.7822L107.501 92.0412C112.804 91.5396 115.845 90.985 116.935 90.3221C117.934 89.715 118.795 88.5038 119.207 87.1295C119.572 85.9114 120.565 80.8105 121.413 75.7945C122.262 70.7785 122.976 64.3078 123.001 61.4156C123.043 56.4014 122.972 56.0833 121.465 54.5756C120.02 53.129 119.485 52.9848 115.195 52.8788C112.258 52.8064 106.457 53.3952 99.6754 54.4548ZM109.365 55.5794C107.171 55.8564 99.3915 56.96 92.0784 58.0316C84.7653 59.1032 78.5358 60.2261 78.2354 60.5264C77.935 60.8268 77.422 66.4368 77.0948 72.9935C76.7682 79.5502 76.6707 86.7738 76.8793 89.047C77.2578 93.1795 77.2578 93.1795 79.6313 93.1698C80.9372 93.1641 84.4421 92.9133 87.4204 92.6123C90.3986 92.3108 96.9394 91.5287 101.955 90.8738C106.971 90.2189 112.229 89.5058 113.64 89.2887C116.005 88.9244 116.262 88.7175 116.956 86.6193C117.37 85.3682 118.457 79.8557 119.372 74.3695C120.288 68.8832 121.04 62.831 121.044 60.9203C121.049 58.2493 120.805 57.2239 119.988 56.4851C119.405 55.9568 117.673 55.4232 116.141 55.3001C114.609 55.177 111.56 55.3024 109.365 55.5794ZM99.6611 63.324C98.899 64.1459 98.1136 65.6827 97.9158 66.7394C97.7174 67.7962 97.6957 69.0274 97.8679 69.476C98.0588 69.9736 98.6345 70.172 99.347 69.9862C99.9889 69.818 101.416 68.6832 102.517 67.4633C103.869 65.9671 104.52 64.6909 104.52 63.5378C104.52 62.0136 104.333 61.8295 102.783 61.8295C101.641 61.8295 100.572 62.3413 99.6611 63.324ZM100.752 64.9821C100.231 65.7756 99.9718 66.5907 100.174 66.793C100.376 66.9954 100.916 66.6671 101.373 66.0629C101.83 65.4587 102.212 64.6441 102.222 64.252C102.232 63.8604 102.118 63.5395 101.968 63.5395C101.819 63.5395 101.271 64.1887 100.752 64.9821ZM93.3484 73.4575C91.7649 75.0409 91.4104 75.8298 91.4104 77.7701C91.4104 79.076 91.6743 80.6378 91.9975 81.2408C92.3201 81.8444 93.3335 82.7251 94.249 83.1988C95.1644 83.6719 96.8368 84.0595 97.9654 84.0595C99.094 84.0595 100.742 83.6844 101.629 83.2256C102.517 82.7667 103.393 81.9978 103.578 81.5167C103.788 80.9689 103.387 80.2969 102.507 79.7201C101.734 79.2133 101.1 78.3441 101.1 77.7895C101.1 77.2349 101.742 76.3605 102.525 75.8469C103.309 75.3333 103.95 74.541 103.95 74.0862C103.95 73.6308 103.193 72.8675 102.269 72.3893C101.344 71.9111 99.3943 71.5195 97.9369 71.5195C95.6825 71.5195 94.9968 71.809 93.3484 73.4575ZM95.9065 74.0845C95.0874 74.5291 94.1144 75.6263 93.7434 76.5218C93.2629 77.6812 93.2378 78.5932 93.6544 79.6898C93.9765 80.5369 94.9022 81.4819 95.7121 81.7897C96.5221 82.0975 97.7448 82.3455 98.4299 82.3409C99.1151 82.3358 100.026 82.1095 100.455 81.8382C101.084 81.4392 101.002 81.1114 100.028 80.1367C99.3636 79.4727 98.8204 78.5795 98.8204 78.1514C98.8204 77.7234 99.3715 76.6723 100.046 75.8156C101.057 74.5296 101.132 74.1688 100.473 73.7522C100.034 73.474 99.1624 73.2534 98.5354 73.2608C97.9084 73.2688 96.7256 73.6393 95.9065 74.0845ZM120.309 85.7946C120.096 86.6079 120.658 86.9083 123.402 87.4481C125.33 87.8277 127.416 88.6765 128.312 89.4471C129.57 90.5295 129.857 91.2398 129.807 93.1458C129.773 94.4432 129.607 95.6436 129.437 95.8134C129.267 95.9833 125.771 95.7644 121.669 95.3267C117.567 94.8895 114.21 94.6894 114.21 94.8821C114.21 95.0747 115.398 95.8095 116.849 96.514C118.785 97.455 120.961 97.886 125.025 98.1333C130.382 98.4599 130.593 98.4269 131.506 97.1233C132.05 96.3481 132.45 94.6734 132.45 93.1795C132.45 91.7454 132.051 90.0126 131.558 89.3086C131.067 88.6075 129.707 87.5456 128.537 86.9482C127.366 86.3509 125.094 85.6236 123.488 85.3317C120.925 84.866 120.537 84.9225 120.309 85.7946ZM34.9023 98.855C33.1353 99.0915 30.4928 99.8644 29.0301 100.572C27.5681 101.28 25.9829 102.452 25.5087 103.176C25.0059 103.943 24.7209 105.401 24.8258 106.674C24.9814 108.563 25.2961 108.996 27.185 109.919C28.3838 110.505 32.103 111.45 35.45 112.02C38.7971 112.59 47.3095 113.714 54.3666 114.518C61.4238 115.322 68.7671 115.979 70.6846 115.979C72.7919 115.979 74.3947 115.698 74.7361 115.267C75.0474 114.875 75.6151 113.583 75.9976 112.395C76.5915 110.551 76.5539 110.024 75.7393 108.78C75.215 107.98 73.4599 106.739 71.8406 106.023C70.2206 105.308 66.4278 103.932 63.412 102.967C60.3955 102.001 55.3938 100.709 52.297 100.095C49.1996 99.4814 44.7416 98.8544 42.3904 98.7016C40.0391 98.5489 36.6693 98.6178 34.9023 98.855ZM113.566 113.648C111.8 114.212 108.106 115.871 105.356 117.334C102.606 118.797 98.679 121.19 96.6287 122.654L92.9015 125.313L95.7184 125.97C97.2677 126.331 99.5414 127.057 100.771 127.585C102.001 128.112 104.07 129.414 105.369 130.479C106.668 131.543 108.542 133.937 109.534 135.798C110.526 137.659 111.73 140.873 112.21 142.94C112.689 145.007 113.334 151.105 113.643 156.489C113.952 161.874 114.489 167.336 114.836 168.627C115.184 169.918 115.975 171.686 116.594 172.555C117.214 173.425 118.521 174.551 119.499 175.057C120.85 175.755 122.25 175.903 125.308 175.672C127.838 175.481 131.24 174.658 134.456 173.461C139.575 171.554 139.575 171.554 139.763 168.704C139.867 167.137 139.663 161.622 139.31 156.449C138.957 151.277 138.287 144.351 137.819 141.059C137.352 137.768 136.468 133.049 135.856 130.574C135.244 128.099 133.924 124.296 132.922 122.123C131.72 119.515 130.241 117.415 128.568 115.943C127.175 114.716 125.106 113.455 123.97 113.139C122.834 112.824 120.751 112.578 119.34 112.593C117.93 112.608 115.331 113.083 113.566 113.648ZM38.6255 116.605C38.8472 117.358 39.5278 120.283 40.1371 123.104C40.8622 126.461 41.4425 132.472 41.8141 140.489C42.127 147.23 42.6543 154.068 42.9866 155.686C43.3235 157.328 44.1944 159.279 44.9582 160.103C45.9956 161.223 46.8831 161.579 48.633 161.579C50.9404 161.579 50.9404 161.579 50.9404 158.389C50.9404 156.634 50.4068 149.901 49.7548 143.427C49.0725 136.653 48.6507 129.099 48.7624 125.636C48.9043 121.223 49.2104 119.23 49.9098 118.162C50.864 116.706 50.864 116.706 46.7697 116.326C44.5176 116.117 41.6733 115.786 40.4484 115.591C38.3057 115.249 38.2368 115.287 38.6255 116.605ZM15.7429 120.599C13.9006 121.511 13.3204 122.126 13.3204 123.164C13.3204 123.915 13.6424 124.529 14.0369 124.529C14.4307 124.529 15.6488 124.256 16.7444 123.922C17.8393 123.588 20.5576 123.322 22.7846 123.33C25.0122 123.337 29.2325 123.867 32.1634 124.507C35.0938 125.146 37.5682 125.669 37.6611 125.669C37.754 125.669 37.8304 124.781 37.8304 123.694C37.8304 122.394 37.4901 121.54 36.8329 121.195C36.284 120.907 32.8719 120.384 29.2502 120.035C25.6284 119.686 21.6526 119.399 20.4152 119.4C19.1777 119.4 17.0755 119.94 15.7429 120.599ZM50.9404 125.892C50.9404 128.893 50.9404 128.893 55.8099 130.743C58.4877 131.76 62.2714 133.677 64.2174 135.002C66.38 136.473 68.9102 138.939 70.7251 141.342C72.3581 143.505 74.4785 146.867 75.4367 148.814C76.3954 150.76 77.5804 154.108 78.0706 156.253C78.5603 158.399 79.0744 160.731 79.2118 161.437C79.356 162.176 79.8798 162.719 80.447 162.719C80.9885 162.719 83.4389 162.051 85.8922 161.234C88.3455 160.417 90.4984 159.369 90.6762 158.905C90.854 158.441 90.573 156.525 90.0509 154.648C89.5288 152.771 88.1756 149.394 87.0436 147.145C85.9116 144.895 83.9439 141.515 82.6706 139.634C81.3972 137.753 79.0026 134.859 77.3502 133.202C75.4492 131.297 72.8187 129.465 70.1904 128.217C67.9053 127.132 63.6012 125.636 60.6252 124.893C57.6498 124.15 54.2538 123.396 53.0779 123.217C50.9404 122.891 50.9404 122.891 50.9404 125.892ZM16.8224 126.852C15.3593 127.501 14.4495 128.245 14.6069 128.664C14.7539 129.055 15.9196 132.965 17.1969 137.354C18.4749 141.743 20.08 147.3 20.764 149.704C21.7284 153.091 22.2802 154.149 23.2213 154.412C23.8893 154.599 27.9939 155.658 32.343 156.766C36.6921 157.873 40.368 158.662 40.5116 158.518C40.6559 158.374 40.3452 152.037 39.8225 144.434C39.2993 136.833 38.662 130.062 38.4061 129.39C38.0299 128.4 36.903 127.928 32.506 126.918C29.5169 126.231 25.324 125.688 23.1882 125.71C20.662 125.736 18.4378 126.135 16.8224 126.852ZM51.9094 139.742C52.3272 144.071 53.0214 150.514 53.4512 154.058C53.8816 157.603 54.3524 160.621 54.4977 160.767C54.6431 160.912 57.4292 161.546 60.6885 162.175C63.9483 162.804 68.5801 163.477 70.9821 163.67C73.3835 163.863 75.7411 163.87 76.2216 163.686C76.9837 163.393 76.9147 162.678 75.6784 158.048C74.8992 155.131 73.3129 150.821 72.1535 148.469C70.7405 145.605 68.8218 142.955 66.3355 140.436C63.7067 137.774 61.3793 136.076 58.3504 134.612C55.9991 133.475 53.417 132.393 52.6122 132.207C51.149 131.868 51.149 131.868 51.9094 139.742ZM141.202 152.047C141.439 156.895 141.839 159.456 142.64 161.269C143.373 162.926 144.394 164.111 145.644 164.758C146.965 165.441 148.813 165.724 151.753 165.693C154.072 165.669 156.221 165.397 156.53 165.088C156.899 164.718 156.825 164.148 156.314 163.424C155.886 162.819 153.92 160.917 151.945 159.198C149.972 157.479 147.58 155.132 146.631 153.981C145.683 152.83 143.999 150.414 142.89 148.611L140.874 145.334L141.202 152.047ZM102.525 153.359C96.7701 155.738 95.0743 156.681 94.9318 157.586C94.7511 158.734 94.8001 158.731 98.3518 157.393C100.334 156.646 103.944 155.206 106.373 154.194C109.695 152.809 110.79 152.083 110.79 151.266C110.79 150.669 110.598 150.206 110.363 150.239C110.128 150.272 106.601 151.676 102.525 153.359ZM63.1703 172.761C63.3977 177.113 63.7528 182.726 63.9597 185.234C64.3354 189.794 64.3354 189.794 66.763 189.97C68.375 190.086 69.287 189.894 69.4779 189.398C69.6358 188.986 69.5423 183.58 69.271 177.383C68.9997 171.186 68.6753 166.017 68.5511 165.896C68.4268 165.775 67.0725 165.49 65.5409 165.262L62.7565 164.847L63.1703 172.761ZM133.342 176.201C132.108 176.646 129.8 177.201 128.212 177.435C125.59 177.821 125.336 177.989 125.444 179.267C125.51 180.041 125.738 182.342 125.951 184.379C126.165 186.417 126.662 188.726 127.056 189.509C127.482 190.354 130.177 192.352 133.675 194.415C136.92 196.329 141.292 198.844 143.391 200.004C145.49 201.163 148.568 202.594 150.231 203.183C151.944 203.789 153.474 204.039 153.759 203.759C154.049 203.474 153.639 202.201 152.794 200.758C151.986 199.379 149.36 195.738 146.959 192.666C144.557 189.593 141.457 185.388 140.07 183.32C138.683 181.251 137.258 178.592 136.904 177.41C136.55 176.227 136.108 175.289 135.923 175.326C135.737 175.363 134.576 175.756 133.342 176.201ZM54.6454 190.716C51.5104 191.946 47.1869 193.494 45.038 194.155C41.5696 195.222 41.0378 195.58 40.3019 197.34C39.8465 198.431 39.582 199.431 39.7148 199.564C39.8476 199.697 44.6721 197.651 50.4359 195.019C57.0599 191.993 60.9832 189.89 61.0995 189.301C61.2009 188.788 61.0727 188.394 60.8145 188.424C60.5563 188.453 57.7804 189.484 54.6454 190.716ZM72.6004 189.439C72.6004 189.781 73.8698 190.704 75.4213 191.49C76.9728 192.276 80.7194 194.349 83.7467 196.097C86.7745 197.845 89.6086 199.138 90.0458 198.97C90.483 198.802 90.8404 198.273 90.8404 197.792C90.8404 197.312 90.7617 196.919 90.6659 196.919C90.5702 196.919 86.7865 195.232 82.2584 193.17C77.7304 191.108 73.705 189.285 73.3129 189.119C72.9213 188.953 72.6004 189.097 72.6004 189.439ZM58.5527 193.696C56.7173 194.631 51.1114 197.292 46.0954 199.609C41.0794 201.926 35.6512 204.618 34.0336 205.591C32.4154 206.563 30.8045 207.989 30.4534 208.76C30.1023 209.53 29.9684 210.644 30.1559 211.235C30.344 211.826 30.9425 212.309 31.4874 212.309C32.0318 212.309 33.7457 211.497 35.2961 210.504C36.8465 209.511 43.6569 205.822 50.4302 202.307C57.2029 198.791 63.4234 195.47 64.2527 194.926C65.0821 194.383 65.7604 193.774 65.7604 193.574C65.7604 193.373 64.8894 192.936 63.8252 192.603C62.126 192.071 61.4819 192.204 58.5527 193.696ZM69.5754 192.758C68.9894 192.911 68.624 193.434 68.7278 193.973C68.8298 194.503 71.4199 196.26 74.6028 197.959C77.7338 199.63 83.5763 203.068 87.5862 205.599C93.5416 209.358 95.3952 210.251 97.7037 210.473C99.3408 210.63 100.53 210.511 100.53 210.19C100.53 209.885 100.082 209.238 99.5329 208.753C98.9839 208.266 96.0986 206.396 93.1204 204.596C90.1421 202.796 84.1628 199.307 79.8325 196.841C75.5022 194.377 71.6547 192.389 71.2825 192.426C70.9103 192.462 70.1419 192.612 69.5754 192.758Z" fill="#1C1C1C"/>
</svg>
